<svg width="417" height="36" viewBox="0 0 417 36" fill="none" xmlns="http://www.w3.org/2000/svg">
<path d="M51.8545 15.2977C51.7445 15.5544 51.5428 15.8844 51.2495 16.2877C50.9928 16.6544 50.6995 17.0394 50.3695 17.4427C50.0395 17.8094 49.6728 18.1577 49.2695 18.4877C48.9028 18.8177 48.5545 19.056 48.2245 19.2027C47.3445 19.606 46.5011 19.771 45.6945 19.6977C44.8878 19.5877 44.0078 19.2027 43.0545 18.5427C41.9911 17.846 41.0195 17.2044 40.1395 16.6177C39.2961 16.031 38.5078 15.481 37.7745 14.9677C37.4078 14.821 37.0778 14.8394 36.7845 15.0227C35.7945 15.756 34.5661 16.3244 33.0995 16.7277C31.9261 17.131 30.7711 17.351 29.6345 17.3877C29.5611 17.3877 29.4695 17.4244 29.3595 17.4977C29.2495 17.5344 29.2311 17.6077 29.3045 17.7177C29.4878 18.0844 29.4328 18.4327 29.1395 18.7627C28.8461 19.056 28.3878 19.2944 27.7645 19.4777C27.2145 19.6244 26.5178 19.8077 25.6745 20.0277C24.8311 20.211 23.8595 20.4127 22.7595 20.6327C22.1728 20.816 21.8795 20.9994 21.8795 21.1827C21.8795 21.3294 22.0078 21.4394 22.2645 21.5127C22.6678 21.586 23.1078 21.6044 23.5845 21.5677C24.0611 21.4944 24.7761 21.366 25.7295 21.1827C25.9861 21.1094 26.2245 21.036 26.4445 20.9627C26.7011 20.8894 26.9578 20.7977 27.2145 20.6877C27.9478 20.3944 28.6078 20.101 29.1945 19.8077C29.7811 19.5144 30.2211 19.276 30.5145 19.0927C31.2478 18.6527 31.7245 18.3777 31.9445 18.2677C32.1645 18.1577 32.4211 18.1394 32.7145 18.2127C33.3745 18.396 33.7961 18.561 33.9795 18.7077C34.1628 18.8544 34.2911 19.0927 34.3645 19.4227C34.5111 20.156 33.6861 20.816 31.8895 21.4027C31.5595 21.5127 31.2295 21.6227 30.8995 21.7327C30.5695 21.8427 30.1478 21.9894 29.6345 22.1727C29.1578 22.356 28.5345 22.5944 27.7645 22.8877C27.0311 23.181 26.0778 23.566 24.9045 24.0427C24.4645 24.226 24.3178 24.446 24.4645 24.7027C24.6111 24.9227 24.9228 25.0694 25.3995 25.1427C26.4995 25.2894 27.5811 25.2344 28.6445 24.9777C29.7445 24.721 30.6978 24.391 31.5045 23.9877C31.6878 23.9144 31.7611 23.8227 31.7245 23.7127C31.7245 23.6027 31.6145 23.4377 31.3945 23.2177C31.2111 23.0344 31.1378 22.851 31.1745 22.6677C31.2478 22.4844 31.3945 22.2094 31.6145 21.8427C31.7978 21.5494 32.1645 21.366 32.7145 21.2927C33.3011 21.2194 33.9061 21.3294 34.5295 21.6227C34.9328 21.806 35.2811 21.9894 35.5745 22.1727C35.9045 22.3194 36.2528 22.5027 36.6195 22.7227C36.9861 22.906 37.3895 23.1444 37.8295 23.4377C38.3061 23.731 38.8928 24.0977 39.5895 24.5377C40.1761 24.941 40.4878 25.2894 40.5245 25.5827C40.5978 25.8394 40.5061 26.0777 40.2495 26.2977C40.0661 26.481 39.7545 26.591 39.3145 26.6277C38.8745 26.6277 38.4528 26.536 38.0495 26.3527C37.6461 26.1694 37.2611 26.0044 36.8945 25.8577C36.5278 25.6744 36.1611 25.491 35.7945 25.3077C35.6111 25.161 35.2445 25.1794 34.6945 25.3627C34.1078 25.6927 33.4295 26.0227 32.6595 26.3527C31.9261 26.646 31.1745 26.8844 30.4045 27.0677C30.0745 27.1777 29.9278 27.471 29.9645 27.9477C30.0378 29.121 30.0378 30.1477 29.9645 31.0277C29.8911 31.9077 29.6895 32.6594 29.3595 33.2827C29.0661 33.8694 28.6261 34.3277 28.0395 34.6577C27.4528 34.951 26.6828 35.1344 25.7295 35.2077C25.4361 35.2077 24.9778 35.1344 24.3545 34.9877C23.7311 34.841 23.0895 34.6394 22.4295 34.3827C21.7695 34.0894 21.1461 33.741 20.5595 33.3377C19.9728 32.8977 19.5695 32.3844 19.3495 31.7977C18.9828 30.9177 19.2761 30.5694 20.2295 30.7527C21.1828 31.046 21.8978 31.1744 22.3745 31.1377C22.8878 31.101 23.3645 30.9544 23.8045 30.6977C23.9145 30.6244 24.0061 30.4227 24.0795 30.0927C24.1528 29.726 24.1528 29.0844 24.0795 28.1677C24.0795 27.8377 23.8045 27.6177 23.2545 27.5077C21.5678 27.141 20.1561 26.976 19.0195 27.0127C17.9195 27.0127 17.1128 27.086 16.5995 27.2327C15.7561 27.4894 15.1878 27.5994 14.8945 27.5627C14.6011 27.526 14.3628 27.361 14.1795 27.0677C13.9228 26.6644 13.9411 26.2794 14.2345 25.9127C14.5645 25.546 15.1511 25.271 15.9945 25.0877C16.2511 25.0144 16.6728 24.8677 17.2595 24.6477C17.8828 24.4277 18.5978 24.171 19.4045 23.8777C19.9545 23.5844 20.1561 23.3644 20.0095 23.2177C19.8995 23.0344 19.6428 22.9794 19.2395 23.0527C18.6895 23.0527 18.0295 23.0894 17.2595 23.1627C16.5261 23.236 15.9578 23.3277 15.5545 23.4377C14.6011 23.731 13.9595 23.841 13.6295 23.7677C13.3361 23.6577 13.1528 23.346 13.0795 22.8327C12.9695 22.0627 13.0795 21.5494 13.4095 21.2927C13.7761 20.9994 14.4545 20.7794 15.4445 20.6327C15.8845 20.486 16.4528 20.3394 17.1495 20.1927C17.8828 20.0094 18.6161 19.826 19.3495 19.6427C19.7528 19.5694 19.7528 19.4227 19.3495 19.2027C19.0928 19.0194 19.0011 18.836 19.0745 18.6527C19.1478 18.4694 19.3861 18.4144 19.7895 18.4877C20.1928 18.5977 20.5595 18.5977 20.8895 18.4877C21.4395 18.3044 21.4211 18.2127 20.8345 18.2127C20.6145 18.2127 20.4495 18.1944 20.3395 18.1577C19.4961 18.0844 18.7628 18.0294 18.1395 17.9927C17.5528 17.956 16.9661 17.956 16.3795 17.9927C15.8295 17.9927 15.2061 18.0294 14.5095 18.1027C13.8495 18.176 13.0428 18.286 12.0895 18.4327C11.9061 18.4694 11.7411 18.506 11.5945 18.5427C11.4478 18.5794 11.2461 18.6527 10.9895 18.7627C10.8061 18.836 10.6411 18.9094 10.4945 18.9827C10.3478 19.056 10.2011 19.111 10.0545 19.1477C9.50445 19.2944 9.11945 19.331 8.89945 19.2577C8.67945 19.1477 8.42279 18.891 8.12945 18.4877C7.94612 18.3044 7.83612 18.1027 7.79945 17.8827C7.79945 17.626 7.92779 17.2777 8.18445 16.8377C8.25779 16.691 8.34945 16.471 8.45945 16.1777C8.60612 15.8844 8.75279 15.4994 8.89945 15.0227C8.97279 14.8027 8.91779 14.6744 8.73445 14.6377C8.55112 14.5644 8.12945 14.5644 7.46945 14.6377C7.13945 14.711 6.75445 14.8027 6.31445 14.9127C5.91112 15.0227 5.48945 15.1327 5.04945 15.2427C4.64612 15.3527 4.26112 15.4627 3.89445 15.5727C3.56445 15.646 3.30779 15.7194 3.12445 15.7927C2.17112 16.2327 1.41945 16.3977 0.869453 16.2877C0.319453 16.141 0.0627865 15.6094 0.0994531 14.6927C0.13612 14.2894 0.319453 13.9044 0.649453 13.5377C1.01612 13.171 1.43779 12.8777 1.91445 12.6577C2.42779 12.401 2.95945 12.2177 3.50945 12.1077C4.09612 11.9977 4.60945 11.9977 5.04945 12.1077C5.45279 12.2177 5.81945 12.3094 6.14945 12.3827C6.47945 12.4194 6.82779 12.401 7.19445 12.3277C7.59779 12.2544 8.23945 12.2544 9.11945 12.3277C9.26612 12.3277 9.39445 12.291 9.50445 12.2177C9.65112 12.1444 9.74279 11.9977 9.77945 11.7777C9.96279 11.1177 10.0178 10.696 9.94445 10.5127C9.90779 9.8527 9.92612 9.39437 9.99945 9.1377C10.0728 8.84437 10.1461 8.66103 10.2195 8.5877C10.6228 8.2577 11.0628 8.11103 11.5395 8.1477C12.0161 8.1477 12.5295 8.27603 13.0795 8.5327C13.2261 8.60603 13.3911 8.67937 13.5745 8.7527C13.7578 8.78937 13.9045 8.78937 14.0145 8.7527C14.7111 8.6427 15.4078 8.55103 16.1045 8.4777C16.8011 8.40437 17.4428 8.3677 18.0295 8.3677C18.6528 8.33103 19.2028 8.33103 19.6795 8.3677C20.1561 8.40437 20.5045 8.4777 20.7245 8.5877C21.3478 8.8077 21.8061 8.93603 22.0995 8.9727C22.3928 8.9727 22.6678 8.8627 22.9245 8.6427C23.1445 8.45937 23.4561 8.3677 23.8595 8.3677C24.2995 8.3677 24.7028 8.45937 25.0695 8.6427C25.5095 8.8627 25.8028 9.00937 25.9495 9.0827C26.1328 9.15603 26.2795 9.15603 26.3895 9.0827C27.2695 8.49603 27.9845 7.79937 28.5345 6.9927C29.0845 6.14937 29.4695 5.0677 29.6895 3.7477C29.8361 2.79437 30.0928 2.2077 30.4595 1.9877C30.8261 1.7677 31.4128 1.73103 32.2195 1.8777C32.7328 1.9877 33.1545 2.33603 33.4845 2.9227C33.8511 3.4727 33.9428 4.05937 33.7595 4.6827C33.7228 4.7927 33.7411 4.92103 33.8145 5.0677C33.8878 5.1777 34.0161 5.2327 34.1995 5.2327C36.0695 5.26937 37.8478 5.30603 39.5345 5.3427C41.2211 5.3427 42.9445 5.30603 44.7045 5.2327C45.2178 5.2327 45.6395 5.3427 45.9695 5.5627C46.2995 5.7827 46.4828 6.0577 46.5195 6.3877C46.5561 6.90103 46.3728 7.24937 45.9695 7.4327C45.6028 7.61603 44.7778 7.74437 43.4945 7.8177C43.2011 7.8177 42.8528 7.8177 42.4495 7.8177C42.0461 7.8177 41.5878 7.83603 41.0745 7.8727C40.7445 7.8727 40.5245 7.9277 40.4145 8.0377C40.3045 8.11103 40.2495 8.23937 40.2495 8.4227C40.2861 8.93603 40.2495 9.43103 40.1395 9.9077C40.0295 10.3477 39.9011 10.7694 39.7545 11.1727C39.6811 11.3194 39.6811 11.4844 39.7545 11.6677C39.8278 11.8144 39.9561 11.9244 40.1395 11.9977C42.1561 12.511 44.0811 12.951 45.9145 13.3177C47.7845 13.6477 49.5995 13.9594 51.3595 14.2527C51.7261 14.326 51.9461 14.4177 52.0195 14.5277C52.0928 14.6377 52.0378 14.8944 51.8545 15.2977ZM27.2145 5.8377C27.2511 6.24103 27.1045 6.5527 26.7745 6.7727C26.4445 6.95603 25.8028 7.06603 24.8495 7.1027C22.2095 7.13937 19.8078 7.19437 17.6445 7.2677C15.5178 7.34103 13.6661 7.41437 12.0895 7.4877C11.6495 7.4877 11.3011 7.56103 11.0445 7.7077C10.7145 7.89103 10.3295 8.0927 9.88945 8.3127C9.48612 8.5327 9.00945 8.77103 8.45945 9.0277C7.79945 9.32103 7.32279 9.4677 7.02945 9.4677C6.77279 9.4677 6.49779 9.32103 6.20445 9.0277C6.02112 8.84437 5.91112 8.66103 5.87445 8.4777C5.83779 8.2577 5.91112 8.0927 6.09445 7.9827C7.12112 7.35937 8.03779 6.64437 8.84445 5.8377C9.68779 5.03103 10.4211 4.22436 11.0445 3.4177C11.3745 3.01436 11.6495 2.7027 11.8695 2.4827C12.0895 2.2627 12.2911 2.11603 12.4745 2.0427C12.6945 1.96937 12.9145 1.96937 13.1345 2.0427C13.3911 2.07936 13.7211 2.17103 14.1245 2.3177C15.4078 2.94103 15.8661 3.5827 15.4995 4.2427C15.3161 4.53603 15.5178 4.6827 16.1045 4.6827C17.0578 4.6827 17.9011 4.6827 18.6345 4.6827C19.4045 4.6827 20.1378 4.70103 20.8345 4.7377C21.5311 4.7377 22.2278 4.75603 22.9245 4.7927C23.6211 4.82937 24.4095 4.86603 25.2895 4.9027C26.1328 4.9027 26.6461 4.97603 26.8295 5.1227C27.0128 5.26937 27.1411 5.5077 27.2145 5.8377ZM46.8495 33.6127C46.3361 34.236 45.3278 34.3827 43.8245 34.0527C42.2478 33.7227 40.7261 33.301 39.2595 32.7877C37.8295 32.2744 36.1795 31.596 34.3095 30.7527C33.2461 30.2394 32.6595 29.7077 32.5495 29.1577C32.4395 28.571 32.6411 28.0394 33.1545 27.5627C33.6678 27.086 34.1811 26.866 34.6945 26.9027C35.2445 26.9027 35.8861 27.1777 36.6195 27.7277C36.7295 27.801 37.1511 28.021 37.8845 28.3877C38.6178 28.7177 39.4795 29.121 40.4695 29.5977C41.4961 30.0744 42.5595 30.5694 43.6595 31.0827C44.7595 31.5594 45.7128 31.981 46.5195 32.3477C47.2528 32.751 47.3628 33.1727 46.8495 33.6127ZM19.8995 28.1127C20.4861 28.6627 20.6695 29.1577 20.4495 29.5977C20.2661 30.0377 19.7345 30.5144 18.8545 31.0277C18.4511 31.211 18.0295 31.3944 17.5895 31.5777C17.1861 31.7244 16.6545 31.9077 15.9945 32.1277C15.3345 32.311 14.4545 32.531 13.3545 32.7877C12.2911 33.0077 10.8978 33.2827 9.17445 33.6127C8.40445 33.7594 7.79945 33.8694 7.35945 33.9427C6.91945 34.016 6.57112 34.0527 6.31445 34.0527C6.09445 34.0527 5.91112 34.016 5.76445 33.9427C5.65445 33.8694 5.52612 33.7594 5.37945 33.6127C5.12279 33.2827 5.01279 33.0444 5.04945 32.8977C5.08612 32.751 5.25112 32.641 5.54445 32.5677C8.29445 31.8344 10.4945 31.101 12.1445 30.3677C13.8311 29.6344 15.2061 28.9194 16.2695 28.2227C16.7095 27.856 17.3145 27.6727 18.0845 27.6727C18.8911 27.636 19.4961 27.7827 19.8995 28.1127ZM31.1195 8.3127C30.7161 8.71603 30.3128 9.10103 29.9095 9.4677C29.5061 9.83437 29.1028 10.1827 28.6995 10.5127C28.0028 11.0994 27.2695 11.356 26.4995 11.2827C26.2061 11.2094 26.0045 11.301 25.8945 11.5577C25.7478 12.071 26.0961 12.3644 26.9395 12.4377C27.7828 12.4377 28.3695 12.5294 28.6995 12.7127C29.0295 12.896 29.1395 13.0977 29.0295 13.3177C28.8095 13.7577 28.5711 14.051 28.3145 14.1977C28.0945 14.3444 27.6728 14.3994 27.0495 14.3627C26.8661 14.3627 26.7011 14.3627 26.5545 14.3627C26.4078 14.3627 26.2428 14.3444 26.0595 14.3077C25.5828 14.3077 25.3261 14.491 25.2895 14.8577C25.2528 15.041 25.2345 15.1877 25.2345 15.2977C25.2345 15.371 25.2161 15.4994 25.1795 15.6827C25.1428 15.9394 25.2345 16.1044 25.4545 16.1777C26.5178 16.361 26.9028 16.6177 26.6095 16.9477C26.3528 17.2777 26.1328 17.516 25.9495 17.6627C25.7661 17.7727 25.5278 17.8644 25.2345 17.9377C25.0878 17.9744 25.0145 18.011 25.0145 18.0477C25.0145 18.0844 25.0695 18.1027 25.1795 18.1027C25.4728 18.0294 25.8028 17.9194 26.1695 17.7727C26.5361 17.626 26.8111 17.4794 26.9945 17.3327C27.2145 17.186 27.2328 17.021 27.0495 16.8377C26.7928 16.691 26.5911 16.4894 26.4445 16.2327C26.0411 15.6827 26.2061 15.3527 26.9395 15.2427C28.6628 14.986 30.0011 14.711 30.9545 14.4177C31.9078 14.0877 32.7695 13.6477 33.5395 13.0977C33.6861 13.0244 33.7595 12.9327 33.7595 12.8227C33.7961 12.676 33.7045 12.5294 33.4845 12.3827C32.5311 11.7594 31.8528 11.3744 31.4495 11.2277C31.0828 11.0444 30.7711 10.916 30.5145 10.8427C30.2211 10.7694 30.0011 10.6227 29.8545 10.4027C29.7445 10.1827 29.8911 9.9077 30.2945 9.5777C30.5878 9.32103 30.8811 9.1927 31.1745 9.1927C31.5045 9.15603 31.8161 9.1927 32.1095 9.3027C32.5495 9.48603 32.9895 9.66937 33.4295 9.8527C33.9061 9.99937 34.4195 10.1827 34.9695 10.4027C35.3361 10.4394 35.5745 10.3294 35.6845 10.0727C35.8678 9.55937 35.9228 8.99103 35.8495 8.3677C35.8495 8.2577 35.8128 8.1477 35.7395 8.0377C35.6661 7.9277 35.5378 7.8727 35.3545 7.8727C34.8411 7.90937 34.3095 7.9277 33.7595 7.9277C33.2461 7.89103 32.7145 7.8727 32.1645 7.8727C31.9811 7.90937 31.7978 7.94603 31.6145 7.9827C31.4678 8.01937 31.3028 8.12937 31.1195 8.3127ZM13.9045 16.1777C14.4178 16.141 14.8761 16.1227 15.2795 16.1227C15.7195 16.086 16.1411 16.0677 16.5445 16.0677C16.5078 16.0677 16.4895 16.0494 16.4895 16.0127C16.1595 15.8294 15.9395 15.5544 15.8295 15.1877C15.7561 14.821 15.8661 14.491 16.1595 14.1977H14.1795C13.5561 14.2344 13.1345 14.2894 12.9145 14.3627C12.7311 14.436 12.6028 14.5827 12.5295 14.8027C12.3828 15.3894 12.4011 15.7744 12.5845 15.9577C12.8045 16.141 13.2445 16.2144 13.9045 16.1777ZM19.2945 15.5177C19.4778 15.7744 19.5511 15.9577 19.5145 16.0677H21.3295C21.7695 15.9944 22.0445 15.7377 22.1545 15.2977C22.2645 14.6377 22.1361 14.3077 21.7695 14.3077C21.1461 14.271 20.5411 14.2527 19.9545 14.2527C19.3678 14.2527 18.7628 14.2344 18.1395 14.1977C18.1761 14.2344 18.1945 14.271 18.1945 14.3077C18.2311 14.3444 18.2678 14.381 18.3045 14.4177C18.5978 14.8577 18.9278 15.2244 19.2945 15.5177ZM19.5145 11.7777C19.6978 11.961 19.7528 12.1444 19.6795 12.3277H21.8795C22.2828 12.3277 22.4661 12.0894 22.4295 11.6127C22.4295 11.246 22.3745 10.9894 22.2645 10.8427C22.1545 10.696 21.8978 10.6044 21.4945 10.5677C20.9445 10.531 20.4311 10.5127 19.9545 10.5127C19.4778 10.5127 19.0195 10.4944 18.5795 10.4577C18.6161 10.4944 18.6345 10.531 18.6345 10.5677C18.6345 10.5677 18.6528 10.586 18.6895 10.6227C18.8361 11.026 19.1111 11.411 19.5145 11.7777ZM17.2595 12.2727C17.0761 12.236 16.8928 12.126 16.7095 11.9427C16.1595 11.5027 16.0311 11.0077 16.3245 10.4577C16.1778 10.4577 16.0311 10.476 15.8845 10.5127C15.7745 10.5127 15.6461 10.5127 15.4995 10.5127C15.3161 10.5127 15.1145 10.531 14.8945 10.5677C14.7111 10.5677 14.5278 10.586 14.3445 10.6227C14.0878 10.6227 13.8495 10.9344 13.6295 11.5577C13.5561 11.8144 13.5745 11.9977 13.6845 12.1077C13.7945 12.181 14.1611 12.236 14.7845 12.2727H17.2595ZM108.834 27.6177C109.128 29.5244 109.109 31.046 108.779 32.1827C108.449 33.2827 107.624 34.0894 106.304 34.6027C105.424 34.9327 104.728 35.1527 104.214 35.2627C103.701 35.3727 103.316 35.281 103.059 34.9877C102.839 34.731 102.711 34.2544 102.674 33.5577C102.638 32.8244 102.674 31.7977 102.784 30.4777C102.821 29.891 102.858 29.121 102.894 28.1677C102.931 27.2144 102.949 26.1694 102.949 25.0327C102.949 23.896 102.949 22.7227 102.949 21.5127C102.949 20.266 102.931 19.111 102.894 18.0477C102.894 16.9477 102.876 15.976 102.839 15.1327C102.839 14.2894 102.821 13.6477 102.784 13.2077C102.711 12.5844 102.601 12.1994 102.454 12.0527C102.308 11.8694 102.088 11.741 101.794 11.6677C101.134 11.5577 99.9428 11.466 98.2195 11.3927C96.4961 11.3194 94.4428 11.301 92.0595 11.3377C91.6561 11.3377 91.3445 11.6677 91.1245 12.3277C91.0511 12.621 91.0145 12.8777 91.0145 13.0977C91.0145 13.281 91.1061 13.4827 91.2895 13.7027C91.8028 14.2894 92.4078 14.9127 93.1045 15.5727C93.8011 16.196 94.5345 16.8377 95.3045 17.4977C96.0745 18.1577 96.8445 18.7994 97.6145 19.4227C98.4211 20.0094 99.1911 20.5594 99.9245 21.0727C100.511 21.476 100.951 21.8427 101.244 22.1727C101.574 22.466 101.776 22.741 101.849 22.9977C101.959 23.2177 101.959 23.456 101.849 23.7127C101.739 23.9694 101.556 24.2444 101.299 24.5377C100.419 25.5644 99.2645 25.6194 97.8345 24.7027C97.2845 24.336 96.7711 23.9877 96.2945 23.6577C95.8178 23.3277 95.2861 22.906 94.6995 22.3927C94.1128 21.8427 93.4161 21.1827 92.6095 20.4127C91.8395 19.606 90.8495 18.561 89.6395 17.2777C89.4195 16.9844 89.1811 17.0577 88.9245 17.4977C88.0811 19.1477 87.0911 20.6327 85.9545 21.9527C84.8545 23.236 83.6811 24.281 82.4345 25.0877C81.8111 25.491 81.1878 25.766 80.5645 25.9127C79.9411 26.0594 79.3545 26.0777 78.8045 25.9677C78.2545 25.8577 77.7595 25.6377 77.3195 25.3077C76.9161 24.941 76.6228 24.4644 76.4395 23.8777C76.3661 23.6944 76.3478 23.5477 76.3845 23.4377C76.4211 23.3277 76.5495 23.236 76.7695 23.1627C79.2628 22.3194 81.3161 20.981 82.9295 19.1477C84.5428 17.2777 85.6245 14.9677 86.1745 12.2177C86.2845 11.6677 86.0461 11.3927 85.4595 11.3927C83.9561 11.4294 82.4711 11.4844 81.0045 11.5577C79.5745 11.5944 78.0895 11.6677 76.5495 11.7777C76.2195 11.7777 76.0545 11.961 76.0545 12.3277C76.0178 13.611 75.9995 14.8944 75.9995 16.1777C76.0361 17.4244 76.0911 18.3594 76.1645 18.9827C76.3845 21.586 76.0361 24.0427 75.1195 26.3527C74.2395 28.626 72.8278 30.4594 70.8845 31.8527C68.7578 33.3927 66.8145 34.071 65.0545 33.8877C63.3311 33.6677 61.9745 32.6594 60.9845 30.8627C60.6911 30.3494 60.8011 30.0377 61.3145 29.9277C63.5511 29.4877 65.4945 28.791 67.1445 27.8377C68.8311 26.8477 69.9495 25.7294 70.4995 24.4827C70.8661 23.676 71.1411 22.741 71.3245 21.6777C71.5078 20.5777 71.5995 19.4777 71.5995 18.3777C71.6361 17.2777 71.5995 16.2327 71.4895 15.2427C71.3795 14.2527 71.2145 13.4277 70.9945 12.7677C70.5911 11.5944 70.4078 10.6594 70.4445 9.9627C70.4811 9.26603 70.7561 8.67937 71.2695 8.2027C71.8195 7.68937 72.4245 7.45103 73.0845 7.4877C73.7811 7.4877 74.4045 7.74437 74.9545 8.2577C75.1011 8.40437 75.2661 8.4777 75.4495 8.4777C77.2828 8.29437 79.0611 8.16603 80.7845 8.0927C82.5078 7.9827 84.2311 7.89103 85.9545 7.8177C86.4311 7.8177 86.6328 7.57937 86.5595 7.1027C86.4861 6.40603 86.3761 5.76437 86.2295 5.1777C86.0828 4.55437 85.8995 4.00437 85.6795 3.5277C85.5695 3.27103 85.5511 2.99603 85.6245 2.7027C85.6978 2.40937 85.8628 2.17103 86.1195 1.9877C86.4128 1.7677 86.7978 1.62103 87.2745 1.5477C87.7511 1.47437 88.3011 1.51103 88.9245 1.6577C89.9878 1.91436 90.8311 2.44603 91.4545 3.2527C92.0778 4.0227 92.2978 5.1777 92.1145 6.7177C92.0045 7.41436 92.2061 7.7627 92.7195 7.7627C94.1128 7.79937 95.5061 7.85437 96.8995 7.9277C98.3295 8.00103 99.8145 8.0927 101.354 8.2027C101.831 8.23937 102.216 8.22103 102.509 8.1477C102.803 8.07437 103.133 7.90937 103.499 7.6527C104.013 7.28603 104.489 7.08437 104.929 7.0477C105.369 7.01103 105.846 7.17603 106.359 7.5427C106.983 7.9827 107.478 8.40437 107.844 8.8077C108.211 9.21103 108.468 9.6877 108.614 10.2377C108.761 10.7877 108.816 11.4477 108.779 12.2177C108.743 12.951 108.633 13.8677 108.449 14.9677C108.339 15.591 108.284 16.4527 108.284 17.5527C108.284 18.616 108.303 19.771 108.339 21.0177C108.376 22.2644 108.431 23.4927 108.504 24.7027C108.614 25.876 108.724 26.8477 108.834 27.6177ZM167.354 2.5927C167.611 3.28936 167.611 3.83937 167.354 4.2427C167.134 4.60937 166.584 4.93937 165.704 5.2327C165.154 5.41603 164.641 5.5627 164.164 5.6727C163.688 5.7827 163.138 5.91103 162.514 6.0577C162.001 6.1677 161.671 6.07603 161.524 5.7827C161.414 5.48937 161.579 5.14103 162.019 4.7377C162.276 4.5177 162.643 4.16937 163.119 3.6927C163.633 3.17936 164.128 2.68436 164.604 2.2077C165.118 1.69437 165.631 1.51103 166.144 1.6577C166.768 1.80436 167.171 2.11603 167.354 2.5927ZM143.759 26.5727C144.016 25.106 144.218 23.5294 144.364 21.8427C144.548 20.156 144.658 18.561 144.694 17.0577C144.731 15.5544 144.713 14.2527 144.639 13.1527C144.566 12.016 144.419 11.2827 144.199 10.9527C143.686 10.1094 143.484 9.32103 143.594 8.5877C143.704 7.85437 144.034 7.28603 144.584 6.8827C144.804 6.69937 145.189 6.58937 145.739 6.5527C146.326 6.47936 146.858 6.64437 147.334 7.0477C147.591 7.2677 147.958 7.3777 148.434 7.3777C149.901 7.34103 151.184 7.3227 152.284 7.3227C153.384 7.28603 154.466 7.2677 155.529 7.2677C155.823 7.2677 156.024 7.19437 156.134 7.0477C156.244 6.86437 156.263 6.40603 156.189 5.6727C156.116 4.7927 156.098 4.0777 156.134 3.5277C156.171 2.94103 156.263 2.50103 156.409 2.2077C156.556 1.8777 156.758 1.6577 157.014 1.5477C157.271 1.4377 157.601 1.3827 158.004 1.3827C158.884 1.3827 159.526 1.69436 159.929 2.3177C160.333 2.90437 160.443 3.9677 160.259 5.5077C160.186 6.13103 160.186 6.53436 160.259 6.7177C160.369 6.90103 160.516 6.9927 160.699 6.9927C161.763 6.91937 162.734 6.90103 163.614 6.9377C164.494 6.9377 165.246 6.9377 165.869 6.9377C167.189 6.97437 167.923 7.4327 168.069 8.3127C168.179 8.82603 168.069 9.21103 167.739 9.4677C167.446 9.6877 166.878 9.8527 166.034 9.9627C165.558 10.036 164.806 10.1094 163.779 10.1827C162.789 10.2194 161.763 10.256 160.699 10.2927C160.516 10.3294 160.369 10.4577 160.259 10.6777C160.186 10.861 160.168 11.0444 160.204 11.2277C160.314 12.401 160.479 13.5927 160.699 14.8027C160.919 15.976 161.213 17.131 161.579 18.2677C161.726 18.671 161.891 18.8727 162.074 18.8727C162.294 18.8727 162.459 18.671 162.569 18.2677C162.716 17.791 162.826 17.296 162.899 16.7827C163.009 16.2694 163.083 15.7927 163.119 15.3527C163.193 14.0694 163.339 13.1894 163.559 12.7127C163.779 12.236 164.128 11.906 164.604 11.7227C165.558 11.356 166.236 11.6127 166.639 12.4927C167.079 13.5194 166.988 15.096 166.364 17.2227C165.961 18.6527 165.576 19.8077 165.209 20.6877C164.879 21.531 164.549 22.2644 164.219 22.8877C164.109 23.1444 164.128 23.346 164.274 23.4927C165.044 24.4827 165.778 25.326 166.474 26.0227C167.208 26.7194 167.923 27.306 168.619 27.7827C169.353 28.2227 170.104 28.571 170.874 28.8277C171.681 29.0844 172.543 29.2677 173.459 29.3777C173.826 29.451 174.064 29.6527 174.174 29.9827C174.284 30.276 174.248 30.5877 174.064 30.9177C173.294 32.4944 171.809 33.6494 169.609 34.3827C168.986 34.6027 168.436 34.731 167.959 34.7677C167.519 34.841 167.061 34.786 166.584 34.6027C166.144 34.3827 165.686 34.0527 165.209 33.6127C164.733 33.136 164.183 32.476 163.559 31.6327C163.266 31.2294 162.973 30.8077 162.679 30.3677C162.386 29.891 162.129 29.3777 161.909 28.8277C161.689 28.4244 161.506 28.2044 161.359 28.1677C161.249 28.131 161.048 28.3144 160.754 28.7177C160.314 29.3777 159.746 30.001 159.049 30.5877C158.279 31.211 157.601 31.6877 157.014 32.0177C156.464 32.3477 155.969 32.5494 155.529 32.6227C155.089 32.696 154.686 32.6594 154.319 32.5127C153.953 32.3294 153.586 32.0727 153.219 31.7427C152.963 31.5227 152.871 31.2477 152.944 30.9177C153.018 30.551 153.274 30.2944 153.714 30.1477C153.971 30.0744 154.191 29.9827 154.374 29.8727C154.594 29.7627 154.778 29.671 154.924 29.5977C155.548 29.0844 155.896 28.7177 155.969 28.4977C156.043 28.241 156.006 28.076 155.859 28.0027C155.236 27.6727 154.686 27.471 154.209 27.3977C153.769 27.2877 153.091 27.2877 152.174 27.3977C151.991 27.3977 151.863 27.471 151.789 27.6177C151.606 27.9844 151.368 28.241 151.074 28.3877C150.781 28.4977 150.506 28.516 150.249 28.4427C149.846 28.296 149.534 28.0027 149.314 27.5627C149.131 27.086 149.058 26.371 149.094 25.4177C149.131 24.5744 149.131 23.8227 149.094 23.1627C149.094 22.466 149.076 21.8794 149.039 21.4027C148.966 20.1194 149.168 19.331 149.644 19.0377C150.158 18.7444 150.598 18.671 150.964 18.8177C151.111 18.891 151.276 18.9277 151.459 18.9277C151.643 18.9277 151.789 18.9277 151.899 18.9277C153.073 18.9644 153.971 18.9644 154.594 18.9277C155.254 18.891 155.749 18.836 156.079 18.7627C156.813 18.5794 157.308 18.8727 157.564 19.6427C157.711 20.046 157.729 20.706 157.619 21.6227C157.546 22.0994 157.509 22.6494 157.509 23.2727C157.509 23.896 157.528 24.5744 157.564 25.3077C157.601 25.9677 157.656 26.371 157.729 26.5177C157.839 26.6277 158.023 26.5727 158.279 26.3527C158.463 26.1694 158.628 26.0044 158.774 25.8577C158.921 25.711 159.086 25.4727 159.269 25.1427C159.489 24.776 159.618 24.4827 159.654 24.2627C159.728 24.006 159.709 23.6944 159.599 23.3277C159.489 22.961 159.343 22.5027 159.159 21.9527C159.013 21.366 158.848 20.7427 158.664 20.0827C158.518 19.4227 158.353 18.7627 158.169 18.1027C158.023 17.4427 157.876 16.8194 157.729 16.2327C157.619 15.8294 157.344 15.646 156.904 15.6827C154.374 16.0494 151.588 16.2144 148.544 16.1777C148.214 16.1777 148.049 16.416 148.049 16.8927C148.049 17.296 148.031 17.8277 147.994 18.4877C147.994 19.1477 147.994 19.771 147.994 20.3577C147.994 23.731 147.774 26.481 147.334 28.6077C146.894 30.7344 146.216 32.366 145.299 33.5027C144.456 34.456 143.668 34.896 142.934 34.8227C142.201 34.7494 141.468 34.236 140.734 33.2827C140.404 32.8794 140.239 32.5494 140.239 32.2927C140.276 31.9994 140.441 31.7427 140.734 31.5227C141.614 30.8994 142.274 30.2394 142.714 29.5427C143.154 28.846 143.503 27.856 143.759 26.5727ZM157.069 12.9327C156.959 12.2727 156.904 11.6677 156.904 11.1177C156.868 10.7877 156.776 10.586 156.629 10.5127C156.483 10.4027 156.263 10.3477 155.969 10.3477C155.126 10.3477 154.026 10.366 152.669 10.4027C151.349 10.4394 150.084 10.4944 148.874 10.5677C148.471 10.5677 148.269 10.7694 148.269 11.1727C148.269 11.3927 148.251 11.6677 148.214 11.9977C148.214 12.291 148.214 12.6394 148.214 13.0427C148.214 13.446 148.471 13.6294 148.984 13.5927C150.121 13.5194 151.294 13.4827 152.504 13.4827C153.751 13.4827 154.998 13.5194 156.244 13.5927C156.831 13.5927 157.106 13.3727 157.069 12.9327ZM154.869 23.6577C154.869 23.3644 154.869 23.0894 154.869 22.8327C154.869 22.576 154.851 22.2827 154.814 21.9527C154.778 21.586 154.576 21.366 154.209 21.2927C153.623 21.2194 153.018 21.2377 152.394 21.3477C152.064 21.421 151.899 21.586 151.899 21.8427C151.899 22.356 151.881 22.8144 151.844 23.2177C151.844 23.621 151.863 24.0427 151.899 24.4827C151.899 24.8127 152.064 24.996 152.394 25.0327C152.871 25.106 153.476 25.0327 154.209 24.8127C154.649 24.666 154.869 24.281 154.869 23.6577ZM143.044 9.7427C143.301 10.0727 143.429 10.3844 143.429 10.6777C143.466 10.971 143.393 11.2094 143.209 11.3927C143.063 11.5394 142.824 11.6127 142.494 11.6127C142.164 11.6127 141.779 11.466 141.339 11.1727C140.826 10.8427 140.258 10.4394 139.634 9.9627C139.048 9.48603 138.498 8.99103 137.984 8.4777C137.581 8.11103 137.251 7.90937 136.994 7.8727C136.738 7.79937 136.554 7.83603 136.444 7.9827C135.381 9.26603 134.299 10.3844 133.199 11.3377C132.136 12.291 131.018 13.1344 129.844 13.8677C128.451 14.7477 127.314 15.151 126.434 15.0777C125.591 15.0044 124.839 14.4544 124.179 13.4277C123.666 12.6577 123.519 12.0344 123.739 11.5577C123.959 11.0444 124.381 10.751 125.004 10.6777C126.288 10.4944 127.443 10.1827 128.469 9.7427C129.533 9.26603 130.431 8.67937 131.164 7.9827C132.118 7.13936 132.851 6.36936 133.364 5.6727C133.878 4.93937 134.281 4.09603 134.574 3.1427C134.904 2.1527 135.344 1.52936 135.894 1.2727C136.481 1.01603 137.068 1.0527 137.654 1.3827C138.791 2.0427 139.121 3.05103 138.644 4.4077C138.608 4.6277 138.681 4.82937 138.864 5.0127C139.524 5.6727 140.166 6.36937 140.789 7.1027C141.449 7.83603 142.201 8.71603 143.044 9.7427ZM143.154 28.0577C143.191 28.461 142.934 28.846 142.384 29.2127C141.834 29.5427 140.991 29.7627 139.854 29.8727C139.634 29.9094 139.213 29.9827 138.589 30.0927C137.966 30.2027 137.251 30.3494 136.444 30.5327C135.674 30.6794 134.849 30.8627 133.969 31.0827C133.126 31.266 132.374 31.431 131.714 31.5777C131.274 31.6877 130.743 31.8527 130.119 32.0727C129.533 32.2927 128.946 32.5677 128.359 32.8977C127.443 33.411 126.764 33.6494 126.324 33.6127C125.921 33.5394 125.646 33.3377 125.499 33.0077C125.316 32.5677 125.243 32.1277 125.279 31.6877C125.353 31.2477 125.591 30.6977 125.994 30.0377C126.398 29.3777 126.764 28.956 127.094 28.7727C127.461 28.5894 127.809 28.5894 128.139 28.7727C128.359 28.8827 128.708 28.9377 129.184 28.9377C129.698 28.901 130.413 28.7544 131.329 28.4977C131.623 28.4244 131.751 28.296 131.714 28.1127C131.714 27.8927 131.586 27.7827 131.329 27.7827C130.706 27.746 130.229 27.636 129.899 27.4527C129.606 27.2694 129.258 26.921 128.854 26.4077C128.121 25.491 128.084 24.611 128.744 23.7677C129.294 23.1077 129.863 22.851 130.449 22.9977C131.036 23.1444 131.421 23.6394 131.604 24.4827C131.751 25.216 131.916 25.8027 132.099 26.2427C132.283 26.646 132.521 27.0494 132.814 27.4527C133.144 27.8927 133.383 28.0944 133.529 28.0577C133.749 28.021 133.859 27.8377 133.859 27.5077C133.859 27.2144 133.859 26.8477 133.859 26.4077C133.896 25.9677 133.914 25.5094 133.914 25.0327C133.951 24.5194 133.969 24.0244 133.969 23.5477C134.006 23.071 134.024 22.6494 134.024 22.2827C134.024 21.8794 133.841 21.6777 133.474 21.6777C132.814 21.7144 132.283 21.7877 131.879 21.8977C131.513 21.971 131.036 22.1177 130.449 22.3377C129.423 22.7777 128.781 22.796 128.524 22.3927C128.268 22.026 128.158 21.641 128.194 21.2377C128.268 20.8344 128.524 20.321 128.964 19.6977C129.514 18.9277 130.046 18.6344 130.559 18.8177C131.036 18.9644 131.458 19.0194 131.824 18.9827C132.044 18.9094 132.283 18.8727 132.539 18.8727C132.833 18.8727 133.163 18.8727 133.529 18.8727C133.859 18.8727 134.024 18.6894 134.024 18.3227C134.024 17.9194 134.024 17.5527 134.024 17.2227C134.024 16.856 134.006 16.4894 133.969 16.1227C133.933 15.7927 133.731 15.6277 133.364 15.6277C132.851 15.6644 132.411 15.7377 132.044 15.8477C131.714 15.921 131.311 16.0677 130.834 16.2877C130.468 16.471 130.156 16.526 129.899 16.4527C129.643 16.3794 129.478 16.2327 129.404 16.0127C129.331 15.756 129.349 15.4444 129.459 15.0777C129.606 14.711 129.881 14.3077 130.284 13.8677C131.238 12.9144 131.989 12.5844 132.539 12.8777C132.796 12.9877 132.998 13.061 133.144 13.0977C133.291 13.0977 133.548 13.061 133.914 12.9877C134.244 12.9144 134.941 12.8777 136.004 12.8777C137.068 12.8777 138.424 12.9144 140.074 12.9877C141.028 13.0244 141.651 13.116 141.944 13.2627C142.238 13.3727 142.458 13.6294 142.604 14.0327C142.824 14.6927 142.788 15.206 142.494 15.5727C142.201 15.9394 141.541 16.0494 140.514 15.9027C140.331 15.866 139.983 15.8477 139.469 15.8477C138.956 15.811 138.534 15.756 138.204 15.6827C137.838 15.646 137.654 15.8294 137.654 16.2327V18.3227C137.654 18.6894 137.819 18.891 138.149 18.9277C138.516 19.001 138.993 19.0377 139.579 19.0377C140.203 19.0377 140.624 19.056 140.844 19.0927C141.761 19.166 142.366 19.3127 142.659 19.5327C142.953 19.7527 143.081 20.1194 143.044 20.6327C143.008 21.0727 142.824 21.4027 142.494 21.6227C142.201 21.8427 141.596 21.916 140.679 21.8427C140.386 21.806 139.964 21.7877 139.414 21.7877C138.901 21.751 138.479 21.7327 138.149 21.7327C137.819 21.7327 137.654 21.916 137.654 22.2827C137.654 22.796 137.636 23.3827 137.599 24.0427C137.563 24.666 137.526 25.436 137.489 26.3527C137.489 26.6827 137.599 26.9027 137.819 27.0127C138.039 27.086 138.223 27.0494 138.369 26.9027C139.213 26.1327 139.799 25.1244 140.129 23.8777C140.313 23.1444 140.679 22.7044 141.229 22.5577C141.779 22.3744 142.256 22.5394 142.659 23.0527C143.173 23.6027 143.393 24.1527 143.319 24.7027C143.246 25.2527 142.898 25.711 142.274 26.0777C141.981 26.261 141.688 26.4077 141.394 26.5177C141.138 26.591 140.808 26.701 140.404 26.8477C140.221 26.921 140.129 26.9944 140.129 27.0677C140.166 27.141 140.294 27.1594 140.514 27.1227C141.688 26.976 142.403 26.9577 142.659 27.0677C142.953 27.1777 143.118 27.5077 143.154 28.0577ZM227.854 15.7927C227.671 16.3794 227.433 16.7644 227.139 16.9477C226.846 17.131 226.443 17.186 225.929 17.1127C224.793 16.9294 223.546 16.6727 222.189 16.3427C220.869 15.976 219.494 15.5544 218.064 15.0777C216.634 14.5644 215.204 14.0327 213.774 13.4827C212.344 12.896 210.988 12.291 209.704 11.6677C209.374 11.521 208.989 11.576 208.549 11.8327C207.523 12.5294 206.294 13.2627 204.864 14.0327C203.471 14.766 201.674 15.6277 199.474 16.6177C197.568 17.461 195.936 18.0294 194.579 18.3227C193.259 18.5794 192.178 18.6344 191.334 18.4877C190.528 18.3044 189.941 17.956 189.574 17.4427C189.208 16.8927 189.061 16.251 189.134 15.5177C189.171 14.9677 189.538 14.6927 190.234 14.6927C190.894 14.7294 191.976 14.546 193.479 14.1427C195.019 13.7394 196.706 13.1894 198.539 12.4927C200.409 11.796 202.316 10.971 204.259 10.0177C206.203 9.06437 207.944 8.05603 209.484 6.9927C209.888 6.69937 210.071 6.42437 210.034 6.1677C210.034 5.91103 209.741 5.70937 209.154 5.5627C208.861 5.48936 208.549 5.4527 208.219 5.4527C207.889 5.41603 207.358 5.43437 206.624 5.5077C206.148 5.54437 205.818 5.63603 205.634 5.7827C202.628 7.61603 200.098 8.89937 198.044 9.6327C195.991 10.3294 194.121 10.7144 192.434 10.7877C191.224 10.861 190.509 10.311 190.289 9.1377C190.216 8.66103 190.253 8.2577 190.399 7.9277C190.546 7.56103 190.821 7.34103 191.224 7.2677C194.451 6.86437 197.219 6.1677 199.529 5.1777C201.839 4.15103 203.581 3.0327 204.754 1.8227C205.268 1.30936 205.763 1.03437 206.239 0.997699C206.753 0.924364 207.449 1.14436 208.329 1.6577C208.769 1.95103 209.008 2.24436 209.044 2.5377C209.081 2.8677 209.173 3.06937 209.319 3.1427C209.576 3.21603 209.814 3.27103 210.034 3.3077C210.254 3.34436 210.493 3.38103 210.749 3.4177C211.483 3.49103 212.124 3.38103 212.674 3.0877C213.078 2.90437 213.628 2.88603 214.324 3.0327C215.021 3.17937 215.626 3.45437 216.139 3.8577C216.763 4.37103 217.001 4.92103 216.854 5.5077C216.744 6.0577 216.469 6.40603 216.029 6.5527C215.406 6.73603 214.838 6.9927 214.324 7.3227C213.811 7.61603 213.243 8.0377 212.619 8.5877C212.106 8.99103 212.051 9.26603 212.454 9.4127C213.738 9.7427 215.113 10.1277 216.579 10.5677C218.083 11.0077 219.494 11.4477 220.814 11.8877C222.171 12.3277 223.344 12.731 224.334 13.0977C225.361 13.4644 226.058 13.7577 226.424 13.9777C227.048 14.3077 227.451 14.6194 227.634 14.9127C227.854 15.206 227.928 15.4994 227.854 15.7927ZM218.064 18.8177C217.661 19.441 217.184 19.8994 216.634 20.1927C216.084 20.486 215.241 20.761 214.104 21.0177C212.858 21.311 212.106 21.3477 211.849 21.1277C211.629 20.871 211.758 20.3944 212.234 19.6977C212.528 19.2944 212.839 18.726 213.169 17.9927C213.536 17.2227 213.811 16.581 213.994 16.0677C214.178 15.481 214.636 15.206 215.369 15.2427C216.139 15.2427 216.873 15.701 217.569 16.6177C218.009 17.2044 218.248 17.6444 218.284 17.9377C218.321 18.231 218.248 18.5244 218.064 18.8177ZM232.914 29.7077C232.181 31.0277 231.374 32.1094 230.494 32.9527C229.651 33.7594 228.789 34.346 227.909 34.7127C227.029 35.0427 226.168 35.171 225.324 35.0977C224.518 35.0244 223.784 34.731 223.124 34.2177C221.438 32.861 219.953 31.706 218.669 30.7527C217.423 29.7994 216.249 28.9744 215.149 28.2777C214.049 27.5444 212.986 26.9027 211.959 26.3527C210.933 25.766 209.796 25.161 208.549 24.5377C208.219 24.3544 207.963 24.281 207.779 24.3177C207.633 24.3177 207.523 24.3727 207.449 24.4827C207.046 25.1794 206.551 25.876 205.964 26.5727C205.378 27.2327 204.626 27.9844 203.709 28.8277C203.013 29.451 202.059 30.0744 200.849 30.6977C199.676 31.321 198.374 31.8894 196.944 32.4027C195.514 32.8794 194.048 33.2827 192.544 33.6127C191.078 33.906 189.684 34.071 188.364 34.1077C186.384 34.181 184.954 34.0344 184.074 33.6677C183.231 33.301 182.589 32.6594 182.149 31.7427C181.526 30.5694 181.801 29.9827 182.974 29.9827C185.504 30.0194 187.833 29.8544 189.959 29.4877C192.123 29.121 194.029 28.6444 195.679 28.0577C197.366 27.4344 198.796 26.7377 199.969 25.9677C201.143 25.161 202.004 24.3544 202.554 23.5477C203.398 22.2644 203.966 20.981 204.259 19.6977C204.589 18.4144 204.663 17.2227 204.479 16.1227C204.369 15.2794 204.644 14.6194 205.304 14.1427C206.001 13.666 206.844 13.6294 207.834 14.0327C208.494 14.326 208.898 14.7844 209.044 15.4077C209.191 16.031 209.191 16.9294 209.044 18.1027C209.008 18.4694 208.971 18.8177 208.934 19.1477C208.898 19.441 208.843 19.7344 208.769 20.0277C208.659 20.4677 208.879 20.7977 209.429 21.0177C210.896 21.7144 212.583 22.4294 214.489 23.1627C216.433 23.8594 218.431 24.5194 220.484 25.1427C222.574 25.766 224.628 26.3344 226.644 26.8477C228.698 27.361 230.586 27.7644 232.309 28.0577C232.823 28.131 233.116 28.296 233.189 28.5527C233.299 28.8094 233.208 29.1944 232.914 29.7077ZM200.849 21.7877C201.656 22.411 201.949 22.906 201.729 23.2727C201.546 23.6027 200.978 23.621 200.024 23.3277C197.678 22.6677 196.211 21.8977 195.624 21.0177C195.294 20.5777 195.184 20.101 195.294 19.5877C195.441 19.0744 195.808 18.671 196.394 18.3777C196.944 18.1577 197.476 18.1027 197.989 18.2127C198.503 18.3227 198.851 18.616 199.034 19.0927C199.291 19.6794 199.548 20.211 199.804 20.6877C200.098 21.1277 200.446 21.4944 200.849 21.7877ZM261.954 11.0627C261.881 11.3194 261.716 11.5394 261.459 11.7227C261.203 11.8694 260.763 11.961 260.139 11.9977C257.866 12.1077 255.868 11.9427 254.144 11.5027C252.458 11.026 251.248 10.4577 250.514 9.7977C250.221 9.54103 249.964 9.22937 249.744 8.8627C249.561 8.49603 249.469 8.01937 249.469 7.4327C249.469 6.95603 249.634 6.51603 249.964 6.1127C250.294 5.70937 250.881 5.4527 251.724 5.3427C252.458 5.2327 253.374 5.43436 254.474 5.9477C255.574 6.46103 256.766 7.13936 258.049 7.9827C258.453 8.27603 258.874 8.5877 259.314 8.9177C259.791 9.21103 260.176 9.44937 260.469 9.6327C261.166 10.036 261.606 10.311 261.789 10.4577C261.973 10.5677 262.028 10.7694 261.954 11.0627ZM293.799 15.0227C293.396 15.4994 293.011 15.7744 292.644 15.8477C292.314 15.8844 291.838 15.811 291.214 15.6277C289.858 15.1877 288.318 14.4727 286.594 13.4827C286.338 13.3727 286.136 13.391 285.989 13.5377C285.073 14.271 284.174 14.9127 283.294 15.4627C282.414 15.976 281.278 16.5994 279.884 17.3327C279.554 17.5527 278.968 17.7177 278.124 17.8277C277.318 17.901 276.401 17.8277 275.374 17.6077C274.714 17.461 274.018 17.2777 273.284 17.0577C272.588 16.801 271.964 16.471 271.414 16.0677C271.194 15.921 270.846 15.811 270.369 15.7377C269.929 15.6277 269.416 15.6094 268.829 15.6827C268.279 15.7194 267.674 15.8294 267.014 16.0127C266.354 16.196 265.713 16.4527 265.089 16.7827C264.613 17.0394 264.044 17.0394 263.384 16.7827C262.761 16.526 262.303 16.0494 262.009 15.3527C261.679 14.5094 261.643 13.8494 261.899 13.3727C262.156 12.8594 262.541 12.346 263.054 11.8327C263.201 11.686 263.439 11.5027 263.769 11.2827C264.136 11.026 264.521 10.7694 264.924 10.5127C265.364 10.2194 265.786 9.94437 266.189 9.6877C266.629 9.39437 266.996 9.15603 267.289 8.9727C267.729 8.67937 268.133 8.3677 268.499 8.0377C268.866 7.7077 269.251 7.3227 269.654 6.8827C270.094 6.4427 270.571 5.92936 271.084 5.3427C271.598 4.75603 272.203 4.05937 272.899 3.2527C273.486 2.4827 274.256 1.96937 275.209 1.7127C276.199 1.45603 277.043 1.5477 277.739 1.9877C278.069 2.2077 278.308 2.4827 278.454 2.8127C278.638 3.10603 278.729 3.43603 278.729 3.8027C278.766 4.1327 278.711 4.4627 278.564 4.7927C278.454 5.08603 278.271 5.30603 278.014 5.4527C277.171 6.0027 276.493 6.46103 275.979 6.8277C275.466 7.1577 274.989 7.4877 274.549 7.8177C274.146 8.11103 273.761 8.4227 273.394 8.7527C273.028 9.04603 272.606 9.4127 272.129 9.8527C271.616 10.256 271.341 10.751 271.304 11.3377C271.304 11.8877 271.506 12.3094 271.909 12.6027C272.386 12.9694 273.009 13.2627 273.779 13.4827C274.586 13.666 275.649 13.7944 276.969 13.8677C277.519 13.941 278.271 13.7944 279.224 13.4277C280.178 13.061 281.204 12.456 282.304 11.6127C282.671 11.356 282.653 11.0444 282.249 10.6777C281.736 10.3844 281.259 10.091 280.819 9.7977C280.416 9.4677 280.049 9.1927 279.719 8.9727C279.573 8.8627 279.444 8.71603 279.334 8.5327C279.261 8.3127 279.206 8.07437 279.169 7.8177C279.169 7.56103 279.188 7.3227 279.224 7.1027C279.261 6.8827 279.334 6.69937 279.444 6.5527C279.664 6.29603 279.958 6.1127 280.324 6.0027C280.728 5.85603 281.113 5.7827 281.479 5.7827C281.883 5.74603 282.249 5.76437 282.579 5.8377C282.946 5.87437 283.203 5.9477 283.349 6.0577C284.889 7.19437 286.393 8.27603 287.859 9.3027C289.363 10.3294 290.738 11.2277 291.984 11.9977C293.158 12.7677 293.836 13.3727 294.019 13.8127C294.203 14.216 294.129 14.6194 293.799 15.0227ZM259.864 20.5227C259.241 20.7794 258.361 20.9627 257.224 21.0727C256.124 21.146 254.951 21.1644 253.704 21.1277C252.458 21.0544 251.229 20.926 250.019 20.7427C248.809 20.5594 247.819 20.321 247.049 20.0277C246.133 19.661 245.454 19.1844 245.014 18.5977C244.574 18.011 244.373 17.406 244.409 16.7827C244.446 16.0494 244.721 15.4444 245.234 14.9677C245.748 14.4544 246.334 14.2344 246.994 14.3077C247.324 14.3444 247.709 14.3994 248.149 14.4727C248.626 14.546 249.103 14.656 249.579 14.8027C250.056 14.9127 250.533 15.041 251.009 15.1877C251.486 15.3344 251.908 15.481 252.274 15.6277C252.824 15.811 253.466 16.031 254.199 16.2877C254.969 16.5444 255.703 16.8194 256.399 17.1127C257.133 17.3694 257.811 17.626 258.434 17.8827C259.058 18.1027 259.534 18.286 259.864 18.4327C260.451 18.726 260.726 19.0927 260.689 19.5327C260.653 19.9727 260.378 20.3027 259.864 20.5227ZM290.499 24.4827C290.463 24.8494 290.426 25.3077 290.389 25.8577C290.353 26.4077 290.298 26.9944 290.224 27.6177C290.151 28.241 290.078 28.8827 290.004 29.5427C289.931 30.166 289.858 30.771 289.784 31.3577C289.711 31.761 289.546 32.1277 289.289 32.4577C289.033 32.7877 288.721 33.0627 288.354 33.2827C288.024 33.5027 287.676 33.6494 287.309 33.7227C286.943 33.7594 286.631 33.7227 286.374 33.6127C285.311 33.0627 284.358 32.696 283.514 32.5127C282.708 32.3294 281.663 32.2377 280.379 32.2377C280.159 32.2377 279.884 32.2377 279.554 32.2377C279.224 32.2377 278.748 32.2377 278.124 32.2377C277.501 32.2377 276.676 32.2377 275.649 32.2377C274.623 32.201 273.266 32.1827 271.579 32.1827C271.506 32.1827 271.433 32.1827 271.359 32.1827C271.286 32.1827 271.231 32.2194 271.194 32.2927C270.974 32.5494 270.718 32.7694 270.424 32.9527C270.131 33.136 269.838 33.2827 269.544 33.3927C269.251 33.5027 268.976 33.5944 268.719 33.6677C268.499 33.7044 268.353 33.7227 268.279 33.7227C267.729 33.6494 267.271 33.3377 266.904 32.7877C266.538 32.2377 266.281 31.596 266.134 30.8627C265.951 29.946 265.786 28.9744 265.639 27.9477C265.493 26.8844 265.401 26.0594 265.364 25.4727C265.328 24.996 265.236 24.4094 265.089 23.7127C264.979 23.016 264.888 22.4477 264.814 22.0077C264.741 21.641 264.759 21.256 264.869 20.8527C264.979 20.4494 265.163 20.0827 265.419 19.7527C265.676 19.4227 265.988 19.1477 266.354 18.9277C266.758 18.7077 267.179 18.5794 267.619 18.5427C267.986 18.506 268.353 18.5427 268.719 18.6527C269.086 18.7627 269.398 18.9644 269.654 19.2577C269.764 19.3677 269.929 19.4227 270.149 19.4227C271.176 19.3494 272.166 19.2944 273.119 19.2577C274.109 19.221 274.989 19.2027 275.759 19.2027C276.566 19.166 277.244 19.1477 277.794 19.1477C278.344 19.1477 278.711 19.166 278.894 19.2027C279.408 19.276 280.104 19.331 280.984 19.3677C281.864 19.4044 282.891 19.4594 284.064 19.5327C284.724 19.606 285.348 19.441 285.934 19.0377C286.521 18.671 287.126 18.5427 287.749 18.6527C288.373 18.726 288.996 18.9827 289.619 19.4227C290.096 19.826 290.371 20.431 290.444 21.2377C290.554 22.0077 290.573 23.0894 290.499 24.4827ZM262.119 25.6377C261.606 26.701 260.983 27.801 260.249 28.9377C259.516 30.0377 258.489 31.0094 257.169 31.8527C256.216 32.366 255.318 32.7327 254.474 32.9527C253.631 33.136 252.898 33.081 252.274 32.7877C251.358 32.4577 250.771 32.091 250.514 31.6877C250.258 31.2477 250.148 30.7527 250.184 30.2027C250.258 29.286 250.533 28.571 251.009 28.0577C251.523 27.5077 252.201 27.1044 253.044 26.8477C254.401 26.4077 255.776 25.8944 257.169 25.3077C258.563 24.6844 259.901 24.0244 261.184 23.3277C261.698 23.0344 262.101 23.0894 262.394 23.4927C262.688 23.896 262.596 24.611 262.119 25.6377ZM285.439 23.4377C285.366 23.1444 285.274 22.961 285.164 22.8877C285.054 22.8144 284.779 22.741 284.339 22.6677C282.689 22.5577 280.801 22.521 278.674 22.5577C276.584 22.5577 274.091 22.6677 271.194 22.8877C270.864 22.8877 270.699 23.0527 270.699 23.3827C270.626 24.116 270.626 24.8677 270.699 25.6377C270.773 26.371 270.883 27.2694 271.029 28.3327C271.066 28.6994 271.249 28.8827 271.579 28.8827C273.229 28.8094 274.989 28.7544 276.859 28.7177C278.766 28.681 280.893 28.7177 283.239 28.8277C283.936 28.8644 284.394 28.791 284.614 28.6077C284.834 28.3877 285.018 28.0027 285.164 27.4527C285.201 27.196 285.238 26.866 285.274 26.4627C285.348 26.0594 285.384 25.656 285.384 25.2527C285.421 24.8494 285.439 24.4827 285.439 24.1527C285.476 23.786 285.476 23.5477 285.439 23.4377ZM355.069 21.0177C354.153 22.1177 352.851 23.0344 351.164 23.7677C350.614 24.0244 349.973 24.061 349.239 23.8777C348.506 23.6577 347.589 23.1627 346.489 22.3927C346.086 22.0994 345.664 21.7694 345.224 21.4027C344.784 21.036 344.216 20.541 343.519 19.9177C343.079 19.551 342.859 19.6244 342.859 20.1377C342.823 20.761 342.786 21.3477 342.749 21.8977C342.749 22.4477 342.768 22.9794 342.804 23.4927C342.878 24.2627 342.841 24.7944 342.694 25.0877C342.548 25.381 342.218 25.6744 341.704 25.9677C341.448 26.1144 341.173 26.206 340.879 26.2427C340.586 26.2427 340.219 26.1694 339.779 26.0227C339.596 25.9494 339.248 25.9127 338.734 25.9127C338.258 25.876 337.726 25.8577 337.139 25.8577C336.809 25.8577 336.644 26.0044 336.644 26.2977C336.644 26.9944 336.644 27.746 336.644 28.5527C336.644 29.3594 336.663 30.1844 336.699 31.0277C336.773 32.421 336.626 33.3927 336.259 33.9427C335.929 34.4927 335.233 34.9144 334.169 35.2077C333.399 35.4277 332.593 35.501 331.749 35.4277C330.943 35.3544 330.154 35.171 329.384 34.8777C328.614 34.5844 327.918 34.1994 327.294 33.7227C326.671 33.2094 326.194 32.641 325.864 32.0177C325.754 31.7977 325.754 31.6327 325.864 31.5227C326.011 31.376 326.194 31.3394 326.414 31.4127C326.964 31.6327 327.533 31.7794 328.119 31.8527C328.706 31.926 329.256 31.926 329.769 31.8527C330.283 31.7794 330.704 31.651 331.034 31.4677C331.401 31.2477 331.621 30.9727 331.694 30.6427C331.841 29.836 331.804 28.406 331.584 26.3527C331.511 26.0227 331.346 25.8577 331.089 25.8577C330.759 25.8577 330.264 25.8577 329.604 25.8577C328.944 25.8577 328.394 25.876 327.954 25.9127C327.734 25.9127 327.496 26.0227 327.239 26.2427C326.946 26.426 326.561 26.5177 326.084 26.5177C325.571 26.5544 325.149 26.426 324.819 26.1327C324.489 25.8027 324.288 25.216 324.214 24.3727C324.178 24.0427 324.141 23.7127 324.104 23.3827C324.104 23.0527 324.086 22.5027 324.049 21.7327C324.049 21.366 323.903 21.2927 323.609 21.5127C322.289 22.6127 321.153 23.2727 320.199 23.4927C319.246 23.676 318.366 23.5844 317.559 23.2177C317.266 23.0344 317.083 23.0527 317.009 23.2727C316.129 25.5094 315.084 27.4344 313.874 29.0477C312.701 30.6244 311.381 31.816 309.914 32.6227C308.851 33.2094 307.898 33.356 307.054 33.0627C306.211 32.7327 305.313 31.926 304.359 30.6427C303.846 29.9094 303.644 29.3594 303.754 28.9927C303.901 28.626 304.323 28.351 305.019 28.1677C305.899 27.9477 306.724 27.636 307.494 27.2327C308.264 26.8294 309.016 26.2977 309.749 25.6377C310.519 24.941 311.253 24.0794 311.949 23.0527C312.683 22.026 313.416 20.7977 314.149 19.3677C314.296 19.0744 314.333 18.891 314.259 18.8177C314.223 18.7444 314.021 18.7444 313.654 18.8177C312.554 19.0744 311.638 19.2577 310.904 19.3677C310.171 19.441 309.438 19.496 308.704 19.5327C307.934 19.5694 307.348 19.3494 306.944 18.8727C306.578 18.3594 306.413 17.7727 306.449 17.1127C306.486 16.4894 306.688 16.086 307.054 15.9027C307.458 15.7194 308.026 15.6827 308.759 15.7927C309.273 15.866 310.043 15.9394 311.069 16.0127C312.096 16.086 313.196 16.141 314.369 16.1777C314.736 16.1777 314.974 16.141 315.084 16.0677C315.231 15.9577 315.304 15.756 315.304 15.4627C315.304 15.096 315.304 14.766 315.304 14.4727C315.341 14.1794 315.378 13.886 315.414 13.5927C315.451 13.226 315.414 13.006 315.304 12.9327C315.231 12.8227 315.029 12.8044 314.699 12.8777C313.709 13.0244 312.848 13.1344 312.114 13.2077C311.418 13.2444 310.794 13.2627 310.244 13.2627C309.694 13.226 309.181 13.1344 308.704 12.9877C308.264 12.841 307.824 12.6577 307.384 12.4377C306.871 12.181 306.559 11.8144 306.449 11.3377C306.376 10.861 306.486 10.4394 306.779 10.0727C307.109 9.6327 307.513 9.33937 307.989 9.1927C308.466 9.04603 308.961 9.10103 309.474 9.3577C309.878 9.54103 310.483 9.76103 311.289 10.0177C312.096 10.2377 313.086 10.4944 314.259 10.7877C314.699 10.8977 314.956 10.916 315.029 10.8427C315.139 10.7327 315.158 10.4577 315.084 10.0177C315.011 9.5777 314.901 9.15603 314.754 8.7527C314.644 8.3127 314.479 7.85437 314.259 7.3777C313.929 6.64437 313.764 6.0577 313.764 5.6177C313.764 5.14103 313.948 4.6277 314.314 4.0777C314.608 3.60103 315.066 3.28936 315.689 3.1427C316.349 2.95936 316.881 2.9227 317.284 3.0327C317.688 3.1427 317.981 3.2527 318.164 3.3627C318.348 3.43603 318.513 3.54603 318.659 3.6927C318.953 4.0227 319.356 4.15103 319.869 4.0777C321.409 4.00437 322.876 3.93103 324.269 3.8577C325.663 3.78437 326.983 3.71103 328.229 3.6377C328.449 3.6377 328.614 3.60103 328.724 3.5277C328.834 3.45436 328.926 3.21603 328.999 2.8127C329.109 2.33603 329.329 1.96937 329.659 1.7127C329.989 1.45603 330.741 1.25436 331.914 1.1077C334.298 0.814366 335.544 1.30937 335.654 2.5927C335.728 3.0327 335.801 3.3077 335.874 3.4177C335.984 3.5277 336.186 3.5827 336.479 3.5827C337.103 3.5827 337.763 3.5827 338.459 3.5827C339.193 3.5827 339.944 3.60103 340.714 3.6377C342.584 3.71103 344.289 3.78437 345.829 3.8577C347.369 3.89436 348.854 3.93103 350.284 3.9677C350.908 3.9677 351.293 4.09603 351.439 4.3527C351.586 4.60937 351.513 5.0677 351.219 5.7277C351.109 6.02103 350.944 6.25936 350.724 6.4427C350.504 6.58936 350.174 6.69937 349.734 6.7727C349.294 6.84603 348.689 6.8827 347.919 6.8827C347.186 6.8827 346.251 6.84603 345.114 6.7727C344.014 6.69937 342.639 6.64437 340.989 6.6077C339.339 6.53437 337.506 6.51603 335.489 6.5527C335.123 6.5527 334.994 6.69937 335.104 6.9927C335.178 7.17603 335.196 7.41437 335.159 7.7077C335.123 8.00103 334.994 8.4227 334.774 8.9727C334.591 9.3027 334.683 9.4677 335.049 9.4677C336.186 9.4677 337.323 9.48603 338.459 9.5227C339.633 9.5227 340.733 9.5227 341.759 9.5227C342.786 9.5227 343.721 9.54103 344.564 9.5777C345.408 9.5777 346.086 9.5777 346.599 9.5777C347.003 9.5777 347.259 9.65103 347.369 9.7977C347.479 9.94437 347.553 10.256 347.589 10.7327C347.626 11.136 347.461 11.4294 347.094 11.6127C346.764 11.7594 345.976 11.8144 344.729 11.7777C344.143 11.7777 343.483 11.7777 342.749 11.7777C342.053 11.7777 341.356 11.796 340.659 11.8327C339.963 11.8327 339.284 11.8327 338.624 11.8327C338.001 11.8327 337.469 11.8327 337.029 11.8327C336.956 11.8327 336.901 11.8877 336.864 11.9977C336.864 12.071 336.956 12.1627 337.139 12.2727C338.166 12.9694 339.394 13.666 340.824 14.3627C341.081 14.4727 341.301 14.436 341.484 14.2527C341.814 13.9594 342.108 13.6294 342.364 13.2627C342.731 12.7127 343.061 12.3827 343.354 12.2727C343.684 12.126 344.161 12.1444 344.784 12.3277C345.811 12.6577 346.379 13.1344 346.489 13.7577C346.599 14.3444 346.123 14.7844 345.059 15.0777C344.656 15.1877 344.289 15.2977 343.959 15.4077C343.739 15.481 343.758 15.6094 344.014 15.7927C344.931 16.2694 345.793 16.691 346.599 17.0577C347.406 17.3877 348.194 17.681 348.964 17.9377C349.734 18.1944 350.523 18.4327 351.329 18.6527C352.136 18.8727 353.016 19.0927 353.969 19.3127C355.399 19.6427 355.766 20.211 355.069 21.0177ZM350.944 32.7877C351.274 33.081 351.256 33.3744 350.889 33.6677C350.559 33.9244 349.991 33.961 349.184 33.7777C348.634 33.6677 348.011 33.4844 347.314 33.2277C346.618 32.9344 345.903 32.6044 345.169 32.2377C344.436 31.871 343.703 31.4677 342.969 31.0277C342.273 30.5877 341.631 30.1477 341.044 29.7077C340.421 29.231 340.054 28.846 339.944 28.5527C339.871 28.2227 339.963 27.8194 340.219 27.3427C340.513 26.8294 340.989 26.5727 341.649 26.5727C342.346 26.536 342.969 26.6827 343.519 27.0127C343.886 27.2327 344.381 27.581 345.004 28.0577C345.664 28.4977 346.343 29.011 347.039 29.5977C347.773 30.1477 348.488 30.716 349.184 31.3027C349.881 31.8527 350.468 32.3477 350.944 32.7877ZM326.689 29.5977C326.323 29.9277 325.809 30.2944 325.149 30.6977C324.526 31.101 323.811 31.5044 323.004 31.9077C322.198 32.311 321.318 32.696 320.364 33.0627C319.411 33.4294 318.421 33.741 317.394 33.9977C316.991 34.1077 316.698 34.126 316.514 34.0527C316.368 33.9794 316.239 33.8327 316.129 33.6127C315.909 33.136 316.001 32.806 316.404 32.6227C316.954 32.366 317.541 32.0544 318.164 31.6877C318.788 31.2844 319.393 30.881 319.979 30.4777C320.566 30.0377 321.098 29.5977 321.574 29.1577C322.088 28.7177 322.491 28.3144 322.784 27.9477C323.298 27.251 323.793 26.8294 324.269 26.6827C324.783 26.4994 325.424 26.591 326.194 26.9577C327.624 27.6177 327.789 28.4977 326.689 29.5977ZM330.319 7.1027C330.393 6.80937 330.228 6.6627 329.824 6.6627C328.724 6.69936 327.606 6.73603 326.469 6.7727C325.369 6.80937 324.233 6.86437 323.059 6.9377C322.546 6.97437 322.014 7.02937 321.464 7.1027C320.951 7.13937 320.383 7.23103 319.759 7.3777C319.429 7.45103 319.209 7.56103 319.099 7.7077C319.026 7.8177 318.989 8.0377 318.989 8.3677C318.989 10.0544 318.971 11.5027 318.934 12.7127C318.898 13.9227 318.824 14.9677 318.714 15.8477C318.641 16.7277 318.549 17.4977 318.439 18.1577C318.329 18.781 318.201 19.3677 318.054 19.9177C317.944 20.3577 318.091 20.486 318.494 20.3027C319.704 19.936 320.988 19.4044 322.344 18.7077C323.738 17.9744 324.984 17.131 326.084 16.1777C326.158 16.1044 326.158 16.0494 326.084 16.0127C326.048 15.9394 325.956 15.9394 325.809 16.0127C325.039 16.306 324.379 16.4527 323.829 16.4527C323.279 16.4527 322.839 16.361 322.509 16.1777C321.593 15.7377 321.574 15.041 322.454 14.0877C322.894 13.611 323.389 13.391 323.939 13.4277C324.526 13.4277 325.149 13.5927 325.809 13.9227C326.066 14.0694 326.286 14.1794 326.469 14.2527C326.653 14.326 326.818 14.3994 326.964 14.4727C327.294 14.656 327.551 14.601 327.734 14.3077C327.954 14.0144 328.138 13.721 328.284 13.4277C328.431 13.1344 328.596 12.786 328.779 12.3827C328.889 12.1627 328.743 12.0527 328.339 12.0527C327.863 12.0527 327.368 12.071 326.854 12.1077C326.341 12.1077 325.846 12.1444 325.369 12.2177C324.929 12.2544 324.526 12.3094 324.159 12.3827C323.793 12.456 323.518 12.5477 323.334 12.6577C321.868 13.3177 320.841 13.2994 320.254 12.6027C319.704 11.9427 319.943 11.1727 320.969 10.2927C322.216 9.26603 323.353 8.88103 324.379 9.1377C324.489 9.17437 325.058 9.22937 326.084 9.3027C327.111 9.33937 328.229 9.3577 329.439 9.3577C329.733 9.3577 329.934 9.1927 330.044 8.8627C330.118 8.56937 330.173 8.29437 330.209 8.0377C330.246 7.74437 330.283 7.4327 330.319 7.1027ZM339.064 16.3427C338.148 15.7194 337.213 15.0594 336.259 14.3627C335.343 13.666 334.481 12.9877 333.674 12.3277C333.418 12.1444 333.216 12.1444 333.069 12.3277C332.519 13.1344 331.988 13.8677 331.474 14.5277C330.961 15.151 330.393 15.7744 329.769 16.3977C329.659 16.5077 329.623 16.6177 329.659 16.7277C329.696 16.801 329.788 16.8377 329.934 16.8377C331.511 16.7644 333.069 16.7277 334.609 16.7277C336.186 16.7277 337.506 16.7644 338.569 16.8377C338.899 16.8744 339.101 16.8377 339.174 16.7277C339.284 16.581 339.248 16.4527 339.064 16.3427ZM338.954 19.8077C338.954 19.2944 338.698 19.001 338.184 18.9277C337.708 18.891 337.084 18.8727 336.314 18.8727C335.581 18.836 334.774 18.836 333.894 18.8727C333.014 18.8727 332.079 18.891 331.089 18.9277C330.136 18.9644 329.219 19.001 328.339 19.0377C327.899 19.0377 327.679 19.2944 327.679 19.8077C327.679 20.1377 327.716 20.3577 327.789 20.4677C327.863 20.5777 327.973 20.6327 328.119 20.6327C329.659 20.5594 331.383 20.5227 333.289 20.5227C335.196 20.486 336.919 20.486 338.459 20.5227C338.789 20.5227 338.954 20.2844 338.954 19.8077ZM338.679 22.9427C338.716 22.466 338.606 22.2277 338.349 22.2277C336.699 22.1544 334.994 22.136 333.234 22.1727C331.511 22.2094 329.824 22.2827 328.174 22.3927C327.881 22.3927 327.734 22.576 327.734 22.9427C327.734 23.566 327.936 23.8777 328.339 23.8777C328.889 23.9144 329.586 23.951 330.429 23.9877C331.309 23.9877 332.189 23.9877 333.069 23.9877C333.986 23.951 334.848 23.9144 335.654 23.8777C336.498 23.841 337.158 23.8044 337.634 23.7677C338.038 23.6944 338.294 23.621 338.404 23.5477C338.551 23.4377 338.643 23.236 338.679 22.9427ZM410.014 14.3627C409.684 15.426 409.299 16.086 408.859 16.3427C408.456 16.5627 407.888 16.526 407.154 16.2327C406.934 16.1227 406.769 15.8477 406.659 15.4077C406.549 14.9677 406.531 14.5094 406.604 14.0327C406.678 13.2627 406.696 12.676 406.659 12.2727C406.659 11.8694 406.623 11.466 406.549 11.0627C406.476 10.5494 406.311 10.2194 406.054 10.0727C405.834 9.88937 405.413 9.76103 404.789 9.6877C401.343 9.50437 398.134 9.44937 395.164 9.5227C392.194 9.59603 389.664 9.72437 387.574 9.9077C386.914 9.9077 386.419 9.99937 386.089 10.1827C385.796 10.3294 385.521 10.6044 385.264 11.0077C385.044 11.6677 384.861 12.3277 384.714 12.9877C384.604 13.611 384.531 14.2894 384.494 15.0227C384.494 15.426 384.384 15.756 384.164 16.0127C383.981 16.2694 383.743 16.416 383.449 16.4527C383.119 16.3794 382.771 16.196 382.404 15.9027C382.074 15.5727 381.854 15.151 381.744 14.6377C381.708 14.3077 381.671 13.831 381.634 13.2077C381.598 12.5477 381.579 11.8694 381.579 11.1727C381.579 10.476 381.579 9.83437 381.579 9.2477C381.616 8.62437 381.671 8.18436 381.744 7.9277C382.221 6.35103 382.844 5.5077 383.614 5.3977C384.421 5.2877 385.246 5.5627 386.089 6.2227C386.493 6.51603 387.006 6.69937 387.629 6.7727C388.253 6.80937 389.133 6.79103 390.269 6.7177C391.003 6.64437 391.443 6.51603 391.589 6.3327C391.736 6.14937 391.773 5.70937 391.699 5.0127C391.589 4.05937 391.626 3.32603 391.809 2.8127C391.993 2.2627 392.378 1.78603 392.964 1.3827C393.368 1.08937 393.844 0.961033 394.394 0.997699C394.944 1.03437 395.458 1.18103 395.934 1.4377C396.741 1.84103 397.309 2.35437 397.639 2.9777C398.006 3.56437 398.226 4.37103 398.299 5.3977C398.336 6.09436 398.648 6.4427 399.234 6.4427C400.078 6.40603 400.848 6.3877 401.544 6.3877C402.278 6.3877 402.901 6.36937 403.414 6.3327C404.184 6.25936 404.771 6.20436 405.174 6.1677C405.614 6.13103 405.963 6.07603 406.219 6.0027C406.806 5.70937 407.448 5.59937 408.144 5.6727C408.878 5.70937 409.464 6.02103 409.904 6.6077C410.491 7.34103 410.803 8.38603 410.839 9.7427C410.876 11.0994 410.601 12.6394 410.014 14.3627ZM402.094 11.9977C402.314 12.1077 402.479 12.2727 402.589 12.4927C402.699 12.7127 402.754 12.9327 402.754 13.1527C402.754 13.3727 402.681 13.5744 402.534 13.7577C402.424 13.9044 402.259 13.996 402.039 14.0327C401.819 14.1427 401.416 14.2344 400.829 14.3077C400.243 14.381 399.601 14.436 398.904 14.4727C398.244 14.5094 397.566 14.546 396.869 14.5827C396.173 14.5827 395.604 14.546 395.164 14.4727C394.908 14.4727 394.559 14.4727 394.119 14.4727C393.716 14.436 393.294 14.436 392.854 14.4727C392.414 14.5094 391.974 14.546 391.534 14.5827C391.131 14.6194 390.801 14.6927 390.544 14.8027C388.968 15.206 387.959 15.1877 387.519 14.7477C387.263 14.4544 387.171 14.0694 387.244 13.5927C387.318 13.0794 387.556 12.566 387.959 12.0527C388.216 11.796 388.564 11.631 389.004 11.5577C389.481 11.4477 389.958 11.4844 390.434 11.6677C391.094 11.8144 391.571 11.851 391.864 11.7777C394.064 11.4844 396.081 11.3927 397.914 11.5027C399.748 11.576 401.141 11.741 402.094 11.9977ZM380.919 7.5427C380.516 8.71603 380.021 9.72437 379.434 10.5677C378.848 11.3744 377.949 12.2727 376.739 13.2627C376.299 13.666 376.079 13.941 376.079 14.0877C376.116 14.2344 376.373 14.3444 376.849 14.4177C377.986 14.6744 378.921 15.261 379.654 16.1777C380.388 17.0577 380.736 18.0844 380.699 19.2577C380.626 20.1377 380.461 20.9627 380.204 21.7327C379.948 22.5027 379.544 23.181 378.994 23.7677C378.444 24.3544 377.711 24.8494 376.794 25.2527C375.914 25.656 374.814 25.931 373.494 26.0777C373.128 26.151 372.871 26.261 372.724 26.4077C372.614 26.5544 372.578 26.866 372.614 27.3427C372.688 28.846 372.706 30.0377 372.669 30.9177C372.669 31.761 372.578 32.421 372.394 32.8977C372.248 33.3744 371.991 33.7044 371.624 33.8877C371.294 34.0344 370.818 34.1627 370.194 34.2727C369.608 34.346 369.131 34.3644 368.764 34.3277C368.434 34.2544 368.178 34.0894 367.994 33.8327C367.811 33.5394 367.683 33.1177 367.609 32.5677C367.573 31.981 367.573 31.211 367.609 30.2577C367.829 26.5177 367.976 23.0527 368.049 19.8627C368.123 16.636 368.068 13.446 367.884 10.2927C367.848 9.66937 367.719 9.3027 367.499 9.1927C367.316 9.04603 366.968 9.06437 366.454 9.2477C365.464 9.54103 364.786 9.65103 364.419 9.5777C364.053 9.4677 363.833 9.1377 363.759 8.5877C363.686 8.00103 363.814 7.4877 364.144 7.0477C364.474 6.6077 365.061 6.07603 365.904 5.4527C367.078 4.71936 367.958 4.27936 368.544 4.1327C369.168 3.98603 369.754 4.05936 370.304 4.3527C370.744 4.5727 371.239 4.71936 371.789 4.7927C372.376 4.86603 372.999 4.86603 373.659 4.7927C374.429 4.60937 375.236 4.66437 376.079 4.9577C376.373 5.10436 376.721 5.19603 377.124 5.2327C377.528 5.26937 377.949 5.19603 378.389 5.0127C378.646 4.93937 378.958 4.9577 379.324 5.0677C379.691 5.14103 380.003 5.2877 380.259 5.5077C380.553 5.7277 380.773 6.02103 380.919 6.3877C381.066 6.7177 381.066 7.1027 380.919 7.5427ZM416.174 27.7277C415.881 29.781 414.964 31.486 413.424 32.8427C411.921 34.1994 410.014 34.8777 407.704 34.8777C407.191 34.9144 406.439 34.8044 405.449 34.5477C404.459 34.291 403.378 33.9427 402.204 33.5027C401.068 33.026 399.931 32.4944 398.794 31.9077C397.694 31.321 396.759 30.6977 395.989 30.0377C394.999 29.121 394.376 27.8927 394.119 26.3527C393.863 24.776 394.101 22.686 394.834 20.0827C394.981 19.5694 394.798 19.3127 394.284 19.3127C393.808 19.3127 393.551 19.4777 393.514 19.8077C393.111 21.751 392.616 23.4927 392.029 25.0327C391.443 26.536 390.691 27.8377 389.774 28.9377C388.858 30.0377 387.758 30.936 386.474 31.6327C385.191 32.2927 383.669 32.7327 381.909 32.9527C380.149 33.2094 378.774 33.0444 377.784 32.4577C376.794 31.8344 376.208 31.046 376.024 30.0927C375.914 29.4327 376.098 29.176 376.574 29.3227C378.371 29.4694 380.003 29.341 381.469 28.9377C382.973 28.5344 384.256 27.9294 385.319 27.1227C386.419 26.2794 387.299 25.271 387.959 24.0977C388.619 22.9244 389.023 21.641 389.169 20.2477C389.243 19.7344 388.986 19.5144 388.399 19.5877C388.033 19.6244 387.648 19.6977 387.244 19.8077C386.841 19.881 386.438 19.9727 386.034 20.0827C385.484 20.3394 385.026 20.4494 384.659 20.4127C384.293 20.376 383.963 20.2477 383.669 20.0277C383.376 19.6244 383.248 19.166 383.284 18.6527C383.358 18.1394 383.669 17.681 384.219 17.2777C384.623 16.9477 384.971 16.691 385.264 16.5077C385.594 16.3244 385.888 16.196 386.144 16.1227C386.438 16.0494 386.749 16.0127 387.079 16.0127C387.409 16.0127 387.794 16.0494 388.234 16.1227C388.491 16.1594 388.894 16.196 389.444 16.2327C390.031 16.2327 390.673 16.2327 391.369 16.2327C392.103 16.2327 392.873 16.2144 393.679 16.1777C394.523 16.141 395.311 16.0677 396.044 15.9577C398.134 15.8844 399.876 15.866 401.269 15.9027C402.663 15.9394 403.579 15.9944 404.019 16.0677C404.679 16.1777 405.101 16.4344 405.284 16.8377C405.504 17.241 405.523 17.681 405.339 18.1577C405.266 18.3777 405.156 18.5794 405.009 18.7627C404.863 18.9094 404.606 19.0377 404.239 19.1477C403.909 19.221 403.433 19.276 402.809 19.3127C402.223 19.3494 401.416 19.3494 400.389 19.3127C399.986 19.3127 399.693 19.3494 399.509 19.4227C399.326 19.496 399.161 19.6794 399.014 19.9727C398.611 20.8527 398.428 21.8794 398.464 23.0527C398.538 24.226 398.923 25.1977 399.619 25.9677C400.023 26.4444 400.628 26.7927 401.434 27.0127C402.241 27.2327 403.341 27.4344 404.734 27.6177C406.898 27.9477 408.768 28.076 410.344 28.0027C411.958 27.9294 413.461 27.5994 414.854 27.0127C415.551 26.7927 415.973 26.7377 416.119 26.8477C416.266 26.921 416.284 27.2144 416.174 27.7277ZM373.274 8.0927C373.018 8.0927 372.816 8.22103 372.669 8.4777C372.559 8.6977 372.486 9.3027 372.449 10.2927C372.376 11.466 372.376 12.236 372.449 12.6027C372.523 12.9694 372.614 13.116 372.724 13.0427C373.568 12.4194 374.173 11.8144 374.539 11.2277C374.943 10.641 375.144 10.1277 375.144 9.6877C375.144 9.21103 374.979 8.82603 374.649 8.5327C374.319 8.23937 373.861 8.0927 373.274 8.0927ZM376.794 18.3777C376.611 17.681 376.226 17.1677 375.639 16.8377C375.053 16.5077 374.118 16.3427 372.834 16.3427C372.688 16.3427 372.559 16.3977 372.449 16.5077C372.376 16.6177 372.339 16.856 372.339 17.2227C372.339 17.956 372.339 18.726 372.339 19.5327C372.339 20.3027 372.376 21.1277 372.449 22.0077C372.449 22.4477 372.706 22.5577 373.219 22.3377C374.576 21.7877 375.529 21.1094 376.079 20.3027C376.629 19.496 376.868 18.8544 376.794 18.3777Z" fill="#444444"/>
</svg>
