<svg width="252" height="24" viewBox="0 0 252 24" fill="none" xmlns="http://www.w3.org/2000/svg">
<path d="M34.308 10.4074C34.236 10.5754 34.104 10.7914 33.912 11.0554C33.744 11.2954 33.552 11.5474 33.336 11.8114C33.12 12.0514 32.88 12.2794 32.616 12.4954C32.376 12.7114 32.148 12.8674 31.932 12.9634C31.356 13.2274 30.804 13.3354 30.276 13.2874C29.748 13.2154 29.172 12.9634 28.548 12.5314C27.852 12.0754 27.216 11.6554 26.64 11.2714C26.088 10.8874 25.572 10.5274 25.092 10.1914C24.852 10.0954 24.636 10.1074 24.444 10.2274C23.796 10.7074 22.992 11.0794 22.032 11.3434C21.264 11.6074 20.508 11.7514 19.764 11.7754C19.716 11.7754 19.656 11.7994 19.584 11.8474C19.512 11.8714 19.5 11.9194 19.548 11.9914C19.668 12.2314 19.632 12.4594 19.44 12.6754C19.248 12.8674 18.948 13.0234 18.54 13.1434C18.18 13.2394 17.724 13.3594 17.172 13.5034C16.62 13.6234 15.984 13.7554 15.264 13.8994C14.88 14.0194 14.688 14.1394 14.688 14.2594C14.688 14.3554 14.772 14.4274 14.94 14.4754C15.204 14.5234 15.492 14.5354 15.804 14.5114C16.116 14.4634 16.584 14.3794 17.208 14.2594C17.376 14.2114 17.532 14.1634 17.676 14.1154C17.844 14.0674 18.012 14.0074 18.18 13.9354C18.66 13.7434 19.092 13.5514 19.476 13.3594C19.86 13.1674 20.148 13.0114 20.34 12.8914C20.82 12.6034 21.132 12.4234 21.276 12.3514C21.42 12.2794 21.588 12.2674 21.78 12.3154C22.212 12.4354 22.488 12.5434 22.608 12.6394C22.728 12.7354 22.812 12.8914 22.86 13.1074C22.956 13.5874 22.416 14.0194 21.24 14.4034C21.024 14.4754 20.808 14.5474 20.592 14.6194C20.376 14.6914 20.1 14.7874 19.764 14.9074C19.452 15.0274 19.044 15.1834 18.54 15.3754C18.06 15.5674 17.436 15.8194 16.668 16.1314C16.38 16.2514 16.284 16.3954 16.38 16.5634C16.476 16.7074 16.68 16.8034 16.992 16.8514C17.712 16.9474 18.42 16.9114 19.116 16.7434C19.836 16.5754 20.46 16.3594 20.988 16.0954C21.108 16.0474 21.156 15.9874 21.132 15.9154C21.132 15.8434 21.06 15.7354 20.916 15.5914C20.796 15.4714 20.748 15.3514 20.772 15.2314C20.82 15.1114 20.916 14.9314 21.06 14.6914C21.18 14.4994 21.42 14.3794 21.78 14.3314C22.164 14.2834 22.56 14.3554 22.968 14.5474C23.232 14.6674 23.46 14.7874 23.652 14.9074C23.868 15.0034 24.096 15.1234 24.336 15.2674C24.576 15.3874 24.84 15.5434 25.128 15.7354C25.44 15.9274 25.824 16.1674 26.28 16.4554C26.664 16.7194 26.868 16.9474 26.892 17.1394C26.94 17.3074 26.88 17.4634 26.712 17.6074C26.592 17.7274 26.388 17.7994 26.1 17.8234C25.812 17.8234 25.536 17.7634 25.272 17.6434C25.008 17.5234 24.756 17.4154 24.516 17.3194C24.276 17.1994 24.036 17.0794 23.796 16.9594C23.676 16.8634 23.436 16.8754 23.076 16.9954C22.692 17.2114 22.248 17.4274 21.744 17.6434C21.264 17.8354 20.772 17.9914 20.268 18.1114C20.052 18.1834 19.956 18.3754 19.98 18.6874C20.028 19.4554 20.028 20.1274 19.98 20.7034C19.932 21.2794 19.8 21.7714 19.584 22.1794C19.392 22.5634 19.104 22.8634 18.72 23.0794C18.336 23.2714 17.832 23.3914 17.208 23.4394C17.016 23.4394 16.716 23.3914 16.308 23.2954C15.9 23.1994 15.48 23.0674 15.048 22.8994C14.616 22.7074 14.208 22.4794 13.824 22.2154C13.44 21.9274 13.176 21.5914 13.032 21.2074C12.792 20.6314 12.984 20.4034 13.608 20.5234C14.232 20.7154 14.7 20.7994 15.012 20.7754C15.348 20.7514 15.66 20.6554 15.948 20.4874C16.02 20.4394 16.08 20.3074 16.128 20.0914C16.176 19.8514 16.176 19.4314 16.128 18.8314C16.128 18.6154 15.948 18.4714 15.588 18.3994C14.484 18.1594 13.56 18.0514 12.816 18.0754C12.096 18.0754 11.568 18.1234 11.232 18.2194C10.68 18.3874 10.308 18.4594 10.116 18.4354C9.924 18.4114 9.768 18.3034 9.648 18.1114C9.48 17.8474 9.492 17.5954 9.684 17.3554C9.9 17.1154 10.284 16.9354 10.836 16.8154C11.004 16.7674 11.28 16.6714 11.664 16.5274C12.072 16.3834 12.54 16.2154 13.068 16.0234C13.428 15.8314 13.56 15.6874 13.464 15.5914C13.392 15.4714 13.224 15.4354 12.96 15.4834C12.6 15.4834 12.168 15.5074 11.664 15.5554C11.184 15.6034 10.812 15.6634 10.548 15.7354C9.924 15.9274 9.504 15.9994 9.288 15.9514C9.096 15.8794 8.976 15.6754 8.928 15.3394C8.856 14.8354 8.928 14.4994 9.144 14.3314C9.384 14.1394 9.828 13.9954 10.476 13.8994C10.764 13.8034 11.136 13.7074 11.592 13.6114C12.072 13.4914 12.552 13.3714 13.032 13.2514C13.296 13.2034 13.296 13.1074 13.032 12.9634C12.864 12.8434 12.804 12.7234 12.852 12.6034C12.9 12.4834 13.056 12.4474 13.32 12.4954C13.584 12.5674 13.824 12.5674 14.04 12.4954C14.4 12.3754 14.388 12.3154 14.004 12.3154C13.86 12.3154 13.752 12.3034 13.68 12.2794C13.128 12.2314 12.648 12.1954 12.24 12.1714C11.856 12.1474 11.472 12.1474 11.088 12.1714C10.728 12.1714 10.32 12.1954 9.864 12.2434C9.432 12.2914 8.904 12.3634 8.28 12.4594C8.16 12.4834 8.052 12.5074 7.956 12.5314C7.86 12.5554 7.728 12.6034 7.56 12.6754C7.44 12.7234 7.332 12.7714 7.236 12.8194C7.14 12.8674 7.044 12.9034 6.948 12.9274C6.588 13.0234 6.336 13.0474 6.192 12.9994C6.048 12.9274 5.88 12.7594 5.688 12.4954C5.568 12.3754 5.496 12.2434 5.472 12.0994C5.472 11.9314 5.556 11.7034 5.724 11.4154C5.772 11.3194 5.832 11.1754 5.904 10.9834C6 10.7914 6.096 10.5394 6.192 10.2274C6.24 10.0834 6.204 9.99937 6.084 9.97537C5.964 9.92737 5.688 9.92737 5.256 9.97537C5.04 10.0234 4.788 10.0834 4.5 10.1554C4.236 10.2274 3.96 10.2994 3.672 10.3714C3.408 10.4434 3.156 10.5154 2.916 10.5874C2.7 10.6354 2.532 10.6834 2.412 10.7314C1.788 11.0194 1.296 11.1274 0.936 11.0554C0.576 10.9594 0.408 10.6114 0.432 10.0114C0.456 9.74737 0.576 9.49537 0.792 9.25537C1.032 9.01537 1.308 8.82337 1.62 8.67937C1.956 8.51137 2.304 8.39137 2.664 8.31937C3.048 8.24737 3.384 8.24737 3.672 8.31937C3.936 8.39137 4.176 8.45137 4.392 8.49937C4.608 8.52337 4.836 8.51137 5.076 8.46337C5.34 8.41537 5.76 8.41537 6.336 8.46337C6.432 8.46337 6.516 8.43937 6.588 8.39137C6.684 8.34337 6.744 8.24737 6.768 8.10337C6.888 7.67137 6.924 7.39537 6.876 7.27537C6.852 6.84337 6.864 6.54337 6.912 6.37537C6.96 6.18337 7.008 6.06337 7.056 6.01537C7.32 5.79937 7.608 5.70337 7.92 5.72737C8.232 5.72737 8.568 5.81137 8.928 5.97937C9.024 6.02737 9.132 6.07537 9.252 6.12337C9.372 6.14737 9.468 6.14737 9.54 6.12337C9.996 6.05137 10.452 5.99137 10.908 5.94337C11.364 5.89537 11.784 5.87137 12.168 5.87137C12.576 5.84737 12.936 5.84737 13.248 5.87137C13.56 5.89537 13.788 5.94337 13.932 6.01537C14.34 6.15937 14.64 6.24337 14.832 6.26737C15.024 6.26737 15.204 6.19537 15.372 6.05137C15.516 5.93137 15.72 5.87137 15.984 5.87137C16.272 5.87137 16.536 5.93137 16.776 6.05137C17.064 6.19537 17.256 6.29137 17.352 6.33937C17.472 6.38737 17.568 6.38737 17.64 6.33937C18.216 5.95537 18.684 5.49937 19.044 4.97137C19.404 4.41937 19.656 3.71137 19.8 2.84737C19.896 2.22337 20.064 1.83937 20.304 1.69537C20.544 1.55137 20.928 1.52737 21.456 1.62337C21.792 1.69537 22.068 1.92337 22.284 2.30737C22.524 2.66737 22.584 3.05137 22.464 3.45937C22.44 3.53137 22.452 3.61537 22.5 3.71137C22.548 3.78337 22.632 3.81937 22.752 3.81937C23.976 3.84337 25.14 3.86737 26.244 3.89137C27.348 3.89137 28.476 3.86737 29.628 3.81937C29.964 3.81937 30.24 3.89137 30.456 4.03537C30.672 4.17937 30.792 4.35937 30.816 4.57537C30.84 4.91137 30.72 5.13937 30.456 5.25937C30.216 5.37937 29.676 5.46337 28.836 5.51137C28.644 5.51137 28.416 5.51137 28.152 5.51137C27.888 5.51137 27.588 5.52337 27.252 5.54737C27.036 5.54737 26.892 5.58337 26.82 5.65537C26.748 5.70337 26.712 5.78737 26.712 5.90737C26.736 6.24337 26.712 6.56737 26.64 6.87937C26.568 7.16737 26.484 7.44337 26.388 7.70737C26.34 7.80337 26.34 7.91137 26.388 8.03137C26.436 8.12737 26.52 8.19937 26.64 8.24737C27.96 8.58337 29.22 8.87137 30.42 9.11137C31.644 9.32737 32.832 9.53137 33.984 9.72337C34.224 9.77137 34.368 9.83137 34.416 9.90337C34.464 9.97537 34.428 10.1434 34.308 10.4074ZM18.18 4.21537C18.204 4.47937 18.108 4.68337 17.892 4.82737C17.676 4.94737 17.256 5.01937 16.632 5.04337C14.904 5.06737 13.332 5.10337 11.916 5.15137C10.524 5.19937 9.312 5.24737 8.28 5.29537C7.992 5.29537 7.764 5.34337 7.596 5.43937C7.38 5.55937 7.128 5.69137 6.84 5.83537C6.576 5.97937 6.264 6.13537 5.904 6.30337C5.472 6.49537 5.16 6.59137 4.968 6.59137C4.8 6.59137 4.62 6.49537 4.428 6.30337C4.308 6.18337 4.236 6.06337 4.212 5.94337C4.188 5.79937 4.236 5.69137 4.356 5.61937C5.028 5.21137 5.628 4.74337 6.156 4.21537C6.708 3.68737 7.188 3.15937 7.596 2.63137C7.812 2.36737 7.992 2.16337 8.136 2.01937C8.28 1.87537 8.412 1.77937 8.532 1.73137C8.676 1.68337 8.82 1.68337 8.964 1.73137C9.132 1.75537 9.348 1.81537 9.612 1.91137C10.452 2.31937 10.752 2.73937 10.512 3.17137C10.392 3.36337 10.524 3.45937 10.908 3.45937C11.532 3.45937 12.084 3.45937 12.564 3.45937C13.068 3.45937 13.548 3.47137 14.004 3.49537C14.46 3.49537 14.916 3.50737 15.372 3.53137C15.828 3.55537 16.344 3.57937 16.92 3.60337C17.472 3.60337 17.808 3.65137 17.928 3.74737C18.048 3.84337 18.132 3.99937 18.18 4.21537ZM31.032 22.3954C30.696 22.8034 30.036 22.8994 29.052 22.6834C28.02 22.4674 27.024 22.1914 26.064 21.8554C25.128 21.5194 24.048 21.0754 22.824 20.5234C22.128 20.1874 21.744 19.8394 21.672 19.4794C21.6 19.0954 21.732 18.7474 22.068 18.4354C22.404 18.1234 22.74 17.9794 23.076 18.0034C23.436 18.0034 23.856 18.1834 24.336 18.5434C24.408 18.5914 24.684 18.7354 25.164 18.9754C25.644 19.1914 26.208 19.4554 26.856 19.7674C27.528 20.0794 28.224 20.4034 28.944 20.7394C29.664 21.0514 30.288 21.3274 30.816 21.5674C31.296 21.8314 31.368 22.1074 31.032 22.3954ZM13.392 18.7954C13.776 19.1554 13.896 19.4794 13.752 19.7674C13.632 20.0554 13.284 20.3674 12.708 20.7034C12.444 20.8234 12.168 20.9434 11.88 21.0634C11.616 21.1594 11.268 21.2794 10.836 21.4234C10.404 21.5434 9.828 21.6874 9.108 21.8554C8.412 21.9994 7.5 22.1794 6.372 22.3954C5.868 22.4914 5.472 22.5634 5.184 22.6114C4.896 22.6594 4.668 22.6834 4.5 22.6834C4.356 22.6834 4.236 22.6594 4.14 22.6114C4.068 22.5634 3.984 22.4914 3.888 22.3954C3.72 22.1794 3.648 22.0234 3.672 21.9274C3.696 21.8314 3.804 21.7594 3.996 21.7114C5.796 21.2314 7.236 20.7514 8.316 20.2714C9.42 19.7914 10.32 19.3234 11.016 18.8674C11.304 18.6274 11.7 18.5074 12.204 18.5074C12.732 18.4834 13.128 18.5794 13.392 18.7954ZM20.736 5.83537C20.472 6.09937 20.208 6.35137 19.944 6.59137C19.68 6.83137 19.416 7.05937 19.152 7.27537C18.696 7.65937 18.216 7.82737 17.712 7.77937C17.52 7.73137 17.388 7.79137 17.316 7.95937C17.22 8.29537 17.448 8.48737 18 8.53537C18.552 8.53537 18.936 8.59537 19.152 8.71537C19.368 8.83537 19.44 8.96737 19.368 9.11137C19.224 9.39937 19.068 9.59137 18.9 9.68737C18.756 9.78337 18.48 9.81937 18.072 9.79537C17.952 9.79537 17.844 9.79537 17.748 9.79537C17.652 9.79537 17.544 9.78337 17.424 9.75937C17.112 9.75937 16.944 9.87937 16.92 10.1194C16.896 10.2394 16.884 10.3354 16.884 10.4074C16.884 10.4554 16.872 10.5394 16.848 10.6594C16.824 10.8274 16.884 10.9354 17.028 10.9834C17.724 11.1034 17.976 11.2714 17.784 11.4874C17.616 11.7034 17.472 11.8594 17.352 11.9554C17.232 12.0274 17.076 12.0874 16.884 12.1354C16.788 12.1594 16.74 12.1834 16.74 12.2074C16.74 12.2314 16.776 12.2434 16.848 12.2434C17.04 12.1954 17.256 12.1234 17.496 12.0274C17.736 11.9314 17.916 11.8354 18.036 11.7394C18.18 11.6434 18.192 11.5354 18.072 11.4154C17.904 11.3194 17.772 11.1874 17.676 11.0194C17.412 10.6594 17.52 10.4434 18 10.3714C19.128 10.2034 20.004 10.0234 20.628 9.83137C21.252 9.61537 21.816 9.32737 22.32 8.96737C22.416 8.91937 22.464 8.85937 22.464 8.78737C22.488 8.69137 22.428 8.59537 22.284 8.49937C21.66 8.09137 21.216 7.83937 20.952 7.74337C20.712 7.62337 20.508 7.53937 20.34 7.49137C20.148 7.44337 20.004 7.34737 19.908 7.20337C19.836 7.05937 19.932 6.87937 20.196 6.66337C20.388 6.49537 20.58 6.41137 20.772 6.41137C20.988 6.38737 21.192 6.41137 21.384 6.48337C21.672 6.60337 21.96 6.72337 22.248 6.84337C22.56 6.93937 22.896 7.05937 23.256 7.20337C23.496 7.22737 23.652 7.15537 23.724 6.98737C23.844 6.65137 23.88 6.27937 23.832 5.87137C23.832 5.79937 23.808 5.72737 23.76 5.65537C23.712 5.58337 23.628 5.54737 23.508 5.54737C23.172 5.57137 22.824 5.58337 22.464 5.58337C22.128 5.55937 21.78 5.54737 21.42 5.54737C21.3 5.57137 21.18 5.59537 21.06 5.61937C20.964 5.64337 20.856 5.71537 20.736 5.83537ZM9.468 10.9834C9.804 10.9594 10.104 10.9474 10.368 10.9474C10.656 10.9234 10.932 10.9114 11.196 10.9114C11.172 10.9114 11.16 10.8994 11.16 10.8754C10.944 10.7554 10.8 10.5754 10.728 10.3354C10.68 10.0954 10.752 9.87937 10.944 9.68737H9.648C9.24 9.71137 8.964 9.74737 8.82 9.79537C8.7 9.84337 8.616 9.93937 8.568 10.0834C8.472 10.4674 8.484 10.7194 8.604 10.8394C8.748 10.9594 9.036 11.0074 9.468 10.9834ZM12.996 10.5514C13.116 10.7194 13.164 10.8394 13.14 10.9114H14.328C14.616 10.8634 14.796 10.6954 14.868 10.4074C14.94 9.97537 14.856 9.75937 14.616 9.75937C14.208 9.73537 13.812 9.72337 13.428 9.72337C13.044 9.72337 12.648 9.71137 12.24 9.68737C12.264 9.71137 12.276 9.73537 12.276 9.75937C12.3 9.78337 12.324 9.80737 12.348 9.83137C12.54 10.1194 12.756 10.3594 12.996 10.5514ZM13.14 8.10337C13.26 8.22337 13.296 8.34337 13.248 8.46337H14.688C14.952 8.46337 15.072 8.30737 15.048 7.99537C15.048 7.75537 15.012 7.58737 14.94 7.49137C14.868 7.39537 14.7 7.33537 14.436 7.31137C14.076 7.28737 13.74 7.27537 13.428 7.27537C13.116 7.27537 12.816 7.26337 12.528 7.23937C12.552 7.26337 12.564 7.28737 12.564 7.31137C12.564 7.31137 12.576 7.32337 12.6 7.34737C12.696 7.61137 12.876 7.86337 13.14 8.10337ZM11.664 8.42737C11.544 8.40337 11.424 8.33137 11.304 8.21137C10.944 7.92337 10.86 7.59937 11.052 7.23937C10.956 7.23937 10.86 7.25137 10.764 7.27537C10.692 7.27537 10.608 7.27537 10.512 7.27537C10.392 7.27537 10.26 7.28737 10.116 7.31137C9.996 7.31137 9.876 7.32337 9.756 7.34737C9.588 7.34737 9.432 7.55137 9.288 7.95937C9.24 8.12737 9.252 8.24737 9.324 8.31937C9.396 8.36737 9.636 8.40337 10.044 8.42737H11.664ZM68.004 18.4714C68.196 19.7194 68.184 20.7154 67.968 21.4594C67.752 22.1794 67.212 22.7074 66.348 23.0434C65.772 23.2594 65.316 23.4034 64.98 23.4754C64.644 23.5474 64.392 23.4874 64.224 23.2954C64.08 23.1274 63.996 22.8154 63.972 22.3594C63.948 21.8794 63.972 21.2074 64.044 20.3434C64.068 19.9594 64.092 19.4554 64.116 18.8314C64.14 18.2074 64.152 17.5234 64.152 16.7794C64.152 16.0354 64.152 15.2674 64.152 14.4754C64.152 13.6594 64.14 12.9034 64.116 12.2074C64.116 11.4874 64.104 10.8514 64.08 10.2994C64.08 9.74737 64.068 9.32737 64.044 9.03937C63.996 8.63137 63.924 8.37937 63.828 8.28337C63.732 8.16337 63.588 8.07937 63.396 8.03137C62.964 7.95937 62.184 7.89937 61.056 7.85137C59.928 7.80337 58.584 7.79137 57.024 7.81537C56.76 7.81537 56.556 8.03137 56.412 8.46337C56.364 8.65537 56.34 8.82337 56.34 8.96737C56.34 9.08737 56.4 9.21937 56.52 9.36337C56.856 9.74737 57.252 10.1554 57.708 10.5874C58.164 10.9954 58.644 11.4154 59.148 11.8474C59.652 12.2794 60.156 12.6994 60.66 13.1074C61.188 13.4914 61.692 13.8514 62.172 14.1874C62.556 14.4514 62.844 14.6914 63.036 14.9074C63.252 15.0994 63.384 15.2794 63.432 15.4474C63.504 15.5914 63.504 15.7474 63.432 15.9154C63.36 16.0834 63.24 16.2634 63.072 16.4554C62.496 17.1274 61.74 17.1634 60.804 16.5634C60.444 16.3234 60.108 16.0954 59.796 15.8794C59.484 15.6634 59.136 15.3874 58.752 15.0514C58.368 14.6914 57.912 14.2594 57.384 13.7554C56.88 13.2274 56.232 12.5434 55.44 11.7034C55.296 11.5114 55.14 11.5594 54.972 11.8474C54.42 12.9274 53.772 13.8994 53.028 14.7634C52.308 15.6034 51.54 16.2874 50.724 16.8154C50.316 17.0794 49.908 17.2594 49.5 17.3554C49.092 17.4514 48.708 17.4634 48.348 17.3914C47.988 17.3194 47.664 17.1754 47.376 16.9594C47.112 16.7194 46.92 16.4074 46.8 16.0234C46.752 15.9034 46.74 15.8074 46.764 15.7354C46.788 15.6634 46.872 15.6034 47.016 15.5554C48.648 15.0034 49.992 14.1274 51.048 12.9274C52.104 11.7034 52.812 10.1914 53.172 8.39137C53.244 8.03137 53.088 7.85137 52.704 7.85137C51.72 7.87537 50.748 7.91137 49.788 7.95937C48.852 7.98337 47.88 8.03137 46.872 8.10337C46.656 8.10337 46.548 8.22337 46.548 8.46337C46.524 9.30337 46.512 10.1434 46.512 10.9834C46.536 11.7994 46.572 12.4114 46.62 12.8194C46.764 14.5234 46.536 16.1314 45.936 17.6434C45.36 19.1314 44.436 20.3314 43.164 21.2434C41.772 22.2514 40.5 22.6954 39.348 22.5754C38.22 22.4314 37.332 21.7714 36.684 20.5954C36.492 20.2594 36.564 20.0554 36.9 19.9834C38.364 19.6954 39.636 19.2394 40.716 18.6154C41.82 17.9674 42.552 17.2354 42.912 16.4194C43.152 15.8914 43.332 15.2794 43.452 14.5834C43.572 13.8634 43.632 13.1434 43.632 12.4234C43.656 11.7034 43.632 11.0194 43.56 10.3714C43.488 9.72337 43.38 9.18337 43.236 8.75137C42.972 7.98337 42.852 7.37137 42.876 6.91537C42.9 6.45937 43.08 6.07537 43.416 5.76337C43.776 5.42737 44.172 5.27137 44.604 5.29537C45.06 5.29537 45.468 5.46337 45.828 5.79937C45.924 5.89537 46.032 5.94337 46.152 5.94337C47.352 5.82337 48.516 5.73937 49.644 5.69137C50.772 5.61937 51.9 5.55937 53.028 5.51137C53.34 5.51137 53.472 5.35537 53.424 5.04337C53.376 4.58737 53.304 4.16737 53.208 3.78337C53.112 3.37537 52.992 3.01537 52.848 2.70337C52.776 2.53537 52.764 2.35537 52.812 2.16337C52.86 1.97137 52.968 1.81537 53.136 1.69537C53.328 1.55137 53.58 1.45537 53.892 1.40737C54.204 1.35937 54.564 1.38337 54.972 1.47937C55.668 1.64737 56.22 1.99537 56.628 2.52337C57.036 3.02737 57.18 3.78337 57.06 4.79137C56.988 5.24737 57.12 5.47537 57.456 5.47537C58.368 5.49937 59.28 5.53537 60.192 5.58337C61.128 5.63137 62.1 5.69137 63.108 5.76337C63.42 5.78737 63.672 5.77537 63.864 5.72737C64.056 5.67937 64.272 5.57137 64.512 5.40337C64.848 5.16337 65.16 5.03137 65.448 5.00737C65.736 4.98337 66.048 5.09137 66.384 5.33137C66.792 5.61937 67.116 5.89537 67.356 6.15937C67.596 6.42337 67.764 6.73537 67.86 7.09537C67.956 7.45537 67.992 7.88737 67.968 8.39137C67.944 8.87137 67.872 9.47137 67.752 10.1914C67.68 10.5994 67.644 11.1634 67.644 11.8834C67.644 12.5794 67.656 13.3354 67.68 14.1514C67.704 14.9674 67.74 15.7714 67.788 16.5634C67.86 17.3314 67.932 17.9674 68.004 18.4714ZM102.708 2.09137C102.876 2.54737 102.876 2.90737 102.708 3.17137C102.564 3.41137 102.204 3.62737 101.628 3.81937C101.268 3.93937 100.932 4.03537 100.62 4.10737C100.308 4.17937 99.948 4.26337 99.54 4.35937C99.204 4.43137 98.988 4.37137 98.892 4.17937C98.82 3.98737 98.928 3.75937 99.216 3.49537C99.384 3.35137 99.624 3.12337 99.936 2.81137C100.272 2.47537 100.596 2.15137 100.908 1.83937C101.244 1.50337 101.58 1.38337 101.916 1.47937C102.324 1.57537 102.588 1.77937 102.708 2.09137ZM87.264 17.7874C87.432 16.8274 87.564 15.7954 87.66 14.6914C87.78 13.5874 87.852 12.5434 87.876 11.5594C87.9 10.5754 87.888 9.72337 87.84 9.00337C87.792 8.25937 87.696 7.77937 87.552 7.56337C87.216 7.01137 87.084 6.49537 87.156 6.01537C87.228 5.53537 87.444 5.16337 87.804 4.89937C87.948 4.77937 88.2 4.70737 88.56 4.68337C88.944 4.63537 89.292 4.74337 89.604 5.00737C89.772 5.15137 90.012 5.22337 90.324 5.22337C91.284 5.19937 92.124 5.18737 92.844 5.18737C93.564 5.16337 94.272 5.15137 94.968 5.15137C95.16 5.15137 95.292 5.10337 95.364 5.00737C95.436 4.88737 95.448 4.58737 95.4 4.10737C95.352 3.53137 95.34 3.06337 95.364 2.70337C95.388 2.31937 95.448 2.03137 95.544 1.83937C95.64 1.62337 95.772 1.47937 95.94 1.40737C96.108 1.33537 96.324 1.29937 96.588 1.29937C97.164 1.29937 97.584 1.50337 97.848 1.91137C98.112 2.29537 98.184 2.99137 98.064 3.99937C98.016 4.40737 98.016 4.67137 98.064 4.79137C98.136 4.91137 98.232 4.97137 98.352 4.97137C99.048 4.92337 99.684 4.91137 100.26 4.93537C100.836 4.93537 101.328 4.93537 101.736 4.93537C102.6 4.95937 103.08 5.25937 103.176 5.83537C103.248 6.17137 103.176 6.42337 102.96 6.59137C102.768 6.73537 102.396 6.84337 101.844 6.91537C101.532 6.96337 101.04 7.01137 100.368 7.05937C99.72 7.08337 99.048 7.10737 98.352 7.13137C98.232 7.15537 98.136 7.23937 98.064 7.38337C98.016 7.50337 98.004 7.62337 98.028 7.74337C98.1 8.51137 98.208 9.29137 98.352 10.0834C98.496 10.8514 98.688 11.6074 98.928 12.3514C99.024 12.6154 99.132 12.7474 99.252 12.7474C99.396 12.7474 99.504 12.6154 99.576 12.3514C99.672 12.0394 99.744 11.7154 99.792 11.3794C99.864 11.0434 99.912 10.7314 99.936 10.4434C99.984 9.60337 100.08 9.02737 100.224 8.71537C100.368 8.40337 100.596 8.18737 100.908 8.06737C101.532 7.82737 101.976 7.99537 102.24 8.57137C102.528 9.24337 102.468 10.2754 102.06 11.6674C101.796 12.6034 101.544 13.3594 101.304 13.9354C101.088 14.4874 100.872 14.9674 100.656 15.3754C100.584 15.5434 100.596 15.6754 100.692 15.7714C101.196 16.4194 101.676 16.9714 102.132 17.4274C102.612 17.8834 103.08 18.2674 103.536 18.5794C104.016 18.8674 104.508 19.0954 105.012 19.2634C105.54 19.4314 106.104 19.5514 106.704 19.6234C106.944 19.6714 107.1 19.8034 107.172 20.0194C107.244 20.2114 107.22 20.4154 107.1 20.6314C106.596 21.6634 105.624 22.4194 104.184 22.8994C103.776 23.0434 103.416 23.1274 103.104 23.1514C102.816 23.1994 102.516 23.1634 102.204 23.0434C101.916 22.8994 101.616 22.6834 101.304 22.3954C100.992 22.0834 100.632 21.6514 100.224 21.0994C100.032 20.8354 99.84 20.5594 99.648 20.2714C99.456 19.9594 99.288 19.6234 99.144 19.2634C99 18.9994 98.88 18.8554 98.784 18.8314C98.712 18.8074 98.58 18.9274 98.388 19.1914C98.1 19.6234 97.728 20.0314 97.272 20.4154C96.768 20.8234 96.324 21.1354 95.94 21.3514C95.58 21.5674 95.256 21.6994 94.968 21.7474C94.68 21.7954 94.416 21.7714 94.176 21.6754C93.936 21.5554 93.696 21.3874 93.456 21.1714C93.288 21.0274 93.228 20.8474 93.276 20.6314C93.324 20.3914 93.492 20.2234 93.78 20.1274C93.948 20.0794 94.092 20.0194 94.212 19.9474C94.356 19.8754 94.476 19.8154 94.572 19.7674C94.98 19.4314 95.208 19.1914 95.256 19.0474C95.304 18.8794 95.28 18.7714 95.184 18.7234C94.776 18.5074 94.416 18.3754 94.104 18.3274C93.816 18.2554 93.372 18.2554 92.772 18.3274C92.652 18.3274 92.568 18.3754 92.52 18.4714C92.4 18.7114 92.244 18.8794 92.052 18.9754C91.86 19.0474 91.68 19.0594 91.512 19.0114C91.248 18.9154 91.044 18.7234 90.9 18.4354C90.78 18.1234 90.732 17.6554 90.756 17.0314C90.78 16.4794 90.78 15.9874 90.756 15.5554C90.756 15.0994 90.744 14.7154 90.72 14.4034C90.672 13.5634 90.804 13.0474 91.116 12.8554C91.452 12.6634 91.74 12.6154 91.98 12.7114C92.076 12.7594 92.184 12.7834 92.304 12.7834C92.424 12.7834 92.52 12.7834 92.592 12.7834C93.36 12.8074 93.948 12.8074 94.356 12.7834C94.788 12.7594 95.112 12.7234 95.328 12.6754C95.808 12.5554 96.132 12.7474 96.3 13.2514C96.396 13.5154 96.408 13.9474 96.336 14.5474C96.288 14.8594 96.264 15.2194 96.264 15.6274C96.264 16.0354 96.276 16.4794 96.3 16.9594C96.324 17.3914 96.36 17.6554 96.408 17.7514C96.48 17.8234 96.6 17.7874 96.768 17.6434C96.888 17.5234 96.996 17.4154 97.092 17.3194C97.188 17.2234 97.296 17.0674 97.416 16.8514C97.56 16.6114 97.644 16.4194 97.668 16.2754C97.716 16.1074 97.704 15.9034 97.632 15.6634C97.56 15.4234 97.464 15.1234 97.344 14.7634C97.248 14.3794 97.14 13.9714 97.02 13.5394C96.924 13.1074 96.816 12.6754 96.696 12.2434C96.6 11.8114 96.504 11.4034 96.408 11.0194C96.336 10.7554 96.156 10.6354 95.868 10.6594C94.212 10.8994 92.388 11.0074 90.396 10.9834C90.18 10.9834 90.072 11.1394 90.072 11.4514C90.072 11.7154 90.06 12.0634 90.036 12.4954C90.036 12.9274 90.036 13.3354 90.036 13.7194C90.036 15.9274 89.892 17.7274 89.604 19.1194C89.316 20.5114 88.872 21.5794 88.272 22.3234C87.72 22.9474 87.204 23.2354 86.724 23.1874C86.244 23.1394 85.764 22.8034 85.284 22.1794C85.068 21.9154 84.96 21.6994 84.96 21.5314C84.984 21.3394 85.092 21.1714 85.284 21.0274C85.86 20.6194 86.292 20.1874 86.58 19.7314C86.868 19.2754 87.096 18.6274 87.264 17.7874ZM95.976 8.85937C95.904 8.42737 95.868 8.03137 95.868 7.67137C95.844 7.45537 95.784 7.32337 95.688 7.27537C95.592 7.20337 95.448 7.16737 95.256 7.16737C94.704 7.16737 93.984 7.17937 93.096 7.20337C92.232 7.22737 91.404 7.26337 90.612 7.31137C90.348 7.31137 90.216 7.44337 90.216 7.70737C90.216 7.85137 90.204 8.03137 90.18 8.24737C90.18 8.43937 90.18 8.66737 90.18 8.93137C90.18 9.19537 90.348 9.31537 90.684 9.29137C91.428 9.24337 92.196 9.21937 92.988 9.21937C93.804 9.21937 94.62 9.24337 95.436 9.29137C95.82 9.29137 96 9.14737 95.976 8.85937ZM94.536 15.8794C94.536 15.6874 94.536 15.5074 94.536 15.3394C94.536 15.1714 94.524 14.9794 94.5 14.7634C94.476 14.5234 94.344 14.3794 94.104 14.3314C93.72 14.2834 93.324 14.2954 92.916 14.3674C92.7 14.4154 92.592 14.5234 92.592 14.6914C92.592 15.0274 92.58 15.3274 92.556 15.5914C92.556 15.8554 92.568 16.1314 92.592 16.4194C92.592 16.6354 92.7 16.7554 92.916 16.7794C93.228 16.8274 93.624 16.7794 94.104 16.6354C94.392 16.5394 94.536 16.2874 94.536 15.8794ZM86.796 6.77137C86.964 6.98737 87.048 7.19137 87.048 7.38337C87.072 7.57537 87.024 7.73137 86.904 7.85137C86.808 7.94737 86.652 7.99537 86.436 7.99537C86.22 7.99537 85.968 7.89937 85.68 7.70737C85.344 7.49137 84.972 7.22737 84.564 6.91537C84.18 6.60337 83.82 6.27937 83.484 5.94337C83.22 5.70337 83.004 5.57137 82.836 5.54737C82.668 5.49937 82.548 5.52337 82.476 5.61937C81.78 6.45937 81.072 7.19137 80.352 7.81537C79.656 8.43937 78.924 8.99137 78.156 9.47137C77.244 10.0474 76.5 10.3114 75.924 10.2634C75.372 10.2154 74.88 9.85537 74.448 9.18337C74.112 8.67937 74.016 8.27137 74.16 7.95937C74.304 7.62337 74.58 7.43137 74.988 7.38337C75.828 7.26337 76.584 7.05937 77.256 6.77137C77.952 6.45937 78.54 6.07537 79.02 5.61937C79.644 5.06737 80.124 4.56337 80.46 4.10737C80.796 3.62737 81.06 3.07537 81.252 2.45137C81.468 1.80337 81.756 1.39537 82.116 1.22737C82.5 1.05937 82.884 1.08337 83.268 1.29937C84.012 1.73137 84.228 2.39137 83.916 3.27937C83.892 3.42337 83.94 3.55537 84.06 3.67537C84.492 4.10737 84.912 4.56337 85.32 5.04337C85.752 5.52337 86.244 6.09937 86.796 6.77137ZM86.868 18.7594C86.892 19.0234 86.724 19.2754 86.364 19.5154C86.004 19.7314 85.452 19.8754 84.708 19.9474C84.564 19.9714 84.288 20.0194 83.88 20.0914C83.472 20.1634 83.004 20.2594 82.476 20.3794C81.972 20.4754 81.432 20.5954 80.856 20.7394C80.304 20.8594 79.812 20.9674 79.38 21.0634C79.092 21.1354 78.744 21.2434 78.336 21.3874C77.952 21.5314 77.568 21.7114 77.184 21.9274C76.584 22.2634 76.14 22.4194 75.852 22.3954C75.588 22.3474 75.408 22.2154 75.312 21.9994C75.192 21.7114 75.144 21.4234 75.168 21.1354C75.216 20.8474 75.372 20.4874 75.636 20.0554C75.9 19.6234 76.14 19.3474 76.356 19.2274C76.596 19.1074 76.824 19.1074 77.04 19.2274C77.184 19.2994 77.412 19.3354 77.724 19.3354C78.06 19.3114 78.528 19.2154 79.128 19.0474C79.32 18.9994 79.404 18.9154 79.38 18.7954C79.38 18.6514 79.296 18.5794 79.128 18.5794C78.72 18.5554 78.408 18.4834 78.192 18.3634C78 18.2434 77.772 18.0154 77.508 17.6794C77.028 17.0794 77.004 16.5034 77.436 15.9514C77.796 15.5194 78.168 15.3514 78.552 15.4474C78.936 15.5434 79.188 15.8674 79.308 16.4194C79.404 16.8994 79.512 17.2834 79.632 17.5714C79.752 17.8354 79.908 18.0994 80.1 18.3634C80.316 18.6514 80.472 18.7834 80.568 18.7594C80.712 18.7354 80.784 18.6154 80.784 18.3994C80.784 18.2074 80.784 17.9674 80.784 17.6794C80.808 17.3914 80.82 17.0914 80.82 16.7794C80.844 16.4434 80.856 16.1194 80.856 15.8074C80.88 15.4954 80.892 15.2194 80.892 14.9794C80.892 14.7154 80.772 14.5834 80.532 14.5834C80.1 14.6074 79.752 14.6554 79.488 14.7274C79.248 14.7754 78.936 14.8714 78.552 15.0154C77.88 15.3034 77.46 15.3154 77.292 15.0514C77.124 14.8114 77.052 14.5594 77.076 14.2954C77.124 14.0314 77.292 13.6954 77.58 13.2874C77.94 12.7834 78.288 12.5914 78.624 12.7114C78.936 12.8074 79.212 12.8434 79.452 12.8194C79.596 12.7714 79.752 12.7474 79.92 12.7474C80.112 12.7474 80.328 12.7474 80.568 12.7474C80.784 12.7474 80.892 12.6274 80.892 12.3874C80.892 12.1234 80.892 11.8834 80.892 11.6674C80.892 11.4274 80.88 11.1874 80.856 10.9474C80.832 10.7314 80.7 10.6234 80.46 10.6234C80.124 10.6474 79.836 10.6954 79.596 10.7674C79.38 10.8154 79.116 10.9114 78.804 11.0554C78.564 11.1754 78.36 11.2114 78.192 11.1634C78.024 11.1154 77.916 11.0194 77.868 10.8754C77.82 10.7074 77.832 10.5034 77.904 10.2634C78 10.0234 78.18 9.75937 78.444 9.47137C79.068 8.84737 79.56 8.63137 79.92 8.82337C80.088 8.89537 80.22 8.94337 80.316 8.96737C80.412 8.96737 80.58 8.94337 80.82 8.89537C81.036 8.84737 81.492 8.82337 82.188 8.82337C82.884 8.82337 83.772 8.84737 84.852 8.89537C85.476 8.91937 85.884 8.97937 86.076 9.07537C86.268 9.14737 86.412 9.31537 86.508 9.57937C86.652 10.0114 86.628 10.3474 86.436 10.5874C86.244 10.8274 85.812 10.8994 85.14 10.8034C85.02 10.7794 84.792 10.7674 84.456 10.7674C84.12 10.7434 83.844 10.7074 83.628 10.6594C83.388 10.6354 83.268 10.7554 83.268 11.0194V12.3874C83.268 12.6274 83.376 12.7594 83.592 12.7834C83.832 12.8314 84.144 12.8554 84.528 12.8554C84.936 12.8554 85.212 12.8674 85.356 12.8914C85.956 12.9394 86.352 13.0354 86.544 13.1794C86.736 13.3234 86.82 13.5634 86.796 13.8994C86.772 14.1874 86.652 14.4034 86.436 14.5474C86.244 14.6914 85.848 14.7394 85.248 14.6914C85.056 14.6674 84.78 14.6554 84.42 14.6554C84.084 14.6314 83.808 14.6194 83.592 14.6194C83.376 14.6194 83.268 14.7394 83.268 14.9794C83.268 15.3154 83.256 15.6994 83.232 16.1314C83.208 16.5394 83.184 17.0434 83.16 17.6434C83.16 17.8594 83.232 18.0034 83.376 18.0754C83.52 18.1234 83.64 18.0994 83.736 18.0034C84.288 17.4994 84.672 16.8394 84.888 16.0234C85.008 15.5434 85.248 15.2554 85.608 15.1594C85.968 15.0394 86.28 15.1474 86.544 15.4834C86.88 15.8434 87.024 16.2034 86.976 16.5634C86.928 16.9234 86.7 17.2234 86.292 17.4634C86.1 17.5834 85.908 17.6794 85.716 17.7514C85.548 17.7994 85.332 17.8714 85.068 17.9674C84.948 18.0154 84.888 18.0634 84.888 18.1114C84.912 18.1594 84.996 18.1714 85.14 18.1474C85.908 18.0514 86.376 18.0394 86.544 18.1114C86.736 18.1834 86.844 18.3994 86.868 18.7594ZM138.708 10.7314C138.588 11.1154 138.432 11.3674 138.24 11.4874C138.048 11.6074 137.784 11.6434 137.448 11.5954C136.704 11.4754 135.888 11.3074 135 11.0914C134.136 10.8514 133.236 10.5754 132.3 10.2634C131.364 9.92737 130.428 9.57937 129.492 9.21937C128.556 8.83537 127.668 8.43937 126.828 8.03137C126.612 7.93537 126.36 7.97137 126.072 8.13937C125.4 8.59537 124.596 9.07537 123.66 9.57937C122.748 10.0594 121.572 10.6234 120.132 11.2714C118.884 11.8234 117.816 12.1954 116.928 12.3874C116.064 12.5554 115.356 12.5914 114.804 12.4954C114.276 12.3754 113.892 12.1474 113.652 11.8114C113.412 11.4514 113.316 11.0314 113.364 10.5514C113.388 10.1914 113.628 10.0114 114.084 10.0114C114.516 10.0354 115.224 9.91537 116.208 9.65137C117.216 9.38737 118.32 9.02737 119.52 8.57137C120.744 8.11537 121.992 7.57537 123.264 6.95137C124.536 6.32737 125.676 5.66737 126.684 4.97137C126.948 4.77937 127.068 4.59937 127.044 4.43137C127.044 4.26337 126.852 4.13137 126.468 4.03537C126.276 3.98737 126.072 3.96337 125.856 3.96337C125.64 3.93937 125.292 3.95137 124.812 3.99937C124.5 4.02337 124.284 4.08337 124.164 4.17937C122.196 5.37937 120.54 6.21937 119.196 6.69937C117.852 7.15537 116.628 7.40737 115.524 7.45537C114.732 7.50337 114.264 7.14337 114.12 6.37537C114.072 6.06337 114.096 5.79937 114.192 5.58337C114.288 5.34337 114.468 5.19937 114.732 5.15137C116.844 4.88737 118.656 4.43137 120.168 3.78337C121.68 3.11137 122.82 2.37937 123.588 1.58737C123.924 1.25137 124.248 1.07137 124.56 1.04737C124.896 0.999366 125.352 1.14337 125.928 1.47937C126.216 1.67137 126.372 1.86337 126.396 2.05537C126.42 2.27137 126.48 2.40337 126.576 2.45137C126.744 2.49937 126.9 2.53537 127.044 2.55937C127.188 2.58337 127.344 2.60737 127.512 2.63137C127.992 2.67937 128.412 2.60737 128.772 2.41537C129.036 2.29537 129.396 2.28337 129.852 2.37937C130.308 2.47537 130.704 2.65537 131.04 2.91937C131.448 3.25537 131.604 3.61537 131.508 3.99937C131.436 4.35937 131.256 4.58737 130.968 4.68337C130.56 4.80337 130.188 4.97137 129.852 5.18737C129.516 5.37937 129.144 5.65537 128.736 6.01537C128.4 6.27937 128.364 6.45937 128.628 6.55537C129.468 6.77137 130.368 7.02337 131.328 7.31137C132.312 7.59937 133.236 7.88737 134.1 8.17537C134.988 8.46337 135.756 8.72737 136.404 8.96737C137.076 9.20737 137.532 9.39937 137.772 9.54337C138.18 9.75937 138.444 9.96337 138.564 10.1554C138.708 10.3474 138.756 10.5394 138.708 10.7314ZM132.3 12.7114C132.036 13.1194 131.724 13.4194 131.364 13.6114C131.004 13.8034 130.452 13.9834 129.708 14.1514C128.892 14.3434 128.4 14.3674 128.232 14.2234C128.088 14.0554 128.172 13.7434 128.484 13.2874C128.676 13.0234 128.88 12.6514 129.096 12.1714C129.336 11.6674 129.516 11.2474 129.636 10.9114C129.756 10.5274 130.056 10.3474 130.536 10.3714C131.04 10.3714 131.52 10.6714 131.976 11.2714C132.264 11.6554 132.42 11.9434 132.444 12.1354C132.468 12.3274 132.42 12.5194 132.3 12.7114ZM142.02 19.8394C141.54 20.7034 141.012 21.4114 140.436 21.9634C139.884 22.4914 139.32 22.8754 138.744 23.1154C138.168 23.3314 137.604 23.4154 137.052 23.3674C136.524 23.3194 136.044 23.1274 135.612 22.7914C134.508 21.9034 133.536 21.1474 132.696 20.5234C131.88 19.8994 131.112 19.3594 130.392 18.9034C129.672 18.4234 128.976 18.0034 128.304 17.6434C127.632 17.2594 126.888 16.8634 126.072 16.4554C125.856 16.3354 125.688 16.2874 125.568 16.3114C125.472 16.3114 125.4 16.3474 125.352 16.4194C125.088 16.8754 124.764 17.3314 124.38 17.7874C123.996 18.2194 123.504 18.7114 122.904 19.2634C122.448 19.6714 121.824 20.0794 121.032 20.4874C120.264 20.8954 119.412 21.2674 118.476 21.6034C117.54 21.9154 116.58 22.1794 115.596 22.3954C114.636 22.5874 113.724 22.6954 112.86 22.7194C111.564 22.7674 110.628 22.6714 110.052 22.4314C109.5 22.1914 109.08 21.7714 108.792 21.1714C108.384 20.4034 108.564 20.0194 109.332 20.0194C110.988 20.0434 112.512 19.9354 113.904 19.6954C115.32 19.4554 116.568 19.1434 117.648 18.7594C118.752 18.3514 119.688 17.8954 120.456 17.3914C121.224 16.8634 121.788 16.3354 122.148 15.8074C122.7 14.9674 123.072 14.1274 123.264 13.2874C123.48 12.4474 123.528 11.6674 123.408 10.9474C123.336 10.3954 123.516 9.96337 123.948 9.65137C124.404 9.33937 124.956 9.31537 125.604 9.57937C126.036 9.77137 126.3 10.0714 126.396 10.4794C126.492 10.8874 126.492 11.4754 126.396 12.2434C126.372 12.4834 126.348 12.7114 126.324 12.9274C126.3 13.1194 126.264 13.3114 126.216 13.5034C126.144 13.7914 126.288 14.0074 126.648 14.1514C127.608 14.6074 128.712 15.0754 129.96 15.5554C131.232 16.0114 132.54 16.4434 133.884 16.8514C135.252 17.2594 136.596 17.6314 137.916 17.9674C139.26 18.3034 140.496 18.5674 141.624 18.7594C141.96 18.8074 142.152 18.9154 142.2 19.0834C142.272 19.2514 142.212 19.5034 142.02 19.8394ZM121.032 14.6554C121.56 15.0634 121.752 15.3874 121.608 15.6274C121.488 15.8434 121.116 15.8554 120.492 15.6634C118.956 15.2314 117.996 14.7274 117.612 14.1514C117.396 13.8634 117.324 13.5514 117.396 13.2154C117.492 12.8794 117.732 12.6154 118.116 12.4234C118.476 12.2794 118.824 12.2434 119.16 12.3154C119.496 12.3874 119.724 12.5794 119.844 12.8914C120.012 13.2754 120.18 13.6234 120.348 13.9354C120.54 14.2234 120.768 14.4634 121.032 14.6554ZM157.428 7.63537C157.38 7.80337 157.272 7.94737 157.104 8.06737C156.936 8.16337 156.648 8.22337 156.24 8.24737C154.752 8.31937 153.444 8.21137 152.316 7.92337C151.212 7.61137 150.42 7.23937 149.94 6.80737C149.748 6.63937 149.58 6.43537 149.436 6.19537C149.316 5.95537 149.256 5.64337 149.256 5.25937C149.256 4.94737 149.364 4.65937 149.58 4.39537C149.796 4.13137 150.18 3.96337 150.732 3.89137C151.212 3.81937 151.812 3.95137 152.532 4.28737C153.252 4.62337 154.032 5.06737 154.872 5.61937C155.136 5.81137 155.412 6.01537 155.7 6.23137C156.012 6.42337 156.264 6.57937 156.456 6.69937C156.912 6.96337 157.2 7.14337 157.32 7.23937C157.44 7.31137 157.476 7.44337 157.428 7.63537ZM178.272 10.2274C178.008 10.5394 177.756 10.7194 177.516 10.7674C177.3 10.7914 176.988 10.7434 176.58 10.6234C175.692 10.3354 174.684 9.86737 173.556 9.21937C173.388 9.14737 173.256 9.15937 173.16 9.25537C172.56 9.73537 171.972 10.1554 171.396 10.5154C170.82 10.8514 170.076 11.2594 169.164 11.7394C168.948 11.8834 168.564 11.9914 168.012 12.0634C167.484 12.1114 166.884 12.0634 166.212 11.9194C165.78 11.8234 165.324 11.7034 164.844 11.5594C164.388 11.3914 163.98 11.1754 163.62 10.9114C163.476 10.8154 163.248 10.7434 162.936 10.6954C162.648 10.6234 162.312 10.6114 161.928 10.6594C161.568 10.6834 161.172 10.7554 160.74 10.8754C160.308 10.9954 159.888 11.1634 159.48 11.3794C159.168 11.5474 158.796 11.5474 158.364 11.3794C157.956 11.2114 157.656 10.8994 157.464 10.4434C157.248 9.89137 157.224 9.45937 157.392 9.14737C157.56 8.81137 157.812 8.47537 158.148 8.13937C158.244 8.04337 158.4 7.92337 158.616 7.77937C158.856 7.61137 159.108 7.44337 159.372 7.27537C159.66 7.08337 159.936 6.90337 160.2 6.73537C160.488 6.54337 160.728 6.38737 160.92 6.26737C161.208 6.07537 161.472 5.87137 161.712 5.65537C161.952 5.43937 162.204 5.18737 162.468 4.89937C162.756 4.61137 163.068 4.27537 163.404 3.89137C163.74 3.50737 164.136 3.05137 164.592 2.52337C164.976 2.01937 165.48 1.68337 166.104 1.51537C166.752 1.34737 167.304 1.40737 167.76 1.69537C167.976 1.83937 168.132 2.01937 168.228 2.23537C168.348 2.42737 168.408 2.64337 168.408 2.88337C168.432 3.09937 168.396 3.31537 168.3 3.53137C168.228 3.72337 168.108 3.86737 167.94 3.96337C167.388 4.32337 166.944 4.62337 166.608 4.86337C166.272 5.07937 165.96 5.29537 165.672 5.51137C165.408 5.70337 165.156 5.90737 164.916 6.12337C164.676 6.31537 164.4 6.55537 164.088 6.84337C163.752 7.10737 163.572 7.43137 163.548 7.81537C163.548 8.17537 163.68 8.45137 163.944 8.64337C164.256 8.88337 164.664 9.07537 165.168 9.21937C165.696 9.33937 166.392 9.42337 167.256 9.47137C167.616 9.51937 168.108 9.42337 168.732 9.18337C169.356 8.94337 170.028 8.54737 170.748 7.99537C170.988 7.82737 170.976 7.62337 170.712 7.38337C170.376 7.19137 170.064 6.99937 169.776 6.80737C169.512 6.59137 169.272 6.41137 169.056 6.26737C168.96 6.19537 168.876 6.09937 168.804 5.97937C168.756 5.83537 168.72 5.67937 168.696 5.51137C168.696 5.34337 168.708 5.18737 168.732 5.04337C168.756 4.89937 168.804 4.77937 168.876 4.68337C169.02 4.51537 169.212 4.39537 169.452 4.32337C169.716 4.22737 169.968 4.17937 170.208 4.17937C170.472 4.15537 170.712 4.16737 170.928 4.21537C171.168 4.23937 171.336 4.28737 171.432 4.35937C172.44 5.10337 173.424 5.81137 174.384 6.48337C175.368 7.15537 176.268 7.74337 177.084 8.24737C177.852 8.75137 178.296 9.14737 178.416 9.43537C178.536 9.69937 178.488 9.96337 178.272 10.2274ZM156.06 13.8274C155.652 13.9954 155.076 14.1154 154.332 14.1874C153.612 14.2354 152.844 14.2474 152.028 14.2234C151.212 14.1754 150.408 14.0914 149.616 13.9714C148.824 13.8514 148.176 13.6954 147.672 13.5034C147.072 13.2634 146.628 12.9514 146.34 12.5674C146.052 12.1834 145.92 11.7874 145.944 11.3794C145.968 10.8994 146.148 10.5034 146.484 10.1914C146.82 9.85537 147.204 9.71137 147.636 9.75937C147.852 9.78337 148.104 9.81937 148.392 9.86737C148.704 9.91537 149.016 9.98737 149.328 10.0834C149.64 10.1554 149.952 10.2394 150.264 10.3354C150.576 10.4314 150.852 10.5274 151.092 10.6234C151.452 10.7434 151.872 10.8874 152.352 11.0554C152.856 11.2234 153.336 11.4034 153.792 11.5954C154.272 11.7634 154.716 11.9314 155.124 12.0994C155.532 12.2434 155.844 12.3634 156.06 12.4594C156.444 12.6514 156.624 12.8914 156.6 13.1794C156.576 13.4674 156.396 13.6834 156.06 13.8274ZM176.112 16.4194C176.088 16.6594 176.064 16.9594 176.04 17.3194C176.016 17.6794 175.98 18.0634 175.932 18.4714C175.884 18.8794 175.836 19.2994 175.788 19.7314C175.74 20.1394 175.692 20.5354 175.644 20.9194C175.596 21.1834 175.488 21.4234 175.32 21.6394C175.152 21.8554 174.948 22.0354 174.708 22.1794C174.492 22.3234 174.264 22.4194 174.024 22.4674C173.784 22.4914 173.58 22.4674 173.412 22.3954C172.716 22.0354 172.092 21.7954 171.54 21.6754C171.012 21.5554 170.328 21.4954 169.488 21.4954C169.344 21.4954 169.164 21.4954 168.948 21.4954C168.732 21.4954 168.42 21.4954 168.012 21.4954C167.604 21.4954 167.064 21.4954 166.392 21.4954C165.72 21.4714 164.832 21.4594 163.728 21.4594C163.68 21.4594 163.632 21.4594 163.584 21.4594C163.536 21.4594 163.5 21.4834 163.476 21.5314C163.332 21.6994 163.164 21.8434 162.972 21.9634C162.78 22.0834 162.588 22.1794 162.396 22.2514C162.204 22.3234 162.024 22.3834 161.856 22.4314C161.712 22.4554 161.616 22.4674 161.568 22.4674C161.208 22.4194 160.908 22.2154 160.668 21.8554C160.428 21.4954 160.26 21.0754 160.164 20.5954C160.044 19.9954 159.936 19.3594 159.84 18.6874C159.744 17.9914 159.684 17.4514 159.66 17.0674C159.636 16.7554 159.576 16.3714 159.48 15.9154C159.408 15.4594 159.348 15.0874 159.3 14.7994C159.252 14.5594 159.264 14.3074 159.336 14.0434C159.408 13.7794 159.528 13.5394 159.696 13.3234C159.864 13.1074 160.068 12.9274 160.308 12.7834C160.572 12.6394 160.848 12.5554 161.136 12.5314C161.376 12.5074 161.616 12.5314 161.856 12.6034C162.096 12.6754 162.3 12.8074 162.468 12.9994C162.54 13.0714 162.648 13.1074 162.792 13.1074C163.464 13.0594 164.112 13.0234 164.736 12.9994C165.384 12.9754 165.96 12.9634 166.464 12.9634C166.992 12.9394 167.436 12.9274 167.796 12.9274C168.156 12.9274 168.396 12.9394 168.516 12.9634C168.852 13.0114 169.308 13.0474 169.884 13.0714C170.46 13.0954 171.132 13.1314 171.9 13.1794C172.332 13.2274 172.74 13.1194 173.124 12.8554C173.508 12.6154 173.904 12.5314 174.312 12.6034C174.72 12.6514 175.128 12.8194 175.536 13.1074C175.848 13.3714 176.028 13.7674 176.076 14.2954C176.148 14.7994 176.16 15.5074 176.112 16.4194ZM157.536 17.1754C157.2 17.8714 156.792 18.5914 156.312 19.3354C155.832 20.0554 155.16 20.6914 154.296 21.2434C153.672 21.5794 153.084 21.8194 152.532 21.9634C151.98 22.0834 151.5 22.0474 151.092 21.8554C150.492 21.6394 150.108 21.3994 149.94 21.1354C149.772 20.8474 149.7 20.5234 149.724 20.1634C149.772 19.5634 149.952 19.0954 150.264 18.7594C150.6 18.3994 151.044 18.1354 151.596 17.9674C152.484 17.6794 153.384 17.3434 154.296 16.9594C155.208 16.5514 156.084 16.1194 156.924 15.6634C157.26 15.4714 157.524 15.5074 157.716 15.7714C157.908 16.0354 157.848 16.5034 157.536 17.1754ZM172.8 15.7354C172.752 15.5434 172.692 15.4234 172.62 15.3754C172.548 15.3274 172.368 15.2794 172.08 15.2314C171 15.1594 169.764 15.1354 168.372 15.1594C167.004 15.1594 165.372 15.2314 163.476 15.3754C163.26 15.3754 163.152 15.4834 163.152 15.6994C163.104 16.1794 163.104 16.6714 163.152 17.1754C163.2 17.6554 163.272 18.2434 163.368 18.9394C163.392 19.1794 163.512 19.2994 163.728 19.2994C164.808 19.2514 165.96 19.2154 167.184 19.1914C168.432 19.1674 169.824 19.1914 171.36 19.2634C171.816 19.2874 172.116 19.2394 172.26 19.1194C172.404 18.9754 172.524 18.7234 172.62 18.3634C172.644 18.1954 172.668 17.9794 172.692 17.7154C172.74 17.4514 172.764 17.1874 172.764 16.9234C172.788 16.6594 172.8 16.4194 172.8 16.2034C172.824 15.9634 172.824 15.8074 172.8 15.7354ZM214.776 14.1514C214.176 14.8714 213.324 15.4714 212.22 15.9514C211.86 16.1194 211.44 16.1434 210.96 16.0234C210.48 15.8794 209.88 15.5554 209.16 15.0514C208.896 14.8594 208.62 14.6434 208.332 14.4034C208.044 14.1634 207.672 13.8394 207.216 13.4314C206.928 13.1914 206.784 13.2394 206.784 13.5754C206.76 13.9834 206.736 14.3674 206.712 14.7274C206.712 15.0874 206.724 15.4354 206.748 15.7714C206.796 16.2754 206.772 16.6234 206.676 16.8154C206.58 17.0074 206.364 17.1994 206.028 17.3914C205.86 17.4874 205.68 17.5474 205.488 17.5714C205.296 17.5714 205.056 17.5234 204.768 17.4274C204.648 17.3794 204.42 17.3554 204.084 17.3554C203.772 17.3314 203.424 17.3194 203.04 17.3194C202.824 17.3194 202.716 17.4154 202.716 17.6074C202.716 18.0634 202.716 18.5554 202.716 19.0834C202.716 19.6114 202.728 20.1514 202.752 20.7034C202.8 21.6154 202.704 22.2514 202.464 22.6114C202.248 22.9714 201.792 23.2474 201.096 23.4394C200.592 23.5834 200.064 23.6314 199.512 23.5834C198.984 23.5354 198.468 23.4154 197.964 23.2234C197.46 23.0314 197.004 22.7794 196.596 22.4674C196.188 22.1314 195.876 21.7594 195.66 21.3514C195.588 21.2074 195.588 21.0994 195.66 21.0274C195.756 20.9314 195.876 20.9074 196.02 20.9554C196.38 21.0994 196.752 21.1954 197.136 21.2434C197.52 21.2914 197.88 21.2914 198.216 21.2434C198.552 21.1954 198.828 21.1114 199.044 20.9914C199.284 20.8474 199.428 20.6674 199.476 20.4514C199.572 19.9234 199.548 18.9874 199.404 17.6434C199.356 17.4274 199.248 17.3194 199.08 17.3194C198.864 17.3194 198.54 17.3194 198.108 17.3194C197.676 17.3194 197.316 17.3314 197.028 17.3554C196.884 17.3554 196.728 17.4274 196.56 17.5714C196.368 17.6914 196.116 17.7514 195.804 17.7514C195.468 17.7754 195.192 17.6914 194.976 17.4994C194.76 17.2834 194.628 16.8994 194.58 16.3474C194.556 16.1314 194.532 15.9154 194.508 15.6994C194.508 15.4834 194.496 15.1234 194.472 14.6194C194.472 14.3794 194.376 14.3314 194.184 14.4754C193.32 15.1954 192.576 15.6274 191.952 15.7714C191.328 15.8914 190.752 15.8314 190.224 15.5914C190.032 15.4714 189.912 15.4834 189.864 15.6274C189.288 17.0914 188.604 18.3514 187.812 19.4074C187.044 20.4394 186.18 21.2194 185.22 21.7474C184.524 22.1314 183.9 22.2274 183.348 22.0354C182.796 21.8194 182.208 21.2914 181.584 20.4514C181.248 19.9714 181.116 19.6114 181.188 19.3714C181.284 19.1314 181.56 18.9514 182.016 18.8314C182.592 18.6874 183.132 18.4834 183.636 18.2194C184.14 17.9554 184.632 17.6074 185.112 17.1754C185.616 16.7194 186.096 16.1554 186.552 15.4834C187.032 14.8114 187.512 14.0074 187.992 13.0714C188.088 12.8794 188.112 12.7594 188.064 12.7114C188.04 12.6634 187.908 12.6634 187.668 12.7114C186.948 12.8794 186.348 12.9994 185.868 13.0714C185.388 13.1194 184.908 13.1554 184.428 13.1794C183.924 13.2034 183.54 13.0594 183.276 12.7474C183.036 12.4114 182.928 12.0274 182.952 11.5954C182.976 11.1874 183.108 10.9234 183.348 10.8034C183.612 10.6834 183.984 10.6594 184.464 10.7314C184.8 10.7794 185.304 10.8274 185.976 10.8754C186.648 10.9234 187.368 10.9594 188.136 10.9834C188.376 10.9834 188.532 10.9594 188.604 10.9114C188.7 10.8394 188.748 10.7074 188.748 10.5154C188.748 10.2754 188.748 10.0594 188.748 9.86737C188.772 9.67537 188.796 9.48337 188.82 9.29137C188.844 9.05137 188.82 8.90737 188.748 8.85937C188.7 8.78737 188.568 8.77537 188.352 8.82337C187.704 8.91937 187.14 8.99137 186.66 9.03937C186.204 9.06337 185.796 9.07537 185.436 9.07537C185.076 9.05137 184.74 8.99137 184.428 8.89537C184.14 8.79937 183.852 8.67937 183.564 8.53537C183.228 8.36737 183.024 8.12737 182.952 7.81537C182.904 7.50337 182.976 7.22737 183.168 6.98737C183.384 6.69937 183.648 6.50737 183.96 6.41137C184.272 6.31537 184.596 6.35137 184.932 6.51937C185.196 6.63937 185.592 6.78337 186.12 6.95137C186.648 7.09537 187.296 7.26337 188.064 7.45537C188.352 7.52737 188.52 7.53937 188.568 7.49137C188.64 7.41937 188.652 7.23937 188.604 6.95137C188.556 6.66337 188.484 6.38737 188.388 6.12337C188.316 5.83537 188.208 5.53537 188.064 5.22337C187.848 4.74337 187.74 4.35937 187.74 4.07137C187.74 3.75937 187.86 3.42337 188.1 3.06337C188.292 2.75137 188.592 2.54737 189 2.45137C189.432 2.33137 189.78 2.30737 190.044 2.37937C190.308 2.45137 190.5 2.52337 190.62 2.59537C190.74 2.64337 190.848 2.71537 190.944 2.81137C191.136 3.02737 191.4 3.11137 191.736 3.06337C192.744 3.01537 193.704 2.96737 194.616 2.91937C195.528 2.87137 196.392 2.82337 197.208 2.77537C197.352 2.77537 197.46 2.75137 197.532 2.70337C197.604 2.65537 197.664 2.49937 197.712 2.23537C197.784 1.92337 197.928 1.68337 198.144 1.51537C198.36 1.34737 198.852 1.21537 199.62 1.11937C201.18 0.927366 201.996 1.25137 202.068 2.09137C202.116 2.37937 202.164 2.55937 202.212 2.63137C202.284 2.70337 202.416 2.73937 202.608 2.73937C203.016 2.73937 203.448 2.73937 203.904 2.73937C204.384 2.73937 204.876 2.75137 205.38 2.77537C206.604 2.82337 207.72 2.87137 208.728 2.91937C209.736 2.94337 210.708 2.96737 211.644 2.99137C212.052 2.99137 212.304 3.07537 212.4 3.24337C212.496 3.41137 212.448 3.71137 212.256 4.14337C212.184 4.33537 212.076 4.49137 211.932 4.61137C211.788 4.70737 211.572 4.77937 211.284 4.82737C210.996 4.87537 210.6 4.89937 210.096 4.89937C209.616 4.89937 209.004 4.87537 208.26 4.82737C207.54 4.77937 206.64 4.74337 205.56 4.71937C204.48 4.67137 203.28 4.65937 201.96 4.68337C201.72 4.68337 201.636 4.77937 201.708 4.97137C201.756 5.09137 201.768 5.24737 201.744 5.43937C201.72 5.63137 201.636 5.90737 201.492 6.26737C201.372 6.48337 201.432 6.59137 201.672 6.59137C202.416 6.59137 203.16 6.60337 203.904 6.62737C204.672 6.62737 205.392 6.62737 206.064 6.62737C206.736 6.62737 207.348 6.63937 207.9 6.66337C208.452 6.66337 208.896 6.66337 209.232 6.66337C209.496 6.66337 209.664 6.71137 209.736 6.80737C209.808 6.90337 209.856 7.10737 209.88 7.41937C209.904 7.68337 209.796 7.87537 209.556 7.99537C209.34 8.09137 208.824 8.12737 208.008 8.10337C207.624 8.10337 207.192 8.10337 206.712 8.10337C206.256 8.10337 205.8 8.11537 205.344 8.13937C204.888 8.13937 204.444 8.13937 204.012 8.13937C203.604 8.13937 203.256 8.13937 202.968 8.13937C202.92 8.13937 202.884 8.17537 202.86 8.24737C202.86 8.29537 202.92 8.35537 203.04 8.42737C203.712 8.88337 204.516 9.33937 205.452 9.79537C205.62 9.86737 205.764 9.84337 205.884 9.72337C206.1 9.53137 206.292 9.31537 206.46 9.07537C206.7 8.71537 206.916 8.49937 207.108 8.42737C207.324 8.33137 207.636 8.34337 208.044 8.46337C208.716 8.67937 209.088 8.99137 209.16 9.39937C209.232 9.78337 208.92 10.0714 208.224 10.2634C207.96 10.3354 207.72 10.4074 207.504 10.4794C207.36 10.5274 207.372 10.6114 207.54 10.7314C208.14 11.0434 208.704 11.3194 209.232 11.5594C209.76 11.7754 210.276 11.9674 210.78 12.1354C211.284 12.3034 211.8 12.4594 212.328 12.6034C212.856 12.7474 213.432 12.8914 214.056 13.0354C214.992 13.2514 215.232 13.6234 214.776 14.1514ZM212.076 21.8554C212.292 22.0474 212.28 22.2394 212.04 22.4314C211.824 22.5994 211.452 22.6234 210.924 22.5034C210.564 22.4314 210.156 22.3114 209.7 22.1434C209.244 21.9514 208.776 21.7354 208.296 21.4954C207.816 21.2554 207.336 20.9914 206.856 20.7034C206.4 20.4154 205.98 20.1274 205.596 19.8394C205.188 19.5274 204.948 19.2754 204.876 19.0834C204.828 18.8674 204.888 18.6034 205.056 18.2914C205.248 17.9554 205.56 17.7874 205.992 17.7874C206.448 17.7634 206.856 17.8594 207.216 18.0754C207.456 18.2194 207.78 18.4474 208.188 18.7594C208.62 19.0474 209.064 19.3834 209.52 19.7674C210 20.1274 210.468 20.4994 210.924 20.8834C211.38 21.2434 211.764 21.5674 212.076 21.8554ZM196.2 19.7674C195.96 19.9834 195.624 20.2234 195.192 20.4874C194.784 20.7514 194.316 21.0154 193.788 21.2794C193.26 21.5434 192.684 21.7954 192.06 22.0354C191.436 22.2754 190.788 22.4794 190.116 22.6474C189.852 22.7194 189.66 22.7314 189.54 22.6834C189.444 22.6354 189.36 22.5394 189.288 22.3954C189.144 22.0834 189.204 21.8674 189.468 21.7474C189.828 21.5794 190.212 21.3754 190.62 21.1354C191.028 20.8714 191.424 20.6074 191.808 20.3434C192.192 20.0554 192.54 19.7674 192.852 19.4794C193.188 19.1914 193.452 18.9274 193.644 18.6874C193.98 18.2314 194.304 17.9554 194.616 17.8594C194.952 17.7394 195.372 17.7994 195.876 18.0394C196.812 18.4714 196.92 19.0474 196.2 19.7674ZM198.576 5.04337C198.624 4.85137 198.516 4.75537 198.252 4.75537C197.532 4.77937 196.8 4.80337 196.056 4.82737C195.336 4.85137 194.592 4.88737 193.824 4.93537C193.488 4.95937 193.14 4.99537 192.78 5.04337C192.444 5.06737 192.072 5.12737 191.664 5.22337C191.448 5.27137 191.304 5.34337 191.232 5.43937C191.184 5.51137 191.16 5.65537 191.16 5.87137C191.16 6.97537 191.148 7.92337 191.124 8.71537C191.1 9.50737 191.052 10.1914 190.98 10.7674C190.932 11.3434 190.872 11.8474 190.8 12.2794C190.728 12.6874 190.644 13.0714 190.548 13.4314C190.476 13.7194 190.572 13.8034 190.836 13.6834C191.628 13.4434 192.468 13.0954 193.356 12.6394C194.268 12.1594 195.084 11.6074 195.804 10.9834C195.852 10.9354 195.852 10.8994 195.804 10.8754C195.78 10.8274 195.72 10.8274 195.624 10.8754C195.12 11.0674 194.688 11.1634 194.328 11.1634C193.968 11.1634 193.68 11.1034 193.464 10.9834C192.864 10.6954 192.852 10.2394 193.428 9.61537C193.716 9.30337 194.04 9.15937 194.4 9.18337C194.784 9.18337 195.192 9.29137 195.624 9.50737C195.792 9.60337 195.936 9.67537 196.056 9.72337C196.176 9.77137 196.284 9.81937 196.38 9.86737C196.596 9.98737 196.764 9.95137 196.884 9.75937C197.028 9.56737 197.148 9.37537 197.244 9.18337C197.34 8.99137 197.448 8.76337 197.568 8.49937C197.64 8.35537 197.544 8.28337 197.28 8.28337C196.968 8.28337 196.644 8.29537 196.308 8.31937C195.972 8.31937 195.648 8.34337 195.336 8.39137C195.048 8.41537 194.784 8.45137 194.544 8.49937C194.304 8.54737 194.124 8.60737 194.004 8.67937C193.044 9.11137 192.372 9.09937 191.988 8.64337C191.628 8.21137 191.784 7.70737 192.456 7.13137C193.272 6.45937 194.016 6.20737 194.688 6.37537C194.76 6.39937 195.132 6.43537 195.804 6.48337C196.476 6.50737 197.208 6.51937 198 6.51937C198.192 6.51937 198.324 6.41137 198.396 6.19537C198.444 6.00337 198.48 5.82337 198.504 5.65537C198.528 5.46337 198.552 5.25937 198.576 5.04337ZM204.3 11.0914C203.7 10.6834 203.088 10.2514 202.464 9.79537C201.864 9.33937 201.3 8.89537 200.772 8.46337C200.604 8.34337 200.472 8.34337 200.376 8.46337C200.016 8.99137 199.668 9.47137 199.332 9.90337C198.996 10.3114 198.624 10.7194 198.216 11.1274C198.144 11.1994 198.12 11.2714 198.144 11.3434C198.168 11.3914 198.228 11.4154 198.324 11.4154C199.356 11.3674 200.376 11.3434 201.384 11.3434C202.416 11.3434 203.28 11.3674 203.976 11.4154C204.192 11.4394 204.324 11.4154 204.372 11.3434C204.444 11.2474 204.42 11.1634 204.3 11.0914ZM204.228 13.3594C204.228 13.0234 204.06 12.8314 203.724 12.7834C203.412 12.7594 203.004 12.7474 202.5 12.7474C202.02 12.7234 201.492 12.7234 200.916 12.7474C200.34 12.7474 199.728 12.7594 199.08 12.7834C198.456 12.8074 197.856 12.8314 197.28 12.8554C196.992 12.8554 196.848 13.0234 196.848 13.3594C196.848 13.5754 196.872 13.7194 196.92 13.7914C196.968 13.8634 197.04 13.8994 197.136 13.8994C198.144 13.8514 199.272 13.8274 200.52 13.8274C201.768 13.8034 202.896 13.8034 203.904 13.8274C204.12 13.8274 204.228 13.6714 204.228 13.3594ZM204.048 15.4114C204.072 15.0994 204 14.9434 203.832 14.9434C202.752 14.8954 201.636 14.8834 200.484 14.9074C199.356 14.9314 198.252 14.9794 197.172 15.0514C196.98 15.0514 196.884 15.1714 196.884 15.4114C196.884 15.8194 197.016 16.0234 197.28 16.0234C197.64 16.0474 198.096 16.0714 198.648 16.0954C199.224 16.0954 199.8 16.0954 200.376 16.0954C200.976 16.0714 201.54 16.0474 202.068 16.0234C202.62 15.9994 203.052 15.9754 203.364 15.9514C203.628 15.9034 203.796 15.8554 203.868 15.8074C203.964 15.7354 204.024 15.6034 204.048 15.4114ZM247.14 9.79537C246.924 10.4914 246.672 10.9234 246.384 11.0914C246.12 11.2354 245.748 11.2114 245.268 11.0194C245.124 10.9474 245.016 10.7674 244.944 10.4794C244.872 10.1914 244.86 9.89137 244.908 9.57937C244.956 9.07537 244.968 8.69137 244.944 8.42737C244.944 8.16337 244.92 7.89937 244.872 7.63537C244.824 7.29937 244.716 7.08337 244.548 6.98737C244.404 6.86737 244.128 6.78337 243.72 6.73537C241.464 6.61537 239.364 6.57937 237.42 6.62737C235.476 6.67537 233.82 6.75937 232.452 6.87937C232.02 6.87937 231.696 6.93937 231.48 7.05937C231.288 7.15537 231.108 7.33537 230.94 7.59937C230.796 8.03137 230.676 8.46337 230.58 8.89537C230.508 9.30337 230.46 9.74737 230.436 10.2274C230.436 10.4914 230.364 10.7074 230.22 10.8754C230.1 11.0434 229.944 11.1394 229.752 11.1634C229.536 11.1154 229.308 10.9954 229.068 10.8034C228.852 10.5874 228.708 10.3114 228.636 9.97537C228.612 9.75937 228.588 9.44737 228.564 9.03937C228.54 8.60737 228.528 8.16337 228.528 7.70737C228.528 7.25137 228.528 6.83137 228.528 6.44737C228.552 6.03937 228.588 5.75137 228.636 5.58337C228.948 4.55137 229.356 3.99937 229.86 3.92737C230.388 3.85537 230.928 4.03537 231.48 4.46737C231.744 4.65937 232.08 4.77937 232.488 4.82737C232.896 4.85137 233.472 4.83937 234.216 4.79137C234.696 4.74337 234.984 4.65937 235.08 4.53937C235.176 4.41937 235.2 4.13137 235.152 3.67537C235.08 3.05137 235.104 2.57137 235.224 2.23537C235.344 1.87537 235.596 1.56337 235.98 1.29937C236.244 1.10737 236.556 1.02337 236.916 1.04737C237.276 1.07137 237.612 1.16737 237.924 1.33537C238.452 1.59937 238.824 1.93537 239.04 2.34337C239.28 2.72737 239.424 3.25537 239.472 3.92737C239.496 4.38337 239.7 4.61137 240.084 4.61137C240.636 4.58737 241.14 4.57537 241.596 4.57537C242.076 4.57537 242.484 4.56337 242.82 4.53937C243.324 4.49137 243.708 4.45537 243.972 4.43137C244.26 4.40737 244.488 4.37137 244.656 4.32337C245.04 4.13137 245.46 4.05937 245.916 4.10737C246.396 4.13137 246.78 4.33537 247.068 4.71937C247.452 5.19937 247.656 5.88337 247.68 6.77137C247.704 7.65937 247.524 8.66737 247.14 9.79537ZM241.956 8.24737C242.1 8.31937 242.208 8.42737 242.28 8.57137C242.352 8.71537 242.388 8.85937 242.388 9.00337C242.388 9.14737 242.34 9.27937 242.244 9.39937C242.172 9.49537 242.064 9.55537 241.92 9.57937C241.776 9.65137 241.512 9.71137 241.128 9.75937C240.744 9.80737 240.324 9.84337 239.868 9.86737C239.436 9.89137 238.992 9.91537 238.536 9.93937C238.08 9.93937 237.708 9.91537 237.42 9.86737C237.252 9.86737 237.024 9.86737 236.736 9.86737C236.472 9.84337 236.196 9.84337 235.908 9.86737C235.62 9.89137 235.332 9.91537 235.044 9.93937C234.78 9.96337 234.564 10.0114 234.396 10.0834C233.364 10.3474 232.704 10.3354 232.416 10.0474C232.248 9.85537 232.188 9.60337 232.236 9.29137C232.284 8.95537 232.44 8.61937 232.704 8.28337C232.872 8.11537 233.1 8.00737 233.388 7.95937C233.7 7.88737 234.012 7.91137 234.324 8.03137C234.756 8.12737 235.068 8.15137 235.26 8.10337C236.7 7.91137 238.02 7.85137 239.22 7.92337C240.42 7.97137 241.332 8.07937 241.956 8.24737ZM228.096 5.33137C227.832 6.09937 227.508 6.75937 227.124 7.31137C226.74 7.83937 226.152 8.42737 225.36 9.07537C225.072 9.33937 224.928 9.51937 224.928 9.61537C224.952 9.71137 225.12 9.78337 225.432 9.83137C226.176 9.99937 226.788 10.3834 227.268 10.9834C227.748 11.5594 227.976 12.2314 227.952 12.9994C227.904 13.5754 227.796 14.1154 227.628 14.6194C227.46 15.1234 227.196 15.5674 226.836 15.9514C226.476 16.3354 225.996 16.6594 225.396 16.9234C224.82 17.1874 224.1 17.3674 223.236 17.4634C222.996 17.5114 222.828 17.5834 222.732 17.6794C222.66 17.7754 222.636 17.9794 222.66 18.2914C222.708 19.2754 222.72 20.0554 222.696 20.6314C222.696 21.1834 222.636 21.6154 222.516 21.9274C222.42 22.2394 222.252 22.4554 222.012 22.5754C221.796 22.6714 221.484 22.7554 221.076 22.8274C220.692 22.8754 220.38 22.8874 220.14 22.8634C219.924 22.8154 219.756 22.7074 219.636 22.5394C219.516 22.3474 219.432 22.0714 219.384 21.7114C219.36 21.3274 219.36 20.8234 219.384 20.1994C219.528 17.7514 219.624 15.4834 219.672 13.3954C219.72 11.2834 219.684 9.19537 219.564 7.13137C219.54 6.72337 219.456 6.48337 219.312 6.41137C219.192 6.31537 218.964 6.32737 218.628 6.44737C217.98 6.63937 217.536 6.71137 217.296 6.66337C217.056 6.59137 216.912 6.37537 216.864 6.01537C216.816 5.63137 216.9 5.29537 217.116 5.00737C217.332 4.71937 217.716 4.37137 218.268 3.96337C219.036 3.48337 219.612 3.19537 219.996 3.09937C220.404 3.00337 220.788 3.05137 221.148 3.24337C221.436 3.38737 221.76 3.48337 222.12 3.53137C222.504 3.57937 222.912 3.57937 223.344 3.53137C223.848 3.41137 224.376 3.44737 224.928 3.63937C225.12 3.73537 225.348 3.79537 225.612 3.81937C225.876 3.84337 226.152 3.79537 226.44 3.67537C226.608 3.62737 226.812 3.63937 227.052 3.71137C227.292 3.75937 227.496 3.85537 227.664 3.99937C227.856 4.14337 228 4.33537 228.096 4.57537C228.192 4.79137 228.192 5.04337 228.096 5.33137ZM251.172 18.5434C250.98 19.8874 250.38 21.0034 249.372 21.8914C248.388 22.7794 247.14 23.2234 245.628 23.2234C245.292 23.2474 244.8 23.1754 244.152 23.0074C243.504 22.8394 242.796 22.6114 242.028 22.3234C241.284 22.0114 240.54 21.6634 239.796 21.2794C239.076 20.8954 238.464 20.4874 237.96 20.0554C237.312 19.4554 236.904 18.6514 236.736 17.6434C236.568 16.6114 236.724 15.2434 237.204 13.5394C237.3 13.2034 237.18 13.0354 236.844 13.0354C236.532 13.0354 236.364 13.1434 236.34 13.3594C236.076 14.6314 235.752 15.7714 235.368 16.7794C234.984 17.7634 234.492 18.6154 233.892 19.3354C233.292 20.0554 232.572 20.6434 231.732 21.0994C230.892 21.5314 229.896 21.8194 228.744 21.9634C227.592 22.1314 226.692 22.0234 226.044 21.6394C225.396 21.2314 225.012 20.7154 224.892 20.0914C224.82 19.6594 224.94 19.4914 225.252 19.5874C226.428 19.6834 227.496 19.5994 228.456 19.3354C229.44 19.0714 230.28 18.6754 230.976 18.1474C231.696 17.5954 232.272 16.9354 232.704 16.1674C233.136 15.3994 233.4 14.5594 233.496 13.6474C233.544 13.3114 233.376 13.1674 232.992 13.2154C232.752 13.2394 232.5 13.2874 232.236 13.3594C231.972 13.4074 231.708 13.4674 231.444 13.5394C231.084 13.7074 230.784 13.7794 230.544 13.7554C230.304 13.7314 230.088 13.6474 229.896 13.5034C229.704 13.2394 229.62 12.9394 229.644 12.6034C229.692 12.2674 229.896 11.9674 230.256 11.7034C230.52 11.4874 230.748 11.3194 230.94 11.1994C231.156 11.0794 231.348 10.9954 231.516 10.9474C231.708 10.8994 231.912 10.8754 232.128 10.8754C232.344 10.8754 232.596 10.8994 232.884 10.9474C233.052 10.9714 233.316 10.9954 233.676 11.0194C234.06 11.0194 234.48 11.0194 234.936 11.0194C235.416 11.0194 235.92 11.0074 236.448 10.9834C237 10.9594 237.516 10.9114 237.996 10.8394C239.364 10.7914 240.504 10.7794 241.416 10.8034C242.328 10.8274 242.928 10.8634 243.216 10.9114C243.648 10.9834 243.924 11.1514 244.044 11.4154C244.188 11.6794 244.2 11.9674 244.08 12.2794C244.032 12.4234 243.96 12.5554 243.864 12.6754C243.768 12.7714 243.6 12.8554 243.36 12.9274C243.144 12.9754 242.832 13.0114 242.424 13.0354C242.04 13.0594 241.512 13.0594 240.84 13.0354C240.576 13.0354 240.384 13.0594 240.264 13.1074C240.144 13.1554 240.036 13.2754 239.94 13.4674C239.676 14.0434 239.556 14.7154 239.58 15.4834C239.628 16.2514 239.88 16.8874 240.336 17.3914C240.6 17.7034 240.996 17.9314 241.524 18.0754C242.052 18.2194 242.772 18.3514 243.684 18.4714C245.1 18.6874 246.324 18.7714 247.356 18.7234C248.412 18.6754 249.396 18.4594 250.308 18.0754C250.764 17.9314 251.04 17.8954 251.136 17.9674C251.232 18.0154 251.244 18.2074 251.172 18.5434ZM223.092 5.69137C222.924 5.69137 222.792 5.77537 222.696 5.94337C222.624 6.08737 222.576 6.48337 222.552 7.13137C222.504 7.89937 222.504 8.40337 222.552 8.64337C222.6 8.88337 222.66 8.97937 222.732 8.93137C223.284 8.52337 223.68 8.12737 223.92 7.74337C224.184 7.35937 224.316 7.02337 224.316 6.73537C224.316 6.42337 224.208 6.17137 223.992 5.97937C223.776 5.78737 223.476 5.69137 223.092 5.69137ZM225.396 12.4234C225.276 11.9674 225.024 11.6314 224.64 11.4154C224.256 11.1994 223.644 11.0914 222.804 11.0914C222.708 11.0914 222.624 11.1274 222.552 11.1994C222.504 11.2714 222.48 11.4274 222.48 11.6674C222.48 12.1474 222.48 12.6514 222.48 13.1794C222.48 13.6834 222.504 14.2234 222.552 14.7994C222.552 15.0874 222.72 15.1594 223.056 15.0154C223.944 14.6554 224.568 14.2114 224.928 13.6834C225.288 13.1554 225.444 12.7354 225.396 12.4234Z" fill="white" fill-opacity="0.85"/>
</svg>
