<svg width="886" height="152" viewBox="0 0 886 152" fill="none" xmlns="http://www.w3.org/2000/svg">
<path d="M180.536 126.628C179.176 125.935 178.002 125.455 177.016 125.188C176.029 124.895 175.149 124.748 174.376 124.748C173.709 124.748 173.016 125.228 172.296 126.188C172.829 126.508 173.389 126.828 173.976 127.148C174.562 127.442 175.282 127.802 176.136 128.228C177.016 128.655 177.709 129.055 178.216 129.428C178.749 129.775 179.122 130.122 179.336 130.468C179.576 130.815 179.682 131.175 179.656 131.548C179.629 131.895 179.509 132.282 179.296 132.708C178.949 133.428 178.589 134.028 178.216 134.508C177.842 134.988 177.416 135.375 176.936 135.668C176.456 135.935 175.909 136.122 175.296 136.228C174.709 136.335 174.016 136.388 173.216 136.388C172.096 136.388 170.962 136.242 169.816 135.948C168.696 135.655 167.456 135.175 166.096 134.508L167.736 131.908C168.856 132.468 170.056 132.922 171.336 133.268C172.616 133.615 173.722 133.788 174.656 133.788C175.349 133.788 175.816 133.735 176.056 133.628C176.296 133.522 176.496 133.282 176.656 132.908C176.709 132.775 176.722 132.655 176.696 132.548C176.696 132.442 176.629 132.322 176.496 132.188C176.362 132.028 176.149 131.855 175.856 131.668C175.562 131.482 175.149 131.255 174.616 130.988C173.522 130.482 172.629 130.028 171.936 129.628C171.242 129.202 170.696 128.815 170.296 128.468C169.896 128.095 169.616 127.762 169.456 127.468C169.296 127.175 169.216 126.908 169.216 126.668C169.216 126.348 169.362 125.948 169.656 125.468C169.976 124.962 170.402 124.482 170.936 124.028C171.496 123.548 172.149 123.148 172.896 122.828C173.642 122.482 174.456 122.308 175.336 122.308C176.109 122.308 177.082 122.468 178.256 122.788C179.456 123.082 180.856 123.602 182.456 124.348L180.536 126.628ZM204.066 126.148C203.666 127.082 203.333 127.935 203.066 128.708C202.799 129.482 202.559 130.228 202.346 130.948C202.159 131.668 201.999 132.388 201.866 133.108C201.733 133.828 201.613 134.575 201.506 135.348L197.146 136.388C197.573 133.535 198.853 130.242 200.986 126.508L199.706 125.628C198.533 126.108 197.519 126.628 196.666 127.188C195.813 127.722 195.079 128.308 194.466 128.948C193.879 129.588 193.399 130.295 193.026 131.068C192.679 131.842 192.413 132.708 192.226 133.668C192.013 134.708 191.773 135.428 191.506 135.828C191.239 136.202 190.893 136.388 190.466 136.388C190.253 136.388 189.879 136.282 189.346 136.068C188.839 135.828 188.359 135.522 187.906 135.148C187.453 134.775 187.226 134.388 187.226 133.988C187.226 133.562 187.533 132.975 188.146 132.228C188.439 131.882 188.679 131.575 188.866 131.308C189.079 131.015 189.253 130.722 189.386 130.428C189.519 130.135 189.626 129.828 189.706 129.508C189.813 129.162 189.919 128.748 190.026 128.268C190.213 127.388 190.453 126.428 190.746 125.388C191.066 124.348 191.413 123.335 191.786 122.348C192.159 121.335 192.533 120.428 192.906 119.628C193.279 118.802 193.613 118.188 193.906 117.788C194.066 117.602 194.386 117.388 194.866 117.148C195.373 116.882 195.933 116.642 196.546 116.428C197.159 116.188 197.759 115.988 198.346 115.828C198.959 115.668 199.453 115.588 199.826 115.588C200.173 115.588 200.373 115.668 200.426 115.828C200.479 115.988 200.359 116.215 200.066 116.508C199.319 117.282 198.653 118.028 198.066 118.748C197.506 119.442 196.973 120.215 196.466 121.068C195.959 121.895 195.453 122.842 194.946 123.908C194.466 124.948 193.933 126.202 193.346 127.668C194.279 126.895 195.213 126.228 196.146 125.668C197.079 125.108 197.933 124.642 198.706 124.268C199.506 123.895 200.186 123.628 200.746 123.468C201.333 123.282 201.733 123.188 201.946 123.188C202.266 123.188 202.559 123.268 202.826 123.428C203.119 123.588 203.466 123.882 203.866 124.308C204.159 124.628 204.319 124.908 204.346 125.148C204.373 125.362 204.279 125.695 204.066 126.148ZM219.34 121.148C218.274 121.362 217.38 121.468 216.66 121.468C215.807 121.468 215.087 121.348 214.5 121.108C213.94 120.868 213.66 120.535 213.66 120.108C213.66 119.842 213.767 119.588 213.98 119.348C214.22 119.082 214.514 118.842 214.86 118.628C215.207 118.415 215.594 118.242 216.02 118.108C216.474 117.975 216.9 117.908 217.3 117.908C217.647 117.908 217.914 117.962 218.1 118.068C218.287 118.148 218.38 118.375 218.38 118.748V119.388C218.38 119.602 218.46 119.882 218.62 120.228C218.807 120.548 219.047 120.855 219.34 121.148ZM217.66 123.548C216.38 125.468 215.434 127.442 214.82 129.468C214.234 131.495 213.874 133.562 213.74 135.668L209.1 136.628C209.367 134.362 209.78 132.268 210.34 130.348C210.927 128.402 211.754 126.442 212.82 124.468L217.66 123.548ZM243.381 136.308C243.274 137.028 242.901 137.788 242.261 138.588C241.621 139.415 240.741 140.175 239.621 140.868C238.528 141.588 237.208 142.175 235.661 142.628C234.141 143.108 232.448 143.348 230.581 143.348C229.808 143.348 229.128 143.295 228.541 143.188C227.981 143.108 227.381 142.935 226.741 142.668C226.501 142.562 226.208 142.308 225.861 141.908C225.514 141.508 225.181 141.028 224.861 140.468C224.541 139.935 224.248 139.348 223.981 138.708C223.741 138.095 223.594 137.508 223.541 136.948L227.621 137.308C227.781 137.922 227.981 138.402 228.221 138.748C228.488 139.122 228.834 139.575 229.261 140.108C229.474 140.402 230.168 140.548 231.341 140.548C232.008 140.548 232.581 140.522 233.061 140.468C233.541 140.442 234.008 140.362 234.461 140.228C234.941 140.122 235.448 139.962 235.981 139.748C236.514 139.562 237.181 139.308 237.981 138.988L239.381 137.148C237.701 136.482 236.154 136.068 234.741 135.908C233.354 135.722 232.088 135.735 230.941 135.948C229.928 136.108 229.194 136.148 228.741 136.068C228.314 135.988 227.994 135.842 227.781 135.628C227.621 135.468 227.514 135.255 227.461 134.988C227.434 134.722 227.474 134.482 227.581 134.268C227.714 134.002 227.941 133.788 228.261 133.628C228.581 133.442 229.048 133.375 229.661 133.428C230.088 133.482 230.541 133.268 231.021 132.788C230.488 132.548 229.954 132.255 229.421 131.908C228.914 131.562 228.448 131.202 228.021 130.828C227.594 130.455 227.248 130.095 226.981 129.748C226.714 129.375 226.581 129.068 226.581 128.828C226.581 127.975 226.754 127.202 227.101 126.508C227.474 125.788 228.088 125.135 228.941 124.548C229.661 124.015 230.608 123.628 231.781 123.388C232.981 123.148 234.554 123.028 236.501 123.028C236.874 123.028 237.168 123.042 237.381 123.068C237.621 123.068 237.821 123.108 237.981 123.188C238.141 123.268 238.274 123.375 238.381 123.508C238.488 123.642 238.608 123.828 238.741 124.068C239.914 123.748 240.728 123.548 241.181 123.468C241.634 123.362 241.981 123.308 242.221 123.308C242.728 123.308 242.981 123.562 242.981 124.068C242.981 125.188 242.394 126.428 241.221 127.788C240.074 129.148 238.328 130.508 235.981 131.868C235.688 132.028 235.368 132.255 235.021 132.548C234.674 132.815 234.261 133.135 233.781 133.508C234.741 133.482 235.541 133.482 236.181 133.508C236.848 133.535 237.474 133.615 238.061 133.748C239.341 133.988 240.341 134.215 241.061 134.428C241.781 134.615 242.314 134.802 242.661 134.988C243.034 135.175 243.248 135.375 243.301 135.588C243.381 135.802 243.408 136.042 243.381 136.308ZM238.141 125.988C237.714 125.935 237.354 125.908 237.061 125.908C236.768 125.908 236.514 125.908 236.301 125.908C234.461 125.908 233.061 126.095 232.101 126.468C231.141 126.842 230.661 127.255 230.661 127.708C230.661 128.828 231.634 129.842 233.581 130.748C235.021 129.975 236.088 129.228 236.781 128.508C237.501 127.762 237.954 126.922 238.141 125.988ZM264.587 125.468C264.587 126.242 264.427 126.882 264.107 127.388C263.814 127.895 263.24 128.335 262.387 128.708C261.534 129.055 260.347 129.362 258.827 129.628C257.334 129.895 255.387 130.188 252.987 130.508C253.04 131.042 253.254 131.628 253.627 132.268C254.027 132.882 254.534 133.375 255.147 133.748C255.92 133.588 256.64 133.428 257.307 133.268C258 133.108 258.667 132.935 259.307 132.748C259.947 132.562 260.587 132.348 261.227 132.108C261.894 131.868 262.587 131.588 263.307 131.268L263.187 132.348C263.16 132.535 263.107 132.708 263.027 132.868C262.974 133.002 262.814 133.148 262.547 133.308C262.28 133.468 261.88 133.668 261.347 133.908C260.814 134.122 260.067 134.402 259.107 134.748C258.12 135.122 257.12 135.428 256.107 135.668C255.094 135.908 254.28 136.028 253.667 136.028C253.107 136.028 252.52 135.908 251.907 135.668C251.32 135.402 250.774 135.082 250.267 134.708C249.787 134.335 249.387 133.935 249.067 133.508C248.774 133.055 248.627 132.628 248.627 132.228C248.627 131.855 248.667 131.508 248.747 131.188C248.827 130.842 248.96 130.455 249.147 130.028C249.36 129.602 249.654 129.095 250.027 128.508C250.4 127.922 250.867 127.188 251.427 126.308C252.12 125.295 253.254 124.455 254.827 123.788C256.427 123.095 258.44 122.748 260.867 122.748C262.254 122.748 263.214 122.935 263.747 123.308C264.307 123.682 264.587 124.402 264.587 125.468ZM260.507 124.268L256.307 124.788C255.774 125.482 255.28 126.148 254.827 126.788C254.4 127.402 253.934 128.135 253.427 128.988C254.947 128.855 256.174 128.708 257.107 128.548C258.04 128.388 258.747 128.188 259.227 127.948C259.734 127.708 260.067 127.428 260.227 127.108C260.414 126.788 260.507 126.402 260.507 125.948V124.268ZM286.488 125.548C286.488 126.082 286.234 126.602 285.728 127.108C285.034 127.882 284.568 128.615 284.328 129.308C284.088 130.002 283.994 130.842 284.048 131.828C284.101 132.522 284.168 133.135 284.248 133.668C284.328 134.202 284.461 134.762 284.648 135.348L280.488 136.268C280.354 135.575 280.261 134.895 280.208 134.228C280.181 133.562 280.221 132.762 280.328 131.828C278.648 133.348 277.101 134.468 275.688 135.188C274.274 135.882 273.048 136.228 272.008 136.228C271.448 136.228 270.848 135.868 270.208 135.148C269.914 134.855 269.754 134.548 269.728 134.228C269.728 133.908 269.848 133.468 270.088 132.908C270.514 131.868 270.874 130.948 271.168 130.148C271.488 129.322 271.754 128.548 271.968 127.828C272.181 127.082 272.354 126.348 272.488 125.628C272.621 124.882 272.728 124.082 272.808 123.228L277.368 122.148C277.288 122.948 277.114 123.815 276.848 124.748C276.608 125.655 276.314 126.575 275.968 127.508C275.621 128.415 275.234 129.308 274.808 130.188C274.381 131.042 273.954 131.802 273.528 132.468L274.568 133.788C276.888 132.588 278.594 131.322 279.688 129.988C280.781 128.655 281.461 127.148 281.728 125.468C281.941 124.162 282.154 123.295 282.368 122.868C282.581 122.442 282.914 122.228 283.368 122.228C283.528 122.228 283.781 122.348 284.128 122.588C284.474 122.828 284.821 123.122 285.168 123.468C285.514 123.815 285.821 124.188 286.088 124.588C286.354 124.962 286.488 125.282 286.488 125.548ZM304.29 127.988L303.49 124.308L300.49 124.948C300.09 125.482 299.703 126.055 299.33 126.668C298.956 127.255 298.61 127.855 298.29 128.468C297.97 129.055 297.69 129.615 297.45 130.148C297.21 130.655 297.036 131.082 296.93 131.428C296.85 131.668 296.85 131.895 296.93 132.108C297.01 132.295 297.25 132.588 297.65 132.988C297.996 133.362 298.303 133.575 298.57 133.628C298.863 133.655 299.343 133.615 300.01 133.508C300.356 133.455 300.703 133.388 301.05 133.308C301.396 133.202 301.796 133.068 302.25 132.908C302.73 132.722 303.303 132.482 303.97 132.188C304.636 131.895 305.463 131.522 306.45 131.068L306.21 132.268C306.156 132.562 306.05 132.788 305.89 132.948C305.73 133.108 305.45 133.282 305.05 133.468C304.196 133.842 303.343 134.188 302.49 134.508C301.663 134.828 300.876 135.108 300.13 135.348C299.41 135.588 298.756 135.775 298.17 135.908C297.583 136.042 297.13 136.108 296.81 136.108C296.33 136.108 295.81 135.975 295.25 135.708C294.69 135.442 294.17 135.122 293.69 134.748C293.236 134.375 292.85 133.975 292.53 133.548C292.236 133.095 292.09 132.708 292.09 132.388C292.09 131.828 292.263 131.135 292.61 130.308C292.956 129.455 293.396 128.615 293.93 127.788C294.463 126.962 295.05 126.215 295.69 125.548C296.356 124.882 296.996 124.428 297.61 124.188C298.73 123.735 299.783 123.388 300.77 123.148C301.783 122.882 302.89 122.748 304.09 122.748C304.943 122.748 305.583 122.815 306.01 122.948C306.463 123.082 306.77 123.255 306.93 123.468C307.516 124.188 307.983 125.522 308.33 127.468L304.29 127.988ZM329.543 126.148C329.143 127.082 328.809 127.935 328.543 128.708C328.276 129.482 328.036 130.228 327.823 130.948C327.636 131.668 327.476 132.388 327.343 133.108C327.209 133.828 327.089 134.575 326.983 135.348L322.623 136.388C323.049 133.535 324.329 130.242 326.463 126.508L325.183 125.628C324.009 126.108 322.996 126.628 322.143 127.188C321.289 127.722 320.556 128.308 319.943 128.948C319.356 129.588 318.876 130.295 318.503 131.068C318.156 131.842 317.889 132.708 317.703 133.668C317.489 134.708 317.249 135.428 316.983 135.828C316.716 136.202 316.369 136.388 315.943 136.388C315.729 136.388 315.356 136.282 314.823 136.068C314.316 135.828 313.836 135.522 313.383 135.148C312.929 134.775 312.703 134.388 312.703 133.988C312.703 133.562 313.009 132.975 313.623 132.228C313.916 131.882 314.156 131.575 314.343 131.308C314.556 131.015 314.729 130.722 314.863 130.428C314.996 130.135 315.103 129.828 315.183 129.508C315.289 129.162 315.396 128.748 315.503 128.268C315.689 127.388 315.929 126.428 316.223 125.388C316.543 124.348 316.889 123.335 317.263 122.348C317.636 121.335 318.009 120.428 318.383 119.628C318.756 118.802 319.089 118.188 319.383 117.788C319.543 117.602 319.863 117.388 320.343 117.148C320.849 116.882 321.409 116.642 322.023 116.428C322.636 116.188 323.236 115.988 323.823 115.828C324.436 115.668 324.929 115.588 325.303 115.588C325.649 115.588 325.849 115.668 325.903 115.828C325.956 115.988 325.836 116.215 325.543 116.508C324.796 117.282 324.129 118.028 323.543 118.748C322.983 119.442 322.449 120.215 321.943 121.068C321.436 121.895 320.929 122.842 320.423 123.908C319.943 124.948 319.409 126.202 318.823 127.668C319.756 126.895 320.689 126.228 321.623 125.668C322.556 125.108 323.409 124.642 324.183 124.268C324.983 123.895 325.663 123.628 326.223 123.468C326.809 123.282 327.209 123.188 327.423 123.188C327.743 123.188 328.036 123.268 328.303 123.428C328.596 123.588 328.943 123.882 329.343 124.308C329.636 124.628 329.796 124.908 329.823 125.148C329.849 125.362 329.756 125.695 329.543 126.148ZM344.817 121.148C343.75 121.362 342.857 121.468 342.137 121.468C341.284 121.468 340.564 121.348 339.977 121.108C339.417 120.868 339.137 120.535 339.137 120.108C339.137 119.842 339.244 119.588 339.457 119.348C339.697 119.082 339.99 118.842 340.337 118.628C340.684 118.415 341.07 118.242 341.497 118.108C341.95 117.975 342.377 117.908 342.777 117.908C343.124 117.908 343.39 117.962 343.577 118.068C343.764 118.148 343.857 118.375 343.857 118.748V119.388C343.857 119.602 343.937 119.882 344.097 120.228C344.284 120.548 344.524 120.855 344.817 121.148ZM343.137 123.548C341.857 125.468 340.91 127.442 340.297 129.468C339.71 131.495 339.35 133.562 339.217 135.668L334.577 136.628C334.844 134.362 335.257 132.268 335.817 130.348C336.404 128.402 337.23 126.442 338.297 124.468L343.137 123.548ZM377.178 136.428C376.698 135.308 376.311 134.242 376.018 133.228C375.724 132.188 375.498 131.015 375.338 129.708C374.484 129.442 373.618 129.282 372.738 129.228C371.884 129.148 370.818 129.135 369.538 129.188C368.364 130.655 367.351 131.868 366.498 132.828C365.644 133.762 364.911 134.508 364.298 135.068C363.684 135.602 363.178 135.975 362.778 136.188C362.404 136.402 362.111 136.508 361.898 136.508C361.044 136.508 360.618 135.722 360.618 134.148C360.618 133.642 360.671 133.188 360.778 132.788C360.911 132.388 361.164 132.002 361.538 131.628C361.938 131.255 362.471 130.868 363.138 130.468C363.831 130.042 364.738 129.562 365.858 129.028C366.391 128.762 366.804 128.522 367.098 128.308C367.391 128.095 367.684 127.842 367.978 127.548C368.858 126.668 369.671 125.775 370.418 124.868C371.164 123.962 371.818 123.082 372.378 122.228C372.938 121.348 373.378 120.522 373.698 119.748C374.044 118.975 374.244 118.268 374.298 117.628C375.231 117.468 376.098 117.295 376.898 117.108C377.698 116.922 378.578 116.682 379.538 116.388C379.324 117.348 379.151 118.415 379.018 119.588C378.911 120.735 378.858 121.815 378.858 122.828C378.858 124.428 378.898 125.842 378.978 127.068C379.084 128.268 379.231 129.362 379.418 130.348C379.631 131.335 379.884 132.242 380.178 133.068C380.498 133.895 380.871 134.708 381.298 135.508L377.178 136.428ZM375.498 119.788C374.884 121.148 374.178 122.495 373.378 123.828C372.604 125.135 371.658 126.428 370.538 127.708C371.311 127.602 372.044 127.535 372.738 127.508C373.431 127.482 374.244 127.495 375.178 127.548V125.748C375.178 124.975 375.204 124.028 375.258 122.908C375.311 121.762 375.391 120.722 375.498 119.788ZM399.485 127.988L398.685 124.308L395.685 124.948C395.285 125.482 394.898 126.055 394.525 126.668C394.151 127.255 393.805 127.855 393.485 128.468C393.165 129.055 392.885 129.615 392.645 130.148C392.405 130.655 392.231 131.082 392.125 131.428C392.045 131.668 392.045 131.895 392.125 132.108C392.205 132.295 392.445 132.588 392.845 132.988C393.191 133.362 393.498 133.575 393.765 133.628C394.058 133.655 394.538 133.615 395.205 133.508C395.551 133.455 395.898 133.388 396.245 133.308C396.591 133.202 396.991 133.068 397.445 132.908C397.925 132.722 398.498 132.482 399.165 132.188C399.831 131.895 400.658 131.522 401.645 131.068L401.405 132.268C401.351 132.562 401.245 132.788 401.085 132.948C400.925 133.108 400.645 133.282 400.245 133.468C399.391 133.842 398.538 134.188 397.685 134.508C396.858 134.828 396.071 135.108 395.325 135.348C394.605 135.588 393.951 135.775 393.365 135.908C392.778 136.042 392.325 136.108 392.005 136.108C391.525 136.108 391.005 135.975 390.445 135.708C389.885 135.442 389.365 135.122 388.885 134.748C388.431 134.375 388.045 133.975 387.725 133.548C387.431 133.095 387.285 132.708 387.285 132.388C387.285 131.828 387.458 131.135 387.805 130.308C388.151 129.455 388.591 128.615 389.125 127.788C389.658 126.962 390.245 126.215 390.885 125.548C391.551 124.882 392.191 124.428 392.805 124.188C393.925 123.735 394.978 123.388 395.965 123.148C396.978 122.882 398.085 122.748 399.285 122.748C400.138 122.748 400.778 122.815 401.205 122.948C401.658 123.082 401.965 123.255 402.125 123.468C402.711 124.188 403.178 125.522 403.525 127.468L399.485 127.988ZM425.058 125.548C425.058 126.082 424.805 126.602 424.298 127.108C423.605 127.882 423.138 128.615 422.898 129.308C422.658 130.002 422.565 130.842 422.618 131.828C422.671 132.522 422.738 133.135 422.818 133.668C422.898 134.202 423.031 134.762 423.218 135.348L419.058 136.268C418.925 135.575 418.831 134.895 418.778 134.228C418.751 133.562 418.791 132.762 418.898 131.828C417.218 133.348 415.671 134.468 414.258 135.188C412.845 135.882 411.618 136.228 410.578 136.228C410.018 136.228 409.418 135.868 408.778 135.148C408.485 134.855 408.325 134.548 408.298 134.228C408.298 133.908 408.418 133.468 408.658 132.908C409.085 131.868 409.445 130.948 409.738 130.148C410.058 129.322 410.325 128.548 410.538 127.828C410.751 127.082 410.925 126.348 411.058 125.628C411.191 124.882 411.298 124.082 411.378 123.228L415.938 122.148C415.858 122.948 415.685 123.815 415.418 124.748C415.178 125.655 414.885 126.575 414.538 127.508C414.191 128.415 413.805 129.308 413.378 130.188C412.951 131.042 412.525 131.802 412.098 132.468L413.138 133.788C415.458 132.588 417.165 131.322 418.258 129.988C419.351 128.655 420.031 127.148 420.298 125.468C420.511 124.162 420.725 123.295 420.938 122.868C421.151 122.442 421.485 122.228 421.938 122.228C422.098 122.228 422.351 122.348 422.698 122.588C423.045 122.828 423.391 123.122 423.738 123.468C424.085 123.815 424.391 124.188 424.658 124.588C424.925 124.962 425.058 125.282 425.058 125.548ZM450.58 125.948C450.58 127.335 450.153 128.642 449.3 129.868C448.473 131.095 447.18 132.348 445.42 133.628C444.993 133.948 444.513 134.242 443.98 134.508C443.473 134.775 442.966 135.015 442.46 135.228C441.98 135.442 441.526 135.615 441.1 135.748C440.673 135.855 440.34 135.908 440.1 135.908C439.673 135.908 439.286 135.762 438.94 135.468C438.593 135.175 438.42 134.842 438.42 134.468C438.42 134.282 438.486 134.108 438.62 133.948C438.753 133.762 438.993 133.615 439.34 133.508C439.713 133.375 440.206 133.282 440.82 133.228C441.46 133.175 442.273 133.162 443.26 133.188C443.793 132.548 444.246 131.962 444.62 131.428C444.993 130.895 445.313 130.388 445.58 129.908C445.846 129.428 446.073 128.935 446.26 128.428C446.446 127.922 446.62 127.362 446.78 126.748L445.5 125.588C444.3 126.175 443.246 126.815 442.34 127.508C441.46 128.175 440.646 128.988 439.9 129.948C439.18 130.908 438.486 132.068 437.82 133.428C437.18 134.762 436.486 136.402 435.74 138.348C435.02 140.242 434.286 141.188 433.54 141.188C433.246 141.188 432.94 141.042 432.62 140.748C432.3 140.482 431.886 140.002 431.38 139.308C430.9 138.615 430.66 138.068 430.66 137.668C430.66 137.268 430.873 136.842 431.3 136.388C432.046 135.562 432.66 134.842 433.14 134.228C433.62 133.588 434.1 132.882 434.58 132.108C434.766 131.788 434.926 131.442 435.06 131.068C435.193 130.668 435.3 130.162 435.38 129.548C435.46 128.935 435.513 128.175 435.54 127.268C435.566 126.362 435.566 125.228 435.54 123.868L440.18 123.108C440.1 123.935 440.006 124.722 439.9 125.468C439.82 126.188 439.686 127.015 439.5 127.948C441.26 126.162 442.793 124.868 444.1 124.068C445.406 123.268 446.513 122.868 447.42 122.868C447.686 122.868 447.993 122.962 448.34 123.148C448.713 123.308 449.06 123.535 449.38 123.828C449.726 124.095 450.006 124.415 450.22 124.788C450.46 125.162 450.58 125.548 450.58 125.948ZM472.105 125.548C472.105 126.082 471.851 126.602 471.345 127.108C470.651 127.882 470.185 128.615 469.945 129.308C469.705 130.002 469.611 130.842 469.665 131.828C469.718 132.522 469.785 133.135 469.865 133.668C469.945 134.202 470.078 134.762 470.265 135.348L466.105 136.268C465.971 135.575 465.878 134.895 465.825 134.228C465.798 133.562 465.838 132.762 465.945 131.828C464.265 133.348 462.718 134.468 461.305 135.188C459.891 135.882 458.665 136.228 457.625 136.228C457.065 136.228 456.465 135.868 455.825 135.148C455.531 134.855 455.371 134.548 455.345 134.228C455.345 133.908 455.465 133.468 455.705 132.908C456.131 131.868 456.491 130.948 456.785 130.148C457.105 129.322 457.371 128.548 457.585 127.828C457.798 127.082 457.971 126.348 458.105 125.628C458.238 124.882 458.345 124.082 458.425 123.228L462.985 122.148C462.905 122.948 462.731 123.815 462.465 124.748C462.225 125.655 461.931 126.575 461.585 127.508C461.238 128.415 460.851 129.308 460.425 130.188C459.998 131.042 459.571 131.802 459.145 132.468L460.185 133.788C462.505 132.588 464.211 131.322 465.305 129.988C466.398 128.655 467.078 127.148 467.345 125.468C467.558 124.162 467.771 123.295 467.985 122.868C468.198 122.442 468.531 122.228 468.985 122.228C469.145 122.228 469.398 122.348 469.745 122.588C470.091 122.828 470.438 123.122 470.785 123.468C471.131 123.815 471.438 124.188 471.705 124.588C471.971 124.962 472.105 125.282 472.105 125.548ZM494.707 124.788C494.707 125.082 494.573 125.482 494.307 125.988C493.533 127.428 492.92 128.895 492.467 130.388C492.013 131.855 491.72 133.428 491.587 135.108L487.267 136.148C487.56 134.308 488.027 132.522 488.667 130.788C489.307 129.055 490.053 127.588 490.907 126.388L489.947 125.388C488.987 125.708 488.08 126.122 487.227 126.628C486.4 127.108 485.667 127.628 485.027 128.188C484.387 128.722 483.867 129.242 483.467 129.748C483.093 130.255 482.867 130.682 482.787 131.028C482.547 132.175 482.307 133.108 482.067 133.828C481.827 134.522 481.587 135.055 481.347 135.428C481.133 135.802 480.92 136.042 480.707 136.148C480.52 136.228 480.333 136.228 480.147 136.148C479.507 135.882 479 135.575 478.627 135.228C478.28 134.882 477.907 134.415 477.507 133.828C477.107 133.322 477.227 132.828 477.867 132.348C478.213 132.082 478.507 131.815 478.747 131.548C478.987 131.255 479.173 130.922 479.307 130.548C479.44 130.148 479.533 129.682 479.587 129.148C479.64 128.588 479.667 127.908 479.667 127.108C479.667 126.148 479.653 125.442 479.627 124.988C479.627 124.508 479.6 124.082 479.547 123.708L483.747 122.908C483.8 123.655 483.8 124.375 483.747 125.068C483.72 125.762 483.6 126.522 483.387 127.348C483.947 126.762 484.627 126.202 485.427 125.668C486.253 125.135 487.093 124.668 487.947 124.268C488.8 123.842 489.627 123.508 490.427 123.268C491.227 123.028 491.893 122.908 492.427 122.908C492.56 122.908 492.747 122.988 492.987 123.148C493.253 123.282 493.507 123.455 493.747 123.668C494.013 123.882 494.24 124.095 494.427 124.308C494.613 124.522 494.707 124.682 494.707 124.788ZM512.454 127.988L511.654 124.308L508.654 124.948C508.254 125.482 507.867 126.055 507.494 126.668C507.12 127.255 506.774 127.855 506.454 128.468C506.134 129.055 505.854 129.615 505.614 130.148C505.374 130.655 505.2 131.082 505.094 131.428C505.014 131.668 505.014 131.895 505.094 132.108C505.174 132.295 505.414 132.588 505.814 132.988C506.16 133.362 506.467 133.575 506.734 133.628C507.027 133.655 507.507 133.615 508.174 133.508C508.52 133.455 508.867 133.388 509.214 133.308C509.56 133.202 509.96 133.068 510.414 132.908C510.894 132.722 511.467 132.482 512.134 132.188C512.8 131.895 513.627 131.522 514.614 131.068L514.374 132.268C514.32 132.562 514.214 132.788 514.054 132.948C513.894 133.108 513.614 133.282 513.214 133.468C512.36 133.842 511.507 134.188 510.654 134.508C509.827 134.828 509.04 135.108 508.294 135.348C507.574 135.588 506.92 135.775 506.334 135.908C505.747 136.042 505.294 136.108 504.974 136.108C504.494 136.108 503.974 135.975 503.414 135.708C502.854 135.442 502.334 135.122 501.854 134.748C501.4 134.375 501.014 133.975 500.694 133.548C500.4 133.095 500.254 132.708 500.254 132.388C500.254 131.828 500.427 131.135 500.774 130.308C501.12 129.455 501.56 128.615 502.094 127.788C502.627 126.962 503.214 126.215 503.854 125.548C504.52 124.882 505.16 124.428 505.774 124.188C506.894 123.735 507.947 123.388 508.934 123.148C509.947 122.882 511.054 122.748 512.254 122.748C513.107 122.748 513.747 122.815 514.174 122.948C514.627 123.082 514.934 123.255 515.094 123.468C515.68 124.188 516.147 125.522 516.494 127.468L512.454 127.988ZM533.427 125.828L528.107 125.908C527.547 127.428 527.147 128.668 526.907 129.628C526.693 130.588 526.587 131.415 526.587 132.108C526.587 132.295 526.587 132.495 526.587 132.708C526.587 132.922 526.613 133.148 526.667 133.388L527.627 133.908C527.973 133.855 528.293 133.802 528.587 133.748C528.88 133.695 529.16 133.642 529.427 133.588C529.72 133.508 530.027 133.428 530.347 133.348C530.693 133.268 531.107 133.162 531.587 133.028C531.48 133.562 531.32 133.962 531.107 134.228C530.92 134.468 530.533 134.722 529.947 134.988C528.827 135.468 527.933 135.802 527.267 135.988C526.627 136.175 526.08 136.268 525.627 136.268C525.147 136.268 524.707 136.148 524.307 135.908C523.907 135.668 523.56 135.375 523.267 135.028C523 134.682 522.787 134.308 522.627 133.908C522.467 133.508 522.387 133.148 522.387 132.828C522.387 132.135 522.56 131.268 522.907 130.228C523.28 129.188 523.907 127.762 524.787 125.948L521.707 125.988L522.347 124.308L525.707 124.228L527.187 121.428L530.587 120.588L528.787 124.228L534.067 124.148L533.427 125.828ZM555.574 125.548C555.574 126.082 555.32 126.602 554.814 127.108C554.12 127.882 553.654 128.615 553.414 129.308C553.174 130.002 553.08 130.842 553.134 131.828C553.187 132.522 553.254 133.135 553.334 133.668C553.414 134.202 553.547 134.762 553.734 135.348L549.574 136.268C549.44 135.575 549.347 134.895 549.294 134.228C549.267 133.562 549.307 132.762 549.414 131.828C547.734 133.348 546.187 134.468 544.774 135.188C543.36 135.882 542.134 136.228 541.094 136.228C540.534 136.228 539.934 135.868 539.294 135.148C539 134.855 538.84 134.548 538.814 134.228C538.814 133.908 538.934 133.468 539.174 132.908C539.6 131.868 539.96 130.948 540.254 130.148C540.574 129.322 540.84 128.548 541.054 127.828C541.267 127.082 541.44 126.348 541.574 125.628C541.707 124.882 541.814 124.082 541.894 123.228L546.454 122.148C546.374 122.948 546.2 123.815 545.934 124.748C545.694 125.655 545.4 126.575 545.054 127.508C544.707 128.415 544.32 129.308 543.894 130.188C543.467 131.042 543.04 131.802 542.614 132.468L543.654 133.788C545.974 132.588 547.68 131.322 548.774 129.988C549.867 128.655 550.547 127.148 550.814 125.468C551.027 124.162 551.24 123.295 551.454 122.868C551.667 122.442 552 122.228 552.454 122.228C552.614 122.228 552.867 122.348 553.214 122.588C553.56 122.828 553.907 123.122 554.254 123.468C554.6 123.815 554.907 124.188 555.174 124.588C555.44 124.962 555.574 125.282 555.574 125.548ZM573.975 123.228C573.762 123.655 573.575 124.028 573.415 124.348C573.255 124.642 573.109 124.935 572.975 125.228C572.842 125.495 572.709 125.775 572.575 126.068C572.442 126.362 572.295 126.695 572.135 127.068L569.135 126.708C568.842 126.868 568.522 127.148 568.175 127.548C567.855 127.922 567.549 128.362 567.255 128.868C566.962 129.375 566.695 129.908 566.455 130.468C566.215 131.028 566.042 131.562 565.935 132.068C565.722 133.028 565.522 133.815 565.335 134.428C565.149 135.015 564.962 135.482 564.775 135.828C564.589 136.148 564.402 136.375 564.215 136.508C564.029 136.615 563.842 136.668 563.655 136.668C563.495 136.668 563.269 136.548 562.975 136.308C562.709 136.042 562.442 135.748 562.175 135.428C561.909 135.082 561.669 134.735 561.455 134.388C561.269 134.015 561.175 133.708 561.175 133.468C561.175 133.015 561.269 132.602 561.455 132.228C561.642 131.855 562.002 131.348 562.535 130.708C562.749 130.468 562.895 130.162 562.975 129.788C563.082 129.388 563.135 128.802 563.135 128.028C563.135 126.882 563.109 125.895 563.055 125.068C563.002 124.215 562.935 123.535 562.855 123.028L566.935 122.028C567.069 123.815 566.935 125.548 566.535 127.228C567.149 126.268 567.695 125.482 568.175 124.868C568.682 124.228 569.149 123.722 569.575 123.348C570.002 122.975 570.402 122.708 570.775 122.548C571.149 122.388 571.522 122.308 571.895 122.308C572.135 122.308 572.442 122.388 572.815 122.548C573.215 122.708 573.602 122.935 573.975 123.228ZM594.751 125.468C594.751 126.242 594.591 126.882 594.271 127.388C593.978 127.895 593.404 128.335 592.551 128.708C591.698 129.055 590.511 129.362 588.991 129.628C587.498 129.895 585.551 130.188 583.151 130.508C583.204 131.042 583.418 131.628 583.791 132.268C584.191 132.882 584.698 133.375 585.311 133.748C586.084 133.588 586.804 133.428 587.471 133.268C588.164 133.108 588.831 132.935 589.471 132.748C590.111 132.562 590.751 132.348 591.391 132.108C592.058 131.868 592.751 131.588 593.471 131.268L593.351 132.348C593.324 132.535 593.271 132.708 593.191 132.868C593.138 133.002 592.978 133.148 592.711 133.308C592.444 133.468 592.044 133.668 591.511 133.908C590.978 134.122 590.231 134.402 589.271 134.748C588.284 135.122 587.284 135.428 586.271 135.668C585.258 135.908 584.444 136.028 583.831 136.028C583.271 136.028 582.684 135.908 582.071 135.668C581.484 135.402 580.938 135.082 580.431 134.708C579.951 134.335 579.551 133.935 579.231 133.508C578.938 133.055 578.791 132.628 578.791 132.228C578.791 131.855 578.831 131.508 578.911 131.188C578.991 130.842 579.124 130.455 579.311 130.028C579.524 129.602 579.818 129.095 580.191 128.508C580.564 127.922 581.031 127.188 581.591 126.308C582.284 125.295 583.418 124.455 584.991 123.788C586.591 123.095 588.604 122.748 591.031 122.748C592.418 122.748 593.378 122.935 593.911 123.308C594.471 123.682 594.751 124.402 594.751 125.468ZM590.671 124.268L586.471 124.788C585.938 125.482 585.444 126.148 584.991 126.788C584.564 127.402 584.098 128.135 583.591 128.988C585.111 128.855 586.338 128.708 587.271 128.548C588.204 128.388 588.911 128.188 589.391 127.948C589.898 127.708 590.231 127.428 590.391 127.108C590.578 126.788 590.671 126.402 590.671 125.948V124.268ZM632.212 121.708C631.652 121.335 631.105 121.002 630.572 120.708C630.038 120.415 629.492 120.162 628.932 119.948C628.372 119.708 627.758 119.495 627.092 119.308C626.452 119.095 625.732 118.882 624.932 118.668C623.972 119.148 623.038 119.868 622.132 120.828C621.252 121.788 620.465 122.828 619.772 123.948C619.105 125.068 618.558 126.202 618.132 127.348C617.732 128.495 617.532 129.495 617.532 130.348C617.532 130.642 617.665 131.002 617.932 131.428C618.225 131.828 618.598 132.228 619.052 132.628C619.505 133.002 620.038 133.335 620.652 133.628C621.265 133.895 621.892 134.028 622.532 134.028C623.332 134.028 624.425 133.802 625.812 133.348C627.198 132.868 628.652 132.242 630.172 131.468L630.812 132.548C630.012 133.028 629.145 133.508 628.212 133.988C627.278 134.442 626.332 134.855 625.372 135.228C624.438 135.602 623.532 135.908 622.652 136.148C621.772 136.362 620.985 136.468 620.292 136.468C619.305 136.468 618.358 136.268 617.452 135.868C616.545 135.442 615.732 134.908 615.012 134.268C614.318 133.628 613.758 132.908 613.332 132.108C612.932 131.308 612.732 130.522 612.732 129.748C612.732 128.548 613.065 127.175 613.732 125.628C614.398 124.082 615.372 122.628 616.652 121.268C617.932 119.908 619.505 118.762 621.372 117.828C623.265 116.895 625.438 116.428 627.892 116.428C628.745 116.428 629.745 116.668 630.892 117.148C632.065 117.602 633.372 118.308 634.812 119.268L632.212 121.708ZM649.325 119.188C649.325 119.455 649.232 119.762 649.045 120.108C648.858 120.455 648.485 120.935 647.925 121.548C646.405 123.148 645.312 124.842 644.645 126.628C644.005 128.388 643.685 130.042 643.685 131.588C643.685 132.308 643.712 133.015 643.765 133.708C643.818 134.402 643.912 135.002 644.045 135.508L639.845 136.428C639.738 136.055 639.672 135.682 639.645 135.308C639.618 134.908 639.605 134.388 639.605 133.748C639.605 132.895 639.672 131.975 639.805 130.988C639.938 130.002 640.125 129.028 640.365 128.068C640.605 127.108 640.872 126.188 641.165 125.308C641.458 124.428 641.765 123.668 642.085 123.028C642.832 121.482 643.458 120.228 643.965 119.268C644.472 118.282 644.898 117.522 645.245 116.988C645.592 116.455 645.885 116.095 646.125 115.908C646.365 115.722 646.592 115.628 646.805 115.628C647.018 115.628 647.272 115.762 647.565 116.028C647.858 116.295 648.125 116.615 648.365 116.988C648.632 117.362 648.858 117.762 649.045 118.188C649.232 118.588 649.325 118.922 649.325 119.188ZM663.575 121.148C662.508 121.362 661.615 121.468 660.895 121.468C660.041 121.468 659.321 121.348 658.735 121.108C658.175 120.868 657.895 120.535 657.895 120.108C657.895 119.842 658.001 119.588 658.215 119.348C658.455 119.082 658.748 118.842 659.095 118.628C659.441 118.415 659.828 118.242 660.255 118.108C660.708 117.975 661.135 117.908 661.535 117.908C661.881 117.908 662.148 117.962 662.335 118.068C662.521 118.148 662.615 118.375 662.615 118.748V119.388C662.615 119.602 662.695 119.882 662.855 120.228C663.041 120.548 663.281 120.855 663.575 121.148ZM661.895 123.548C660.615 125.468 659.668 127.442 659.055 129.468C658.468 131.495 658.108 133.562 657.975 135.668L653.335 136.628C653.601 134.362 654.015 132.268 654.575 130.348C655.161 128.402 655.988 126.442 657.055 124.468L661.895 123.548ZM685.175 124.788C685.175 125.082 685.042 125.482 684.775 125.988C684.002 127.428 683.389 128.895 682.935 130.388C682.482 131.855 682.189 133.428 682.055 135.108L677.735 136.148C678.029 134.308 678.495 132.522 679.135 130.788C679.775 129.055 680.522 127.588 681.375 126.388L680.415 125.388C679.455 125.708 678.549 126.122 677.695 126.628C676.869 127.108 676.135 127.628 675.495 128.188C674.855 128.722 674.335 129.242 673.935 129.748C673.562 130.255 673.335 130.682 673.255 131.028C673.015 132.175 672.775 133.108 672.535 133.828C672.295 134.522 672.055 135.055 671.815 135.428C671.602 135.802 671.389 136.042 671.175 136.148C670.989 136.228 670.802 136.228 670.615 136.148C669.975 135.882 669.469 135.575 669.095 135.228C668.749 134.882 668.375 134.415 667.975 133.828C667.575 133.322 667.695 132.828 668.335 132.348C668.682 132.082 668.975 131.815 669.215 131.548C669.455 131.255 669.642 130.922 669.775 130.548C669.909 130.148 670.002 129.682 670.055 129.148C670.109 128.588 670.135 127.908 670.135 127.108C670.135 126.148 670.122 125.442 670.095 124.988C670.095 124.508 670.069 124.082 670.015 123.708L674.215 122.908C674.269 123.655 674.269 124.375 674.215 125.068C674.189 125.762 674.069 126.522 673.855 127.348C674.415 126.762 675.095 126.202 675.895 125.668C676.722 125.135 677.562 124.668 678.415 124.268C679.269 123.842 680.095 123.508 680.895 123.268C681.695 123.028 682.362 122.908 682.895 122.908C683.029 122.908 683.215 122.988 683.455 123.148C683.722 123.282 683.975 123.455 684.215 123.668C684.482 123.882 684.709 124.095 684.895 124.308C685.082 124.522 685.175 124.682 685.175 124.788ZM699.762 121.148C698.696 121.362 697.802 121.468 697.082 121.468C696.229 121.468 695.509 121.348 694.922 121.108C694.362 120.868 694.082 120.535 694.082 120.108C694.082 119.842 694.189 119.588 694.402 119.348C694.642 119.082 694.936 118.842 695.282 118.628C695.629 118.415 696.016 118.242 696.442 118.108C696.896 117.975 697.322 117.908 697.722 117.908C698.069 117.908 698.336 117.962 698.522 118.068C698.709 118.148 698.802 118.375 698.802 118.748V119.388C698.802 119.602 698.882 119.882 699.042 120.228C699.229 120.548 699.469 120.855 699.762 121.148ZM698.082 123.548C696.802 125.468 695.856 127.442 695.242 129.468C694.656 131.495 694.296 133.562 694.162 135.668L689.522 136.628C689.789 134.362 690.202 132.268 690.762 130.348C691.349 128.402 692.176 126.442 693.242 124.468L698.082 123.548ZM719.923 125.468C719.923 126.242 719.763 126.882 719.443 127.388C719.15 127.895 718.576 128.335 717.723 128.708C716.87 129.055 715.683 129.362 714.163 129.628C712.67 129.895 710.723 130.188 708.323 130.508C708.376 131.042 708.59 131.628 708.963 132.268C709.363 132.882 709.87 133.375 710.483 133.748C711.256 133.588 711.976 133.428 712.643 133.268C713.336 133.108 714.003 132.935 714.643 132.748C715.283 132.562 715.923 132.348 716.563 132.108C717.23 131.868 717.923 131.588 718.643 131.268L718.523 132.348C718.496 132.535 718.443 132.708 718.363 132.868C718.31 133.002 718.15 133.148 717.883 133.308C717.616 133.468 717.216 133.668 716.683 133.908C716.15 134.122 715.403 134.402 714.443 134.748C713.456 135.122 712.456 135.428 711.443 135.668C710.43 135.908 709.616 136.028 709.003 136.028C708.443 136.028 707.856 135.908 707.243 135.668C706.656 135.402 706.11 135.082 705.603 134.708C705.123 134.335 704.723 133.935 704.403 133.508C704.11 133.055 703.963 132.628 703.963 132.228C703.963 131.855 704.003 131.508 704.083 131.188C704.163 130.842 704.296 130.455 704.483 130.028C704.696 129.602 704.99 129.095 705.363 128.508C705.736 127.922 706.203 127.188 706.763 126.308C707.456 125.295 708.59 124.455 710.163 123.788C711.763 123.095 713.776 122.748 716.203 122.748C717.59 122.748 718.55 122.935 719.083 123.308C719.643 123.682 719.923 124.402 719.923 125.468ZM715.843 124.268L711.643 124.788C711.11 125.482 710.616 126.148 710.163 126.788C709.736 127.402 709.27 128.135 708.763 128.988C710.283 128.855 711.51 128.708 712.443 128.548C713.376 128.388 714.083 128.188 714.563 127.948C715.07 127.708 715.403 127.428 715.563 127.108C715.75 126.788 715.843 126.402 715.843 125.948V124.268Z" fill="white" fill-opacity="0.85"/>
<path d="M159.77 45.1644C159.59 45.5844 159.26 46.1244 158.78 46.7844C158.36 47.3844 157.88 48.0144 157.34 48.6744C156.8 49.2744 156.2 49.8444 155.54 50.3844C154.94 50.9244 154.37 51.3144 153.83 51.5544C152.39 52.2144 151.01 52.4844 149.69 52.3644C148.37 52.1844 146.93 51.5544 145.37 50.4744C143.63 49.3344 142.04 48.2844 140.6 47.3244C139.22 46.3644 137.93 45.4644 136.73 44.6244C136.13 44.3844 135.59 44.4144 135.11 44.7144C133.49 45.9144 131.48 46.8444 129.08 47.5044C127.16 48.1644 125.27 48.5244 123.41 48.5844C123.29 48.5844 123.14 48.6444 122.96 48.7644C122.78 48.8244 122.75 48.9444 122.87 49.1244C123.17 49.7244 123.08 50.2944 122.6 50.8344C122.12 51.3144 121.37 51.7044 120.35 52.0044C119.45 52.2444 118.31 52.5444 116.93 52.9044C115.55 53.2044 113.96 53.5344 112.16 53.8944C111.2 54.1944 110.72 54.4944 110.72 54.7944C110.72 55.0344 110.93 55.2144 111.35 55.3344C112.01 55.4544 112.73 55.4844 113.51 55.4244C114.29 55.3044 115.46 55.0944 117.02 54.7944C117.44 54.6744 117.83 54.5544 118.19 54.4344C118.61 54.3144 119.03 54.1644 119.45 53.9844C120.65 53.5044 121.73 53.0244 122.69 52.5444C123.65 52.0644 124.37 51.6744 124.85 51.3744C126.05 50.6544 126.83 50.2044 127.19 50.0244C127.55 49.8444 127.97 49.8144 128.45 49.9344C129.53 50.2344 130.22 50.5044 130.52 50.7444C130.82 50.9844 131.03 51.3744 131.15 51.9144C131.39 53.1144 130.04 54.1944 127.1 55.1544C126.56 55.3344 126.02 55.5144 125.48 55.6944C124.94 55.8744 124.25 56.1144 123.41 56.4144C122.63 56.7144 121.61 57.1044 120.35 57.5844C119.15 58.0644 117.59 58.6944 115.67 59.4744C114.95 59.7744 114.71 60.1344 114.95 60.5544C115.19 60.9144 115.7 61.1544 116.48 61.2744C118.28 61.5144 120.05 61.4244 121.79 61.0044C123.59 60.5844 125.15 60.0444 126.47 59.3844C126.77 59.2644 126.89 59.1144 126.83 58.9344C126.83 58.7544 126.65 58.4844 126.29 58.1244C125.99 57.8244 125.87 57.5244 125.93 57.2244C126.05 56.9244 126.29 56.4744 126.65 55.8744C126.95 55.3944 127.55 55.0944 128.45 54.9744C129.41 54.8544 130.4 55.0344 131.42 55.5144C132.08 55.8144 132.65 56.1144 133.13 56.4144C133.67 56.6544 134.24 56.9544 134.84 57.3144C135.44 57.6144 136.1 58.0044 136.82 58.4844C137.6 58.9644 138.56 59.5644 139.7 60.2844C140.66 60.9444 141.17 61.5144 141.23 61.9944C141.35 62.4144 141.2 62.8044 140.78 63.1644C140.48 63.4644 139.97 63.6444 139.25 63.7044C138.53 63.7044 137.84 63.5544 137.18 63.2544C136.52 62.9544 135.89 62.6844 135.29 62.4444C134.69 62.1444 134.09 61.8444 133.49 61.5444C133.19 61.3044 132.59 61.3344 131.69 61.6344C130.73 62.1744 129.62 62.7144 128.36 63.2544C127.16 63.7344 125.93 64.1244 124.67 64.4244C124.13 64.6044 123.89 65.0844 123.95 65.8644C124.07 67.7844 124.07 69.4644 123.95 70.9044C123.83 72.3444 123.5 73.5744 122.96 74.5944C122.48 75.5544 121.76 76.3044 120.8 76.8444C119.84 77.3244 118.58 77.6244 117.02 77.7444C116.54 77.7444 115.79 77.6244 114.77 77.3844C113.75 77.1444 112.7 76.8144 111.62 76.3944C110.54 75.9144 109.52 75.3444 108.56 74.6844C107.6 73.9644 106.94 73.1244 106.58 72.1644C105.98 70.7244 106.46 70.1544 108.02 70.4544C109.58 70.9344 110.75 71.1444 111.53 71.0844C112.37 71.0244 113.15 70.7844 113.87 70.3644C114.05 70.2444 114.2 69.9144 114.32 69.3744C114.44 68.7744 114.44 67.7244 114.32 66.2244C114.32 65.6844 113.87 65.3244 112.97 65.1444C110.21 64.5444 107.9 64.2744 106.04 64.3344C104.24 64.3344 102.92 64.4544 102.08 64.6944C100.7 65.1144 99.7697 65.2944 99.2897 65.2344C98.8097 65.1744 98.4197 64.9044 98.1197 64.4244C97.6997 63.7644 97.7297 63.1344 98.2097 62.5344C98.7497 61.9344 99.7097 61.4844 101.09 61.1844C101.51 61.0644 102.2 60.8244 103.16 60.4644C104.18 60.1044 105.35 59.6844 106.67 59.2044C107.57 58.7244 107.9 58.3644 107.66 58.1244C107.48 57.8244 107.06 57.7344 106.4 57.8544C105.5 57.8544 104.42 57.9144 103.16 58.0344C101.96 58.1544 101.03 58.3044 100.37 58.4844C98.8097 58.9644 97.7597 59.1444 97.2197 59.0244C96.7397 58.8444 96.4397 58.3344 96.3197 57.4944C96.1397 56.2344 96.3197 55.3944 96.8597 54.9744C97.4597 54.4944 98.5697 54.1344 100.19 53.8944C100.91 53.6544 101.84 53.4144 102.98 53.1744C104.18 52.8744 105.38 52.5744 106.58 52.2744C107.24 52.1544 107.24 51.9144 106.58 51.5544C106.16 51.2544 106.01 50.9544 106.13 50.6544C106.25 50.3544 106.64 50.2644 107.3 50.3844C107.96 50.5644 108.56 50.5644 109.1 50.3844C110 50.0844 109.97 49.9344 109.01 49.9344C108.65 49.9344 108.38 49.9044 108.2 49.8444C106.82 49.7244 105.62 49.6344 104.6 49.5744C103.64 49.5144 102.68 49.5144 101.72 49.5744C100.82 49.5744 99.7997 49.6344 98.6597 49.7544C97.5797 49.8744 96.2597 50.0544 94.6997 50.2944C94.3997 50.3544 94.1297 50.4144 93.8897 50.4744C93.6497 50.5344 93.3197 50.6544 92.8997 50.8344C92.5997 50.9544 92.3297 51.0744 92.0897 51.1944C91.8497 51.3144 91.6097 51.4044 91.3697 51.4644C90.4697 51.7044 89.8397 51.7644 89.4797 51.6444C89.1197 51.4644 88.6997 51.0444 88.2197 50.3844C87.9197 50.0844 87.7397 49.7544 87.6797 49.3944C87.6797 48.9744 87.8897 48.4044 88.3097 47.6844C88.4297 47.4444 88.5797 47.0844 88.7597 46.6044C88.9997 46.1244 89.2397 45.4944 89.4797 44.7144C89.5997 44.3544 89.5097 44.1444 89.2097 44.0844C88.9097 43.9644 88.2197 43.9644 87.1397 44.0844C86.5997 44.2044 85.9697 44.3544 85.2497 44.5344C84.5897 44.7144 83.8997 44.8944 83.1797 45.0744C82.5197 45.2544 81.8897 45.4344 81.2897 45.6144C80.7497 45.7344 80.3297 45.8544 80.0297 45.9744C78.4697 46.6944 77.2397 46.9644 76.3397 46.7844C75.4397 46.5444 75.0197 45.6744 75.0797 44.1744C75.1397 43.5144 75.4397 42.8844 75.9797 42.2844C76.5797 41.6844 77.2697 41.2044 78.0497 40.8444C78.8897 40.4244 79.7597 40.1244 80.6597 39.9444C81.6197 39.7644 82.4597 39.7644 83.1797 39.9444C83.8397 40.1244 84.4397 40.2744 84.9797 40.3944C85.5197 40.4544 86.0897 40.4244 86.6897 40.3044C87.3497 40.1844 88.3997 40.1844 89.8397 40.3044C90.0797 40.3044 90.2897 40.2444 90.4697 40.1244C90.7097 40.0044 90.8597 39.7644 90.9197 39.4044C91.2197 38.3244 91.3097 37.6344 91.1897 37.3344C91.1297 36.2544 91.1597 35.5044 91.2797 35.0844C91.3997 34.6044 91.5197 34.3044 91.6397 34.1844C92.2997 33.6444 93.0197 33.4044 93.7997 33.4644C94.5797 33.4644 95.4197 33.6744 96.3197 34.0944C96.5597 34.2144 96.8297 34.3344 97.1297 34.4544C97.4297 34.5144 97.6697 34.5144 97.8497 34.4544C98.9897 34.2744 100.13 34.1244 101.27 34.0044C102.41 33.8844 103.46 33.8244 104.42 33.8244C105.44 33.7644 106.34 33.7644 107.12 33.8244C107.9 33.8844 108.47 34.0044 108.83 34.1844C109.85 34.5444 110.6 34.7544 111.08 34.8144C111.56 34.8144 112.01 34.6344 112.43 34.2744C112.79 33.9744 113.3 33.8244 113.96 33.8244C114.68 33.8244 115.34 33.9744 115.94 34.2744C116.66 34.6344 117.14 34.8744 117.38 34.9944C117.68 35.1144 117.92 35.1144 118.1 34.9944C119.54 34.0344 120.71 32.8944 121.61 31.5744C122.51 30.1944 123.14 28.4244 123.5 26.2644C123.74 24.7044 124.16 23.7444 124.76 23.3844C125.36 23.0244 126.32 22.9644 127.64 23.2044C128.48 23.3844 129.17 23.9544 129.71 24.9144C130.31 25.8144 130.46 26.7744 130.16 27.7944C130.1 27.9744 130.13 28.1844 130.25 28.4244C130.37 28.6044 130.58 28.6944 130.88 28.6944C133.94 28.7544 136.85 28.8144 139.61 28.8744C142.37 28.8744 145.19 28.8144 148.07 28.6944C148.91 28.6944 149.6 28.8744 150.14 29.2344C150.68 29.5944 150.98 30.0444 151.04 30.5844C151.1 31.4244 150.8 31.9944 150.14 32.2944C149.54 32.5944 148.19 32.8044 146.09 32.9244C145.61 32.9244 145.04 32.9244 144.38 32.9244C143.72 32.9244 142.97 32.9544 142.13 33.0144C141.59 33.0144 141.23 33.1044 141.05 33.2844C140.87 33.4044 140.78 33.6144 140.78 33.9144C140.84 34.7544 140.78 35.5644 140.6 36.3444C140.42 37.0644 140.21 37.7544 139.97 38.4144C139.85 38.6544 139.85 38.9244 139.97 39.2244C140.09 39.4644 140.3 39.6444 140.6 39.7644C143.9 40.6044 147.05 41.3244 150.05 41.9244C153.11 42.4644 156.08 42.9744 158.96 43.4544C159.56 43.5744 159.92 43.7244 160.04 43.9044C160.16 44.0844 160.07 44.5044 159.77 45.1644ZM119.45 29.6844C119.51 30.3444 119.27 30.8544 118.73 31.2144C118.19 31.5144 117.14 31.6944 115.58 31.7544C111.26 31.8144 107.33 31.9044 103.79 32.0244C100.31 32.1444 97.2797 32.2644 94.6997 32.3844C93.9797 32.3844 93.4097 32.5044 92.9897 32.7444C92.4497 33.0444 91.8197 33.3744 91.0997 33.7344C90.4397 34.0944 89.6597 34.4844 88.7597 34.9044C87.6797 35.3844 86.8997 35.6244 86.4197 35.6244C85.9997 35.6244 85.5497 35.3844 85.0697 34.9044C84.7697 34.6044 84.5897 34.3044 84.5297 34.0044C84.4697 33.6444 84.5897 33.3744 84.8897 33.1944C86.5697 32.1744 88.0697 31.0044 89.3897 29.6844C90.7697 28.3644 91.9697 27.0444 92.9897 25.7244C93.5297 25.0644 93.9797 24.5544 94.3397 24.1944C94.6997 23.8344 95.0297 23.5944 95.3297 23.4744C95.6897 23.3544 96.0497 23.3544 96.4097 23.4744C96.8297 23.5344 97.3697 23.6844 98.0297 23.9244C100.13 24.9444 100.88 25.9944 100.28 27.0744C99.9797 27.5544 100.31 27.7944 101.27 27.7944C102.83 27.7944 104.21 27.7944 105.41 27.7944C106.67 27.7944 107.87 27.8244 109.01 27.8844C110.15 27.8844 111.29 27.9144 112.43 27.9744C113.57 28.0344 114.86 28.0944 116.3 28.1544C117.68 28.1544 118.52 28.2744 118.82 28.5144C119.12 28.7544 119.33 29.1444 119.45 29.6844ZM151.58 75.1344C150.74 76.1544 149.09 76.3944 146.63 75.8544C144.05 75.3144 141.56 74.6244 139.16 73.7844C136.82 72.9444 134.12 71.8344 131.06 70.4544C129.32 69.6144 128.36 68.7444 128.18 67.8444C128 66.8844 128.33 66.0144 129.17 65.2344C130.01 64.4544 130.85 64.0944 131.69 64.1544C132.59 64.1544 133.64 64.6044 134.84 65.5044C135.02 65.6244 135.71 65.9844 136.91 66.5844C138.11 67.1244 139.52 67.7844 141.14 68.5644C142.82 69.3444 144.56 70.1544 146.36 70.9944C148.16 71.7744 149.72 72.4644 151.04 73.0644C152.24 73.7244 152.42 74.4144 151.58 75.1344ZM107.48 66.1344C108.44 67.0344 108.74 67.8444 108.38 68.5644C108.08 69.2844 107.21 70.0644 105.77 70.9044C105.11 71.2044 104.42 71.5044 103.7 71.8044C103.04 72.0444 102.17 72.3444 101.09 72.7044C100.01 73.0044 98.5697 73.3644 96.7697 73.7844C95.0297 74.1444 92.7497 74.5944 89.9297 75.1344C88.6697 75.3744 87.6797 75.5544 86.9597 75.6744C86.2397 75.7944 85.6697 75.8544 85.2497 75.8544C84.8897 75.8544 84.5897 75.7944 84.3497 75.6744C84.1697 75.5544 83.9597 75.3744 83.7197 75.1344C83.2997 74.5944 83.1197 74.2044 83.1797 73.9644C83.2397 73.7244 83.5097 73.5444 83.9897 73.4244C88.4897 72.2244 92.0897 71.0244 94.7897 69.8244C97.5497 68.6244 99.7997 67.4544 101.54 66.3144C102.26 65.7144 103.25 65.4144 104.51 65.4144C105.83 65.3544 106.82 65.5944 107.48 66.1344ZM125.84 33.7344C125.18 34.3944 124.52 35.0244 123.86 35.6244C123.2 36.2244 122.54 36.7944 121.88 37.3344C120.74 38.2944 119.54 38.7144 118.28 38.5944C117.8 38.4744 117.47 38.6244 117.29 39.0444C117.05 39.8844 117.62 40.3644 119 40.4844C120.38 40.4844 121.34 40.6344 121.88 40.9344C122.42 41.2344 122.6 41.5644 122.42 41.9244C122.06 42.6444 121.67 43.1244 121.25 43.3644C120.89 43.6044 120.2 43.6944 119.18 43.6344C118.88 43.6344 118.61 43.6344 118.37 43.6344C118.13 43.6344 117.86 43.6044 117.56 43.5444C116.78 43.5444 116.36 43.8444 116.3 44.4444C116.24 44.7444 116.21 44.9844 116.21 45.1644C116.21 45.2844 116.18 45.4944 116.12 45.7944C116.06 46.2144 116.21 46.4844 116.57 46.6044C118.31 46.9044 118.94 47.3244 118.46 47.8644C118.04 48.4044 117.68 48.7944 117.38 49.0344C117.08 49.2144 116.69 49.3644 116.21 49.4844C115.97 49.5444 115.85 49.6044 115.85 49.6644C115.85 49.7244 115.94 49.7544 116.12 49.7544C116.6 49.6344 117.14 49.4544 117.74 49.2144C118.34 48.9744 118.79 48.7344 119.09 48.4944C119.45 48.2544 119.48 47.9844 119.18 47.6844C118.76 47.4444 118.43 47.1144 118.19 46.6944C117.53 45.7944 117.8 45.2544 119 45.0744C121.82 44.6544 124.01 44.2044 125.57 43.7244C127.13 43.1844 128.54 42.4644 129.8 41.5644C130.04 41.4444 130.16 41.2944 130.16 41.1144C130.22 40.8744 130.07 40.6344 129.71 40.3944C128.15 39.3744 127.04 38.7444 126.38 38.5044C125.78 38.2044 125.27 37.9944 124.85 37.8744C124.37 37.7544 124.01 37.5144 123.77 37.1544C123.59 36.7944 123.83 36.3444 124.49 35.8044C124.97 35.3844 125.45 35.1744 125.93 35.1744C126.47 35.1144 126.98 35.1744 127.46 35.3544C128.18 35.6544 128.9 35.9544 129.62 36.2544C130.4 36.4944 131.24 36.7944 132.14 37.1544C132.74 37.2144 133.13 37.0344 133.31 36.6144C133.61 35.7744 133.7 34.8444 133.58 33.8244C133.58 33.6444 133.52 33.4644 133.4 33.2844C133.28 33.1044 133.07 33.0144 132.77 33.0144C131.93 33.0744 131.06 33.1044 130.16 33.1044C129.32 33.0444 128.45 33.0144 127.55 33.0144C127.25 33.0744 126.95 33.1344 126.65 33.1944C126.41 33.2544 126.14 33.4344 125.84 33.7344ZM97.6697 46.6044C98.5097 46.5444 99.2597 46.5144 99.9197 46.5144C100.64 46.4544 101.33 46.4244 101.99 46.4244C101.93 46.4244 101.9 46.3944 101.9 46.3344C101.36 46.0344 101 45.5844 100.82 44.9844C100.7 44.3844 100.88 43.8444 101.36 43.3644H98.1197C97.0997 43.4244 96.4097 43.5144 96.0497 43.6344C95.7497 43.7544 95.5397 43.9944 95.4197 44.3544C95.1797 45.3144 95.2097 45.9444 95.5097 46.2444C95.8697 46.5444 96.5897 46.6644 97.6697 46.6044ZM106.49 45.5244C106.79 45.9444 106.91 46.2444 106.85 46.4244H109.82C110.54 46.3044 110.99 45.8844 111.17 45.1644C111.35 44.0844 111.14 43.5444 110.54 43.5444C109.52 43.4844 108.53 43.4544 107.57 43.4544C106.61 43.4544 105.62 43.4244 104.6 43.3644C104.66 43.4244 104.69 43.4844 104.69 43.5444C104.75 43.6044 104.81 43.6644 104.87 43.7244C105.35 44.4444 105.89 45.0444 106.49 45.5244ZM106.85 39.4044C107.15 39.7044 107.24 40.0044 107.12 40.3044H110.72C111.38 40.3044 111.68 39.9144 111.62 39.1344C111.62 38.5344 111.53 38.1144 111.35 37.8744C111.17 37.6344 110.75 37.4844 110.09 37.4244C109.19 37.3644 108.35 37.3344 107.57 37.3344C106.79 37.3344 106.04 37.3044 105.32 37.2444C105.38 37.3044 105.41 37.3644 105.41 37.4244C105.41 37.4244 105.44 37.4544 105.5 37.5144C105.74 38.1744 106.19 38.8044 106.85 39.4044ZM103.16 40.2144C102.86 40.1544 102.56 39.9744 102.26 39.6744C101.36 38.9544 101.15 38.1444 101.63 37.2444C101.39 37.2444 101.15 37.2744 100.91 37.3344C100.73 37.3344 100.52 37.3344 100.28 37.3344C99.9797 37.3344 99.6497 37.3644 99.2897 37.4244C98.9897 37.4244 98.6897 37.4544 98.3897 37.5144C97.9697 37.5144 97.5797 38.0244 97.2197 39.0444C97.0997 39.4644 97.1297 39.7644 97.3097 39.9444C97.4897 40.0644 98.0897 40.1544 99.1097 40.2144H103.16ZM262.01 65.3244C262.49 68.4444 262.46 70.9344 261.92 72.7944C261.38 74.5944 260.03 75.9144 257.87 76.7544C256.43 77.2944 255.29 77.6544 254.45 77.8344C253.61 78.0144 252.98 77.8644 252.56 77.3844C252.2 76.9644 251.99 76.1844 251.93 75.0444C251.87 73.8444 251.93 72.1644 252.11 70.0044C252.17 69.0444 252.23 67.7844 252.29 66.2244C252.35 64.6644 252.38 62.9544 252.38 61.0944C252.38 59.2344 252.38 57.3144 252.38 55.3344C252.38 53.2944 252.35 51.4044 252.29 49.6644C252.29 47.8644 252.26 46.2744 252.2 44.8944C252.2 43.5144 252.17 42.4644 252.11 41.7444C251.99 40.7244 251.81 40.0944 251.57 39.8544C251.33 39.5544 250.97 39.3444 250.49 39.2244C249.41 39.0444 247.46 38.8944 244.64 38.7744C241.82 38.6544 238.46 38.6244 234.56 38.6844C233.9 38.6844 233.39 39.2244 233.03 40.3044C232.91 40.7844 232.85 41.2044 232.85 41.5644C232.85 41.8644 233 42.1944 233.3 42.5544C234.14 43.5144 235.13 44.5344 236.27 45.6144C237.41 46.6344 238.61 47.6844 239.87 48.7644C241.13 49.8444 242.39 50.8944 243.65 51.9144C244.97 52.8744 246.23 53.7744 247.43 54.6144C248.39 55.2744 249.11 55.8744 249.59 56.4144C250.13 56.8944 250.46 57.3444 250.58 57.7644C250.76 58.1244 250.76 58.5144 250.58 58.9344C250.4 59.3544 250.1 59.8044 249.68 60.2844C248.24 61.9644 246.35 62.0544 244.01 60.5544C243.11 59.9544 242.27 59.3844 241.49 58.8444C240.71 58.3044 239.84 57.6144 238.88 56.7744C237.92 55.8744 236.78 54.7944 235.46 53.5344C234.2 52.2144 232.58 50.5044 230.6 48.4044C230.24 47.9244 229.85 48.0444 229.43 48.7644C228.05 51.4644 226.43 53.8944 224.57 56.0544C222.77 58.1544 220.85 59.8644 218.81 61.1844C217.79 61.8444 216.77 62.2944 215.75 62.5344C214.73 62.7744 213.77 62.8044 212.87 62.6244C211.97 62.4444 211.16 62.0844 210.44 61.5444C209.78 60.9444 209.3 60.1644 209 59.2044C208.88 58.9044 208.85 58.6644 208.91 58.4844C208.97 58.3044 209.18 58.1544 209.54 58.0344C213.62 56.6544 216.98 54.4644 219.62 51.4644C222.26 48.4044 224.03 44.6244 224.93 40.1244C225.11 39.2244 224.72 38.7744 223.76 38.7744C221.3 38.8344 218.87 38.9244 216.47 39.0444C214.13 39.1044 211.7 39.2244 209.18 39.4044C208.64 39.4044 208.37 39.7044 208.37 40.3044C208.31 42.4044 208.28 44.5044 208.28 46.6044C208.34 48.6444 208.43 50.1744 208.55 51.1944C208.91 55.4544 208.34 59.4744 206.84 63.2544C205.4 66.9744 203.09 69.9744 199.91 72.2544C196.43 74.7744 193.25 75.8844 190.37 75.5844C187.55 75.2244 185.33 73.5744 183.71 70.6344C183.23 69.7944 183.41 69.2844 184.25 69.1044C187.91 68.3844 191.09 67.2444 193.79 65.6844C196.55 64.0644 198.38 62.2344 199.28 60.1944C199.88 58.8744 200.33 57.3444 200.63 55.6044C200.93 53.8044 201.08 52.0044 201.08 50.2044C201.14 48.4044 201.08 46.6944 200.9 45.0744C200.72 43.4544 200.45 42.1044 200.09 41.0244C199.43 39.1044 199.13 37.5744 199.19 36.4344C199.25 35.2944 199.7 34.3344 200.54 33.5544C201.44 32.7144 202.43 32.3244 203.51 32.3844C204.65 32.3844 205.67 32.8044 206.57 33.6444C206.81 33.8844 207.08 34.0044 207.38 34.0044C210.38 33.7044 213.29 33.4944 216.11 33.3744C218.93 33.1944 221.75 33.0444 224.57 32.9244C225.35 32.9244 225.68 32.5344 225.56 31.7544C225.44 30.6144 225.26 29.5644 225.02 28.6044C224.78 27.5844 224.48 26.6844 224.12 25.9044C223.94 25.4844 223.91 25.0344 224.03 24.5544C224.15 24.0744 224.42 23.6844 224.84 23.3844C225.32 23.0244 225.95 22.7844 226.73 22.6644C227.51 22.5444 228.41 22.6044 229.43 22.8444C231.17 23.2644 232.55 24.1344 233.57 25.4544C234.59 26.7144 234.95 28.6044 234.65 31.1244C234.47 32.2644 234.8 32.8344 235.64 32.8344C237.92 32.8944 240.2 32.9844 242.48 33.1044C244.82 33.2244 247.25 33.3744 249.77 33.5544C250.55 33.6144 251.18 33.5844 251.66 33.4644C252.14 33.3444 252.68 33.0744 253.28 32.6544C254.12 32.0544 254.9 31.7244 255.62 31.6644C256.34 31.6044 257.12 31.8744 257.96 32.4744C258.98 33.1944 259.79 33.8844 260.39 34.5444C260.99 35.2044 261.41 35.9844 261.65 36.8844C261.89 37.7844 261.98 38.8644 261.92 40.1244C261.86 41.3244 261.68 42.8244 261.38 44.6244C261.2 45.6444 261.11 47.0544 261.11 48.8544C261.11 50.5944 261.14 52.4844 261.2 54.5244C261.26 56.5644 261.35 58.5744 261.47 60.5544C261.65 62.4744 261.83 64.0644 262.01 65.3244ZM366.77 24.3744C367.19 25.5144 367.19 26.4144 366.77 27.0744C366.41 27.6744 365.51 28.2144 364.07 28.6944C363.17 28.9944 362.33 29.2344 361.55 29.4144C360.77 29.5944 359.87 29.8044 358.85 30.0444C358.01 30.2244 357.47 30.0744 357.23 29.5944C357.05 29.1144 357.32 28.5444 358.04 27.8844C358.46 27.5244 359.06 26.9544 359.84 26.1744C360.68 25.3344 361.49 24.5244 362.27 23.7444C363.11 22.9044 363.95 22.6044 364.79 22.8444C365.81 23.0844 366.47 23.5944 366.77 24.3744ZM328.16 63.6144C328.58 61.2144 328.91 58.6344 329.15 55.8744C329.45 53.1144 329.63 50.5044 329.69 48.0444C329.75 45.5844 329.72 43.4544 329.6 41.6544C329.48 39.7944 329.24 38.5944 328.88 38.0544C328.04 36.6744 327.71 35.3844 327.89 34.1844C328.07 32.9844 328.61 32.0544 329.51 31.3944C329.87 31.0944 330.5 30.9144 331.4 30.8544C332.36 30.7344 333.23 31.0044 334.01 31.6644C334.43 32.0244 335.03 32.2044 335.81 32.2044C338.21 32.1444 340.31 32.1144 342.11 32.1144C343.91 32.0544 345.68 32.0244 347.42 32.0244C347.9 32.0244 348.23 31.9044 348.41 31.6644C348.59 31.3644 348.62 30.6144 348.5 29.4144C348.38 27.9744 348.35 26.8044 348.41 25.9044C348.47 24.9444 348.62 24.2244 348.86 23.7444C349.1 23.2044 349.43 22.8444 349.85 22.6644C350.27 22.4844 350.81 22.3944 351.47 22.3944C352.91 22.3944 353.96 22.9044 354.62 23.9244C355.28 24.8844 355.46 26.6244 355.16 29.1444C355.04 30.1644 355.04 30.8244 355.16 31.1244C355.34 31.4244 355.58 31.5744 355.88 31.5744C357.62 31.4544 359.21 31.4244 360.65 31.4844C362.09 31.4844 363.32 31.4844 364.34 31.4844C366.5 31.5444 367.7 32.2944 367.94 33.7344C368.12 34.5744 367.94 35.2044 367.4 35.6244C366.92 35.9844 365.99 36.2544 364.61 36.4344C363.83 36.5544 362.6 36.6744 360.92 36.7944C359.3 36.8544 357.62 36.9144 355.88 36.9744C355.58 37.0344 355.34 37.2444 355.16 37.6044C355.04 37.9044 355.01 38.2044 355.07 38.5044C355.25 40.4244 355.52 42.3744 355.88 44.3544C356.24 46.2744 356.72 48.1644 357.32 50.0244C357.56 50.6844 357.83 51.0144 358.13 51.0144C358.49 51.0144 358.76 50.6844 358.94 50.0244C359.18 49.2444 359.36 48.4344 359.48 47.5944C359.66 46.7544 359.78 45.9744 359.84 45.2544C359.96 43.1544 360.2 41.7144 360.56 40.9344C360.92 40.1544 361.49 39.6144 362.27 39.3144C363.83 38.7144 364.94 39.1344 365.6 40.5744C366.32 42.2544 366.17 44.8344 365.15 48.3144C364.49 50.6544 363.86 52.5444 363.26 53.9844C362.72 55.3644 362.18 56.5644 361.64 57.5844C361.46 58.0044 361.49 58.3344 361.73 58.5744C362.99 60.1944 364.19 61.5744 365.33 62.7144C366.53 63.8544 367.7 64.8144 368.84 65.5944C370.04 66.3144 371.27 66.8844 372.53 67.3044C373.85 67.7244 375.26 68.0244 376.76 68.2044C377.36 68.3244 377.75 68.6544 377.93 69.1944C378.11 69.6744 378.05 70.1844 377.75 70.7244C376.49 73.3044 374.06 75.1944 370.46 76.3944C369.44 76.7544 368.54 76.9644 367.76 77.0244C367.04 77.1444 366.29 77.0544 365.51 76.7544C364.79 76.3944 364.04 75.8544 363.26 75.1344C362.48 74.3544 361.58 73.2744 360.56 71.8944C360.08 71.2344 359.6 70.5444 359.12 69.8244C358.64 69.0444 358.22 68.2044 357.86 67.3044C357.5 66.6444 357.2 66.2844 356.96 66.2244C356.78 66.1644 356.45 66.4644 355.97 67.1244C355.25 68.2044 354.32 69.2244 353.18 70.1844C351.92 71.2044 350.81 71.9844 349.85 72.5244C348.95 73.0644 348.14 73.3944 347.42 73.5144C346.7 73.6344 346.04 73.5744 345.44 73.3344C344.84 73.0344 344.24 72.6144 343.64 72.0744C343.22 71.7144 343.07 71.2644 343.19 70.7244C343.31 70.1244 343.73 69.7044 344.45 69.4644C344.87 69.3444 345.23 69.1944 345.53 69.0144C345.89 68.8344 346.19 68.6844 346.43 68.5644C347.45 67.7244 348.02 67.1244 348.14 66.7644C348.26 66.3444 348.2 66.0744 347.96 65.9544C346.94 65.4144 346.04 65.0844 345.26 64.9644C344.54 64.7844 343.43 64.7844 341.93 64.9644C341.63 64.9644 341.42 65.0844 341.3 65.3244C341 65.9244 340.61 66.3444 340.13 66.5844C339.65 66.7644 339.2 66.7944 338.78 66.6744C338.12 66.4344 337.61 65.9544 337.25 65.2344C336.95 64.4544 336.83 63.2844 336.89 61.7244C336.95 60.3444 336.95 59.1144 336.89 58.0344C336.89 56.8944 336.86 55.9344 336.8 55.1544C336.68 53.0544 337.01 51.7644 337.79 51.2844C338.63 50.8044 339.35 50.6844 339.95 50.9244C340.19 51.0444 340.46 51.1044 340.76 51.1044C341.06 51.1044 341.3 51.1044 341.48 51.1044C343.4 51.1644 344.87 51.1644 345.89 51.1044C346.97 51.0444 347.78 50.9544 348.32 50.8344C349.52 50.5344 350.33 51.0144 350.75 52.2744C350.99 52.9344 351.02 54.0144 350.84 55.5144C350.72 56.2944 350.66 57.1944 350.66 58.2144C350.66 59.2344 350.69 60.3444 350.75 61.5444C350.81 62.6244 350.9 63.2844 351.02 63.5244C351.2 63.7044 351.5 63.6144 351.92 63.2544C352.22 62.9544 352.49 62.6844 352.73 62.4444C352.97 62.2044 353.24 61.8144 353.54 61.2744C353.9 60.6744 354.11 60.1944 354.17 59.8344C354.29 59.4144 354.26 58.9044 354.08 58.3044C353.9 57.7044 353.66 56.9544 353.36 56.0544C353.12 55.0944 352.85 54.0744 352.55 52.9944C352.31 51.9144 352.04 50.8344 351.74 49.7544C351.5 48.6744 351.26 47.6544 351.02 46.6944C350.84 46.0344 350.39 45.7344 349.67 45.7944C345.53 46.3944 340.97 46.6644 335.99 46.6044C335.45 46.6044 335.18 46.9944 335.18 47.7744C335.18 48.4344 335.15 49.3044 335.09 50.3844C335.09 51.4644 335.09 52.4844 335.09 53.4444C335.09 58.9644 334.73 63.4644 334.01 66.9444C333.29 70.4244 332.18 73.0944 330.68 74.9544C329.3 76.5144 328.01 77.2344 326.81 77.1144C325.61 76.9944 324.41 76.1544 323.21 74.5944C322.67 73.9344 322.4 73.3944 322.4 72.9744C322.46 72.4944 322.73 72.0744 323.21 71.7144C324.65 70.6944 325.73 69.6144 326.45 68.4744C327.17 67.3344 327.74 65.7144 328.16 63.6144ZM349.94 41.2944C349.76 40.2144 349.67 39.2244 349.67 38.3244C349.61 37.7844 349.46 37.4544 349.22 37.3344C348.98 37.1544 348.62 37.0644 348.14 37.0644C346.76 37.0644 344.96 37.0944 342.74 37.1544C340.58 37.2144 338.51 37.3044 336.53 37.4244C335.87 37.4244 335.54 37.7544 335.54 38.4144C335.54 38.7744 335.51 39.2244 335.45 39.7644C335.45 40.2444 335.45 40.8144 335.45 41.4744C335.45 42.1344 335.87 42.4344 336.71 42.3744C338.57 42.2544 340.49 42.1944 342.47 42.1944C344.51 42.1944 346.55 42.2544 348.59 42.3744C349.55 42.3744 350 42.0144 349.94 41.2944ZM346.34 58.8444C346.34 58.3644 346.34 57.9144 346.34 57.4944C346.34 57.0744 346.31 56.5944 346.25 56.0544C346.19 55.4544 345.86 55.0944 345.26 54.9744C344.3 54.8544 343.31 54.8844 342.29 55.0644C341.75 55.1844 341.48 55.4544 341.48 55.8744C341.48 56.7144 341.45 57.4644 341.39 58.1244C341.39 58.7844 341.42 59.4744 341.48 60.1944C341.48 60.7344 341.75 61.0344 342.29 61.0944C343.07 61.2144 344.06 61.0944 345.26 60.7344C345.98 60.4944 346.34 59.8644 346.34 58.8444ZM326.99 36.0744C327.41 36.6144 327.62 37.1244 327.62 37.6044C327.68 38.0844 327.56 38.4744 327.26 38.7744C327.02 39.0144 326.63 39.1344 326.09 39.1344C325.55 39.1344 324.92 38.8944 324.2 38.4144C323.36 37.8744 322.43 37.2144 321.41 36.4344C320.45 35.6544 319.55 34.8444 318.71 34.0044C318.05 33.4044 317.51 33.0744 317.09 33.0144C316.67 32.8944 316.37 32.9544 316.19 33.1944C314.45 35.2944 312.68 37.1244 310.88 38.6844C309.14 40.2444 307.31 41.6244 305.39 42.8244C303.11 44.2644 301.25 44.9244 299.81 44.8044C298.43 44.6844 297.2 43.7844 296.12 42.1044C295.28 40.8444 295.04 39.8244 295.4 39.0444C295.76 38.2044 296.45 37.7244 297.47 37.6044C299.57 37.3044 301.46 36.7944 303.14 36.0744C304.88 35.2944 306.35 34.3344 307.55 33.1944C309.11 31.8144 310.31 30.5544 311.15 29.4144C311.99 28.2144 312.65 26.8344 313.13 25.2744C313.67 23.6544 314.39 22.6344 315.29 22.2144C316.25 21.7944 317.21 21.8544 318.17 22.3944C320.03 23.4744 320.57 25.1244 319.79 27.3444C319.73 27.7044 319.85 28.0344 320.15 28.3344C321.23 29.4144 322.28 30.5544 323.3 31.7544C324.38 32.9544 325.61 34.3944 326.99 36.0744ZM327.17 66.0444C327.23 66.7044 326.81 67.3344 325.91 67.9344C325.01 68.4744 323.63 68.8344 321.77 69.0144C321.41 69.0744 320.72 69.1944 319.7 69.3744C318.68 69.5544 317.51 69.7944 316.19 70.0944C314.93 70.3344 313.58 70.6344 312.14 70.9944C310.76 71.2944 309.53 71.5644 308.45 71.8044C307.73 71.9844 306.86 72.2544 305.84 72.6144C304.88 72.9744 303.92 73.4244 302.96 73.9644C301.46 74.8044 300.35 75.1944 299.63 75.1344C298.97 75.0144 298.52 74.6844 298.28 74.1444C297.98 73.4244 297.86 72.7044 297.92 71.9844C298.04 71.2644 298.43 70.3644 299.09 69.2844C299.75 68.2044 300.35 67.5144 300.89 67.2144C301.49 66.9144 302.06 66.9144 302.6 67.2144C302.96 67.3944 303.53 67.4844 304.31 67.4844C305.15 67.4244 306.32 67.1844 307.82 66.7644C308.3 66.6444 308.51 66.4344 308.45 66.1344C308.45 65.7744 308.24 65.5944 307.82 65.5944C306.8 65.5344 306.02 65.3544 305.48 65.0544C305 64.7544 304.43 64.1844 303.77 63.3444C302.57 61.8444 302.51 60.4044 303.59 59.0244C304.49 57.9444 305.42 57.5244 306.38 57.7644C307.34 58.0044 307.97 58.8144 308.27 60.1944C308.51 61.3944 308.78 62.3544 309.08 63.0744C309.38 63.7344 309.77 64.3944 310.25 65.0544C310.79 65.7744 311.18 66.1044 311.42 66.0444C311.78 65.9844 311.96 65.6844 311.96 65.1444C311.96 64.6644 311.96 64.0644 311.96 63.3444C312.02 62.6244 312.05 61.8744 312.05 61.0944C312.11 60.2544 312.14 59.4444 312.14 58.6644C312.2 57.8844 312.23 57.1944 312.23 56.5944C312.23 55.9344 311.93 55.6044 311.33 55.6044C310.25 55.6644 309.38 55.7844 308.72 55.9644C308.12 56.0844 307.34 56.3244 306.38 56.6844C304.7 57.4044 303.65 57.4344 303.23 56.7744C302.81 56.1744 302.63 55.5444 302.69 54.8844C302.81 54.2244 303.23 53.3844 303.95 52.3644C304.85 51.1044 305.72 50.6244 306.56 50.9244C307.34 51.1644 308.03 51.2544 308.63 51.1944C308.99 51.0744 309.38 51.0144 309.8 51.0144C310.28 51.0144 310.82 51.0144 311.42 51.0144C311.96 51.0144 312.23 50.7144 312.23 50.1144C312.23 49.4544 312.23 48.8544 312.23 48.3144C312.23 47.7144 312.2 47.1144 312.14 46.5144C312.08 45.9744 311.75 45.7044 311.15 45.7044C310.31 45.7644 309.59 45.8844 308.99 46.0644C308.45 46.1844 307.79 46.4244 307.01 46.7844C306.41 47.0844 305.9 47.1744 305.48 47.0544C305.06 46.9344 304.79 46.6944 304.67 46.3344C304.55 45.9144 304.58 45.4044 304.76 44.8044C305 44.2044 305.45 43.5444 306.11 42.8244C307.67 41.2644 308.9 40.7244 309.8 41.2044C310.22 41.3844 310.55 41.5044 310.79 41.5644C311.03 41.5644 311.45 41.5044 312.05 41.3844C312.59 41.2644 313.73 41.2044 315.47 41.2044C317.21 41.2044 319.43 41.2644 322.13 41.3844C323.69 41.4444 324.71 41.5944 325.19 41.8344C325.67 42.0144 326.03 42.4344 326.27 43.0944C326.63 44.1744 326.57 45.0144 326.09 45.6144C325.61 46.2144 324.53 46.3944 322.85 46.1544C322.55 46.0944 321.98 46.0644 321.14 46.0644C320.3 46.0044 319.61 45.9144 319.07 45.7944C318.47 45.7344 318.17 46.0344 318.17 46.6944V50.1144C318.17 50.7144 318.44 51.0444 318.98 51.1044C319.58 51.2244 320.36 51.2844 321.32 51.2844C322.34 51.2844 323.03 51.3144 323.39 51.3744C324.89 51.4944 325.88 51.7344 326.36 52.0944C326.84 52.4544 327.05 53.0544 326.99 53.8944C326.93 54.6144 326.63 55.1544 326.09 55.5144C325.61 55.8744 324.62 55.9944 323.12 55.8744C322.64 55.8144 321.95 55.7844 321.05 55.7844C320.21 55.7244 319.52 55.6944 318.98 55.6944C318.44 55.6944 318.17 55.9944 318.17 56.5944C318.17 57.4344 318.14 58.3944 318.08 59.4744C318.02 60.4944 317.96 61.7544 317.9 63.2544C317.9 63.7944 318.08 64.1544 318.44 64.3344C318.8 64.4544 319.1 64.3944 319.34 64.1544C320.72 62.8944 321.68 61.2444 322.22 59.2044C322.52 58.0044 323.12 57.2844 324.02 57.0444C324.92 56.7444 325.7 57.0144 326.36 57.8544C327.2 58.7544 327.56 59.6544 327.44 60.5544C327.32 61.4544 326.75 62.2044 325.73 62.8044C325.25 63.1044 324.77 63.3444 324.29 63.5244C323.87 63.6444 323.33 63.8244 322.67 64.0644C322.37 64.1844 322.22 64.3044 322.22 64.4244C322.28 64.5444 322.49 64.5744 322.85 64.5144C324.77 64.2744 325.94 64.2444 326.36 64.4244C326.84 64.6044 327.11 65.1444 327.17 66.0444ZM474.77 45.9744C474.47 46.9344 474.08 47.5644 473.6 47.8644C473.12 48.1644 472.46 48.2544 471.62 48.1344C469.76 47.8344 467.72 47.4144 465.5 46.8744C463.34 46.2744 461.09 45.5844 458.75 44.8044C456.41 43.9644 454.07 43.0944 451.73 42.1944C449.39 41.2344 447.17 40.2444 445.07 39.2244C444.53 38.9844 443.9 39.0744 443.18 39.4944C441.5 40.6344 439.49 41.8344 437.15 43.0944C434.87 44.2944 431.93 45.7044 428.33 47.3244C425.21 48.7044 422.54 49.6344 420.32 50.1144C418.16 50.5344 416.39 50.6244 415.01 50.3844C413.69 50.0844 412.73 49.5144 412.13 48.6744C411.53 47.7744 411.29 46.7244 411.41 45.5244C411.47 44.6244 412.07 44.1744 413.21 44.1744C414.29 44.2344 416.06 43.9344 418.52 43.2744C421.04 42.6144 423.8 41.7144 426.8 40.5744C429.86 39.4344 432.98 38.0844 436.16 36.5244C439.34 34.9644 442.19 33.3144 444.71 31.5744C445.37 31.0944 445.67 30.6444 445.61 30.2244C445.61 29.8044 445.13 29.4744 444.17 29.2344C443.69 29.1144 443.18 29.0544 442.64 29.0544C442.1 28.9944 441.23 29.0244 440.03 29.1444C439.25 29.2044 438.71 29.3544 438.41 29.5944C433.49 32.5944 429.35 34.6944 425.99 35.8944C422.63 37.0344 419.57 37.6644 416.81 37.7844C414.83 37.9044 413.66 37.0044 413.3 35.0844C413.18 34.3044 413.24 33.6444 413.48 33.1044C413.72 32.5044 414.17 32.1444 414.83 32.0244C420.11 31.3644 424.64 30.2244 428.42 28.6044C432.2 26.9244 435.05 25.0944 436.97 23.1144C437.81 22.2744 438.62 21.8244 439.4 21.7644C440.24 21.6444 441.38 22.0044 442.82 22.8444C443.54 23.3244 443.93 23.8044 443.99 24.2844C444.05 24.8244 444.2 25.1544 444.44 25.2744C444.86 25.3944 445.25 25.4844 445.61 25.5444C445.97 25.6044 446.36 25.6644 446.78 25.7244C447.98 25.8444 449.03 25.6644 449.93 25.1844C450.59 24.8844 451.49 24.8544 452.63 25.0944C453.77 25.3344 454.76 25.7844 455.6 26.4444C456.62 27.2844 457.01 28.1844 456.77 29.1444C456.59 30.0444 456.14 30.6144 455.42 30.8544C454.4 31.1544 453.47 31.5744 452.63 32.1144C451.79 32.5944 450.86 33.2844 449.84 34.1844C449 34.8444 448.91 35.2944 449.57 35.5344C451.67 36.0744 453.92 36.7044 456.32 37.4244C458.78 38.1444 461.09 38.8644 463.25 39.5844C465.47 40.3044 467.39 40.9644 469.01 41.5644C470.69 42.1644 471.83 42.6444 472.43 43.0044C473.45 43.5444 474.11 44.0544 474.41 44.5344C474.77 45.0144 474.89 45.4944 474.77 45.9744ZM458.75 50.9244C458.09 51.9444 457.31 52.6944 456.41 53.1744C455.51 53.6544 454.13 54.1044 452.27 54.5244C450.23 55.0044 449 55.0644 448.58 54.7044C448.22 54.2844 448.43 53.5044 449.21 52.3644C449.69 51.7044 450.2 50.7744 450.74 49.5744C451.34 48.3144 451.79 47.2644 452.09 46.4244C452.39 45.4644 453.14 45.0144 454.34 45.0744C455.6 45.0744 456.8 45.8244 457.94 47.3244C458.66 48.2844 459.05 49.0044 459.11 49.4844C459.17 49.9644 459.05 50.4444 458.75 50.9244ZM483.05 68.7444C481.85 70.9044 480.53 72.6744 479.09 74.0544C477.71 75.3744 476.3 76.3344 474.86 76.9344C473.42 77.4744 472.01 77.6844 470.63 77.5644C469.31 77.4444 468.11 76.9644 467.03 76.1244C464.27 73.9044 461.84 72.0144 459.74 70.4544C457.7 68.8944 455.78 67.5444 453.98 66.4044C452.18 65.2044 450.44 64.1544 448.76 63.2544C447.08 62.2944 445.22 61.3044 443.18 60.2844C442.64 59.9844 442.22 59.8644 441.92 59.9244C441.68 59.9244 441.5 60.0144 441.38 60.1944C440.72 61.3344 439.91 62.4744 438.95 63.6144C437.99 64.6944 436.76 65.9244 435.26 67.3044C434.12 68.3244 432.56 69.3444 430.58 70.3644C428.66 71.3844 426.53 72.3144 424.19 73.1544C421.85 73.9344 419.45 74.5944 416.99 75.1344C414.59 75.6144 412.31 75.8844 410.15 75.9444C406.91 76.0644 404.57 75.8244 403.13 75.2244C401.75 74.6244 400.7 73.5744 399.98 72.0744C398.96 70.1544 399.41 69.1944 401.33 69.1944C405.47 69.2544 409.28 68.9844 412.76 68.3844C416.3 67.7844 419.42 67.0044 422.12 66.0444C424.88 65.0244 427.22 63.8844 429.14 62.6244C431.06 61.3044 432.47 59.9844 433.37 58.6644C434.75 56.5644 435.68 54.4644 436.16 52.3644C436.7 50.2644 436.82 48.3144 436.52 46.5144C436.34 45.1344 436.79 44.0544 437.87 43.2744C439.01 42.4944 440.39 42.4344 442.01 43.0944C443.09 43.5744 443.75 44.3244 443.99 45.3444C444.23 46.3644 444.23 47.8344 443.99 49.7544C443.93 50.3544 443.87 50.9244 443.81 51.4644C443.75 51.9444 443.66 52.4244 443.54 52.9044C443.36 53.6244 443.72 54.1644 444.62 54.5244C447.02 55.6644 449.78 56.8344 452.9 58.0344C456.08 59.1744 459.35 60.2544 462.71 61.2744C466.13 62.2944 469.49 63.2244 472.79 64.0644C476.15 64.9044 479.24 65.5644 482.06 66.0444C482.9 66.1644 483.38 66.4344 483.5 66.8544C483.68 67.2744 483.53 67.9044 483.05 68.7444ZM430.58 55.7844C431.9 56.8044 432.38 57.6144 432.02 58.2144C431.72 58.7544 430.79 58.7844 429.23 58.3044C425.39 57.2244 422.99 55.9644 422.03 54.5244C421.49 53.8044 421.31 53.0244 421.49 52.1844C421.73 51.3444 422.33 50.6844 423.29 50.2044C424.19 49.8444 425.06 49.7544 425.9 49.9344C426.74 50.1144 427.31 50.5944 427.61 51.3744C428.03 52.3344 428.45 53.2044 428.87 53.9844C429.35 54.7044 429.92 55.3044 430.58 55.7844ZM539.57 38.2344C539.45 38.6544 539.18 39.0144 538.76 39.3144C538.34 39.5544 537.62 39.7044 536.6 39.7644C532.88 39.9444 529.61 39.6744 526.79 38.9544C524.03 38.1744 522.05 37.2444 520.85 36.1644C520.37 35.7444 519.95 35.2344 519.59 34.6344C519.29 34.0344 519.14 33.2544 519.14 32.2944C519.14 31.5144 519.41 30.7944 519.95 30.1344C520.49 29.4744 521.45 29.0544 522.83 28.8744C524.03 28.6944 525.53 29.0244 527.33 29.8644C529.13 30.7044 531.08 31.8144 533.18 33.1944C533.84 33.6744 534.53 34.1844 535.25 34.7244C536.03 35.2044 536.66 35.5944 537.14 35.8944C538.28 36.5544 539 37.0044 539.3 37.2444C539.6 37.4244 539.69 37.7544 539.57 38.2344ZM591.68 44.7144C591.02 45.4944 590.39 45.9444 589.79 46.0644C589.25 46.1244 588.47 46.0044 587.45 45.7044C585.23 44.9844 582.71 43.8144 579.89 42.1944C579.47 42.0144 579.14 42.0444 578.9 42.2844C577.4 43.4844 575.93 44.5344 574.49 45.4344C573.05 46.2744 571.19 47.2944 568.91 48.4944C568.37 48.8544 567.41 49.1244 566.03 49.3044C564.71 49.4244 563.21 49.3044 561.53 48.9444C560.45 48.7044 559.31 48.4044 558.11 48.0444C556.97 47.6244 555.95 47.0844 555.05 46.4244C554.69 46.1844 554.12 46.0044 553.34 45.8844C552.62 45.7044 551.78 45.6744 550.82 45.7944C549.92 45.8544 548.93 46.0344 547.85 46.3344C546.77 46.6344 545.72 47.0544 544.7 47.5944C543.92 48.0144 542.99 48.0144 541.91 47.5944C540.89 47.1744 540.14 46.3944 539.66 45.2544C539.12 43.8744 539.06 42.7944 539.48 42.0144C539.9 41.1744 540.53 40.3344 541.37 39.4944C541.61 39.2544 542 38.9544 542.54 38.5944C543.14 38.1744 543.77 37.7544 544.43 37.3344C545.15 36.8544 545.84 36.4044 546.5 35.9844C547.22 35.5044 547.82 35.1144 548.3 34.8144C549.02 34.3344 549.68 33.8244 550.28 33.2844C550.88 32.7444 551.51 32.1144 552.17 31.3944C552.89 30.6744 553.67 29.8344 554.51 28.8744C555.35 27.9144 556.34 26.7744 557.48 25.4544C558.44 24.1944 559.7 23.3544 561.26 22.9344C562.88 22.5144 564.26 22.6644 565.4 23.3844C565.94 23.7444 566.33 24.1944 566.57 24.7344C566.87 25.2144 567.02 25.7544 567.02 26.3544C567.08 26.8944 566.99 27.4344 566.75 27.9744C566.57 28.4544 566.27 28.8144 565.85 29.0544C564.47 29.9544 563.36 30.7044 562.52 31.3044C561.68 31.8444 560.9 32.3844 560.18 32.9244C559.52 33.4044 558.89 33.9144 558.29 34.4544C557.69 34.9344 557 35.5344 556.22 36.2544C555.38 36.9144 554.93 37.7244 554.87 38.6844C554.87 39.5844 555.2 40.2744 555.86 40.7544C556.64 41.3544 557.66 41.8344 558.92 42.1944C560.24 42.4944 561.98 42.7044 564.14 42.8244C565.04 42.9444 566.27 42.7044 567.83 42.1044C569.39 41.5044 571.07 40.5144 572.87 39.1344C573.47 38.7144 573.44 38.2044 572.78 37.6044C571.94 37.1244 571.16 36.6444 570.44 36.1644C569.78 35.6244 569.18 35.1744 568.64 34.8144C568.4 34.6344 568.19 34.3944 568.01 34.0944C567.89 33.7344 567.8 33.3444 567.74 32.9244C567.74 32.5044 567.77 32.1144 567.83 31.7544C567.89 31.3944 568.01 31.0944 568.19 30.8544C568.55 30.4344 569.03 30.1344 569.63 29.9544C570.29 29.7144 570.92 29.5944 571.52 29.5944C572.18 29.5344 572.78 29.5644 573.32 29.6844C573.92 29.7444 574.34 29.8644 574.58 30.0444C577.1 31.9044 579.56 33.6744 581.96 35.3544C584.42 37.0344 586.67 38.5044 588.71 39.7644C590.63 41.0244 591.74 42.0144 592.04 42.7344C592.34 43.3944 592.22 44.0544 591.68 44.7144ZM536.15 53.7144C535.13 54.1344 533.69 54.4344 531.83 54.6144C530.03 54.7344 528.11 54.7644 526.07 54.7044C524.03 54.5844 522.02 54.3744 520.04 54.0744C518.06 53.7744 516.44 53.3844 515.18 52.9044C513.68 52.3044 512.57 51.5244 511.85 50.5644C511.13 49.6044 510.8 48.6144 510.86 47.5944C510.92 46.3944 511.37 45.4044 512.21 44.6244C513.05 43.7844 514.01 43.4244 515.09 43.5444C515.63 43.6044 516.26 43.6944 516.98 43.8144C517.76 43.9344 518.54 44.1144 519.32 44.3544C520.1 44.5344 520.88 44.7444 521.66 44.9844C522.44 45.2244 523.13 45.4644 523.73 45.7044C524.63 46.0044 525.68 46.3644 526.88 46.7844C528.14 47.2044 529.34 47.6544 530.48 48.1344C531.68 48.5544 532.79 48.9744 533.81 49.3944C534.83 49.7544 535.61 50.0544 536.15 50.2944C537.11 50.7744 537.56 51.3744 537.5 52.0944C537.44 52.8144 536.99 53.3544 536.15 53.7144ZM586.28 60.1944C586.22 60.7944 586.16 61.5444 586.1 62.4444C586.04 63.3444 585.95 64.3044 585.83 65.3244C585.71 66.3444 585.59 67.3944 585.47 68.4744C585.35 69.4944 585.23 70.4844 585.11 71.4444C584.99 72.1044 584.72 72.7044 584.3 73.2444C583.88 73.7844 583.37 74.2344 582.77 74.5944C582.23 74.9544 581.66 75.1944 581.06 75.3144C580.46 75.3744 579.95 75.3144 579.53 75.1344C577.79 74.2344 576.23 73.6344 574.85 73.3344C573.53 73.0344 571.82 72.8844 569.72 72.8844C569.36 72.8844 568.91 72.8844 568.37 72.8844C567.83 72.8844 567.05 72.8844 566.03 72.8844C565.01 72.8844 563.66 72.8844 561.98 72.8844C560.3 72.8244 558.08 72.7944 555.32 72.7944C555.2 72.7944 555.08 72.7944 554.96 72.7944C554.84 72.7944 554.75 72.8544 554.69 72.9744C554.33 73.3944 553.91 73.7544 553.43 74.0544C552.95 74.3544 552.47 74.5944 551.99 74.7744C551.51 74.9544 551.06 75.1044 550.64 75.2244C550.28 75.2844 550.04 75.3144 549.92 75.3144C549.02 75.1944 548.27 74.6844 547.67 73.7844C547.07 72.8844 546.65 71.8344 546.41 70.6344C546.11 69.1344 545.84 67.5444 545.6 65.8644C545.36 64.1244 545.21 62.7744 545.15 61.8144C545.09 61.0344 544.94 60.0744 544.7 58.9344C544.52 57.7944 544.37 56.8644 544.25 56.1444C544.13 55.5444 544.16 54.9144 544.34 54.2544C544.52 53.5944 544.82 52.9944 545.24 52.4544C545.66 51.9144 546.17 51.4644 546.77 51.1044C547.43 50.7444 548.12 50.5344 548.84 50.4744C549.44 50.4144 550.04 50.4744 550.64 50.6544C551.24 50.8344 551.75 51.1644 552.17 51.6444C552.35 51.8244 552.62 51.9144 552.98 51.9144C554.66 51.7944 556.28 51.7044 557.84 51.6444C559.46 51.5844 560.9 51.5544 562.16 51.5544C563.48 51.4944 564.59 51.4644 565.49 51.4644C566.39 51.4644 566.99 51.4944 567.29 51.5544C568.13 51.6744 569.27 51.7644 570.71 51.8244C572.15 51.8844 573.83 51.9744 575.75 52.0944C576.83 52.2144 577.85 51.9444 578.81 51.2844C579.77 50.6844 580.76 50.4744 581.78 50.6544C582.8 50.7744 583.82 51.1944 584.84 51.9144C585.62 52.5744 586.07 53.5644 586.19 54.8844C586.37 56.1444 586.4 57.9144 586.28 60.1944ZM539.84 62.0844C539 63.8244 537.98 65.6244 536.78 67.4844C535.58 69.2844 533.9 70.8744 531.74 72.2544C530.18 73.0944 528.71 73.6944 527.33 74.0544C525.95 74.3544 524.75 74.2644 523.73 73.7844C522.23 73.2444 521.27 72.6444 520.85 71.9844C520.43 71.2644 520.25 70.4544 520.31 69.5544C520.43 68.0544 520.88 66.8844 521.66 66.0444C522.5 65.1444 523.61 64.4844 524.99 64.0644C527.21 63.3444 529.46 62.5044 531.74 61.5444C534.02 60.5244 536.21 59.4444 538.31 58.3044C539.15 57.8244 539.81 57.9144 540.29 58.5744C540.77 59.2344 540.62 60.4044 539.84 62.0844ZM578 58.4844C577.88 58.0044 577.73 57.7044 577.55 57.5844C577.37 57.4644 576.92 57.3444 576.2 57.2244C573.5 57.0444 570.41 56.9844 566.93 57.0444C563.51 57.0444 559.43 57.2244 554.69 57.5844C554.15 57.5844 553.88 57.8544 553.88 58.3944C553.76 59.5944 553.76 60.8244 553.88 62.0844C554 63.2844 554.18 64.7544 554.42 66.4944C554.48 67.0944 554.78 67.3944 555.32 67.3944C558.02 67.2744 560.9 67.1844 563.96 67.1244C567.08 67.0644 570.56 67.1244 574.4 67.3044C575.54 67.3644 576.29 67.2444 576.65 66.9444C577.01 66.5844 577.31 65.9544 577.55 65.0544C577.61 64.6344 577.67 64.0944 577.73 63.4344C577.85 62.7744 577.91 62.1144 577.91 61.4544C577.97 60.7944 578 60.1944 578 59.6544C578.06 59.0544 578.06 58.6644 578 58.4844ZM700.94 54.5244C699.44 56.3244 697.31 57.8244 694.55 59.0244C693.65 59.4444 692.6 59.5044 691.4 59.2044C690.2 58.8444 688.7 58.0344 686.9 56.7744C686.24 56.2944 685.55 55.7544 684.83 55.1544C684.11 54.5544 683.18 53.7444 682.04 52.7244C681.32 52.1244 680.96 52.2444 680.96 53.0844C680.9 54.1044 680.84 55.0644 680.78 55.9644C680.78 56.8644 680.81 57.7344 680.87 58.5744C680.99 59.8344 680.93 60.7044 680.69 61.1844C680.45 61.6644 679.91 62.1444 679.07 62.6244C678.65 62.8644 678.2 63.0144 677.72 63.0744C677.24 63.0744 676.64 62.9544 675.92 62.7144C675.62 62.5944 675.05 62.5344 674.21 62.5344C673.43 62.4744 672.56 62.4444 671.6 62.4444C671.06 62.4444 670.79 62.6844 670.79 63.1644C670.79 64.3044 670.79 65.5344 670.79 66.8544C670.79 68.1744 670.82 69.5244 670.88 70.9044C671 73.1844 670.76 74.7744 670.16 75.6744C669.62 76.5744 668.48 77.2644 666.74 77.7444C665.48 78.1044 664.16 78.2244 662.78 78.1044C661.46 77.9844 660.17 77.6844 658.91 77.2044C657.65 76.7244 656.51 76.0944 655.49 75.3144C654.47 74.4744 653.69 73.5444 653.15 72.5244C652.97 72.1644 652.97 71.8944 653.15 71.7144C653.39 71.4744 653.69 71.4144 654.05 71.5344C654.95 71.8944 655.88 72.1344 656.84 72.2544C657.8 72.3744 658.7 72.3744 659.54 72.2544C660.38 72.1344 661.07 71.9244 661.61 71.6244C662.21 71.2644 662.57 70.8144 662.69 70.2744C662.93 68.9544 662.87 66.6144 662.51 63.2544C662.39 62.7144 662.12 62.4444 661.7 62.4444C661.16 62.4444 660.35 62.4444 659.27 62.4444C658.19 62.4444 657.29 62.4744 656.57 62.5344C656.21 62.5344 655.82 62.7144 655.4 63.0744C654.92 63.3744 654.29 63.5244 653.51 63.5244C652.67 63.5844 651.98 63.3744 651.44 62.8944C650.9 62.3544 650.57 61.3944 650.45 60.0144C650.39 59.4744 650.33 58.9344 650.27 58.3944C650.27 57.8544 650.24 56.9544 650.18 55.6944C650.18 55.0944 649.94 54.9744 649.46 55.3344C647.3 57.1344 645.44 58.2144 643.88 58.5744C642.32 58.8744 640.88 58.7244 639.56 58.1244C639.08 57.8244 638.78 57.8544 638.66 58.2144C637.22 61.8744 635.51 65.0244 633.53 67.6644C631.61 70.2444 629.45 72.1944 627.05 73.5144C625.31 74.4744 623.75 74.7144 622.37 74.2344C620.99 73.6944 619.52 72.3744 617.96 70.2744C617.12 69.0744 616.79 68.1744 616.97 67.5744C617.21 66.9744 617.9 66.5244 619.04 66.2244C620.48 65.8644 621.83 65.3544 623.09 64.6944C624.35 64.0344 625.58 63.1644 626.78 62.0844C628.04 60.9444 629.24 59.5344 630.38 57.8544C631.58 56.1744 632.78 54.1644 633.98 51.8244C634.22 51.3444 634.28 51.0444 634.16 50.9244C634.1 50.8044 633.77 50.8044 633.17 50.9244C631.37 51.3444 629.87 51.6444 628.67 51.8244C627.47 51.9444 626.27 52.0344 625.07 52.0944C623.81 52.1544 622.85 51.7944 622.19 51.0144C621.59 50.1744 621.32 49.2144 621.38 48.1344C621.44 47.1144 621.77 46.4544 622.37 46.1544C623.03 45.8544 623.96 45.7944 625.16 45.9744C626 46.0944 627.26 46.2144 628.94 46.3344C630.62 46.4544 632.42 46.5444 634.34 46.6044C634.94 46.6044 635.33 46.5444 635.51 46.4244C635.75 46.2444 635.87 45.9144 635.87 45.4344C635.87 44.8344 635.87 44.2944 635.87 43.8144C635.93 43.3344 635.99 42.8544 636.05 42.3744C636.11 41.7744 636.05 41.4144 635.87 41.2944C635.75 41.1144 635.42 41.0844 634.88 41.2044C633.26 41.4444 631.85 41.6244 630.65 41.7444C629.51 41.8044 628.49 41.8344 627.59 41.8344C626.69 41.7744 625.85 41.6244 625.07 41.3844C624.35 41.1444 623.63 40.8444 622.91 40.4844C622.07 40.0644 621.56 39.4644 621.38 38.6844C621.26 37.9044 621.44 37.2144 621.92 36.6144C622.46 35.8944 623.12 35.4144 623.9 35.1744C624.68 34.9344 625.49 35.0244 626.33 35.4444C626.99 35.7444 627.98 36.1044 629.3 36.5244C630.62 36.8844 632.24 37.3044 634.16 37.7844C634.88 37.9644 635.3 37.9944 635.42 37.8744C635.6 37.6944 635.63 37.2444 635.51 36.5244C635.39 35.8044 635.21 35.1144 634.97 34.4544C634.79 33.7344 634.52 32.9844 634.16 32.2044C633.62 31.0044 633.35 30.0444 633.35 29.3244C633.35 28.5444 633.65 27.7044 634.25 26.8044C634.73 26.0244 635.48 25.5144 636.5 25.2744C637.58 24.9744 638.45 24.9144 639.11 25.0944C639.77 25.2744 640.25 25.4544 640.55 25.6344C640.85 25.7544 641.12 25.9344 641.36 26.1744C641.84 26.7144 642.5 26.9244 643.34 26.8044C645.86 26.6844 648.26 26.5644 650.54 26.4444C652.82 26.3244 654.98 26.2044 657.02 26.0844C657.38 26.0844 657.65 26.0244 657.83 25.9044C658.01 25.7844 658.16 25.3944 658.28 24.7344C658.46 23.9544 658.82 23.3544 659.36 22.9344C659.9 22.5144 661.13 22.1844 663.05 21.9444C666.95 21.4644 668.99 22.2744 669.17 24.3744C669.29 25.0944 669.41 25.5444 669.53 25.7244C669.71 25.9044 670.04 25.9944 670.52 25.9944C671.54 25.9944 672.62 25.9944 673.76 25.9944C674.96 25.9944 676.19 26.0244 677.45 26.0844C680.51 26.2044 683.3 26.3244 685.82 26.4444C688.34 26.5044 690.77 26.5644 693.11 26.6244C694.13 26.6244 694.76 26.8344 695 27.2544C695.24 27.6744 695.12 28.4244 694.64 29.5044C694.46 29.9844 694.19 30.3744 693.83 30.6744C693.47 30.9144 692.93 31.0944 692.21 31.2144C691.49 31.3344 690.5 31.3944 689.24 31.3944C688.04 31.3944 686.51 31.3344 684.65 31.2144C682.85 31.0944 680.6 31.0044 677.9 30.9444C675.2 30.8244 672.2 30.7944 668.9 30.8544C668.3 30.8544 668.09 31.0944 668.27 31.5744C668.39 31.8744 668.42 32.2644 668.36 32.7444C668.3 33.2244 668.09 33.9144 667.73 34.8144C667.43 35.3544 667.58 35.6244 668.18 35.6244C670.04 35.6244 671.9 35.6544 673.76 35.7144C675.68 35.7144 677.48 35.7144 679.16 35.7144C680.84 35.7144 682.37 35.7444 683.75 35.8044C685.13 35.8044 686.24 35.8044 687.08 35.8044C687.74 35.8044 688.16 35.9244 688.34 36.1644C688.52 36.4044 688.64 36.9144 688.7 37.6944C688.76 38.3544 688.49 38.8344 687.89 39.1344C687.35 39.3744 686.06 39.4644 684.02 39.4044C683.06 39.4044 681.98 39.4044 680.78 39.4044C679.64 39.4044 678.5 39.4344 677.36 39.4944C676.22 39.4944 675.11 39.4944 674.03 39.4944C673.01 39.4944 672.14 39.4944 671.42 39.4944C671.3 39.4944 671.21 39.5844 671.15 39.7644C671.15 39.8844 671.3 40.0344 671.6 40.2144C673.28 41.3544 675.29 42.4944 677.63 43.6344C678.05 43.8144 678.41 43.7544 678.71 43.4544C679.25 42.9744 679.73 42.4344 680.15 41.8344C680.75 40.9344 681.29 40.3944 681.77 40.2144C682.31 39.9744 683.09 40.0044 684.11 40.3044C685.79 40.8444 686.72 41.6244 686.9 42.6444C687.08 43.6044 686.3 44.3244 684.56 44.8044C683.9 44.9844 683.3 45.1644 682.76 45.3444C682.4 45.4644 682.43 45.6744 682.85 45.9744C684.35 46.7544 685.76 47.4444 687.08 48.0444C688.4 48.5844 689.69 49.0644 690.95 49.4844C692.21 49.9044 693.5 50.2944 694.82 50.6544C696.14 51.0144 697.58 51.3744 699.14 51.7344C701.48 52.2744 702.08 53.2044 700.94 54.5244ZM694.19 73.7844C694.73 74.2644 694.7 74.7444 694.1 75.2244C693.56 75.6444 692.63 75.7044 691.31 75.4044C690.41 75.2244 689.39 74.9244 688.25 74.5044C687.11 74.0244 685.94 73.4844 684.74 72.8844C683.54 72.2844 682.34 71.6244 681.14 70.9044C680 70.1844 678.95 69.4644 677.99 68.7444C676.97 67.9644 676.37 67.3344 676.19 66.8544C676.07 66.3144 676.22 65.6544 676.64 64.8744C677.12 64.0344 677.9 63.6144 678.98 63.6144C680.12 63.5544 681.14 63.7944 682.04 64.3344C682.64 64.6944 683.45 65.2644 684.47 66.0444C685.55 66.7644 686.66 67.6044 687.8 68.5644C689 69.4644 690.17 70.3944 691.31 71.3544C692.45 72.2544 693.41 73.0644 694.19 73.7844ZM654.5 68.5644C653.9 69.1044 653.06 69.7044 651.98 70.3644C650.96 71.0244 649.79 71.6844 648.47 72.3444C647.15 73.0044 645.71 73.6344 644.15 74.2344C642.59 74.8344 640.97 75.3444 639.29 75.7644C638.63 75.9444 638.15 75.9744 637.85 75.8544C637.61 75.7344 637.4 75.4944 637.22 75.1344C636.86 74.3544 637.01 73.8144 637.67 73.5144C638.57 73.0944 639.53 72.5844 640.55 71.9844C641.57 71.3244 642.56 70.6644 643.52 70.0044C644.48 69.2844 645.35 68.5644 646.13 67.8444C646.97 67.1244 647.63 66.4644 648.11 65.8644C648.95 64.7244 649.76 64.0344 650.54 63.7944C651.38 63.4944 652.43 63.6444 653.69 64.2444C656.03 65.3244 656.3 66.7644 654.5 68.5644ZM660.44 31.7544C660.56 31.2744 660.29 31.0344 659.63 31.0344C657.83 31.0944 656 31.1544 654.14 31.2144C652.34 31.2744 650.48 31.3644 648.56 31.4844C647.72 31.5444 646.85 31.6344 645.95 31.7544C645.11 31.8144 644.18 31.9644 643.16 32.2044C642.62 32.3244 642.26 32.5044 642.08 32.7444C641.96 32.9244 641.9 33.2844 641.9 33.8244C641.9 36.5844 641.87 38.9544 641.81 40.9344C641.75 42.9144 641.63 44.6244 641.45 46.0644C641.33 47.5044 641.18 48.7644 641 49.8444C640.82 50.8644 640.61 51.8244 640.37 52.7244C640.19 53.4444 640.43 53.6544 641.09 53.3544C643.07 52.7544 645.17 51.8844 647.39 50.7444C649.67 49.5444 651.71 48.1644 653.51 46.6044C653.63 46.4844 653.63 46.3944 653.51 46.3344C653.45 46.2144 653.3 46.2144 653.06 46.3344C651.8 46.8144 650.72 47.0544 649.82 47.0544C648.92 47.0544 648.2 46.9044 647.66 46.6044C646.16 45.8844 646.13 44.7444 647.57 43.1844C648.29 42.4044 649.1 42.0444 650 42.1044C650.96 42.1044 651.98 42.3744 653.06 42.9144C653.48 43.1544 653.84 43.3344 654.14 43.4544C654.44 43.5744 654.71 43.6944 654.95 43.8144C655.49 44.1144 655.91 44.0244 656.21 43.5444C656.57 43.0644 656.87 42.5844 657.11 42.1044C657.35 41.6244 657.62 41.0544 657.92 40.3944C658.1 40.0344 657.86 39.8544 657.2 39.8544C656.42 39.8544 655.61 39.8844 654.77 39.9444C653.93 39.9444 653.12 40.0044 652.34 40.1244C651.62 40.1844 650.96 40.2744 650.36 40.3944C649.76 40.5144 649.31 40.6644 649.01 40.8444C646.61 41.9244 644.93 41.8944 643.97 40.7544C643.07 39.6744 643.46 38.4144 645.14 36.9744C647.18 35.2944 649.04 34.6644 650.72 35.0844C650.9 35.1444 651.83 35.2344 653.51 35.3544C655.19 35.4144 657.02 35.4444 659 35.4444C659.48 35.4444 659.81 35.1744 659.99 34.6344C660.11 34.1544 660.2 33.7044 660.26 33.2844C660.32 32.8044 660.38 32.2944 660.44 31.7544ZM674.75 46.8744C673.25 45.8544 671.72 44.7744 670.16 43.6344C668.66 42.4944 667.25 41.3844 665.93 40.3044C665.51 40.0044 665.18 40.0044 664.94 40.3044C664.04 41.6244 663.17 42.8244 662.33 43.9044C661.49 44.9244 660.56 45.9444 659.54 46.9644C659.36 47.1444 659.3 47.3244 659.36 47.5044C659.42 47.6244 659.57 47.6844 659.81 47.6844C662.39 47.5644 664.94 47.5044 667.46 47.5044C670.04 47.5044 672.2 47.5644 673.94 47.6844C674.48 47.7444 674.81 47.6844 674.93 47.5044C675.11 47.2644 675.05 47.0544 674.75 46.8744ZM674.57 52.5444C674.57 51.7044 674.15 51.2244 673.31 51.1044C672.53 51.0444 671.51 51.0144 670.25 51.0144C669.05 50.9544 667.73 50.9544 666.29 51.0144C664.85 51.0144 663.32 51.0444 661.7 51.1044C660.14 51.1644 658.64 51.2244 657.2 51.2844C656.48 51.2844 656.12 51.7044 656.12 52.5444C656.12 53.0844 656.18 53.4444 656.3 53.6244C656.42 53.8044 656.6 53.8944 656.84 53.8944C659.36 53.7744 662.18 53.7144 665.3 53.7144C668.42 53.6544 671.24 53.6544 673.76 53.7144C674.3 53.7144 674.57 53.3244 674.57 52.5444ZM674.12 57.6744C674.18 56.8944 674 56.5044 673.58 56.5044C670.88 56.3844 668.09 56.3544 665.21 56.4144C662.39 56.4744 659.63 56.5944 656.93 56.7744C656.45 56.7744 656.21 57.0744 656.21 57.6744C656.21 58.6944 656.54 59.2044 657.2 59.2044C658.1 59.2644 659.24 59.3244 660.62 59.3844C662.06 59.3844 663.5 59.3844 664.94 59.3844C666.44 59.3244 667.85 59.2644 669.17 59.2044C670.55 59.1444 671.63 59.0844 672.41 59.0244C673.07 58.9044 673.49 58.7844 673.67 58.6644C673.91 58.4844 674.06 58.1544 674.12 57.6744ZM799.85 43.6344C799.31 45.3744 798.68 46.4544 797.96 46.8744C797.3 47.2344 796.37 47.1744 795.17 46.6944C794.81 46.5144 794.54 46.0644 794.36 45.3444C794.18 44.6244 794.15 43.8744 794.27 43.0944C794.39 41.8344 794.42 40.8744 794.36 40.2144C794.36 39.5544 794.3 38.8944 794.18 38.2344C794.06 37.3944 793.79 36.8544 793.37 36.6144C793.01 36.3144 792.32 36.1044 791.3 35.9844C785.66 35.6844 780.41 35.5944 775.55 35.7144C770.69 35.8344 766.55 36.0444 763.13 36.3444C762.05 36.3444 761.24 36.4944 760.7 36.7944C760.22 37.0344 759.77 37.4844 759.35 38.1444C758.99 39.2244 758.69 40.3044 758.45 41.3844C758.27 42.4044 758.15 43.5144 758.09 44.7144C758.09 45.3744 757.91 45.9144 757.55 46.3344C757.25 46.7544 756.86 46.9944 756.38 47.0544C755.84 46.9344 755.27 46.6344 754.67 46.1544C754.13 45.6144 753.77 44.9244 753.59 44.0844C753.53 43.5444 753.47 42.7644 753.41 41.7444C753.35 40.6644 753.32 39.5544 753.32 38.4144C753.32 37.2744 753.32 36.2244 753.32 35.2644C753.38 34.2444 753.47 33.5244 753.59 33.1044C754.37 30.5244 755.39 29.1444 756.65 28.9644C757.97 28.7844 759.32 29.2344 760.7 30.3144C761.36 30.7944 762.2 31.0944 763.22 31.2144C764.24 31.2744 765.68 31.2444 767.54 31.1244C768.74 31.0044 769.46 30.7944 769.7 30.4944C769.94 30.1944 770 29.4744 769.88 28.3344C769.7 26.7744 769.76 25.5744 770.06 24.7344C770.36 23.8344 770.99 23.0544 771.95 22.3944C772.61 21.9144 773.39 21.7044 774.29 21.7644C775.19 21.8244 776.03 22.0644 776.81 22.4844C778.13 23.1444 779.06 23.9844 779.6 25.0044C780.2 25.9644 780.56 27.2844 780.68 28.9644C780.74 30.1044 781.25 30.6744 782.21 30.6744C783.59 30.6144 784.85 30.5844 785.99 30.5844C787.19 30.5844 788.21 30.5544 789.05 30.4944C790.31 30.3744 791.27 30.2844 791.93 30.2244C792.65 30.1644 793.22 30.0744 793.64 29.9544C794.6 29.4744 795.65 29.2944 796.79 29.4144C797.99 29.4744 798.95 29.9844 799.67 30.9444C800.63 32.1444 801.14 33.8544 801.2 36.0744C801.26 38.2944 800.81 40.8144 799.85 43.6344ZM786.89 39.7644C787.25 39.9444 787.52 40.2144 787.7 40.5744C787.88 40.9344 787.97 41.2944 787.97 41.6544C787.97 42.0144 787.85 42.3444 787.61 42.6444C787.43 42.8844 787.16 43.0344 786.8 43.0944C786.44 43.2744 785.78 43.4244 784.82 43.5444C783.86 43.6644 782.81 43.7544 781.67 43.8144C780.59 43.8744 779.48 43.9344 778.34 43.9944C777.2 43.9944 776.27 43.9344 775.55 43.8144C775.13 43.8144 774.56 43.8144 773.84 43.8144C773.18 43.7544 772.49 43.7544 771.77 43.8144C771.05 43.8744 770.33 43.9344 769.61 43.9944C768.95 44.0544 768.41 44.1744 767.99 44.3544C765.41 45.0144 763.76 44.9844 763.04 44.2644C762.62 43.7844 762.47 43.1544 762.59 42.3744C762.71 41.5344 763.1 40.6944 763.76 39.8544C764.18 39.4344 764.75 39.1644 765.47 39.0444C766.25 38.8644 767.03 38.9244 767.81 39.2244C768.89 39.4644 769.67 39.5244 770.15 39.4044C773.75 38.9244 777.05 38.7744 780.05 38.9544C783.05 39.0744 785.33 39.3444 786.89 39.7644ZM752.24 32.4744C751.58 34.3944 750.77 36.0444 749.81 37.4244C748.85 38.7444 747.38 40.2144 745.4 41.8344C744.68 42.4944 744.32 42.9444 744.32 43.1844C744.38 43.4244 744.8 43.6044 745.58 43.7244C747.44 44.1444 748.97 45.1044 750.17 46.6044C751.37 48.0444 751.94 49.7244 751.88 51.6444C751.76 53.0844 751.49 54.4344 751.07 55.6944C750.65 56.9544 749.99 58.0644 749.09 59.0244C748.19 59.9844 746.99 60.7944 745.49 61.4544C744.05 62.1144 742.25 62.5644 740.09 62.8044C739.49 62.9244 739.07 63.1044 738.83 63.3444C738.65 63.5844 738.59 64.0944 738.65 64.8744C738.77 67.3344 738.8 69.2844 738.74 70.7244C738.74 72.1044 738.59 73.1844 738.29 73.9644C738.05 74.7444 737.63 75.2844 737.03 75.5844C736.49 75.8244 735.71 76.0344 734.69 76.2144C733.73 76.3344 732.95 76.3644 732.35 76.3044C731.81 76.1844 731.39 75.9144 731.09 75.4944C730.79 75.0144 730.58 74.3244 730.46 73.4244C730.4 72.4644 730.4 71.2044 730.46 69.6444C730.82 63.5244 731.06 57.8544 731.18 52.6344C731.3 47.3544 731.21 42.1344 730.91 36.9744C730.85 35.9544 730.64 35.3544 730.28 35.1744C729.98 34.9344 729.41 34.9644 728.57 35.2644C726.95 35.7444 725.84 35.9244 725.24 35.8044C724.64 35.6244 724.28 35.0844 724.16 34.1844C724.04 33.2244 724.25 32.3844 724.79 31.6644C725.33 30.9444 726.29 30.0744 727.67 29.0544C729.59 27.8544 731.03 27.1344 731.99 26.8944C733.01 26.6544 733.97 26.7744 734.87 27.2544C735.59 27.6144 736.4 27.8544 737.3 27.9744C738.26 28.0944 739.28 28.0944 740.36 27.9744C741.62 27.6744 742.94 27.7644 744.32 28.2444C744.8 28.4844 745.37 28.6344 746.03 28.6944C746.69 28.7544 747.38 28.6344 748.1 28.3344C748.52 28.2144 749.03 28.2444 749.63 28.4244C750.23 28.5444 750.74 28.7844 751.16 29.1444C751.64 29.5044 752 29.9844 752.24 30.5844C752.48 31.1244 752.48 31.7544 752.24 32.4744ZM809.93 65.5044C809.45 68.8644 807.95 71.6544 805.43 73.8744C802.97 76.0944 799.85 77.2044 796.07 77.2044C795.23 77.2644 794 77.0844 792.38 76.6644C790.76 76.2444 788.99 75.6744 787.07 74.9544C785.21 74.1744 783.35 73.3044 781.49 72.3444C779.69 71.3844 778.16 70.3644 776.9 69.2844C775.28 67.7844 774.26 65.7744 773.84 63.2544C773.42 60.6744 773.81 57.2544 775.01 52.9944C775.25 52.1544 774.95 51.7344 774.11 51.7344C773.33 51.7344 772.91 52.0044 772.85 52.5444C772.19 55.7244 771.38 58.5744 770.42 61.0944C769.46 63.5544 768.23 65.6844 766.73 67.4844C765.23 69.2844 763.43 70.7544 761.33 71.8944C759.23 72.9744 756.74 73.6944 753.86 74.0544C750.98 74.4744 748.73 74.2044 747.11 73.2444C745.49 72.2244 744.53 70.9344 744.23 69.3744C744.05 68.2944 744.35 67.8744 745.13 68.1144C748.07 68.3544 750.74 68.1444 753.14 67.4844C755.6 66.8244 757.7 65.8344 759.44 64.5144C761.24 63.1344 762.68 61.4844 763.76 59.5644C764.84 57.6444 765.5 55.5444 765.74 53.2644C765.86 52.4244 765.44 52.0644 764.48 52.1844C763.88 52.2444 763.25 52.3644 762.59 52.5444C761.93 52.6644 761.27 52.8144 760.61 52.9944C759.71 53.4144 758.96 53.5944 758.36 53.5344C757.76 53.4744 757.22 53.2644 756.74 52.9044C756.26 52.2444 756.05 51.4944 756.11 50.6544C756.23 49.8144 756.74 49.0644 757.64 48.4044C758.3 47.8644 758.87 47.4444 759.35 47.1444C759.89 46.8444 760.37 46.6344 760.79 46.5144C761.27 46.3944 761.78 46.3344 762.32 46.3344C762.86 46.3344 763.49 46.3944 764.21 46.5144C764.63 46.5744 765.29 46.6344 766.19 46.6944C767.15 46.6944 768.2 46.6944 769.34 46.6944C770.54 46.6944 771.8 46.6644 773.12 46.6044C774.5 46.5444 775.79 46.4244 776.99 46.2444C780.41 46.1244 783.26 46.0944 785.54 46.1544C787.82 46.2144 789.32 46.3044 790.04 46.4244C791.12 46.6044 791.81 47.0244 792.11 47.6844C792.47 48.3444 792.5 49.0644 792.2 49.8444C792.08 50.2044 791.9 50.5344 791.66 50.8344C791.42 51.0744 791 51.2844 790.4 51.4644C789.86 51.5844 789.08 51.6744 788.06 51.7344C787.1 51.7944 785.78 51.7944 784.1 51.7344C783.44 51.7344 782.96 51.7944 782.66 51.9144C782.36 52.0344 782.09 52.3344 781.85 52.8144C781.19 54.2544 780.89 55.9344 780.95 57.8544C781.07 59.7744 781.7 61.3644 782.84 62.6244C783.5 63.4044 784.49 63.9744 785.81 64.3344C787.13 64.6944 788.93 65.0244 791.21 65.3244C794.75 65.8644 797.81 66.0744 800.39 65.9544C803.03 65.8344 805.49 65.2944 807.77 64.3344C808.91 63.9744 809.6 63.8844 809.84 64.0644C810.08 64.1844 810.11 64.6644 809.93 65.5044ZM739.73 33.3744C739.31 33.3744 738.98 33.5844 738.74 34.0044C738.56 34.3644 738.44 35.3544 738.38 36.9744C738.26 38.8944 738.26 40.1544 738.38 40.7544C738.5 41.3544 738.65 41.5944 738.83 41.4744C740.21 40.4544 741.2 39.4644 741.8 38.5044C742.46 37.5444 742.79 36.7044 742.79 35.9844C742.79 35.2044 742.52 34.5744 741.98 34.0944C741.44 33.6144 740.69 33.3744 739.73 33.3744ZM745.49 50.2044C745.19 49.0644 744.56 48.2244 743.6 47.6844C742.64 47.1444 741.11 46.8744 739.01 46.8744C738.77 46.8744 738.56 46.9644 738.38 47.1444C738.26 47.3244 738.2 47.7144 738.2 48.3144C738.2 49.5144 738.2 50.7744 738.2 52.0944C738.2 53.3544 738.26 54.7044 738.38 56.1444C738.38 56.8644 738.8 57.0444 739.64 56.6844C741.86 55.7844 743.42 54.6744 744.32 53.3544C745.22 52.0344 745.61 50.9844 745.49 50.2044Z" fill="white" fill-opacity="0.85"/>
</svg>
