<svg xmlns="http://www.w3.org/2000/svg" width="280.488" height="355.79" viewBox="0 0 280.488 355.79"><defs><style>.a{fill:#fff;}.b{fill:#fcdc4a;}.c{fill:#211715;}</style></defs><path class="a" d="M48.424,312.775c0,6.117-.22,12.338-.738,18.725H185.108l-.31-1.778c-.652-4.71-2.165-12.15-4-20.55H158.641c-36.341-1.619-80.035-1.538-110.24,0Q48.425,310.97,48.424,312.775Z"></path><path class="a" d="M216.353,189.722c-10.194-13.747-18.448-23.064-33.111-33.777a122.079,122.079,0,0,0-21.346-12.7c-8.686-3.779-15.571-5.409-24.543-8.187l-11.47.447a76.141,76.141,0,0,1-41.6,22.569c-5.964,1.035-12.148,1.329-18.129-.205a27.778,27.778,0,0,1-15.709-10.473c-15.835,7.764-30.469,16.764-37.765,27.089-5.585,7.9-7.723,18.667-8.834,28-2.158,18.128-.825,25.906-.825,52.351,0,16.138.271,37.436-.6,54.292,19.143,0,47.066,0,47.066,0,30.16-1.49,73.25-1.55,109.16.05l11.863-4.988,19.266-8.1c2.358,2.337,2.907,4.057,5.745,1.719,1.921-1.581,3.8-3.211,5.67-4.857,3.356-2.96,6.628-6.015,9.769-9.2a186.657,186.657,0,0,0,16.564-19.521c7.183-9.627,9.655-12.388,9.824-22.62C237.687,220.876,228.5,206.108,216.353,189.722Zm-40.463,64.56s-2.944,3.053-5.884,6.1q-.051-.28-.1-.547c-1.435-12.471-5.587-43.161-7.442-59.376,1.124,1.273,2.243,2.55,3.344,3.837,8.9,10.4,16.643,21.37,16.749,35.107C182.61,245.752,180.18,248.872,175.89,254.282Z"></path><path class="a" d="M115.536,73a7.784,7.784,0,0,1,5.435-1.9c3.9.12,5.562,2.124,6.276,3.3,2.134,3.516,2.058,9.994.633,14.012a20.386,20.386,0,0,1-6.565,9.922,14.926,14.926,0,0,1-7.089,2.56l-.384,1.117c-.7,2.051-2.487,5.711-2.487,5.711a73.955,73.955,0,0,1-4.562,7.783q1.033,3.109,2.07,6.219a27.324,27.324,0,0,0,2.21,5.348c2.65,4.484,8.359,7.068,13.983,8.243,0,0,.419.088.827.186a76.141,76.141,0,0,1-41.6,22.569c-5.964,1.035-12.148,1.329-18.129-.205a27.957,27.957,0,0,1-15.03-9.572c3.347-1.626,6.813-3.312,9.091-4.653a10.988,10.988,0,0,0,4.969-4.974c-8.512.474-16.293-1.724-24.058-6.659-9.372-5.956-14.41-16.52-17.211-28.534C22.3,96.547,20.71,89,18.786,81.493c0,0-17.556-38.674,32.275-43.1C116.728,32.559,115.536,73,115.536,73Z"></path><path class="a" d="M172.6,329.5c-.5-3.455-.952-6.707-1.493-10.081l-1.2.3c.225,1.911-1.648,3.632-3.571,3.68a5.782,5.782,0,0,1-4.741-2.835,15.5,15.5,0,0,1-1.892-5.415,111.432,111.432,0,0,1-2.19-27.055,12.405,12.405,0,0,1,.449-3.283,15.325,15.325,0,0,1,2.752-4.418c2.55-2.975,4.828-4.2,7.883-5.864a9.793,9.793,0,0,1,5.15-1.4,7.2,7.2,0,0,1,3.063,1.225,30.677,30.677,0,0,1,11.632,13.149c-1.253,1.683.3,5.38.3,5.38-.5,1.522-1.4,1.9-1.5,3.5-.116,1.78-.838,5.415-.5,7.167,2.316,12.018.936,15.577,1.357,27.809.223,6.445-.3,12.126-2.664,17.841-.892,2.159-2.68,4.469-5,4.158a4.628,4.628,0,0,1-3.025-2.2c-1.924-2.86-2.611-8.074-3.2-11.47C173.558,335.967,173.057,332.651,172.6,329.5Z"></path><path class="b" d="M103.443,67.679C90.286,50.46,75.439,47.58,72.2,46.8a49.62,49.62,0,0,0-8.464-.521l-1.329.493C52.3,50.517,43.978,60.009,39.469,63.653a1.734,1.734,0,0,1-2.755-1.409A9.16,9.16,0,0,0,35.926,59c-.572-1.312-1.727-1.71-2.472-1.137C27.1,62.752,19.467,77.887,19.305,83.015c0,0-.022.693-.059,1.712a89.875,89.875,0,0,1-4.422-29.7c.411-8.832,3.191-19.05,7.961-26.461C31.047,15.731,44.728,6.77,62.778,3.45c11.39-2.1,23.146-1.494,36.691,5.64l8.422,4.435,1.646,1.16c8.309,5.852,12.966,13.18,16.606,22.4a48.2,48.2,0,0,1,3.279,14.5c.343,5.263,1.555,17.482-1.318,24.71a9.377,9.377,0,0,0-.857-1.89c-.714-1.175-2.38-3.179-6.276-3.3a7.784,7.784,0,0,0-5.435,1.9,33.64,33.64,0,0,1-3.491.577c-.6-.354-6.438-3.563-8.567-5.881" style="fill: rgb(186, 155, 114);"></path><path class="c" d="M104.476,116.15c.919,2.758,1.776,5.546,2.779,8.274a18.139,18.139,0,0,0,4.111,6.874c3.49,3.446,8.335,5.327,13.056,6.329a2.457,2.457,0,0,0,2.953-1.677A2.424,2.424,0,0,0,125.7,133c-3.945-.837-8.078-2.27-10.937-5.094a13.337,13.337,0,0,1-3.061-5.269c-.906-2.572-1.733-5.174-2.595-7.761a2.456,2.456,0,0,0-2.953-1.676,2.424,2.424,0,0,0-1.676,2.952Z"></path><path class="c" d="M108.326,16.757c7.113,5.057,11.96,12.213,15.209,20.23,3.312,8.174,4.006,16.968,4.033,25.711.014,4.462-.194,9.122-1.923,13.3a2.414,2.414,0,0,0,1.676,2.952,2.461,2.461,0,0,0,2.952-1.676c1.649-3.983,1.993-8.5,2.08-12.765.081-3.944-.176-7.879-.454-11.811a57.744,57.744,0,0,0-9.712-28.536,46,46,0,0,0-11.438-11.546,2.419,2.419,0,0,0-3.284.861,2.451,2.451,0,0,0,.861,3.283Z"></path><path class="c" d="M71.562,49.111A49,49,0,0,1,92.854,59.873a61.385,61.385,0,0,1,8.516,9.018,2.482,2.482,0,0,0,3.284.861,2.417,2.417,0,0,0,.861-3.284C98.12,56.856,88.394,49.02,76.666,45.478c-1.264-.382-2.545-.688-3.828-1-3-.722-4.283,3.906-1.276,4.629Z"></path><path class="c" d="M21.705,83.015c.007-.16.022-.318.033-.478-.039.573-.039.253-.014.111.057-.328.121-.654.2-.978a25.32,25.32,0,0,1,.758-2.528,46.952,46.952,0,0,1,2.377-5.513,52.755,52.755,0,0,1,7.237-11.312,23.714,23.714,0,0,1,1.916-1.967c.125-.112.254-.22.379-.333.494-.449.447-.06-.055-.056-1.063.007-.886-.4-.546.676.359,1.131.252,2.384.8,3.447a4.241,4.241,0,0,0,3.606,2.325c2.15.074,3.878-1.969,5.34-3.314,1.635-1.506,3.25-3.033,4.913-4.507,4.291-3.8,8.991-7.457,14.4-9.506a2.468,2.468,0,0,0,1.677-2.952,2.42,2.42,0,0,0-2.953-1.676,50.837,50.837,0,0,0-14.626,9.1c-1.894,1.6-3.715,3.276-5.529,4.962-.688.64-1.376,1.281-2.073,1.911-.3.276-.612.55-.924.82-.554.48-1.168.658.165.425.417-.073.4.723.185-.719a10,10,0,0,0-.412-1.781,5.6,5.6,0,0,0-2.712-3.565c-2.606-1.244-4.717.907-6.367,2.678A53.734,53.734,0,0,0,21.36,70.322c-1.981,3.836-4.256,8.285-4.455,12.693-.139,3.088,4.661,3.081,4.8,0Z"></path><path class="c" d="M58.4,119.227a9.84,9.84,0,0,1,1.288-.775c.112-.057.225-.111.339-.164.049-.023.433-.187.155-.073-.315.13.259-.1.261-.1.125-.046.251-.091.378-.134a16.546,16.546,0,0,1,1.679-.476c.272-.063.544-.118.818-.168.136-.024.275-.042.411-.069.376-.073-.574.057.083-.011.539-.056,1.08-.1,1.623-.1q.44,0,.879.022c.127.008.253.017.379.029.066.006.482.063.142.01-.377-.058.193.04.216.044.129.026.258.054.385.086.3.073.594.163.887.257.7.225,1.4.478,2.111.69a2.424,2.424,0,0,0,2.952-1.676,2.45,2.45,0,0,0-1.676-2.953,27.748,27.748,0,0,0-4.235-1.163,15.092,15.092,0,0,0-3.869-.021,16.637,16.637,0,0,0-7.629,2.6,2.454,2.454,0,0,0-.861,3.284,2.43,2.43,0,0,0,3.284.861Z"></path><path class="c" d="M69.341,87.727c-.97-2.405-.959-8.127,3.678-9.009,6.186-.489,7.1,6.35,5.294,9.757C76.834,91.264,71.917,92.79,69.341,87.727Z"></path><path class="c" d="M32.731,92.007c-.914-2.419-.962-8.153,3.281-8.99,5.667-.428,6.575,6.434,4.953,9.829C39.637,95.626,35.144,97.106,32.731,92.007Z"></path><path class="c" d="M52.6,95.232c-.72,1.625-1.412,3.273-1.987,4.956a4.757,4.757,0,0,0-.318,1.806,3.411,3.411,0,0,0,.45,1.6,4.021,4.021,0,0,0,1.232,1.2,4.792,4.792,0,0,0,2.276.76c.322.034.639,0,.961.013a2.421,2.421,0,0,0,2.4-2.4,2.446,2.446,0,0,0-2.4-2.4c-.322-.009-.64.024-.961-.013l.638.086a2.515,2.515,0,0,1-.589-.164l.574.242a3.321,3.321,0,0,1-.577-.342l.485.376a1.589,1.589,0,0,1-.223-.2l.375.485a.761.761,0,0,1-.085-.139l.242.573a1.3,1.3,0,0,1-.073-.237l.086.638a1.867,1.867,0,0,1,0-.442l-.086.638a10.141,10.141,0,0,1,.656-2.02c.279-.728.574-1.449.877-2.167l-.242.573q.213-.5.433-1.006a2.606,2.606,0,0,0,.242-1.849,2.4,2.4,0,0,0-2.952-1.676,2.324,2.324,0,0,0-1.434,1.1Z"></path><path class="c" d="M102.51,124.7a64.276,64.276,0,0,0,13.646-22.044,2.4,2.4,0,1,0-4.628-1.276,52.482,52.482,0,0,1-3.984,8.362A61.858,61.858,0,0,1,99.116,121.3c-2.1,2.263,1.289,5.666,3.394,3.394Z"></path><path class="c" d="M100.681,7.018A57.609,57.609,0,0,0,70.273.105,71.1,71.1,0,0,0,42.462,7.753a57.232,57.232,0,0,0-20,17.05C16.5,32.96,13.392,43.054,12.553,53.058a72.167,72.167,0,0,0,.626,15.555,90.358,90.358,0,0,0,4,17.49c1,2.9,5.638,1.655,4.629-1.276-5.994-17.4-7.325-38.556,2.836-54.721C33.771,15.593,50.181,7.275,66.881,5.221a53.019,53.019,0,0,1,31.377,5.941c2.735,1.429,5.165-2.712,2.423-4.144Z"></path><path class="c" d="M90.2,127.522a59.073,59.073,0,0,1-19.142,7.98,37.546,37.546,0,0,1-20.172-1.284A35.068,35.068,0,0,1,35.3,123.544c-3.9-4.816-6.326-10.75-8.02-16.655-2.457-8.563-3.973-17.4-6.177-26.034-.764-2.991-5.395-1.724-4.629,1.276,2.076,8.129,3.605,16.4,5.756,24.506,1.734,6.536,4.276,13.066,8.316,18.541,8.739,11.846,24.061,17.459,38.463,15.507,8.494-1.152,16.347-4.56,23.613-9.019,2.629-1.612.22-5.766-2.423-4.144Z"></path><path class="c" d="M117.233,74.7a5.462,5.462,0,0,1,3.738-1.2,6.385,6.385,0,0,1,2.118.393,4.428,4.428,0,0,1,.656.318,4.313,4.313,0,0,1,.463.3,5.439,5.439,0,0,1,.5.474c.126.134.472.614.194.209a7.206,7.206,0,0,1,.712,1.245,12.621,12.621,0,0,1,.864,4.219c.3,5.6-1.881,12.244-6.525,15.719-2.277,1.7-5.776,2.715-8.526,1.822-2.945-.956-4.206,3.677-1.276,4.628,3.8,1.233,8.336.1,11.667-1.937,3.457-2.115,5.884-5.721,7.431-9.387a24.23,24.23,0,0,0,2.006-11.217c-.246-3.422-1.149-7.149-3.937-9.4a10.735,10.735,0,0,0-13.477.421,2.421,2.421,0,0,0,0,3.394,2.449,2.449,0,0,0,3.394,0Z"></path><path class="c" d="M73.634,72.268a12.331,12.331,0,0,0,7.24,2.262,2.5,2.5,0,0,0,1.7-.7,2.4,2.4,0,0,0-1.7-4.1,9.551,9.551,0,0,1-1.394-.077l.638.085a10.614,10.614,0,0,1-2.647-.724l.573.242a9.986,9.986,0,0,1-1.987-1.132,2.412,2.412,0,0,0-1.85-.242,2.4,2.4,0,0,0-1.676,2.952l.242.573a2.4,2.4,0,0,0,.861.861Z"></path><path class="c" d="M90.088,83.4a56.524,56.524,0,0,0,.512,6.7c.277,1.959.577,4.228,1.965,5.751a5.911,5.911,0,0,0,5.955,1.429,6.359,6.359,0,0,0,4.171-4.581,2.4,2.4,0,1,0-4.628-1.276c-.045.153-.095.3-.143.454-.16.506.255-.451,0,.011-.076.137-.158.274-.23.412-.192.375.241-.237.05-.044-.11.112-.224.225-.333.338-.172.18.409-.213.029-.039a3.267,3.267,0,0,1-.3.159l.263-.114a4.089,4.089,0,0,0-.473.136c-.5.137.508.011-.018,0a2.364,2.364,0,0,1-.5,0c0,.022.594.121.069,0-.076-.017-.634-.14-.255-.053.344.078-.052-.05-.146-.094-.454-.216.341.272-.019-.022-.132-.149-.134-.146,0,.007s.127.156.01-.022c-.042-.073-.081-.148-.117-.224-.076-.16-.052-.1.07.174a2.541,2.541,0,0,1-.281-.911c-.087-.345-.156-.693-.223-1.041q-.124-.645-.223-1.3c-.009-.055-.1-.768-.034-.22-.026-.215-.053-.429-.077-.643-.182-1.659-.255-3.328-.292-5a2.4,2.4,0,1,0-4.8,0Z"></path><path class="c" d="M52.342,150.365c2.819-1.376,5.662-2.721,8.4-4.258a19.257,19.257,0,0,0,3.634-2.441,13.1,13.1,0,0,0,2.869-3.782,2.4,2.4,0,1,0-4.145-2.423,10.771,10.771,0,0,1-1.053,1.716c.152-.2.059-.077-.047.043-.124.142-.247.283-.376.421q-.347.369-.726.707c-.111.1-.226.195-.341.291.257-.215-.011.008-.136.1q-.406.286-.839.532c-.539.3-1.084.6-1.626.9-2.627,1.449-5.34,2.741-8.035,4.056a2.414,2.414,0,0,0-.861,3.284,2.463,2.463,0,0,0,3.284.861Z"></path><path class="c" d="M48.366,148.6c15.087,20.656,45.791,12.619,64.055,1.02a82.659,82.659,0,0,0,15.16-12.417c2.143-2.226-1.246-5.624-3.395-3.394a75.557,75.557,0,0,1-25.87,17.739c-9.88,4-21.748,6.786-32.257,3.81a25.321,25.321,0,0,1-13.549-9.181,2.47,2.47,0,0,0-3.283-.861,2.418,2.418,0,0,0-.861,3.284Z"></path><path class="c" d="M160.763,202.149c5.222,5.917,10.412,11.964,14.239,18.906a42.654,42.654,0,0,1,4.22,10.648c.832,3.471,1.4,7.433.677,10.97-.782,3.846-3.326,6.91-5.706,9.912a2.477,2.477,0,0,0,0,3.394,2.415,2.415,0,0,0,3.394,0c2.518-3.176,5.158-6.354,6.466-10.253,1.347-4.017,1.012-8.481.342-12.594-1.373-8.425-5.654-16.082-10.7-22.845-2.986-4-6.236-7.79-9.538-11.532-2.048-2.32-5.432,1.085-3.394,3.394Z"></path><path class="c" d="M32.576,219.805c1.58,5.546,2.767,11.209,3.938,16.853,1.49,7.181,2.859,14.388,4.161,21.606,1.134,6.284,2.225,12.578,3.2,18.89q.267,1.731.516,3.466.048.335.094.669c.039.28.093.691.021.142.057.434.114.868.166,1.3.417,3.476.549,7,.75,10.491a279.211,279.211,0,0,1-.136,38.275,2.42,2.42,0,0,0,2.4,2.4,2.447,2.447,0,0,0,2.4-2.4,268.294,268.294,0,0,0,.346-34.309c-.312-6.465-.674-12.9-1.623-19.3-1.974-13.3-4.425-26.553-7.1-39.731-1.332-6.572-2.668-13.179-4.507-19.632-.845-2.966-5.478-1.7-4.629,1.276Z"></path><path class="c" d="M136.715,137.37c7.789,2.4,15.709,4.442,23.232,7.627a106.7,106.7,0,0,1,18.118,10.222A141.437,141.437,0,0,1,210.086,185.4c8.853,11.322,17.948,23.489,22.224,37.391a59.158,59.158,0,0,1,2.512,21.631,21.645,21.645,0,0,1-1.774,7.376,46.234,46.234,0,0,1-4.772,7.417,222.985,222.985,0,0,1-16.116,19.8,200.69,200.69,0,0,1-18.851,17.455c-.284.235-.19-.115-.1.041a2.432,2.432,0,0,1,.28.027c.022-.017.165.069.158.1,0-.011-.454-.425-.417-.389-.61-.6-1.164-1.257-1.766-1.865-2.175-2.2-5.569,1.193-3.394,3.394,1.207,1.221,2.336,2.854,4.064,3.367,2.02.6,3.763-.579,5.255-1.8,3.6-2.934,7.073-6.045,10.455-9.225a177.237,177.237,0,0,0,18.4-20.315c2.586-3.321,5.143-6.68,7.583-10.11a33.215,33.215,0,0,0,4.4-7.955,30.623,30.623,0,0,0,1.5-9.548,67.009,67.009,0,0,0-.8-12.047c-2.392-15.4-10.917-28.656-20.005-40.963a201.123,201.123,0,0,0-14.484-17.845,135.964,135.964,0,0,0-17.162-15.362,132.971,132.971,0,0,0-20.963-13.3c-7.019-3.512-14.526-5.838-22.032-8.052-2.1-.619-4.2-1.242-6.294-1.888-2.958-.914-4.223,3.718-1.276,4.628Z"></path><path class="c" d="M159.4,194.252c.895,9.426,2.176,18.822,3.376,28.212,1.373,10.741,2.8,21.477,4.117,32.225.287,2.326.491,4.674.917,6.979.751,4.056,1.646,8.085,2.535,12.112.666,3.015,5.295,1.74,4.629-1.276-.794-3.593-1.585-7.189-2.286-10.8-.125-.64-.242-1.282-.361-1.923a2.433,2.433,0,0,1-.072-.417c-.03-.227-.053-.456-.08-.684q-.165-1.4-.337-2.807c-.581-4.768-1.192-9.531-1.8-14.3-1.439-11.2-2.91-22.4-4.281-33.616-.558-4.564-1.12-9.13-1.554-13.708a2.467,2.467,0,0,0-2.4-2.4,2.417,2.417,0,0,0-2.4,2.4Z"></path><path class="c" d="M166.32,307.3c1.921,8.388,3.065,16.884,4.34,25.384.607,4.043,1.221,8.1,2.022,12.113.724,3.624,1.845,8.2,5.3,10.2,4.2,2.429,8.069-1.118,9.644-4.862a39.072,39.072,0,0,0,2.829-12.976c.229-3.994-.032-8.009-.2-12q-.243-5.779-.519-11.558c-.16-3.444-.328-6.887-.46-10.332-.037-.966-.081-1.933-.085-2.9a14.973,14.973,0,0,1,1.028-4.632c.961-2.943-3.672-4.2-4.628-1.276a20.689,20.689,0,0,0-1.171,7.2c.073,2.433.19,4.865.3,7.3.317,6.942.659,13.882.916,20.827a54.769,54.769,0,0,1-.485,11.812,34.566,34.566,0,0,1-1.559,5.751c-.414,1.126-1.132,3.187-2.439,3.6-1.129.353-2-1.411-2.374-2.233a21.9,21.9,0,0,1-1.362-4.633c-.792-3.761-1.36-7.588-1.942-11.387-1.367-8.923-2.516-17.853-4.533-26.663-.689-3.01-5.318-1.736-4.629,1.276Z"></path><path class="c" d="M192.39,293.751c-1.273-6.351-4.976-12.4-9.309-17.131a20.1,20.1,0,0,0-7.295-5.446c-3.616-1.382-7.324.627-10.4,2.4a24.806,24.806,0,0,0-7.6,6.738,11.635,11.635,0,0,0-2.374,4.876,36.154,36.154,0,0,0-.374,5.828,113.5,113.5,0,0,0,2.4,24.981c.821,3.918,2.473,7.933,6.526,9.413,3.822,1.4,8.588-1.372,8.35-5.683-.17-3.071-4.971-3.091-4.8,0A1.208,1.208,0,0,1,166.355,321a3.026,3.026,0,0,1-2.4-1.269c-1.767-2.085-2.027-5.5-2.488-8.083a108.048,108.048,0,0,1-1.643-20.154,46.873,46.873,0,0,1,.168-4.741,7.332,7.332,0,0,1,1.569-3.539,18.583,18.583,0,0,1,5.617-5.137c1.937-1.161,4.879-3.314,7.233-2.31a16.167,16.167,0,0,1,5.153,4.114,32.475,32.475,0,0,1,8.195,15.143,2.424,2.424,0,0,0,2.952,1.676,2.449,2.449,0,0,0,1.677-2.952Z"></path><path class="c" d="M49.481,311.522c13.319-.654,26.655-.955,39.99-1.077q22.315-.2,44.632.31,12.273.284,24.538.817c3.088.137,3.081-4.663,0-4.8-14.689-.651-29.392-1-44.094-1.128q-21.744-.192-43.489.305c-7.2.175-14.389.42-21.577.773-3.075.151-3.093,4.952,0,4.8Z"></path><path class="c" d="M225.754,319.722c8.414,1.6,16.886,2.865,25.3,4.479l-1.434-3.526c-1.6,3.782-3.53,7.412-5.2,11.16-.554,1.243-.251,3.268,1.435,3.525,8.778,1.341,17.57,2.6,26.35,3.929a2.476,2.476,0,0,0,2.952-1.676,2.418,2.418,0,0,0-1.676-2.952c-8.78-1.332-17.572-2.589-26.35-3.929l1.434,3.525c1.673-3.747,3.606-7.377,5.2-11.159.547-1.3.255-3.2-1.435-3.525-8.41-1.615-16.882-2.885-25.3-4.48a2.464,2.464,0,0,0-2.952,1.676,2.423,2.423,0,0,0,1.676,2.953Z"></path><path class="c" d="M219.881,304.6c10.479-3.271,20.5-7.9,30.98-11.145l-3.038-2.314c.366,4.089.364,8.2.647,12.3a2.426,2.426,0,0,0,3.038,2.314c9.031-3.159,18.19-5.94,27.218-9.108a2.46,2.46,0,0,0,1.676-2.952,2.422,2.422,0,0,0-2.952-1.676c-9.028,3.168-18.187,5.949-27.218,9.107l3.038,2.315c-.283-4.095-.281-8.207-.647-12.3a2.432,2.432,0,0,0-3.038-2.314c-10.485,3.247-20.5,7.874-30.98,11.144-2.939.917-1.685,5.553,1.276,4.629Z"></path><path class="c" d="M49.256,145.31c-11.881,5.836-24.108,12.432-33.531,21.9a43.274,43.274,0,0,0-9.837,15.2,80.943,80.943,0,0,0-4.3,18.911,190.818,190.818,0,0,0-1.33,27.089C.444,240.4.6,252.371.639,264.356c.043,14.991.144,30-.635,44.981-.161,3.087,4.64,3.078,4.8,0,.684-13.153.677-26.337.649-39.5-.025-12.28-.061-24.555-.31-36.832a223.468,223.468,0,0,1,.643-26.289c1.107-11.351,2.918-23.9,10.453-32.954a68.373,68.373,0,0,1,15.09-12.894,182.464,182.464,0,0,1,20.35-11.41,2.423,2.423,0,0,0,.861-3.283,2.449,2.449,0,0,0-3.284-.861Z"></path></svg>