<svg width="252" height="24" viewBox="0 0 252 24" fill="none" xmlns="http://www.w3.org/2000/svg">
<path d="M34.7391 9.756C34.6671 9.924 34.5351 10.14 34.3431 10.404C34.1751 10.644 33.9831 10.896 33.7671 11.16C33.5511 11.4 33.3111 11.628 33.0471 11.844C32.8071 12.06 32.5791 12.216 32.3631 12.312C31.7871 12.576 31.2351 12.684 30.7071 12.636C30.1791 12.564 29.6031 12.312 28.9791 11.88C28.2831 11.424 27.6471 11.004 27.0711 10.62C26.5191 10.236 26.0031 9.876 25.5231 9.54C25.2831 9.444 25.0671 9.456 24.8751 9.576C24.2271 10.056 23.4231 10.428 22.4631 10.692C21.6951 10.956 20.9391 11.1 20.1951 11.124C20.1471 11.124 20.0871 11.148 20.0151 11.196C19.9431 11.22 19.9311 11.268 19.9791 11.34C20.0991 11.58 20.0631 11.808 19.8711 12.024C19.6791 12.216 19.3791 12.372 18.9711 12.492C18.6111 12.588 18.1551 12.708 17.6031 12.852C17.0511 12.972 16.4151 13.104 15.6951 13.248C15.3111 13.368 15.1191 13.488 15.1191 13.608C15.1191 13.704 15.2031 13.776 15.3711 13.824C15.6351 13.872 15.9231 13.884 16.2351 13.86C16.5471 13.812 17.0151 13.728 17.6391 13.608C17.8071 13.56 17.9631 13.512 18.1071 13.464C18.2751 13.416 18.4431 13.356 18.6111 13.284C19.0911 13.092 19.5231 12.9 19.9071 12.708C20.2911 12.516 20.5791 12.36 20.7711 12.24C21.2511 11.952 21.5631 11.772 21.7071 11.7C21.8511 11.628 22.0191 11.616 22.2111 11.664C22.6431 11.784 22.9191 11.892 23.0391 11.988C23.1591 12.084 23.2431 12.24 23.2911 12.456C23.3871 12.936 22.8471 13.368 21.6711 13.752C21.4551 13.824 21.2391 13.896 21.0231 13.968C20.8071 14.04 20.5311 14.136 20.1951 14.256C19.8831 14.376 19.4751 14.532 18.9711 14.724C18.4911 14.916 17.8671 15.168 17.0991 15.48C16.8111 15.6 16.7151 15.744 16.8111 15.912C16.9071 16.056 17.1111 16.152 17.4231 16.2C18.1431 16.296 18.8511 16.26 19.5471 16.092C20.2671 15.924 20.8911 15.708 21.4191 15.444C21.5391 15.396 21.5871 15.336 21.5631 15.264C21.5631 15.192 21.4911 15.084 21.3471 14.94C21.2271 14.82 21.1791 14.7 21.2031 14.58C21.2511 14.46 21.3471 14.28 21.4911 14.04C21.6111 13.848 21.8511 13.728 22.2111 13.68C22.5951 13.632 22.9911 13.704 23.3991 13.896C23.6631 14.016 23.8911 14.136 24.0831 14.256C24.2991 14.352 24.5271 14.472 24.7671 14.616C25.0071 14.736 25.2711 14.892 25.5591 15.084C25.8711 15.276 26.2551 15.516 26.7111 15.804C27.0951 16.068 27.2991 16.296 27.3231 16.488C27.3711 16.656 27.3111 16.812 27.1431 16.956C27.0231 17.076 26.8191 17.148 26.5311 17.172C26.2431 17.172 25.9671 17.112 25.7031 16.992C25.4391 16.872 25.1871 16.764 24.9471 16.668C24.7071 16.548 24.4671 16.428 24.2271 16.308C24.1071 16.212 23.8671 16.224 23.5071 16.344C23.1231 16.56 22.6791 16.776 22.1751 16.992C21.6951 17.184 21.2031 17.34 20.6991 17.46C20.4831 17.532 20.3871 17.724 20.4111 18.036C20.4591 18.804 20.4591 19.476 20.4111 20.052C20.3631 20.628 20.2311 21.12 20.0151 21.528C19.8231 21.912 19.5351 22.212 19.1511 22.428C18.7671 22.62 18.2631 22.74 17.6391 22.788C17.4471 22.788 17.1471 22.74 16.7391 22.644C16.3311 22.548 15.9111 22.416 15.4791 22.248C15.0471 22.056 14.6391 21.828 14.2551 21.564C13.8711 21.276 13.6071 20.94 13.4631 20.556C13.2231 19.98 13.4151 19.752 14.0391 19.872C14.6631 20.064 15.1311 20.148 15.4431 20.124C15.7791 20.1 16.0911 20.004 16.3791 19.836C16.4511 19.788 16.5111 19.656 16.5591 19.44C16.6071 19.2 16.6071 18.78 16.5591 18.18C16.5591 17.964 16.3791 17.82 16.0191 17.748C14.9151 17.508 13.9911 17.4 13.2471 17.424C12.5271 17.424 11.9991 17.472 11.6631 17.568C11.1111 17.736 10.7391 17.808 10.5471 17.784C10.3551 17.76 10.1991 17.652 10.0791 17.46C9.91112 17.196 9.92312 16.944 10.1151 16.704C10.3311 16.464 10.7151 16.284 11.2671 16.164C11.4351 16.116 11.7111 16.02 12.0951 15.876C12.5031 15.732 12.9711 15.564 13.4991 15.372C13.8591 15.18 13.9911 15.036 13.8951 14.94C13.8231 14.82 13.6551 14.784 13.3911 14.832C13.0311 14.832 12.5991 14.856 12.0951 14.904C11.6151 14.952 11.2431 15.012 10.9791 15.084C10.3551 15.276 9.93512 15.348 9.71912 15.3C9.52712 15.228 9.40712 15.024 9.35912 14.688C9.28712 14.184 9.35912 13.848 9.57512 13.68C9.81512 13.488 10.2591 13.344 10.9071 13.248C11.1951 13.152 11.5671 13.056 12.0231 12.96C12.5031 12.84 12.9831 12.72 13.4631 12.6C13.7271 12.552 13.7271 12.456 13.4631 12.312C13.2951 12.192 13.2351 12.072 13.2831 11.952C13.3311 11.832 13.4871 11.796 13.7511 11.844C14.0151 11.916 14.2551 11.916 14.4711 11.844C14.8311 11.724 14.8191 11.664 14.4351 11.664C14.2911 11.664 14.1831 11.652 14.1111 11.628C13.5591 11.58 13.0791 11.544 12.6711 11.52C12.2871 11.496 11.9031 11.496 11.5191 11.52C11.1591 11.52 10.7511 11.544 10.2951 11.592C9.86312 11.64 9.33512 11.712 8.71112 11.808C8.59112 11.832 8.48312 11.856 8.38712 11.88C8.29112 11.904 8.15912 11.952 7.99112 12.024C7.87112 12.072 7.76312 12.12 7.66712 12.168C7.57112 12.216 7.47512 12.252 7.37912 12.276C7.01912 12.372 6.76712 12.396 6.62312 12.348C6.47912 12.276 6.31112 12.108 6.11912 11.844C5.99912 11.724 5.92712 11.592 5.90312 11.448C5.90312 11.28 5.98712 11.052 6.15512 10.764C6.20312 10.668 6.26312 10.524 6.33512 10.332C6.43112 10.14 6.52712 9.888 6.62312 9.576C6.67112 9.432 6.63512 9.348 6.51512 9.324C6.39512 9.276 6.11912 9.276 5.68712 9.324C5.47112 9.372 5.21912 9.432 4.93112 9.504C4.66712 9.576 4.39112 9.648 4.10312 9.72C3.83912 9.792 3.58712 9.864 3.34712 9.936C3.13112 9.984 2.96312 10.032 2.84312 10.08C2.21912 10.368 1.72712 10.476 1.36712 10.404C1.00712 10.308 0.839122 9.96 0.863122 9.36C0.887122 9.096 1.00712 8.844 1.22312 8.604C1.46312 8.364 1.73912 8.172 2.05112 8.028C2.38712 7.86 2.73512 7.74 3.09512 7.668C3.47912 7.596 3.81512 7.596 4.10312 7.668C4.36712 7.74 4.60712 7.8 4.82312 7.848C5.03912 7.872 5.26712 7.86 5.50712 7.812C5.77112 7.764 6.19112 7.764 6.76712 7.812C6.86312 7.812 6.94712 7.788 7.01912 7.74C7.11512 7.692 7.17512 7.596 7.19912 7.452C7.31912 7.02 7.35512 6.744 7.30712 6.624C7.28312 6.192 7.29512 5.892 7.34312 5.724C7.39112 5.532 7.43912 5.412 7.48712 5.364C7.75112 5.148 8.03912 5.052 8.35112 5.076C8.66312 5.076 8.99912 5.16 9.35912 5.328C9.45512 5.376 9.56312 5.424 9.68312 5.472C9.80312 5.496 9.89912 5.496 9.97112 5.472C10.4271 5.4 10.8831 5.34 11.3391 5.292C11.7951 5.244 12.2151 5.22 12.5991 5.22C13.0071 5.196 13.3671 5.196 13.6791 5.22C13.9911 5.244 14.2191 5.292 14.3631 5.364C14.7711 5.508 15.0711 5.592 15.2631 5.616C15.4551 5.616 15.6351 5.544 15.8031 5.4C15.9471 5.28 16.1511 5.22 16.4151 5.22C16.7031 5.22 16.9671 5.28 17.2071 5.4C17.4951 5.544 17.6871 5.64 17.7831 5.688C17.9031 5.736 17.9991 5.736 18.0711 5.688C18.6471 5.304 19.1151 4.848 19.4751 4.32C19.8351 3.768 20.0871 3.06 20.2311 2.196C20.3271 1.572 20.4951 1.188 20.7351 1.044C20.9751 0.899998 21.3591 0.875998 21.8871 0.971998C22.2231 1.044 22.4991 1.272 22.7151 1.656C22.9551 2.016 23.0151 2.4 22.8951 2.808C22.8711 2.88 22.8831 2.964 22.9311 3.06C22.9791 3.132 23.0631 3.168 23.1831 3.168C24.4071 3.192 25.5711 3.216 26.6751 3.24C27.7791 3.24 28.9071 3.216 30.0591 3.168C30.3951 3.168 30.6711 3.24 30.8871 3.384C31.1031 3.528 31.2231 3.708 31.2471 3.924C31.2711 4.26 31.1511 4.488 30.8871 4.608C30.6471 4.728 30.1071 4.812 29.2671 4.86C29.0751 4.86 28.8471 4.86 28.5831 4.86C28.3191 4.86 28.0191 4.872 27.6831 4.896C27.4671 4.896 27.3231 4.932 27.2511 5.004C27.1791 5.052 27.1431 5.136 27.1431 5.256C27.1671 5.592 27.1431 5.916 27.0711 6.228C26.9991 6.516 26.9151 6.792 26.8191 7.056C26.7711 7.152 26.7711 7.26 26.8191 7.38C26.8671 7.476 26.9511 7.548 27.0711 7.596C28.3911 7.932 29.6511 8.22 30.8511 8.46C32.0751 8.676 33.2631 8.88 34.4151 9.072C34.6551 9.12 34.7991 9.18 34.8471 9.252C34.8951 9.324 34.8591 9.492 34.7391 9.756ZM18.6111 3.564C18.6351 3.828 18.5391 4.032 18.3231 4.176C18.1071 4.296 17.6871 4.368 17.0631 4.392C15.3351 4.416 13.7631 4.452 12.3471 4.5C10.9551 4.548 9.74312 4.596 8.71112 4.644C8.42312 4.644 8.19512 4.692 8.02712 4.788C7.81112 4.908 7.55912 5.04 7.27112 5.184C7.00712 5.328 6.69512 5.484 6.33512 5.652C5.90312 5.844 5.59112 5.94 5.39912 5.94C5.23112 5.94 5.05112 5.844 4.85912 5.652C4.73912 5.532 4.66712 5.412 4.64312 5.292C4.61912 5.148 4.66712 5.04 4.78712 4.968C5.45912 4.56 6.05912 4.092 6.58712 3.564C7.13912 3.036 7.61912 2.508 8.02712 1.98C8.24312 1.716 8.42312 1.512 8.56712 1.368C8.71112 1.224 8.84312 1.128 8.96312 1.08C9.10712 1.032 9.25112 1.032 9.39512 1.08C9.56312 1.104 9.77912 1.164 10.0431 1.26C10.8831 1.668 11.1831 2.088 10.9431 2.52C10.8231 2.712 10.9551 2.808 11.3391 2.808C11.9631 2.808 12.5151 2.808 12.9951 2.808C13.4991 2.808 13.9791 2.82 14.4351 2.844C14.8911 2.844 15.3471 2.856 15.8031 2.88C16.2591 2.904 16.7751 2.928 17.3511 2.952C17.9031 2.952 18.2391 3 18.3591 3.096C18.4791 3.192 18.5631 3.348 18.6111 3.564ZM31.4631 21.744C31.1271 22.152 30.4671 22.248 29.4831 22.032C28.4511 21.816 27.4551 21.54 26.4951 21.204C25.5591 20.868 24.4791 20.424 23.2551 19.872C22.5591 19.536 22.1751 19.188 22.1031 18.828C22.0311 18.444 22.1631 18.096 22.4991 17.784C22.8351 17.472 23.1711 17.328 23.5071 17.352C23.8671 17.352 24.2871 17.532 24.7671 17.892C24.8391 17.94 25.1151 18.084 25.5951 18.324C26.0751 18.54 26.6391 18.804 27.2871 19.116C27.9591 19.428 28.6551 19.752 29.3751 20.088C30.0951 20.4 30.7191 20.676 31.2471 20.916C31.7271 21.18 31.7991 21.456 31.4631 21.744ZM13.8231 18.144C14.2071 18.504 14.3271 18.828 14.1831 19.116C14.0631 19.404 13.7151 19.716 13.1391 20.052C12.8751 20.172 12.5991 20.292 12.3111 20.412C12.0471 20.508 11.6991 20.628 11.2671 20.772C10.8351 20.892 10.2591 21.036 9.53912 21.204C8.84312 21.348 7.93112 21.528 6.80312 21.744C6.29912 21.84 5.90312 21.912 5.61512 21.96C5.32712 22.008 5.09912 22.032 4.93112 22.032C4.78712 22.032 4.66712 22.008 4.57112 21.96C4.49912 21.912 4.41512 21.84 4.31912 21.744C4.15112 21.528 4.07912 21.372 4.10312 21.276C4.12712 21.18 4.23512 21.108 4.42712 21.06C6.22712 20.58 7.66712 20.1 8.74712 19.62C9.85112 19.14 10.7511 18.672 11.4471 18.216C11.7351 17.976 12.1311 17.856 12.6351 17.856C13.1631 17.832 13.5591 17.928 13.8231 18.144ZM21.1671 5.184C20.9031 5.448 20.6391 5.7 20.3751 5.94C20.1111 6.18 19.8471 6.408 19.5831 6.624C19.1271 7.008 18.6471 7.176 18.1431 7.128C17.9511 7.08 17.8191 7.14 17.7471 7.308C17.6511 7.644 17.8791 7.836 18.4311 7.884C18.9831 7.884 19.3671 7.944 19.5831 8.064C19.7991 8.184 19.8711 8.316 19.7991 8.46C19.6551 8.748 19.4991 8.94 19.3311 9.036C19.1871 9.132 18.9111 9.168 18.5031 9.144C18.3831 9.144 18.2751 9.144 18.1791 9.144C18.0831 9.144 17.9751 9.132 17.8551 9.108C17.5431 9.108 17.3751 9.228 17.3511 9.468C17.3271 9.588 17.3151 9.684 17.3151 9.756C17.3151 9.804 17.3031 9.888 17.2791 10.008C17.2551 10.176 17.3151 10.284 17.4591 10.332C18.1551 10.452 18.4071 10.62 18.2151 10.836C18.0471 11.052 17.9031 11.208 17.7831 11.304C17.6631 11.376 17.5071 11.436 17.3151 11.484C17.2191 11.508 17.1711 11.532 17.1711 11.556C17.1711 11.58 17.2071 11.592 17.2791 11.592C17.4711 11.544 17.6871 11.472 17.9271 11.376C18.1671 11.28 18.3471 11.184 18.4671 11.088C18.6111 10.992 18.6231 10.884 18.5031 10.764C18.3351 10.668 18.2031 10.536 18.1071 10.368C17.8431 10.008 17.9511 9.792 18.4311 9.72C19.5591 9.552 20.4351 9.372 21.0591 9.18C21.6831 8.964 22.2471 8.676 22.7511 8.316C22.8471 8.268 22.8951 8.208 22.8951 8.136C22.9191 8.04 22.8591 7.944 22.7151 7.848C22.0911 7.44 21.6471 7.188 21.3831 7.092C21.1431 6.972 20.9391 6.888 20.7711 6.84C20.5791 6.792 20.4351 6.696 20.3391 6.552C20.2671 6.408 20.3631 6.228 20.6271 6.012C20.8191 5.844 21.0111 5.76 21.2031 5.76C21.4191 5.736 21.6231 5.76 21.8151 5.832C22.1031 5.952 22.3911 6.072 22.6791 6.192C22.9911 6.288 23.3271 6.408 23.6871 6.552C23.9271 6.576 24.0831 6.504 24.1551 6.336C24.2751 6 24.3111 5.628 24.2631 5.22C24.2631 5.148 24.2391 5.076 24.1911 5.004C24.1431 4.932 24.0591 4.896 23.9391 4.896C23.6031 4.92 23.2551 4.932 22.8951 4.932C22.5591 4.908 22.2111 4.896 21.8511 4.896C21.7311 4.92 21.6111 4.944 21.4911 4.968C21.3951 4.992 21.2871 5.064 21.1671 5.184ZM9.89912 10.332C10.2351 10.308 10.5351 10.296 10.7991 10.296C11.0871 10.272 11.3631 10.26 11.6271 10.26C11.6031 10.26 11.5911 10.248 11.5911 10.224C11.3751 10.104 11.2311 9.924 11.1591 9.684C11.1111 9.444 11.1831 9.228 11.3751 9.036H10.0791C9.67112 9.06 9.39512 9.096 9.25112 9.144C9.13112 9.192 9.04712 9.288 8.99912 9.432C8.90312 9.816 8.91512 10.068 9.03512 10.188C9.17912 10.308 9.46712 10.356 9.89912 10.332ZM13.4271 9.9C13.5471 10.068 13.5951 10.188 13.5711 10.26H14.7591C15.0471 10.212 15.2271 10.044 15.2991 9.756C15.3711 9.324 15.2871 9.108 15.0471 9.108C14.6391 9.084 14.2431 9.072 13.8591 9.072C13.4751 9.072 13.0791 9.06 12.6711 9.036C12.6951 9.06 12.7071 9.084 12.7071 9.108C12.7311 9.132 12.7551 9.156 12.7791 9.18C12.9711 9.468 13.1871 9.708 13.4271 9.9ZM13.5711 7.452C13.6911 7.572 13.7271 7.692 13.6791 7.812H15.1191C15.3831 7.812 15.5031 7.656 15.4791 7.344C15.4791 7.104 15.4431 6.936 15.3711 6.84C15.2991 6.744 15.1311 6.684 14.8671 6.66C14.5071 6.636 14.1711 6.624 13.8591 6.624C13.5471 6.624 13.2471 6.612 12.9591 6.588C12.9831 6.612 12.9951 6.636 12.9951 6.66C12.9951 6.66 13.0071 6.672 13.0311 6.696C13.1271 6.96 13.3071 7.212 13.5711 7.452ZM12.0951 7.776C11.9751 7.752 11.8551 7.68 11.7351 7.56C11.3751 7.272 11.2911 6.948 11.4831 6.588C11.3871 6.588 11.2911 6.6 11.1951 6.624C11.1231 6.624 11.0391 6.624 10.9431 6.624C10.8231 6.624 10.6911 6.636 10.5471 6.66C10.4271 6.66 10.3071 6.672 10.1871 6.696C10.0191 6.696 9.86312 6.9 9.71912 7.308C9.67112 7.476 9.68312 7.596 9.75512 7.668C9.82712 7.716 10.0671 7.752 10.4751 7.776H12.0951ZM68.4351 17.82C68.6271 19.068 68.6151 20.064 68.3991 20.808C68.1831 21.528 67.6431 22.056 66.7791 22.392C66.2031 22.608 65.7471 22.752 65.4111 22.824C65.0751 22.896 64.8231 22.836 64.6551 22.644C64.5111 22.476 64.4271 22.164 64.4031 21.708C64.3791 21.228 64.4031 20.556 64.4751 19.692C64.4991 19.308 64.5231 18.804 64.5471 18.18C64.5711 17.556 64.5831 16.872 64.5831 16.128C64.5831 15.384 64.5831 14.616 64.5831 13.824C64.5831 13.008 64.5711 12.252 64.5471 11.556C64.5471 10.836 64.5351 10.2 64.5111 9.648C64.5111 9.096 64.4991 8.676 64.4751 8.388C64.4271 7.98 64.3551 7.728 64.2591 7.632C64.1631 7.512 64.0191 7.428 63.8271 7.38C63.3951 7.308 62.6151 7.248 61.4871 7.2C60.3591 7.152 59.0151 7.14 57.4551 7.164C57.1911 7.164 56.9871 7.38 56.8431 7.812C56.7951 8.004 56.7711 8.172 56.7711 8.316C56.7711 8.436 56.8311 8.568 56.9511 8.712C57.2871 9.096 57.6831 9.504 58.1391 9.936C58.5951 10.344 59.0751 10.764 59.5791 11.196C60.0831 11.628 60.5871 12.048 61.0911 12.456C61.6191 12.84 62.1231 13.2 62.6031 13.536C62.9871 13.8 63.2751 14.04 63.4671 14.256C63.6831 14.448 63.8151 14.628 63.8631 14.796C63.9351 14.94 63.9351 15.096 63.8631 15.264C63.7911 15.432 63.6711 15.612 63.5031 15.804C62.9271 16.476 62.1711 16.512 61.2351 15.912C60.8751 15.672 60.5391 15.444 60.2271 15.228C59.9151 15.012 59.5671 14.736 59.1831 14.4C58.7991 14.04 58.3431 13.608 57.8151 13.104C57.3111 12.576 56.6631 11.892 55.8711 11.052C55.7271 10.86 55.5711 10.908 55.4031 11.196C54.8511 12.276 54.2031 13.248 53.4591 14.112C52.7391 14.952 51.9711 15.636 51.1551 16.164C50.7471 16.428 50.3391 16.608 49.9311 16.704C49.5231 16.8 49.1391 16.812 48.7791 16.74C48.4191 16.668 48.0951 16.524 47.8071 16.308C47.5431 16.068 47.3511 15.756 47.2311 15.372C47.1831 15.252 47.1711 15.156 47.1951 15.084C47.2191 15.012 47.3031 14.952 47.4471 14.904C49.0791 14.352 50.4231 13.476 51.4791 12.276C52.5351 11.052 53.2431 9.54 53.6031 7.74C53.6751 7.38 53.5191 7.2 53.1351 7.2C52.1511 7.224 51.1791 7.26 50.2191 7.308C49.2831 7.332 48.3111 7.38 47.3031 7.452C47.0871 7.452 46.9791 7.572 46.9791 7.812C46.9551 8.652 46.9431 9.492 46.9431 10.332C46.9671 11.148 47.0031 11.76 47.0511 12.168C47.1951 13.872 46.9671 15.48 46.3671 16.992C45.7911 18.48 44.8671 19.68 43.5951 20.592C42.2031 21.6 40.9311 22.044 39.7791 21.924C38.6511 21.78 37.7631 21.12 37.1151 19.944C36.9231 19.608 36.9951 19.404 37.3311 19.332C38.7951 19.044 40.0671 18.588 41.1471 17.964C42.2511 17.316 42.9831 16.584 43.3431 15.768C43.5831 15.24 43.7631 14.628 43.8831 13.932C44.0031 13.212 44.0631 12.492 44.0631 11.772C44.0871 11.052 44.0631 10.368 43.9911 9.72C43.9191 9.072 43.8111 8.532 43.6671 8.1C43.4031 7.332 43.2831 6.72 43.3071 6.264C43.3311 5.808 43.5111 5.424 43.8471 5.112C44.2071 4.776 44.6031 4.62 45.0351 4.644C45.4911 4.644 45.8991 4.812 46.2591 5.148C46.3551 5.244 46.4631 5.292 46.5831 5.292C47.7831 5.172 48.9471 5.088 50.0751 5.04C51.2031 4.968 52.3311 4.908 53.4591 4.86C53.7711 4.86 53.9031 4.704 53.8551 4.392C53.8071 3.936 53.7351 3.516 53.6391 3.132C53.5431 2.724 53.4231 2.364 53.2791 2.052C53.2071 1.884 53.1951 1.704 53.2431 1.512C53.2911 1.32 53.3991 1.164 53.5671 1.044C53.7591 0.899998 54.0111 0.803998 54.3231 0.755999C54.6351 0.707999 54.9951 0.731999 55.4031 0.827998C56.0991 0.995999 56.6511 1.344 57.0591 1.872C57.4671 2.376 57.6111 3.132 57.4911 4.14C57.4191 4.596 57.5511 4.824 57.8871 4.824C58.7991 4.848 59.7111 4.884 60.6231 4.932C61.5591 4.98 62.5311 5.04 63.5391 5.112C63.8511 5.136 64.1031 5.124 64.2951 5.076C64.4871 5.028 64.7031 4.92 64.9431 4.752C65.2791 4.512 65.5911 4.38 65.8791 4.356C66.1671 4.332 66.4791 4.44 66.8151 4.68C67.2231 4.968 67.5471 5.244 67.7871 5.508C68.0271 5.772 68.1951 6.084 68.2911 6.444C68.3871 6.804 68.4231 7.236 68.3991 7.74C68.3751 8.22 68.3031 8.82 68.1831 9.54C68.1111 9.948 68.0751 10.512 68.0751 11.232C68.0751 11.928 68.0871 12.684 68.1111 13.5C68.1351 14.316 68.1711 15.12 68.2191 15.912C68.2911 16.68 68.3631 17.316 68.4351 17.82ZM103.139 1.44C103.307 1.896 103.307 2.256 103.139 2.52C102.995 2.76 102.635 2.976 102.059 3.168C101.699 3.288 101.363 3.384 101.051 3.456C100.739 3.528 100.379 3.612 99.9711 3.708C99.6351 3.78 99.4191 3.72 99.3231 3.528C99.2511 3.336 99.3591 3.108 99.6471 2.844C99.8151 2.7 100.055 2.472 100.367 2.16C100.703 1.824 101.027 1.5 101.339 1.188C101.675 0.852 102.011 0.731999 102.347 0.827998C102.755 0.923998 103.019 1.128 103.139 1.44ZM87.6951 17.136C87.8631 16.176 87.9951 15.144 88.0911 14.04C88.2111 12.936 88.2831 11.892 88.3071 10.908C88.3311 9.924 88.3191 9.072 88.2711 8.352C88.2231 7.608 88.1271 7.128 87.9831 6.912C87.6471 6.36 87.5151 5.844 87.5871 5.364C87.6591 4.884 87.8751 4.512 88.2351 4.248C88.3791 4.128 88.6311 4.056 88.9911 4.032C89.3751 3.984 89.7231 4.092 90.0351 4.356C90.2031 4.5 90.4431 4.572 90.7551 4.572C91.7151 4.548 92.5551 4.536 93.2751 4.536C93.9951 4.512 94.7031 4.5 95.3991 4.5C95.5911 4.5 95.7231 4.452 95.7951 4.356C95.8671 4.236 95.8791 3.936 95.8311 3.456C95.7831 2.88 95.7711 2.412 95.7951 2.052C95.8191 1.668 95.8791 1.38 95.9751 1.188C96.0711 0.972 96.2031 0.827999 96.3711 0.755999C96.5391 0.683998 96.7551 0.647998 97.0191 0.647998C97.5951 0.647998 98.0151 0.851998 98.2791 1.26C98.5431 1.644 98.6151 2.34 98.4951 3.348C98.4471 3.756 98.4471 4.02 98.4951 4.14C98.5671 4.26 98.6631 4.32 98.7831 4.32C99.4791 4.272 100.115 4.26 100.691 4.284C101.267 4.284 101.759 4.284 102.167 4.284C103.031 4.308 103.511 4.608 103.607 5.184C103.679 5.52 103.607 5.772 103.391 5.94C103.199 6.084 102.827 6.192 102.275 6.264C101.963 6.312 101.471 6.36 100.799 6.408C100.151 6.432 99.4791 6.456 98.7831 6.48C98.6631 6.504 98.5671 6.588 98.4951 6.732C98.4471 6.852 98.4351 6.972 98.4591 7.092C98.5311 7.86 98.6391 8.64 98.7831 9.432C98.9271 10.2 99.1191 10.956 99.3591 11.7C99.4551 11.964 99.5631 12.096 99.6831 12.096C99.8271 12.096 99.9351 11.964 100.007 11.7C100.103 11.388 100.175 11.064 100.223 10.728C100.295 10.392 100.343 10.08 100.367 9.792C100.415 8.952 100.511 8.376 100.655 8.064C100.799 7.752 101.027 7.536 101.339 7.416C101.963 7.176 102.407 7.344 102.671 7.92C102.959 8.592 102.899 9.624 102.491 11.016C102.227 11.952 101.975 12.708 101.735 13.284C101.519 13.836 101.303 14.316 101.087 14.724C101.015 14.892 101.027 15.024 101.123 15.12C101.627 15.768 102.107 16.32 102.563 16.776C103.043 17.232 103.511 17.616 103.967 17.928C104.447 18.216 104.939 18.444 105.443 18.612C105.971 18.78 106.535 18.9 107.135 18.972C107.375 19.02 107.531 19.152 107.603 19.368C107.675 19.56 107.651 19.764 107.531 19.98C107.027 21.012 106.055 21.768 104.615 22.248C104.207 22.392 103.847 22.476 103.535 22.5C103.247 22.548 102.947 22.512 102.635 22.392C102.347 22.248 102.047 22.032 101.735 21.744C101.423 21.432 101.063 21 100.655 20.448C100.463 20.184 100.271 19.908 100.079 19.62C99.8871 19.308 99.7191 18.972 99.5751 18.612C99.4311 18.348 99.3111 18.204 99.2151 18.18C99.1431 18.156 99.0111 18.276 98.8191 18.54C98.5311 18.972 98.1591 19.38 97.7031 19.764C97.1991 20.172 96.7551 20.484 96.3711 20.7C96.0111 20.916 95.6871 21.048 95.3991 21.096C95.1111 21.144 94.8471 21.12 94.6071 21.024C94.3671 20.904 94.1271 20.736 93.8871 20.52C93.7191 20.376 93.6591 20.196 93.7071 19.98C93.7551 19.74 93.9231 19.572 94.2111 19.476C94.3791 19.428 94.5231 19.368 94.6431 19.296C94.7871 19.224 94.9071 19.164 95.0031 19.116C95.4111 18.78 95.6391 18.54 95.6871 18.396C95.7351 18.228 95.7111 18.12 95.6151 18.072C95.2071 17.856 94.8471 17.724 94.5351 17.676C94.2471 17.604 93.8031 17.604 93.2031 17.676C93.0831 17.676 92.9991 17.724 92.9511 17.82C92.8311 18.06 92.6751 18.228 92.4831 18.324C92.2911 18.396 92.1111 18.408 91.9431 18.36C91.6791 18.264 91.4751 18.072 91.3311 17.784C91.2111 17.472 91.1631 17.004 91.1871 16.38C91.2111 15.828 91.2111 15.336 91.1871 14.904C91.1871 14.448 91.1751 14.064 91.1511 13.752C91.1031 12.912 91.2351 12.396 91.5471 12.204C91.8831 12.012 92.1711 11.964 92.4111 12.06C92.5071 12.108 92.6151 12.132 92.7351 12.132C92.8551 12.132 92.9511 12.132 93.0231 12.132C93.7911 12.156 94.3791 12.156 94.7871 12.132C95.2191 12.108 95.5431 12.072 95.7591 12.024C96.2391 11.904 96.5631 12.096 96.7311 12.6C96.8271 12.864 96.8391 13.296 96.7671 13.896C96.7191 14.208 96.6951 14.568 96.6951 14.976C96.6951 15.384 96.7071 15.828 96.7311 16.308C96.7551 16.74 96.7911 17.004 96.8391 17.1C96.9111 17.172 97.0311 17.136 97.1991 16.992C97.3191 16.872 97.4271 16.764 97.5231 16.668C97.6191 16.572 97.7271 16.416 97.8471 16.2C97.9911 15.96 98.0751 15.768 98.0991 15.624C98.1471 15.456 98.1351 15.252 98.0631 15.012C97.9911 14.772 97.8951 14.472 97.7751 14.112C97.6791 13.728 97.5711 13.32 97.4511 12.888C97.3551 12.456 97.2471 12.024 97.1271 11.592C97.0311 11.16 96.9351 10.752 96.8391 10.368C96.7671 10.104 96.5871 9.984 96.2991 10.008C94.6431 10.248 92.8191 10.356 90.8271 10.332C90.6111 10.332 90.5031 10.488 90.5031 10.8C90.5031 11.064 90.4911 11.412 90.4671 11.844C90.4671 12.276 90.4671 12.684 90.4671 13.068C90.4671 15.276 90.3231 17.076 90.0351 18.468C89.7471 19.86 89.3031 20.928 88.7031 21.672C88.1511 22.296 87.6351 22.584 87.1551 22.536C86.6751 22.488 86.1951 22.152 85.7151 21.528C85.4991 21.264 85.3911 21.048 85.3911 20.88C85.4151 20.688 85.5231 20.52 85.7151 20.376C86.2911 19.968 86.7231 19.536 87.0111 19.08C87.2991 18.624 87.5271 17.976 87.6951 17.136ZM96.4071 8.208C96.3351 7.776 96.2991 7.38 96.2991 7.02C96.2751 6.804 96.2151 6.672 96.1191 6.624C96.0231 6.552 95.8791 6.516 95.6871 6.516C95.1351 6.516 94.4151 6.528 93.5271 6.552C92.6631 6.576 91.8351 6.612 91.0431 6.66C90.7791 6.66 90.6471 6.792 90.6471 7.056C90.6471 7.2 90.6351 7.38 90.6111 7.596C90.6111 7.788 90.6111 8.016 90.6111 8.28C90.6111 8.544 90.7791 8.664 91.1151 8.64C91.8591 8.592 92.6271 8.568 93.4191 8.568C94.2351 8.568 95.0511 8.592 95.8671 8.64C96.2511 8.64 96.4311 8.496 96.4071 8.208ZM94.9671 15.228C94.9671 15.036 94.9671 14.856 94.9671 14.688C94.9671 14.52 94.9551 14.328 94.9311 14.112C94.9071 13.872 94.7751 13.728 94.5351 13.68C94.1511 13.632 93.7551 13.644 93.3471 13.716C93.1311 13.764 93.0231 13.872 93.0231 14.04C93.0231 14.376 93.0111 14.676 92.9871 14.94C92.9871 15.204 92.9991 15.48 93.0231 15.768C93.0231 15.984 93.1311 16.104 93.3471 16.128C93.6591 16.176 94.0551 16.128 94.5351 15.984C94.8231 15.888 94.9671 15.636 94.9671 15.228ZM87.2271 6.12C87.3951 6.336 87.4791 6.54 87.4791 6.732C87.5031 6.924 87.4551 7.08 87.3351 7.2C87.2391 7.296 87.0831 7.344 86.8671 7.344C86.6511 7.344 86.3991 7.248 86.1111 7.056C85.7751 6.84 85.4031 6.576 84.9951 6.264C84.6111 5.952 84.2511 5.628 83.9151 5.292C83.6511 5.052 83.4351 4.92 83.2671 4.896C83.0991 4.848 82.9791 4.872 82.9071 4.968C82.2111 5.808 81.5031 6.54 80.7831 7.164C80.0871 7.788 79.3551 8.34 78.5871 8.82C77.6751 9.396 76.9311 9.66 76.3551 9.612C75.8031 9.564 75.3111 9.204 74.8791 8.532C74.5431 8.028 74.4471 7.62 74.5911 7.308C74.7351 6.972 75.0111 6.78 75.4191 6.732C76.2591 6.612 77.0151 6.408 77.6871 6.12C78.3831 5.808 78.9711 5.424 79.4511 4.968C80.0751 4.416 80.5551 3.912 80.8911 3.456C81.2271 2.976 81.4911 2.424 81.6831 1.8C81.8991 1.152 82.1871 0.743998 82.5471 0.575999C82.9311 0.407998 83.3151 0.431998 83.6991 0.647998C84.4431 1.08 84.6591 1.74 84.3471 2.628C84.3231 2.772 84.3711 2.904 84.4911 3.024C84.9231 3.456 85.3431 3.912 85.7511 4.392C86.1831 4.872 86.6751 5.448 87.2271 6.12ZM87.2991 18.108C87.3231 18.372 87.1551 18.624 86.7951 18.864C86.4351 19.08 85.8831 19.224 85.1391 19.296C84.9951 19.32 84.7191 19.368 84.3111 19.44C83.9031 19.512 83.4351 19.608 82.9071 19.728C82.4031 19.824 81.8631 19.944 81.2871 20.088C80.7351 20.208 80.2431 20.316 79.8111 20.412C79.5231 20.484 79.1751 20.592 78.7671 20.736C78.3831 20.88 77.9991 21.06 77.6151 21.276C77.0151 21.612 76.5711 21.768 76.2831 21.744C76.0191 21.696 75.8391 21.564 75.7431 21.348C75.6231 21.06 75.5751 20.772 75.5991 20.484C75.6471 20.196 75.8031 19.836 76.0671 19.404C76.3311 18.972 76.5711 18.696 76.7871 18.576C77.0271 18.456 77.2551 18.456 77.4711 18.576C77.6151 18.648 77.8431 18.684 78.1551 18.684C78.4911 18.66 78.9591 18.564 79.5591 18.396C79.7511 18.348 79.8351 18.264 79.8111 18.144C79.8111 18 79.7271 17.928 79.5591 17.928C79.1511 17.904 78.8391 17.832 78.6231 17.712C78.4311 17.592 78.2031 17.364 77.9391 17.028C77.4591 16.428 77.4351 15.852 77.8671 15.3C78.2271 14.868 78.5991 14.7 78.9831 14.796C79.3671 14.892 79.6191 15.216 79.7391 15.768C79.8351 16.248 79.9431 16.632 80.0631 16.92C80.1831 17.184 80.3391 17.448 80.5311 17.712C80.7471 18 80.9031 18.132 80.9991 18.108C81.1431 18.084 81.2151 17.964 81.2151 17.748C81.2151 17.556 81.2151 17.316 81.2151 17.028C81.2391 16.74 81.2511 16.44 81.2511 16.128C81.2751 15.792 81.2871 15.468 81.2871 15.156C81.3111 14.844 81.3231 14.568 81.3231 14.328C81.3231 14.064 81.2031 13.932 80.9631 13.932C80.5311 13.956 80.1831 14.004 79.9191 14.076C79.6791 14.124 79.3671 14.22 78.9831 14.364C78.3111 14.652 77.8911 14.664 77.7231 14.4C77.5551 14.16 77.4831 13.908 77.5071 13.644C77.5551 13.38 77.7231 13.044 78.0111 12.636C78.3711 12.132 78.7191 11.94 79.0551 12.06C79.3671 12.156 79.6431 12.192 79.8831 12.168C80.0271 12.12 80.1831 12.096 80.3511 12.096C80.5431 12.096 80.7591 12.096 80.9991 12.096C81.2151 12.096 81.3231 11.976 81.3231 11.736C81.3231 11.472 81.3231 11.232 81.3231 11.016C81.3231 10.776 81.3111 10.536 81.2871 10.296C81.2631 10.08 81.1311 9.972 80.8911 9.972C80.5551 9.996 80.2671 10.044 80.0271 10.116C79.8111 10.164 79.5471 10.26 79.2351 10.404C78.9951 10.524 78.7911 10.56 78.6231 10.512C78.4551 10.464 78.3471 10.368 78.2991 10.224C78.2511 10.056 78.2631 9.852 78.3351 9.612C78.4311 9.372 78.6111 9.108 78.8751 8.82C79.4991 8.196 79.9911 7.98 80.3511 8.172C80.5191 8.244 80.6511 8.292 80.7471 8.316C80.8431 8.316 81.0111 8.292 81.2511 8.244C81.4671 8.196 81.9231 8.172 82.6191 8.172C83.3151 8.172 84.2031 8.196 85.2831 8.244C85.9071 8.268 86.3151 8.328 86.5071 8.424C86.6991 8.496 86.8431 8.664 86.9391 8.928C87.0831 9.36 87.0591 9.696 86.8671 9.936C86.6751 10.176 86.2431 10.248 85.5711 10.152C85.4511 10.128 85.2231 10.116 84.8871 10.116C84.5511 10.092 84.2751 10.056 84.0591 10.008C83.8191 9.984 83.6991 10.104 83.6991 10.368V11.736C83.6991 11.976 83.8071 12.108 84.0231 12.132C84.2631 12.18 84.5751 12.204 84.9591 12.204C85.3671 12.204 85.6431 12.216 85.7871 12.24C86.3871 12.288 86.7831 12.384 86.9751 12.528C87.1671 12.672 87.2511 12.912 87.2271 13.248C87.2031 13.536 87.0831 13.752 86.8671 13.896C86.6751 14.04 86.2791 14.088 85.6791 14.04C85.4871 14.016 85.2111 14.004 84.8511 14.004C84.5151 13.98 84.2391 13.968 84.0231 13.968C83.8071 13.968 83.6991 14.088 83.6991 14.328C83.6991 14.664 83.6871 15.048 83.6631 15.48C83.6391 15.888 83.6151 16.392 83.5911 16.992C83.5911 17.208 83.6631 17.352 83.8071 17.424C83.9511 17.472 84.0711 17.448 84.1671 17.352C84.7191 16.848 85.1031 16.188 85.3191 15.372C85.4391 14.892 85.6791 14.604 86.0391 14.508C86.3991 14.388 86.7111 14.496 86.9751 14.832C87.3111 15.192 87.4551 15.552 87.4071 15.912C87.3591 16.272 87.1311 16.572 86.7231 16.812C86.5311 16.932 86.3391 17.028 86.1471 17.1C85.9791 17.148 85.7631 17.22 85.4991 17.316C85.3791 17.364 85.3191 17.412 85.3191 17.46C85.3431 17.508 85.4271 17.52 85.5711 17.496C86.3391 17.4 86.8071 17.388 86.9751 17.46C87.1671 17.532 87.2751 17.748 87.2991 18.108ZM139.139 10.08C139.019 10.464 138.863 10.716 138.671 10.836C138.479 10.956 138.215 10.992 137.879 10.944C137.135 10.824 136.319 10.656 135.431 10.44C134.567 10.2 133.667 9.924 132.731 9.612C131.795 9.276 130.859 8.928 129.923 8.568C128.987 8.184 128.099 7.788 127.259 7.38C127.043 7.284 126.791 7.32 126.503 7.488C125.831 7.944 125.027 8.424 124.091 8.928C123.179 9.408 122.003 9.972 120.563 10.62C119.315 11.172 118.247 11.544 117.359 11.736C116.495 11.904 115.787 11.94 115.235 11.844C114.707 11.724 114.323 11.496 114.083 11.16C113.843 10.8 113.747 10.38 113.795 9.9C113.819 9.54 114.059 9.36 114.515 9.36C114.947 9.384 115.655 9.264 116.639 9C117.647 8.736 118.751 8.376 119.951 7.92C121.175 7.464 122.423 6.924 123.695 6.3C124.967 5.676 126.107 5.016 127.115 4.32C127.379 4.128 127.499 3.948 127.475 3.78C127.475 3.612 127.283 3.48 126.899 3.384C126.707 3.336 126.503 3.312 126.287 3.312C126.071 3.288 125.723 3.3 125.243 3.348C124.931 3.372 124.715 3.432 124.595 3.528C122.627 4.728 120.971 5.568 119.627 6.048C118.283 6.504 117.059 6.756 115.955 6.804C115.163 6.852 114.695 6.492 114.551 5.724C114.503 5.412 114.527 5.148 114.623 4.932C114.719 4.692 114.899 4.548 115.163 4.5C117.275 4.236 119.087 3.78 120.599 3.132C122.111 2.46 123.251 1.728 124.019 0.935999C124.355 0.599999 124.679 0.419999 124.991 0.395999C125.327 0.347998 125.783 0.491998 126.359 0.827998C126.647 1.02 126.803 1.212 126.827 1.404C126.851 1.62 126.911 1.752 127.007 1.8C127.175 1.848 127.331 1.884 127.475 1.908C127.619 1.932 127.775 1.956 127.943 1.98C128.423 2.028 128.843 1.956 129.203 1.764C129.467 1.644 129.827 1.632 130.283 1.728C130.739 1.824 131.135 2.004 131.471 2.268C131.879 2.604 132.035 2.964 131.939 3.348C131.867 3.708 131.687 3.936 131.399 4.032C130.991 4.152 130.619 4.32 130.283 4.536C129.947 4.728 129.575 5.004 129.167 5.364C128.831 5.628 128.795 5.808 129.059 5.904C129.899 6.12 130.799 6.372 131.759 6.66C132.743 6.948 133.667 7.236 134.531 7.524C135.419 7.812 136.187 8.076 136.835 8.316C137.507 8.556 137.963 8.748 138.203 8.892C138.611 9.108 138.875 9.312 138.995 9.504C139.139 9.696 139.187 9.888 139.139 10.08ZM132.731 12.06C132.467 12.468 132.155 12.768 131.795 12.96C131.435 13.152 130.883 13.332 130.139 13.5C129.323 13.692 128.831 13.716 128.663 13.572C128.519 13.404 128.603 13.092 128.915 12.636C129.107 12.372 129.311 12 129.527 11.52C129.767 11.016 129.947 10.596 130.067 10.26C130.187 9.876 130.487 9.696 130.967 9.72C131.471 9.72 131.951 10.02 132.407 10.62C132.695 11.004 132.851 11.292 132.875 11.484C132.899 11.676 132.851 11.868 132.731 12.06ZM142.451 19.188C141.971 20.052 141.443 20.76 140.867 21.312C140.315 21.84 139.751 22.224 139.175 22.464C138.599 22.68 138.035 22.764 137.483 22.716C136.955 22.668 136.475 22.476 136.043 22.14C134.939 21.252 133.967 20.496 133.127 19.872C132.311 19.248 131.543 18.708 130.823 18.252C130.103 17.772 129.407 17.352 128.735 16.992C128.063 16.608 127.319 16.212 126.503 15.804C126.287 15.684 126.119 15.636 125.999 15.66C125.903 15.66 125.831 15.696 125.783 15.768C125.519 16.224 125.195 16.68 124.811 17.136C124.427 17.568 123.935 18.06 123.335 18.612C122.879 19.02 122.255 19.428 121.463 19.836C120.695 20.244 119.843 20.616 118.907 20.952C117.971 21.264 117.011 21.528 116.027 21.744C115.067 21.936 114.155 22.044 113.291 22.068C111.995 22.116 111.059 22.02 110.483 21.78C109.931 21.54 109.511 21.12 109.223 20.52C108.815 19.752 108.995 19.368 109.763 19.368C111.419 19.392 112.943 19.284 114.335 19.044C115.751 18.804 116.999 18.492 118.079 18.108C119.183 17.7 120.119 17.244 120.887 16.74C121.655 16.212 122.219 15.684 122.579 15.156C123.131 14.316 123.503 13.476 123.695 12.636C123.911 11.796 123.959 11.016 123.839 10.296C123.767 9.744 123.947 9.312 124.379 9C124.835 8.688 125.387 8.664 126.035 8.928C126.467 9.12 126.731 9.42 126.827 9.828C126.923 10.236 126.923 10.824 126.827 11.592C126.803 11.832 126.779 12.06 126.755 12.276C126.731 12.468 126.695 12.66 126.647 12.852C126.575 13.14 126.719 13.356 127.079 13.5C128.039 13.956 129.143 14.424 130.391 14.904C131.663 15.36 132.971 15.792 134.315 16.2C135.683 16.608 137.027 16.98 138.347 17.316C139.691 17.652 140.927 17.916 142.055 18.108C142.391 18.156 142.583 18.264 142.631 18.432C142.703 18.6 142.643 18.852 142.451 19.188ZM121.463 14.004C121.991 14.412 122.183 14.736 122.039 14.976C121.919 15.192 121.547 15.204 120.923 15.012C119.387 14.58 118.427 14.076 118.043 13.5C117.827 13.212 117.755 12.9 117.827 12.564C117.923 12.228 118.163 11.964 118.547 11.772C118.907 11.628 119.255 11.592 119.591 11.664C119.927 11.736 120.155 11.928 120.275 12.24C120.443 12.624 120.611 12.972 120.779 13.284C120.971 13.572 121.199 13.812 121.463 14.004ZM157.859 6.984C157.811 7.152 157.703 7.296 157.535 7.416C157.367 7.512 157.079 7.572 156.671 7.596C155.183 7.668 153.875 7.56 152.747 7.272C151.643 6.96 150.851 6.588 150.371 6.156C150.179 5.988 150.011 5.784 149.867 5.544C149.747 5.304 149.687 4.992 149.687 4.608C149.687 4.296 149.795 4.008 150.011 3.744C150.227 3.48 150.611 3.312 151.163 3.24C151.643 3.168 152.243 3.3 152.963 3.636C153.683 3.972 154.463 4.416 155.303 4.968C155.567 5.16 155.843 5.364 156.131 5.58C156.443 5.772 156.695 5.928 156.887 6.048C157.343 6.312 157.631 6.492 157.751 6.588C157.871 6.66 157.907 6.792 157.859 6.984ZM178.703 9.576C178.439 9.888 178.187 10.068 177.947 10.116C177.731 10.14 177.419 10.092 177.011 9.972C176.123 9.684 175.115 9.216 173.987 8.568C173.819 8.496 173.687 8.508 173.591 8.604C172.991 9.084 172.403 9.504 171.827 9.864C171.251 10.2 170.507 10.608 169.595 11.088C169.379 11.232 168.995 11.34 168.443 11.412C167.915 11.46 167.315 11.412 166.643 11.268C166.211 11.172 165.755 11.052 165.275 10.908C164.819 10.74 164.411 10.524 164.051 10.26C163.907 10.164 163.679 10.092 163.367 10.044C163.079 9.972 162.743 9.96 162.359 10.008C161.999 10.032 161.603 10.104 161.171 10.224C160.739 10.344 160.319 10.512 159.911 10.728C159.599 10.896 159.227 10.896 158.795 10.728C158.387 10.56 158.087 10.248 157.895 9.792C157.679 9.24 157.655 8.808 157.823 8.496C157.991 8.16 158.243 7.824 158.579 7.488C158.675 7.392 158.831 7.272 159.047 7.128C159.287 6.96 159.539 6.792 159.803 6.624C160.091 6.432 160.367 6.252 160.631 6.084C160.919 5.892 161.159 5.736 161.351 5.616C161.639 5.424 161.903 5.22 162.143 5.004C162.383 4.788 162.635 4.536 162.899 4.248C163.187 3.96 163.499 3.624 163.835 3.24C164.171 2.856 164.567 2.4 165.023 1.872C165.407 1.368 165.911 1.032 166.535 0.864C167.183 0.695999 167.735 0.755999 168.191 1.044C168.407 1.188 168.563 1.368 168.659 1.584C168.779 1.776 168.839 1.992 168.839 2.232C168.863 2.448 168.827 2.664 168.731 2.88C168.659 3.072 168.539 3.216 168.371 3.312C167.819 3.672 167.375 3.972 167.039 4.212C166.703 4.428 166.391 4.644 166.103 4.86C165.839 5.052 165.587 5.256 165.347 5.472C165.107 5.664 164.831 5.904 164.519 6.192C164.183 6.456 164.003 6.78 163.979 7.164C163.979 7.524 164.111 7.8 164.375 7.992C164.687 8.232 165.095 8.424 165.599 8.568C166.127 8.688 166.823 8.772 167.687 8.82C168.047 8.868 168.539 8.772 169.163 8.532C169.787 8.292 170.459 7.896 171.179 7.344C171.419 7.176 171.407 6.972 171.143 6.732C170.807 6.54 170.495 6.348 170.207 6.156C169.943 5.94 169.703 5.76 169.487 5.616C169.391 5.544 169.307 5.448 169.235 5.328C169.187 5.184 169.151 5.028 169.127 4.86C169.127 4.692 169.139 4.536 169.163 4.392C169.187 4.248 169.235 4.128 169.307 4.032C169.451 3.864 169.643 3.744 169.883 3.672C170.147 3.576 170.399 3.528 170.639 3.528C170.903 3.504 171.143 3.516 171.359 3.564C171.599 3.588 171.767 3.636 171.863 3.708C172.871 4.452 173.855 5.16 174.815 5.832C175.799 6.504 176.699 7.092 177.515 7.596C178.283 8.1 178.727 8.496 178.847 8.784C178.967 9.048 178.919 9.312 178.703 9.576ZM156.491 13.176C156.083 13.344 155.507 13.464 154.763 13.536C154.043 13.584 153.275 13.596 152.459 13.572C151.643 13.524 150.839 13.44 150.047 13.32C149.255 13.2 148.607 13.044 148.103 12.852C147.503 12.612 147.059 12.3 146.771 11.916C146.483 11.532 146.351 11.136 146.375 10.728C146.399 10.248 146.579 9.852 146.915 9.54C147.251 9.204 147.635 9.06 148.067 9.108C148.283 9.132 148.535 9.168 148.823 9.216C149.135 9.264 149.447 9.336 149.759 9.432C150.071 9.504 150.383 9.588 150.695 9.684C151.007 9.78 151.283 9.876 151.523 9.972C151.883 10.092 152.303 10.236 152.783 10.404C153.287 10.572 153.767 10.752 154.223 10.944C154.703 11.112 155.147 11.28 155.555 11.448C155.963 11.592 156.275 11.712 156.491 11.808C156.875 12 157.055 12.24 157.031 12.528C157.007 12.816 156.827 13.032 156.491 13.176ZM176.543 15.768C176.519 16.008 176.495 16.308 176.471 16.668C176.447 17.028 176.411 17.412 176.363 17.82C176.315 18.228 176.267 18.648 176.219 19.08C176.171 19.488 176.123 19.884 176.075 20.268C176.027 20.532 175.919 20.772 175.751 20.988C175.583 21.204 175.379 21.384 175.139 21.528C174.923 21.672 174.695 21.768 174.455 21.816C174.215 21.84 174.011 21.816 173.843 21.744C173.147 21.384 172.523 21.144 171.971 21.024C171.443 20.904 170.759 20.844 169.919 20.844C169.775 20.844 169.595 20.844 169.379 20.844C169.163 20.844 168.851 20.844 168.443 20.844C168.035 20.844 167.495 20.844 166.823 20.844C166.151 20.82 165.263 20.808 164.159 20.808C164.111 20.808 164.063 20.808 164.015 20.808C163.967 20.808 163.931 20.832 163.907 20.88C163.763 21.048 163.595 21.192 163.403 21.312C163.211 21.432 163.019 21.528 162.827 21.6C162.635 21.672 162.455 21.732 162.287 21.78C162.143 21.804 162.047 21.816 161.999 21.816C161.639 21.768 161.339 21.564 161.099 21.204C160.859 20.844 160.691 20.424 160.595 19.944C160.475 19.344 160.367 18.708 160.271 18.036C160.175 17.34 160.115 16.8 160.091 16.416C160.067 16.104 160.007 15.72 159.911 15.264C159.839 14.808 159.779 14.436 159.731 14.148C159.683 13.908 159.695 13.656 159.767 13.392C159.839 13.128 159.959 12.888 160.127 12.672C160.295 12.456 160.499 12.276 160.739 12.132C161.003 11.988 161.279 11.904 161.567 11.88C161.807 11.856 162.047 11.88 162.287 11.952C162.527 12.024 162.731 12.156 162.899 12.348C162.971 12.42 163.079 12.456 163.223 12.456C163.895 12.408 164.543 12.372 165.167 12.348C165.815 12.324 166.391 12.312 166.895 12.312C167.423 12.288 167.867 12.276 168.227 12.276C168.587 12.276 168.827 12.288 168.947 12.312C169.283 12.36 169.739 12.396 170.315 12.42C170.891 12.444 171.563 12.48 172.331 12.528C172.763 12.576 173.171 12.468 173.555 12.204C173.939 11.964 174.335 11.88 174.743 11.952C175.151 12 175.559 12.168 175.967 12.456C176.279 12.72 176.459 13.116 176.507 13.644C176.579 14.148 176.591 14.856 176.543 15.768ZM157.967 16.524C157.631 17.22 157.223 17.94 156.743 18.684C156.263 19.404 155.591 20.04 154.727 20.592C154.103 20.928 153.515 21.168 152.963 21.312C152.411 21.432 151.931 21.396 151.523 21.204C150.923 20.988 150.539 20.748 150.371 20.484C150.203 20.196 150.131 19.872 150.155 19.512C150.203 18.912 150.383 18.444 150.695 18.108C151.031 17.748 151.475 17.484 152.027 17.316C152.915 17.028 153.815 16.692 154.727 16.308C155.639 15.9 156.515 15.468 157.355 15.012C157.691 14.82 157.955 14.856 158.147 15.12C158.339 15.384 158.279 15.852 157.967 16.524ZM173.231 15.084C173.183 14.892 173.123 14.772 173.051 14.724C172.979 14.676 172.799 14.628 172.511 14.58C171.431 14.508 170.195 14.484 168.803 14.508C167.435 14.508 165.803 14.58 163.907 14.724C163.691 14.724 163.583 14.832 163.583 15.048C163.535 15.528 163.535 16.02 163.583 16.524C163.631 17.004 163.703 17.592 163.799 18.288C163.823 18.528 163.943 18.648 164.159 18.648C165.239 18.6 166.391 18.564 167.615 18.54C168.863 18.516 170.255 18.54 171.791 18.612C172.247 18.636 172.547 18.588 172.691 18.468C172.835 18.324 172.955 18.072 173.051 17.712C173.075 17.544 173.099 17.328 173.123 17.064C173.171 16.8 173.195 16.536 173.195 16.272C173.219 16.008 173.231 15.768 173.231 15.552C173.255 15.312 173.255 15.156 173.231 15.084ZM215.207 13.5C214.607 14.22 213.755 14.82 212.651 15.3C212.291 15.468 211.871 15.492 211.391 15.372C210.911 15.228 210.311 14.904 209.591 14.4C209.327 14.208 209.051 13.992 208.763 13.752C208.475 13.512 208.103 13.188 207.647 12.78C207.359 12.54 207.215 12.588 207.215 12.924C207.191 13.332 207.167 13.716 207.143 14.076C207.143 14.436 207.155 14.784 207.179 15.12C207.227 15.624 207.203 15.972 207.107 16.164C207.011 16.356 206.795 16.548 206.459 16.74C206.291 16.836 206.111 16.896 205.919 16.92C205.727 16.92 205.487 16.872 205.199 16.776C205.079 16.728 204.851 16.704 204.515 16.704C204.203 16.68 203.855 16.668 203.471 16.668C203.255 16.668 203.147 16.764 203.147 16.956C203.147 17.412 203.147 17.904 203.147 18.432C203.147 18.96 203.159 19.5 203.183 20.052C203.231 20.964 203.135 21.6 202.895 21.96C202.679 22.32 202.223 22.596 201.527 22.788C201.023 22.932 200.495 22.98 199.943 22.932C199.415 22.884 198.899 22.764 198.395 22.572C197.891 22.38 197.435 22.128 197.027 21.816C196.619 21.48 196.307 21.108 196.091 20.7C196.019 20.556 196.019 20.448 196.091 20.376C196.187 20.28 196.307 20.256 196.451 20.304C196.811 20.448 197.183 20.544 197.567 20.592C197.951 20.64 198.311 20.64 198.647 20.592C198.983 20.544 199.259 20.46 199.475 20.34C199.715 20.196 199.859 20.016 199.907 19.8C200.003 19.272 199.979 18.336 199.835 16.992C199.787 16.776 199.679 16.668 199.511 16.668C199.295 16.668 198.971 16.668 198.539 16.668C198.107 16.668 197.747 16.68 197.459 16.704C197.315 16.704 197.159 16.776 196.991 16.92C196.799 17.04 196.547 17.1 196.235 17.1C195.899 17.124 195.623 17.04 195.407 16.848C195.191 16.632 195.059 16.248 195.011 15.696C194.987 15.48 194.963 15.264 194.939 15.048C194.939 14.832 194.927 14.472 194.903 13.968C194.903 13.728 194.807 13.68 194.615 13.824C193.751 14.544 193.007 14.976 192.383 15.12C191.759 15.24 191.183 15.18 190.655 14.94C190.463 14.82 190.343 14.832 190.295 14.976C189.719 16.44 189.035 17.7 188.243 18.756C187.475 19.788 186.611 20.568 185.651 21.096C184.955 21.48 184.331 21.576 183.779 21.384C183.227 21.168 182.639 20.64 182.015 19.8C181.679 19.32 181.547 18.96 181.619 18.72C181.715 18.48 181.991 18.3 182.447 18.18C183.023 18.036 183.563 17.832 184.067 17.568C184.571 17.304 185.063 16.956 185.543 16.524C186.047 16.068 186.527 15.504 186.983 14.832C187.463 14.16 187.943 13.356 188.423 12.42C188.519 12.228 188.543 12.108 188.495 12.06C188.471 12.012 188.339 12.012 188.099 12.06C187.379 12.228 186.779 12.348 186.299 12.42C185.819 12.468 185.339 12.504 184.859 12.528C184.355 12.552 183.971 12.408 183.707 12.096C183.467 11.76 183.359 11.376 183.383 10.944C183.407 10.536 183.539 10.272 183.779 10.152C184.043 10.032 184.415 10.008 184.895 10.08C185.231 10.128 185.735 10.176 186.407 10.224C187.079 10.272 187.799 10.308 188.567 10.332C188.807 10.332 188.963 10.308 189.035 10.26C189.131 10.188 189.179 10.056 189.179 9.864C189.179 9.624 189.179 9.408 189.179 9.216C189.203 9.024 189.227 8.832 189.251 8.64C189.275 8.4 189.251 8.256 189.179 8.208C189.131 8.136 188.999 8.124 188.783 8.172C188.135 8.268 187.571 8.34 187.091 8.388C186.635 8.412 186.227 8.424 185.867 8.424C185.507 8.4 185.171 8.34 184.859 8.244C184.571 8.148 184.283 8.028 183.995 7.884C183.659 7.716 183.455 7.476 183.383 7.164C183.335 6.852 183.407 6.576 183.599 6.336C183.815 6.048 184.079 5.856 184.391 5.76C184.703 5.664 185.027 5.7 185.363 5.868C185.627 5.988 186.023 6.132 186.551 6.3C187.079 6.444 187.727 6.612 188.495 6.804C188.783 6.876 188.951 6.888 188.999 6.84C189.071 6.768 189.083 6.588 189.035 6.3C188.987 6.012 188.915 5.736 188.819 5.472C188.747 5.184 188.639 4.884 188.495 4.572C188.279 4.092 188.171 3.708 188.171 3.42C188.171 3.108 188.291 2.772 188.531 2.412C188.723 2.1 189.023 1.896 189.431 1.8C189.863 1.68 190.211 1.656 190.475 1.728C190.739 1.8 190.931 1.872 191.051 1.944C191.171 1.992 191.279 2.064 191.375 2.16C191.567 2.376 191.831 2.46 192.167 2.412C193.175 2.364 194.135 2.316 195.047 2.268C195.959 2.22 196.823 2.172 197.639 2.124C197.783 2.124 197.891 2.1 197.963 2.052C198.035 2.004 198.095 1.848 198.143 1.584C198.215 1.272 198.359 1.032 198.575 0.864C198.791 0.695999 199.283 0.563998 200.051 0.467998C201.611 0.275999 202.427 0.599999 202.499 1.44C202.547 1.728 202.595 1.908 202.643 1.98C202.715 2.052 202.847 2.088 203.039 2.088C203.447 2.088 203.879 2.088 204.335 2.088C204.815 2.088 205.307 2.1 205.811 2.124C207.035 2.172 208.151 2.22 209.159 2.268C210.167 2.292 211.139 2.316 212.075 2.34C212.483 2.34 212.735 2.424 212.831 2.592C212.927 2.76 212.879 3.06 212.687 3.492C212.615 3.684 212.507 3.84 212.363 3.96C212.219 4.056 212.003 4.128 211.715 4.176C211.427 4.224 211.031 4.248 210.527 4.248C210.047 4.248 209.435 4.224 208.691 4.176C207.971 4.128 207.071 4.092 205.991 4.068C204.911 4.02 203.711 4.008 202.391 4.032C202.151 4.032 202.067 4.128 202.139 4.32C202.187 4.44 202.199 4.596 202.175 4.788C202.151 4.98 202.067 5.256 201.923 5.616C201.803 5.832 201.863 5.94 202.103 5.94C202.847 5.94 203.591 5.952 204.335 5.976C205.103 5.976 205.823 5.976 206.495 5.976C207.167 5.976 207.779 5.988 208.331 6.012C208.883 6.012 209.327 6.012 209.663 6.012C209.927 6.012 210.095 6.06 210.167 6.156C210.239 6.252 210.287 6.456 210.311 6.768C210.335 7.032 210.227 7.224 209.987 7.344C209.771 7.44 209.255 7.476 208.439 7.452C208.055 7.452 207.623 7.452 207.143 7.452C206.687 7.452 206.231 7.464 205.775 7.488C205.319 7.488 204.875 7.488 204.443 7.488C204.035 7.488 203.687 7.488 203.399 7.488C203.351 7.488 203.315 7.524 203.291 7.596C203.291 7.644 203.351 7.704 203.471 7.776C204.143 8.232 204.947 8.688 205.883 9.144C206.051 9.216 206.195 9.192 206.315 9.072C206.531 8.88 206.723 8.664 206.891 8.424C207.131 8.064 207.347 7.848 207.539 7.776C207.755 7.68 208.067 7.692 208.475 7.812C209.147 8.028 209.519 8.34 209.591 8.748C209.663 9.132 209.351 9.42 208.655 9.612C208.391 9.684 208.151 9.756 207.935 9.828C207.791 9.876 207.803 9.96 207.971 10.08C208.571 10.392 209.135 10.668 209.663 10.908C210.191 11.124 210.707 11.316 211.211 11.484C211.715 11.652 212.231 11.808 212.759 11.952C213.287 12.096 213.863 12.24 214.487 12.384C215.423 12.6 215.663 12.972 215.207 13.5ZM212.507 21.204C212.723 21.396 212.711 21.588 212.471 21.78C212.255 21.948 211.883 21.972 211.355 21.852C210.995 21.78 210.587 21.66 210.131 21.492C209.675 21.3 209.207 21.084 208.727 20.844C208.247 20.604 207.767 20.34 207.287 20.052C206.831 19.764 206.411 19.476 206.027 19.188C205.619 18.876 205.379 18.624 205.307 18.432C205.259 18.216 205.319 17.952 205.487 17.64C205.679 17.304 205.991 17.136 206.423 17.136C206.879 17.112 207.287 17.208 207.647 17.424C207.887 17.568 208.211 17.796 208.619 18.108C209.051 18.396 209.495 18.732 209.951 19.116C210.431 19.476 210.899 19.848 211.355 20.232C211.811 20.592 212.195 20.916 212.507 21.204ZM196.631 19.116C196.391 19.332 196.055 19.572 195.623 19.836C195.215 20.1 194.747 20.364 194.219 20.628C193.691 20.892 193.115 21.144 192.491 21.384C191.867 21.624 191.219 21.828 190.547 21.996C190.283 22.068 190.091 22.08 189.971 22.032C189.875 21.984 189.791 21.888 189.719 21.744C189.575 21.432 189.635 21.216 189.899 21.096C190.259 20.928 190.643 20.724 191.051 20.484C191.459 20.22 191.855 19.956 192.239 19.692C192.623 19.404 192.971 19.116 193.283 18.828C193.619 18.54 193.883 18.276 194.075 18.036C194.411 17.58 194.735 17.304 195.047 17.208C195.383 17.088 195.803 17.148 196.307 17.388C197.243 17.82 197.351 18.396 196.631 19.116ZM199.007 4.392C199.055 4.2 198.947 4.104 198.683 4.104C197.963 4.128 197.231 4.152 196.487 4.176C195.767 4.2 195.023 4.236 194.255 4.284C193.919 4.308 193.571 4.344 193.211 4.392C192.875 4.416 192.503 4.476 192.095 4.572C191.879 4.62 191.735 4.692 191.663 4.788C191.615 4.86 191.591 5.004 191.591 5.22C191.591 6.324 191.579 7.272 191.555 8.064C191.531 8.856 191.483 9.54 191.411 10.116C191.363 10.692 191.303 11.196 191.231 11.628C191.159 12.036 191.075 12.42 190.979 12.78C190.907 13.068 191.003 13.152 191.267 13.032C192.059 12.792 192.899 12.444 193.787 11.988C194.699 11.508 195.515 10.956 196.235 10.332C196.283 10.284 196.283 10.248 196.235 10.224C196.211 10.176 196.151 10.176 196.055 10.224C195.551 10.416 195.119 10.512 194.759 10.512C194.399 10.512 194.111 10.452 193.895 10.332C193.295 10.044 193.283 9.588 193.859 8.964C194.147 8.652 194.471 8.508 194.831 8.532C195.215 8.532 195.623 8.64 196.055 8.856C196.223 8.952 196.367 9.024 196.487 9.072C196.607 9.12 196.715 9.168 196.811 9.216C197.027 9.336 197.195 9.3 197.315 9.108C197.459 8.916 197.579 8.724 197.675 8.532C197.771 8.34 197.879 8.112 197.999 7.848C198.071 7.704 197.975 7.632 197.711 7.632C197.399 7.632 197.075 7.644 196.739 7.668C196.403 7.668 196.079 7.692 195.767 7.74C195.479 7.764 195.215 7.8 194.975 7.848C194.735 7.896 194.555 7.956 194.435 8.028C193.475 8.46 192.803 8.448 192.419 7.992C192.059 7.56 192.215 7.056 192.887 6.48C193.703 5.808 194.447 5.556 195.119 5.724C195.191 5.748 195.563 5.784 196.235 5.832C196.907 5.856 197.639 5.868 198.431 5.868C198.623 5.868 198.755 5.76 198.827 5.544C198.875 5.352 198.911 5.172 198.935 5.004C198.959 4.812 198.983 4.608 199.007 4.392ZM204.731 10.44C204.131 10.032 203.519 9.6 202.895 9.144C202.295 8.688 201.731 8.244 201.203 7.812C201.035 7.692 200.903 7.692 200.807 7.812C200.447 8.34 200.099 8.82 199.763 9.252C199.427 9.66 199.055 10.068 198.647 10.476C198.575 10.548 198.551 10.62 198.575 10.692C198.599 10.74 198.659 10.764 198.755 10.764C199.787 10.716 200.807 10.692 201.815 10.692C202.847 10.692 203.711 10.716 204.407 10.764C204.623 10.788 204.755 10.764 204.803 10.692C204.875 10.596 204.851 10.512 204.731 10.44ZM204.659 12.708C204.659 12.372 204.491 12.18 204.155 12.132C203.843 12.108 203.435 12.096 202.931 12.096C202.451 12.072 201.923 12.072 201.347 12.096C200.771 12.096 200.159 12.108 199.511 12.132C198.887 12.156 198.287 12.18 197.711 12.204C197.423 12.204 197.279 12.372 197.279 12.708C197.279 12.924 197.303 13.068 197.351 13.14C197.399 13.212 197.471 13.248 197.567 13.248C198.575 13.2 199.703 13.176 200.951 13.176C202.199 13.152 203.327 13.152 204.335 13.176C204.551 13.176 204.659 13.02 204.659 12.708ZM204.479 14.76C204.503 14.448 204.431 14.292 204.263 14.292C203.183 14.244 202.067 14.232 200.915 14.256C199.787 14.28 198.683 14.328 197.603 14.4C197.411 14.4 197.315 14.52 197.315 14.76C197.315 15.168 197.447 15.372 197.711 15.372C198.071 15.396 198.527 15.42 199.079 15.444C199.655 15.444 200.231 15.444 200.807 15.444C201.407 15.42 201.971 15.396 202.499 15.372C203.051 15.348 203.483 15.324 203.795 15.3C204.059 15.252 204.227 15.204 204.299 15.156C204.395 15.084 204.455 14.952 204.479 14.76ZM247.571 9.144C247.355 9.84 247.103 10.272 246.815 10.44C246.551 10.584 246.179 10.56 245.699 10.368C245.555 10.296 245.447 10.116 245.375 9.828C245.303 9.54 245.291 9.24 245.339 8.928C245.387 8.424 245.399 8.04 245.375 7.776C245.375 7.512 245.351 7.248 245.303 6.984C245.255 6.648 245.147 6.432 244.979 6.336C244.835 6.216 244.559 6.132 244.151 6.084C241.895 5.964 239.795 5.928 237.851 5.976C235.907 6.024 234.251 6.108 232.883 6.228C232.451 6.228 232.127 6.288 231.911 6.408C231.719 6.504 231.539 6.684 231.371 6.948C231.227 7.38 231.107 7.812 231.011 8.244C230.939 8.652 230.891 9.096 230.867 9.576C230.867 9.84 230.795 10.056 230.651 10.224C230.531 10.392 230.375 10.488 230.183 10.512C229.967 10.464 229.739 10.344 229.499 10.152C229.283 9.936 229.139 9.66 229.067 9.324C229.043 9.108 229.019 8.796 228.995 8.388C228.971 7.956 228.959 7.512 228.959 7.056C228.959 6.6 228.959 6.18 228.959 5.796C228.983 5.388 229.019 5.1 229.067 4.932C229.379 3.9 229.787 3.348 230.291 3.276C230.819 3.204 231.359 3.384 231.911 3.816C232.175 4.008 232.511 4.128 232.919 4.176C233.327 4.2 233.903 4.188 234.647 4.14C235.127 4.092 235.415 4.008 235.511 3.888C235.607 3.768 235.631 3.48 235.583 3.024C235.511 2.4 235.535 1.92 235.655 1.584C235.775 1.224 236.027 0.911999 236.411 0.647998C236.675 0.455999 236.987 0.372 237.347 0.395999C237.707 0.419999 238.043 0.515999 238.355 0.684C238.883 0.947999 239.255 1.284 239.471 1.692C239.711 2.076 239.855 2.604 239.903 3.276C239.927 3.732 240.131 3.96 240.515 3.96C241.067 3.936 241.571 3.924 242.027 3.924C242.507 3.924 242.915 3.912 243.251 3.888C243.755 3.84 244.139 3.804 244.403 3.78C244.691 3.756 244.919 3.72 245.087 3.672C245.471 3.48 245.891 3.408 246.347 3.456C246.827 3.48 247.211 3.684 247.499 4.068C247.883 4.548 248.087 5.232 248.111 6.12C248.135 7.008 247.955 8.016 247.571 9.144ZM242.387 7.596C242.531 7.668 242.639 7.776 242.711 7.92C242.783 8.064 242.819 8.208 242.819 8.352C242.819 8.496 242.771 8.628 242.675 8.748C242.603 8.844 242.495 8.904 242.351 8.928C242.207 9 241.943 9.06 241.559 9.108C241.175 9.156 240.755 9.192 240.299 9.216C239.867 9.24 239.423 9.264 238.967 9.288C238.511 9.288 238.139 9.264 237.851 9.216C237.683 9.216 237.455 9.216 237.167 9.216C236.903 9.192 236.627 9.192 236.339 9.216C236.051 9.24 235.763 9.264 235.475 9.288C235.211 9.312 234.995 9.36 234.827 9.432C233.795 9.696 233.135 9.684 232.847 9.396C232.679 9.204 232.619 8.952 232.667 8.64C232.715 8.304 232.871 7.968 233.135 7.632C233.303 7.464 233.531 7.356 233.819 7.308C234.131 7.236 234.443 7.26 234.755 7.38C235.187 7.476 235.499 7.5 235.691 7.452C237.131 7.26 238.451 7.2 239.651 7.272C240.851 7.32 241.763 7.428 242.387 7.596ZM228.527 4.68C228.263 5.448 227.939 6.108 227.555 6.66C227.171 7.188 226.583 7.776 225.791 8.424C225.503 8.688 225.359 8.868 225.359 8.964C225.383 9.06 225.551 9.132 225.863 9.18C226.607 9.348 227.219 9.732 227.699 10.332C228.179 10.908 228.407 11.58 228.383 12.348C228.335 12.924 228.227 13.464 228.059 13.968C227.891 14.472 227.627 14.916 227.267 15.3C226.907 15.684 226.427 16.008 225.827 16.272C225.251 16.536 224.531 16.716 223.667 16.812C223.427 16.86 223.259 16.932 223.163 17.028C223.091 17.124 223.067 17.328 223.091 17.64C223.139 18.624 223.151 19.404 223.127 19.98C223.127 20.532 223.067 20.964 222.947 21.276C222.851 21.588 222.683 21.804 222.443 21.924C222.227 22.02 221.915 22.104 221.507 22.176C221.123 22.224 220.811 22.236 220.571 22.212C220.355 22.164 220.187 22.056 220.067 21.888C219.947 21.696 219.863 21.42 219.815 21.06C219.791 20.676 219.791 20.172 219.815 19.548C219.959 17.1 220.055 14.832 220.103 12.744C220.151 10.632 220.115 8.544 219.995 6.48C219.971 6.072 219.887 5.832 219.743 5.76C219.623 5.664 219.395 5.676 219.059 5.796C218.411 5.988 217.967 6.06 217.727 6.012C217.487 5.94 217.343 5.724 217.295 5.364C217.247 4.98 217.331 4.644 217.547 4.356C217.763 4.068 218.147 3.72 218.699 3.312C219.467 2.832 220.043 2.544 220.427 2.448C220.835 2.352 221.219 2.4 221.579 2.592C221.867 2.736 222.191 2.832 222.551 2.88C222.935 2.928 223.343 2.928 223.775 2.88C224.279 2.76 224.807 2.796 225.359 2.988C225.551 3.084 225.779 3.144 226.043 3.168C226.307 3.192 226.583 3.144 226.871 3.024C227.039 2.976 227.243 2.988 227.483 3.06C227.723 3.108 227.927 3.204 228.095 3.348C228.287 3.492 228.431 3.684 228.527 3.924C228.623 4.14 228.623 4.392 228.527 4.68ZM251.603 17.892C251.411 19.236 250.811 20.352 249.803 21.24C248.819 22.128 247.571 22.572 246.059 22.572C245.723 22.596 245.231 22.524 244.583 22.356C243.935 22.188 243.227 21.96 242.459 21.672C241.715 21.36 240.971 21.012 240.227 20.628C239.507 20.244 238.895 19.836 238.391 19.404C237.743 18.804 237.335 18 237.167 16.992C236.999 15.96 237.155 14.592 237.635 12.888C237.731 12.552 237.611 12.384 237.275 12.384C236.963 12.384 236.795 12.492 236.771 12.708C236.507 13.98 236.183 15.12 235.799 16.128C235.415 17.112 234.923 17.964 234.323 18.684C233.723 19.404 233.003 19.992 232.163 20.448C231.323 20.88 230.327 21.168 229.175 21.312C228.023 21.48 227.123 21.372 226.475 20.988C225.827 20.58 225.443 20.064 225.323 19.44C225.251 19.008 225.371 18.84 225.683 18.936C226.859 19.032 227.927 18.948 228.887 18.684C229.871 18.42 230.711 18.024 231.407 17.496C232.127 16.944 232.703 16.284 233.135 15.516C233.567 14.748 233.831 13.908 233.927 12.996C233.975 12.66 233.807 12.516 233.423 12.564C233.183 12.588 232.931 12.636 232.667 12.708C232.403 12.756 232.139 12.816 231.875 12.888C231.515 13.056 231.215 13.128 230.975 13.104C230.735 13.08 230.519 12.996 230.327 12.852C230.135 12.588 230.051 12.288 230.075 11.952C230.123 11.616 230.327 11.316 230.687 11.052C230.951 10.836 231.179 10.668 231.371 10.548C231.587 10.428 231.779 10.344 231.947 10.296C232.139 10.248 232.343 10.224 232.559 10.224C232.775 10.224 233.027 10.248 233.315 10.296C233.483 10.32 233.747 10.344 234.107 10.368C234.491 10.368 234.911 10.368 235.367 10.368C235.847 10.368 236.351 10.356 236.879 10.332C237.431 10.308 237.947 10.26 238.427 10.188C239.795 10.14 240.935 10.128 241.847 10.152C242.759 10.176 243.359 10.212 243.647 10.26C244.079 10.332 244.355 10.5 244.475 10.764C244.619 11.028 244.631 11.316 244.511 11.628C244.463 11.772 244.391 11.904 244.295 12.024C244.199 12.12 244.031 12.204 243.791 12.276C243.575 12.324 243.263 12.36 242.855 12.384C242.471 12.408 241.943 12.408 241.271 12.384C241.007 12.384 240.815 12.408 240.695 12.456C240.575 12.504 240.467 12.624 240.371 12.816C240.107 13.392 239.987 14.064 240.011 14.832C240.059 15.6 240.311 16.236 240.767 16.74C241.031 17.052 241.427 17.28 241.955 17.424C242.483 17.568 243.203 17.7 244.115 17.82C245.531 18.036 246.755 18.12 247.787 18.072C248.843 18.024 249.827 17.808 250.739 17.424C251.195 17.28 251.471 17.244 251.567 17.316C251.663 17.364 251.675 17.556 251.603 17.892ZM223.523 5.04C223.355 5.04 223.223 5.124 223.127 5.292C223.055 5.436 223.007 5.832 222.983 6.48C222.935 7.248 222.935 7.752 222.983 7.992C223.031 8.232 223.091 8.328 223.163 8.28C223.715 7.872 224.111 7.476 224.351 7.092C224.615 6.708 224.747 6.372 224.747 6.084C224.747 5.772 224.639 5.52 224.423 5.328C224.207 5.136 223.907 5.04 223.523 5.04ZM225.827 11.772C225.707 11.316 225.455 10.98 225.071 10.764C224.687 10.548 224.075 10.44 223.235 10.44C223.139 10.44 223.055 10.476 222.983 10.548C222.935 10.62 222.911 10.776 222.911 11.016C222.911 11.496 222.911 12 222.911 12.528C222.911 13.032 222.935 13.572 222.983 14.148C222.983 14.436 223.151 14.508 223.487 14.364C224.375 14.004 224.999 13.56 225.359 13.032C225.719 12.504 225.875 12.084 225.827 11.772Z" fill="white" fill-opacity="0.85"/>
</svg>
