<svg width="137" height="16" viewBox="0 0 137 16" fill="none" xmlns="http://www.w3.org/2000/svg">
<path d="M3.05244 0.831324C2.10044 1.98732 1.31844 3.02432 0.723439 3.92532C0.757439 4.01032 0.876439 4.11232 1.11444 4.24832C1.35244 4.40132 1.50544 4.46932 1.57344 4.46932C2.01544 3.99332 2.42344 3.50032 2.83144 2.99032C3.98744 3.16032 5.22844 3.24532 6.57144 3.24532C6.62244 2.92232 6.65644 2.61632 6.65644 2.34432C5.56844 2.24232 4.51444 2.15732 3.49444 2.08932C3.64744 1.86832 3.80044 1.63032 3.95344 1.39232C3.66444 1.17132 3.35844 0.984324 3.05244 0.831324ZM1.67544 5.09832C1.59044 5.43832 1.52244 5.74432 1.45444 6.05032C1.23344 6.05032 1.01244 6.03332 0.774439 6.01632C0.706439 6.32232 0.672439 6.61132 0.672439 6.90032C0.842439 6.93432 1.02944 6.95132 1.23344 6.96832C1.01244 7.88632 0.876439 8.53232 0.842439 8.90632C1.45444 9.22932 2.74644 9.46732 4.71844 9.63732C4.78644 9.39932 4.83744 9.11032 4.87144 8.77032C4.68444 8.75332 4.49744 8.71932 4.31044 8.68532C4.49744 8.58332 4.66744 8.46432 4.80344 8.31132C4.61644 7.93732 4.41244 7.58032 4.17444 7.24032C4.59944 7.27432 5.04144 7.30832 5.51744 7.32532C5.44944 8.00532 5.38144 8.70232 5.33044 9.39932C5.61944 9.50132 5.92544 9.55232 6.26544 9.55232C6.43544 8.80432 6.57144 8.05632 6.67344 7.34232C6.86044 7.35932 7.06444 7.35932 7.28544 7.35932C7.33644 7.12132 7.37044 6.84932 7.37044 6.57732C7.16644 6.56032 6.97944 6.54332 6.77544 6.50932C6.84344 5.77832 6.89444 5.06432 6.89444 4.35032C5.46644 4.21432 4.03844 4.11232 2.57644 4.07832C2.50844 4.38432 2.49144 4.69032 2.49144 4.96232C2.96744 5.03032 3.47744 5.08132 4.00444 5.13232C3.85144 5.20032 3.69844 5.31932 3.52844 5.45532C3.64744 5.71032 3.78344 5.96532 3.95344 6.20332C3.51144 6.16932 3.03544 6.13532 2.55944 6.10132C2.59344 5.88032 2.64444 5.62532 2.71244 5.35332C2.66144 5.31932 2.50844 5.25132 2.27044 5.16632C1.96444 5.13232 1.77744 5.09832 1.67544 5.09832ZM3.83444 8.61732C3.22244 8.53232 2.64444 8.43032 2.10044 8.29432C2.16844 7.93732 2.25344 7.54632 2.35544 7.10432C2.79744 7.15532 3.27344 7.18932 3.74944 7.22332C3.57944 7.32532 3.40944 7.42732 3.23944 7.56332C3.40944 7.93732 3.59644 8.29432 3.83444 8.61732ZM4.46344 5.16632C4.87144 5.20032 5.29644 5.23432 5.73844 5.25132C5.68744 5.62532 5.65344 5.99932 5.61944 6.37332C5.26244 6.33932 4.90544 6.30532 4.53144 6.25432C4.70144 6.18632 4.83744 6.08432 4.93944 5.94832C4.78644 5.67632 4.63344 5.42132 4.46344 5.16632ZM10.0394 1.56232C8.84944 2.92232 7.96544 4.23132 7.35344 5.48932C7.55744 5.76132 7.84644 5.91432 8.22044 5.98232C8.69644 5.47232 9.15544 4.94532 9.56344 4.40132C11.3314 4.91132 12.7084 5.16632 13.6944 5.16632C13.8304 4.87732 13.8984 4.57132 13.9324 4.23132C12.7084 3.92532 11.4674 3.65332 10.2434 3.43232C10.5324 3.00732 10.7874 2.58232 11.0254 2.14032C10.7874 1.85132 10.4474 1.66432 10.0394 1.56232ZM8.74744 6.30532C8.57744 6.52632 8.39044 6.83232 8.18644 7.24032C8.50944 7.44432 8.86644 7.64832 9.27444 7.85232C8.93444 8.26032 8.64544 8.66832 8.40744 9.07632C8.59444 9.31432 8.86644 9.48432 9.24044 9.55232C9.64844 9.19532 10.0394 8.82132 10.4134 8.44732C10.9914 8.73632 11.6204 9.02532 12.3004 9.29732C12.5724 9.07632 12.7764 8.80432 12.9464 8.46432C12.4024 8.15832 11.8414 7.85232 11.2464 7.54632C11.6204 7.12132 11.9434 6.69632 12.2324 6.25432C11.9944 5.99932 11.6884 5.82932 11.2974 5.72732C10.8554 6.13532 10.4474 6.54332 10.0734 6.95132C9.63144 6.74732 9.18944 6.52632 8.74744 6.30532ZM8.79844 13.3093C8.45844 13.3093 8.10144 13.3433 7.74444 13.4113C7.74444 14.2953 7.82944 15.0773 8.03344 15.7743C8.50944 15.7743 8.83244 15.7063 9.03644 15.6043C9.01944 14.9243 8.93444 14.1593 8.79844 13.3093ZM10.6174 13.5983C10.3964 13.8193 10.2264 14.0913 10.1244 14.4143C10.6174 14.8223 11.1444 15.1113 11.7224 15.2983C11.8244 15.1623 11.9264 15.0433 11.9944 14.9073C12.0794 14.7713 12.1474 14.6353 12.2154 14.4993C11.6714 14.1593 11.1274 13.8533 10.6174 13.5983ZM6.96244 8.97432C6.48644 9.51832 5.99344 10.2323 5.46644 11.0823C5.95944 11.4563 6.52044 11.7793 7.14944 12.0853C7.04744 12.3403 6.96244 12.5953 6.89444 12.8333C7.43844 13.0543 8.59444 13.1563 10.3964 13.1563C10.6004 13.1563 10.7364 13.1393 10.8214 13.0713C10.8214 12.6463 10.7024 12.1023 10.4984 11.4223C10.1244 11.4563 9.85244 11.4903 9.66544 11.5243C9.66544 11.8303 9.71644 12.1023 9.81844 12.3233C9.13844 12.2893 8.61144 12.2383 8.22044 12.1703C8.56044 11.5413 8.90044 10.9463 9.22344 10.3853C8.91744 10.2493 8.57744 10.1643 8.22044 10.0963C7.94844 10.5043 7.72744 10.8953 7.54044 11.2693C7.28544 11.1333 7.04744 11.0143 6.80944 10.8953C7.14944 10.4703 7.47244 9.99432 7.79544 9.48432C7.52344 9.29732 7.23444 9.12732 6.96244 8.97432ZM5.68744 13.4113C5.38144 13.9893 5.19444 14.5843 5.12644 15.1963C5.48344 15.3663 5.77244 15.4683 6.01044 15.4683C6.31644 15.0263 6.52044 14.4483 6.62244 13.7343C6.29944 13.5983 5.99344 13.4963 5.68744 13.4113ZM22.9254 5.23432C22.5344 5.26832 22.1604 5.30232 21.8034 5.37032C21.9734 8.22632 22.2624 11.0483 22.6704 13.8703C23.1124 13.8703 23.4864 13.8023 23.7924 13.7003C23.6224 10.8783 23.3334 8.05632 22.9254 5.23432ZM27.6004 2.56532C27.3624 3.21132 27.1414 3.84032 26.9374 4.46932C25.9174 4.41832 24.8974 4.38432 23.8774 4.35032C23.8094 4.55432 23.7754 4.70732 23.7754 4.80932C23.7754 4.97932 23.7754 5.16632 23.8094 5.40432C24.7274 5.48932 25.6454 5.55732 26.5634 5.62532C25.9854 7.46132 25.5774 9.19532 25.3224 10.8273C25.4584 10.8953 25.5944 10.9463 25.7644 10.9803C26.2064 11.0483 26.4444 11.0823 26.4444 11.0823C26.5974 10.6063 26.7504 10.1303 26.9204 9.62032C27.7704 9.87532 28.7224 10.0453 29.7424 10.1303C29.8784 9.75632 29.9804 9.43332 30.0314 9.16132C29.0454 8.92332 28.1104 8.71932 27.2264 8.54932C27.4814 7.64832 27.7364 6.71332 27.9744 5.72732C29.3684 5.82932 30.7624 5.91432 32.1564 5.98232C32.3094 7.69932 32.4114 9.58632 32.4624 11.6263C32.0374 11.6603 31.5954 11.6773 31.1534 11.6773C31.1194 11.8133 31.1194 11.9493 31.1194 12.1023C31.1194 12.2723 31.1194 12.4253 31.1534 12.5443C31.4594 12.5953 31.8844 12.6123 32.4624 12.6123C33.0744 12.6123 33.4484 12.5953 33.5844 12.5273C33.5844 9.12732 33.4654 6.56032 33.2614 4.86032C31.5784 4.72432 29.9124 4.62232 28.2464 4.53732C28.3484 3.99332 28.4674 3.43232 28.5864 2.83732C28.2634 2.70132 27.9404 2.61632 27.6004 2.56532ZM43.8524 4.80932C44.3964 5.59132 45.0254 6.33932 45.7224 7.03632C46.0794 6.90032 46.3684 6.67932 46.5724 6.40732C46.0624 5.69332 45.5014 4.97932 44.8894 4.26532C45.0254 4.19732 45.1784 4.12932 45.3484 4.02732C45.2294 3.65332 45.0594 3.34732 44.8214 3.07532C43.2914 3.72132 41.7614 4.46932 40.2484 5.28532C40.3844 5.69332 40.5714 6.03332 40.7924 6.30532C41.8124 5.84632 42.8324 5.35332 43.8524 4.80932ZM45.2124 13.1733C44.8044 13.1733 44.3964 13.1903 43.9884 13.2243C44.0564 12.4423 44.0904 11.5413 44.0904 10.5383V10.3513C44.9744 10.3513 45.4844 10.3003 45.6204 10.1983V9.72232C45.6204 9.55232 45.6034 9.41632 45.5864 9.29732C45.2804 9.26332 44.7874 9.22932 44.0734 9.22932C44.0564 8.88932 44.0394 8.49832 44.0224 8.09032C44.4304 8.12432 44.8554 8.12432 45.2974 8.12432C45.3484 7.75032 45.3824 7.41032 45.3824 7.07032C43.9034 6.90032 42.6114 6.79832 41.5064 6.79832C41.4724 6.96832 41.4724 7.12132 41.4724 7.27432V7.83532C41.9484 7.90332 42.4244 7.97132 42.9174 8.00532C42.8834 8.41332 42.8664 8.82132 42.8664 9.22932C42.1014 9.24632 41.4384 9.26332 40.8774 9.26332C40.8434 9.38232 40.8434 9.53532 40.8434 9.72232C40.8434 9.92632 40.8604 10.0793 40.9114 10.2153C41.3194 10.2833 41.9654 10.3343 42.8324 10.3343V10.6403C42.8324 11.5923 42.8494 12.4933 42.9174 13.3093C42.4754 13.3603 42.0164 13.4283 41.5574 13.4963C41.5574 13.9383 41.6254 14.2783 41.7784 14.5163C43.5124 14.3803 44.6514 14.2443 45.2124 14.0743C45.2464 13.9383 45.2804 13.7853 45.2804 13.6153C45.2804 13.4623 45.2464 13.3093 45.2124 13.1733ZM40.9964 10.9463C40.8094 11.1843 40.6394 11.4393 40.4864 11.7113C40.8944 12.1363 41.3534 12.4933 41.8804 12.7993C42.1184 12.5953 42.3224 12.3403 42.4584 12.0343C41.9824 11.5923 41.5064 11.2183 40.9964 10.9463ZM45.1784 10.7253C44.9404 11.2863 44.7874 11.8643 44.7194 12.4423C45.1104 12.6293 45.4334 12.7143 45.6884 12.7143C45.9094 12.3063 46.0624 11.7453 46.1644 11.0483C45.8244 10.9123 45.5014 10.8103 45.1784 10.7253ZM53.5934 5.18332C53.1684 5.21732 52.7434 5.23432 52.3354 5.23432C52.1654 4.69032 51.9954 4.12932 51.8254 3.55132C51.3834 3.61932 51.0264 3.73832 50.7714 3.90832C50.8734 4.36732 51.0094 4.82632 51.1454 5.30232C49.7854 5.37032 48.5274 5.45532 47.3544 5.55732C47.3544 5.89732 47.3714 6.22032 47.4054 6.54332C48.7654 6.50932 50.1084 6.45832 51.4514 6.35632C51.7574 7.42732 52.0974 8.53232 52.5054 9.65432C52.1314 10.0283 51.7744 10.4193 51.4004 10.8103C51.5704 11.1163 51.8254 11.3543 52.1314 11.5583C52.4034 11.3203 52.6584 11.0823 52.9134 10.8443C53.0834 11.3883 53.2874 11.9493 53.5254 12.5273C54.2564 12.4253 54.8854 12.2213 55.3954 11.8983C55.3274 11.5753 55.2424 11.2863 55.1404 11.0483C54.8004 11.1843 54.5114 11.3203 54.2564 11.4223C54.0864 10.9463 53.9334 10.4703 53.7974 9.97732C54.1544 9.60332 54.4944 9.21232 54.8344 8.80432C54.5964 8.56632 54.3414 8.32832 54.0694 8.10732C53.8654 8.31132 53.6444 8.51532 53.4064 8.75332C53.1514 7.93732 52.8964 7.10432 52.6414 6.25432C52.9644 6.25432 53.2874 6.22032 53.6274 6.18632C53.6444 6.08432 53.6614 5.91432 53.6614 5.65932C53.6614 5.47232 53.6274 5.31932 53.5934 5.18332ZM54.0524 3.05832C53.6954 3.24532 53.3894 3.44932 53.1344 3.65332C53.3384 4.19732 53.6104 4.69032 53.9334 5.16632C54.2904 4.99632 54.5964 4.79232 54.8514 4.55432C54.6134 4.01032 54.3584 3.51732 54.0524 3.05832ZM49.0544 8.53232C49.0204 8.83832 49.0204 9.12732 49.0204 9.43332C49.7004 9.65432 50.4484 9.75632 51.2644 9.75632C51.3154 9.43332 51.3494 9.12732 51.3494 8.83832C50.5674 8.68532 49.8024 8.58332 49.0544 8.53232ZM47.8134 7.03632C47.2864 9.09332 46.9294 10.9803 46.7254 12.7143C46.8444 12.7823 46.9974 12.8333 47.1674 12.8673C47.6094 12.9353 47.8304 12.9693 47.8304 12.9693C48.2044 11.2353 48.5274 9.33132 48.7994 7.29132C48.4594 7.17232 48.1364 7.08732 47.8134 7.03632ZM51.4684 11.0823C50.4484 11.0823 49.4964 11.2183 48.6294 11.4563C48.6804 12.8163 48.8164 13.8023 49.0544 14.4143C50.0064 14.3803 50.8904 14.2613 51.6894 14.0403C51.6894 13.0203 51.6044 12.0343 51.4684 11.0823ZM49.9384 13.4623L49.7344 12.2043L50.4994 12.0513L50.6864 13.2753L49.9384 13.4623ZM69.1144 7.71632C70.3044 8.14132 71.6474 8.51532 73.1604 8.85532C73.4154 8.54932 73.6194 8.26032 73.7554 7.97132C72.5314 7.54632 71.3074 7.15532 70.0664 6.78132C71.6304 5.21732 72.4294 4.26532 72.4294 3.89132C70.6274 3.44932 68.8424 3.14332 67.0404 3.00732C67.3804 2.66732 67.7374 2.32732 68.0774 1.95332C67.8054 1.71532 67.5164 1.51132 67.2104 1.32432C66.6834 1.73232 65.8844 2.46332 64.7964 3.48332C63.9804 4.26532 63.1474 5.08132 62.3144 5.91432C62.5354 6.28832 62.8244 6.52632 63.1814 6.64532C63.6234 6.40732 64.4734 5.62532 65.6974 4.33332C65.7994 4.23132 65.9354 4.11232 66.0714 3.95932C67.6694 4.23132 69.1824 4.48632 70.5764 4.75832C69.5054 5.74432 68.1114 7.08732 66.3774 8.75332C66.6834 9.02532 67.0064 9.24632 67.3464 9.38232C67.9924 8.78732 68.5704 8.22632 69.1144 7.71632ZM64.9664 9.51832C64.6094 9.63732 64.2354 9.79032 63.8444 9.97732C64.0824 10.8613 64.4054 11.6943 64.8134 12.5103C65.2044 12.4423 65.5614 12.2723 65.8844 12.0343C65.7654 11.6603 65.6294 11.2693 65.4764 10.8443C65.3064 10.4023 65.1364 9.96032 64.9664 9.51832ZM68.9444 9.09332C68.0434 11.4053 67.4144 13.3943 67.0744 15.0943C67.3804 15.2643 67.7204 15.4003 68.1284 15.4683C68.2474 15.0943 68.3664 14.7203 68.4854 14.3633C69.2674 14.6353 70.0834 14.8903 70.9674 15.1113C71.1204 14.8053 71.2394 14.4653 71.3414 14.1253C70.5254 13.8363 69.6924 13.5813 68.8254 13.3093C69.4374 11.4053 69.8454 10.1303 70.0664 9.45032C69.7604 9.26332 69.3864 9.14432 68.9444 9.09332ZM72.8884 10.1983C72.3614 10.8783 71.9704 11.5243 71.6984 12.1363C71.9024 12.4083 72.2084 12.5783 72.5994 12.6633C73.1604 12.0173 73.6024 11.4053 73.9084 10.7933C73.6534 10.5043 73.3134 10.3003 72.8884 10.1983ZM82.9524 2.87132C82.7994 3.17732 82.6804 3.51732 82.5954 3.89132C83.4284 4.46932 84.3804 4.79232 85.4514 4.86032C85.6384 4.55432 85.7744 4.23132 85.8764 3.85732C84.8224 3.31332 83.8364 2.99032 82.9524 2.87132ZM81.9324 8.12432C81.8644 8.53232 81.8304 8.92332 81.8304 9.29732C82.2724 9.38232 82.7144 9.43332 83.1564 9.45032C83.5984 9.51832 84.0404 9.53532 84.4824 9.53532C84.5334 9.41632 84.5674 9.21232 84.6014 8.94032C84.6354 8.77032 84.6524 8.60032 84.6864 8.39632C83.8024 8.27732 82.8844 8.19232 81.9324 8.12432ZM84.8394 12.3913C84.0744 12.6973 83.3264 13.1053 82.5954 13.6493C82.7144 13.9553 82.9014 14.2613 83.1564 14.5843C83.9214 14.3803 84.6524 13.9893 85.3494 13.3773C85.2474 13.0543 85.0774 12.7313 84.8394 12.3913ZM89.9564 9.48432C89.9054 9.65432 89.8884 9.80732 89.8884 9.97732C89.8884 10.0963 89.9054 10.2663 89.9564 10.4703C90.3984 10.6063 90.8234 10.6573 91.2314 10.6573C91.7244 10.6913 92.2684 10.7423 92.8634 10.7763C92.8974 11.6263 92.9314 12.4593 92.9654 13.2753C92.4214 13.3433 91.8094 13.3773 91.1634 13.3773C90.4154 13.3773 89.7014 13.3433 89.0214 13.2753C89.0214 12.1363 88.9534 11.0483 88.8344 9.99432C88.7154 9.97732 88.5284 9.96032 88.2734 9.96032C88.0184 9.99432 87.8144 10.0283 87.6614 10.0623C87.6614 10.6063 87.6954 11.2693 87.7634 12.0683C87.8144 13.0543 87.8994 13.7513 88.0354 14.1933C88.5964 14.3633 89.6334 14.4483 91.1634 14.4483C92.5914 14.4483 93.5944 14.3633 94.1554 14.1933C94.1894 13.8193 94.2234 13.0033 94.2234 11.7283C94.2234 11.0993 94.1554 10.4533 94.0534 9.77332C93.0164 9.58632 91.6564 9.48432 89.9564 9.48432ZM89.1234 2.42932C88.1374 3.94232 87.2194 5.71032 86.4034 7.71632C88.5624 8.10732 90.7384 8.29432 92.9314 8.29432C93.0334 7.97132 93.0844 7.64832 93.0844 7.30832C91.3674 7.20632 89.6844 7.05332 88.0524 6.81532C88.7494 5.48932 89.4804 4.16332 90.2284 2.83732C89.8714 2.66732 89.4974 2.53132 89.1234 2.42932ZM94.0534 4.45232C93.7474 4.53732 93.4244 4.65632 93.0844 4.82632C93.4414 5.81232 93.9344 6.76432 94.5464 7.68232C94.8864 7.61432 95.2094 7.47832 95.4814 7.27432C95.3114 6.84932 95.1074 6.39032 94.8524 5.91432C94.6144 5.43832 94.3594 4.94532 94.0534 4.45232ZM109.353 11.1163C109.965 11.1843 110.747 11.2183 111.699 11.2183C111.767 11.0143 111.818 10.7933 111.818 10.5553C110.934 10.4873 110.101 10.4363 109.353 10.4023V9.60332C109.217 9.56932 109.047 9.53532 108.877 9.53532C108.775 9.53532 108.673 9.55232 108.571 9.55232C108.877 9.17832 109.234 8.75332 109.608 8.27732C109.965 7.85232 110.322 7.42732 110.696 6.98532C112.124 7.05332 113.569 7.07032 115.065 7.07032C115.116 6.74732 115.15 6.42432 115.15 6.11832C113.875 6.05032 112.668 5.99932 111.512 5.96532C111.648 5.79532 111.801 5.59132 111.954 5.38732C111.648 5.14932 111.325 4.94532 110.951 4.77532C110.611 5.14932 110.288 5.52332 109.948 5.91432C108.979 5.89732 108.061 5.88032 107.194 5.88032C107.177 6.01632 107.177 6.16932 107.177 6.30532V6.79832C107.789 6.84932 108.418 6.88332 109.064 6.91732C108.826 7.18932 108.571 7.47832 108.316 7.78432C108.282 7.81832 108.265 7.85232 108.231 7.88632C107.721 7.54632 107.228 7.27432 106.752 7.03632C106.582 7.25732 106.395 7.52932 106.225 7.83532C106.65 8.17532 107.092 8.46432 107.568 8.68532C106.837 9.53532 106.31 10.1643 106.004 10.5723C106.191 10.9123 106.531 11.1673 107.007 11.3033C107.177 11.1503 107.364 10.9803 107.534 10.7763C107.704 10.5893 107.908 10.3683 108.112 10.0963C108.129 10.0623 108.163 10.0283 108.214 9.97732C108.18 10.1473 108.163 10.3343 108.163 10.5213C108.163 11.2183 108.197 11.7963 108.282 12.2553C108.69 12.4253 109.319 12.5103 110.169 12.5273C110.22 13.0713 110.322 13.6833 110.475 14.3803C110.22 14.3803 109.982 14.3973 109.744 14.3973C109.744 14.6693 109.778 14.9243 109.846 15.1453C110.135 15.1793 110.526 15.2133 111.002 15.2133C111.308 15.2133 111.546 15.1623 111.733 15.0943C111.597 13.9723 111.461 13.1393 111.325 12.5443C112.294 12.5443 112.991 12.4933 113.399 12.3913C113.484 12.2383 113.535 11.6093 113.535 10.5213C113.535 10.3343 113.518 10.1473 113.518 9.96032C113.96 10.2833 114.419 10.5723 114.895 10.8273C115.167 10.6233 115.388 10.4363 115.575 10.2323C115.133 9.79032 114.657 9.36532 114.147 8.95732C114.555 8.56632 114.895 8.17532 115.167 7.78432C114.963 7.54632 114.674 7.37632 114.317 7.29132C113.96 7.63132 113.654 7.98832 113.399 8.34532C112.923 7.97132 112.413 7.63132 111.903 7.29132C111.648 7.44432 111.41 7.63132 111.206 7.85232C111.648 8.34532 112.107 8.80432 112.6 9.22932C111.784 9.19532 110.917 9.17832 109.965 9.17832C109.931 9.28032 109.914 9.38232 109.914 9.51832C109.914 9.72232 109.931 9.85832 109.965 9.94332C110.713 10.0283 111.529 10.0623 112.447 10.0623C112.464 10.2323 112.481 10.3853 112.481 10.5213C112.481 10.9633 112.447 11.3373 112.413 11.6093C112.192 11.6263 111.665 11.6263 110.832 11.6263C110.033 11.6263 109.54 11.6093 109.353 11.5413V11.1163ZM107.925 12.9353C107.211 13.5473 106.684 14.1253 106.327 14.7033C106.497 14.9583 106.786 15.1283 107.16 15.1963C107.908 14.6013 108.486 14.0233 108.894 13.4793C108.656 13.2073 108.333 13.0373 107.925 12.9353ZM113.178 12.8503C112.991 13.0883 112.804 13.3603 112.617 13.6663C113.331 14.1423 114.096 14.5333 114.929 14.8053C115.133 14.4993 115.303 14.2273 115.422 13.9723C114.623 13.5133 113.875 13.1393 113.178 12.8503ZM104.117 2.99032C104.015 3.33032 103.981 3.72132 103.981 4.14632C107.449 4.33332 111.019 4.41832 114.657 4.41832C114.725 4.04432 114.759 3.67032 114.759 3.27932C113.297 3.21132 111.801 3.14332 110.305 3.09232C110.339 2.58232 110.373 2.10632 110.373 1.66432C110.169 1.61332 109.982 1.57932 109.778 1.57932C109.54 1.57932 109.319 1.59632 109.149 1.61332C109.081 1.95332 109.03 2.44632 109.013 3.05832C107.398 3.02432 105.766 2.99032 104.117 2.99032ZM104.44 5.13232C104.321 5.81232 104.219 6.47532 104.117 7.15532C103.471 7.18932 102.859 7.24032 102.247 7.29132C102.247 7.63132 102.281 7.97132 102.349 8.27732C102.859 8.27732 103.403 8.26032 103.964 8.20932C103.862 8.88932 103.777 9.56932 103.709 10.2493C103.131 10.1813 102.587 10.1303 102.094 10.1303C102.009 10.4363 101.975 10.7253 101.975 11.0143C102.366 11.1503 102.893 11.2183 103.573 11.2353C103.488 11.9663 103.403 12.6973 103.335 13.4283C103.675 13.4793 104.049 13.5303 104.423 13.5643C104.916 10.8103 105.29 8.03932 105.545 5.21732C105.205 5.18332 104.848 5.16632 104.44 5.13232ZM122.749 3.95932C122.681 4.26532 122.664 4.58832 122.664 4.94532C123.786 5.18332 124.891 5.43832 125.996 5.71032C125.486 6.69632 125.01 7.68232 124.534 8.66832C124.908 9.53532 125.214 10.4023 125.486 11.2523C124.959 11.2523 124.432 11.2183 123.905 11.1843C123.769 10.6403 123.599 10.0793 123.395 9.50132C123.055 9.53532 122.732 9.60332 122.426 9.70532C122.562 11.0313 122.868 12.3403 123.327 13.6323C123.667 13.6323 124.024 13.5643 124.364 13.4283C124.296 13.0373 124.228 12.6293 124.143 12.2213C124.568 12.2553 125.061 12.2723 125.639 12.2723C125.979 12.2723 126.251 12.2383 126.455 12.1703C126.455 10.7253 126.183 9.58632 125.639 8.75332C126.455 7.52932 127.135 6.27132 127.645 4.94532C125.979 4.41832 124.347 4.09532 122.749 3.95932ZM128.784 3.48332C128.58 3.48332 128.393 3.50032 128.24 3.51732C128.121 4.18032 128.07 5.16632 128.07 6.45832C128.172 6.54332 128.325 6.57732 128.563 6.57732C128.801 6.57732 128.988 6.56032 129.107 6.52632C129.209 5.43832 129.277 4.46932 129.277 3.58532C129.107 3.51732 128.954 3.48332 128.784 3.48332ZM129.719 3.70432C129.685 3.85732 129.685 3.99332 129.685 4.12932C129.685 4.33332 129.702 4.50332 129.736 4.62232C131.504 4.72432 133.255 4.75832 135.006 4.75832C135.057 5.54032 135.108 6.10132 135.176 6.45832C135.414 6.49232 135.601 6.49232 135.754 6.49232C135.958 6.49232 136.128 6.47532 136.247 6.42432C136.247 5.59132 136.213 4.72432 136.145 3.82332C135.125 3.78932 134.105 3.75532 133.068 3.73832C133.034 3.17732 132.983 2.63332 132.898 2.10632C132.796 2.07232 132.609 2.03832 132.354 2.03832C132.099 2.07232 131.912 2.12332 131.81 2.19132C131.827 2.70132 131.878 3.21132 131.946 3.72132C131.198 3.72132 130.467 3.70432 129.719 3.70432ZM129.787 6.35632C129.753 6.66232 129.753 6.96832 129.753 7.29132C131.181 7.51232 132.745 7.61432 134.411 7.61432C134.479 7.27432 134.513 6.96832 134.513 6.66232C132.881 6.50932 131.317 6.40732 129.787 6.35632ZM135.482 9.19532C134.343 9.22932 133.221 9.26332 132.116 9.33132C130.994 9.38232 129.872 9.43332 128.784 9.50132C128.784 9.87532 128.801 10.2153 128.869 10.5553C131.113 10.4873 133.34 10.3683 135.533 10.1983V9.68832C135.533 9.51832 135.516 9.34832 135.482 9.19532ZM134.258 11.5073C133.85 11.5413 133.51 11.5583 133.204 11.5923C133.204 12.5953 133.289 13.5983 133.493 14.6013C133.918 14.6183 134.258 14.6353 134.513 14.6353C135.261 14.6353 135.652 14.6013 135.686 14.5673V14.0913C135.686 13.9043 135.652 13.7513 135.618 13.6153C135.091 13.6153 134.7 13.6153 134.462 13.5983C134.394 12.9013 134.326 12.2043 134.258 11.5073ZM130.246 11.4563C129.906 12.3403 129.617 13.3773 129.396 14.5673C129.651 14.7373 129.991 14.8393 130.433 14.8393C130.654 14.2613 130.943 13.2413 131.283 11.7623C130.994 11.5923 130.654 11.4903 130.246 11.4563Z" fill="white"/>
</svg>
