<svg width="153" height="14" viewBox="0 0 153 14" fill="none" xmlns="http://www.w3.org/2000/svg">
<path d="M19.4848 5.74422C19.4448 5.83755 19.3715 5.95755 19.2648 6.10422C19.1715 6.23755 19.0648 6.37755 18.9448 6.52422C18.8248 6.65755 18.6915 6.78422 18.5448 6.90422C18.4115 7.02422 18.2848 7.11089 18.1648 7.16422C17.8448 7.31089 17.5381 7.37089 17.2448 7.34422C16.9515 7.30422 16.6315 7.16422 16.2848 6.92422C15.8981 6.67089 15.5448 6.43755 15.2248 6.22422C14.9181 6.01089 14.6315 5.81089 14.3648 5.62422C14.2315 5.57089 14.1115 5.57755 14.0048 5.64422C13.6448 5.91089 13.1981 6.11755 12.6648 6.26422C12.2381 6.41089 11.8181 6.49089 11.4048 6.50422C11.3781 6.50422 11.3448 6.51755 11.3048 6.54422C11.2648 6.55755 11.2581 6.58422 11.2848 6.62422C11.3515 6.75755 11.3315 6.88422 11.2248 7.00422C11.1181 7.11089 10.9515 7.19755 10.7248 7.26422C10.5248 7.31755 10.2715 7.38422 9.96481 7.46422C9.65814 7.53089 9.30481 7.60422 8.90481 7.68422C8.69147 7.75089 8.58481 7.81755 8.58481 7.88422C8.58481 7.93755 8.63147 7.97755 8.72481 8.00422C8.87147 8.03089 9.03147 8.03755 9.2048 8.02422C9.37814 7.99755 9.63814 7.95089 9.9848 7.88422C10.0781 7.85755 10.1648 7.83089 10.2448 7.80422C10.3381 7.77755 10.4315 7.74422 10.5248 7.70422C10.7915 7.59755 11.0315 7.49089 11.2448 7.38422C11.4581 7.27755 11.6181 7.19089 11.7248 7.12422C11.9915 6.96422 12.1648 6.86422 12.2448 6.82422C12.3248 6.78422 12.4181 6.77755 12.5248 6.80422C12.7648 6.87089 12.9181 6.93089 12.9848 6.98422C13.0515 7.03755 13.0981 7.12422 13.1248 7.24422C13.1781 7.51089 12.8781 7.75089 12.2248 7.96422C12.1048 8.00422 11.9848 8.04422 11.8648 8.08422C11.7448 8.12422 11.5915 8.17755 11.4048 8.24422C11.2315 8.31089 11.0048 8.39755 10.7248 8.50422C10.4581 8.61089 10.1115 8.75089 9.68481 8.92422C9.52481 8.99089 9.47147 9.07089 9.5248 9.16422C9.57814 9.24422 9.69147 9.29755 9.86481 9.32422C10.2648 9.37755 10.6581 9.35755 11.0448 9.26422C11.4448 9.17089 11.7915 9.05089 12.0848 8.90422C12.1515 8.87755 12.1781 8.84422 12.1648 8.80422C12.1648 8.76422 12.1248 8.70422 12.0448 8.62422C11.9781 8.55755 11.9515 8.49089 11.9648 8.42422C11.9915 8.35755 12.0448 8.25755 12.1248 8.12422C12.1915 8.01755 12.3248 7.95089 12.5248 7.92422C12.7381 7.89755 12.9581 7.93755 13.1848 8.04422C13.3315 8.11089 13.4581 8.17755 13.5648 8.24422C13.6848 8.29755 13.8115 8.36422 13.9448 8.44422C14.0781 8.51089 14.2248 8.59755 14.3848 8.70422C14.5581 8.81089 14.7715 8.94422 15.0248 9.10422C15.2381 9.25089 15.3515 9.37755 15.3648 9.48422C15.3915 9.57755 15.3581 9.66422 15.2648 9.74422C15.1981 9.81089 15.0848 9.85089 14.9248 9.86422C14.7648 9.86422 14.6115 9.83089 14.4648 9.76422C14.3181 9.69755 14.1781 9.63755 14.0448 9.58422C13.9115 9.51755 13.7781 9.45089 13.6448 9.38422C13.5781 9.33089 13.4448 9.33755 13.2448 9.40422C13.0315 9.52422 12.7848 9.64422 12.5048 9.76422C12.2381 9.87089 11.9648 9.95755 11.6848 10.0242C11.5648 10.0642 11.5115 10.1709 11.5248 10.3442C11.5515 10.7709 11.5515 11.1442 11.5248 11.4642C11.4981 11.7842 11.4248 12.0576 11.3048 12.2842C11.1981 12.4976 11.0381 12.6642 10.8248 12.7842C10.6115 12.8909 10.3315 12.9576 9.9848 12.9842C9.87814 12.9842 9.71147 12.9576 9.4848 12.9042C9.25814 12.8509 9.02481 12.7776 8.7848 12.6842C8.5448 12.5776 8.31814 12.4509 8.1048 12.3042C7.89147 12.1442 7.74481 11.9576 7.66481 11.7442C7.53147 11.4242 7.63814 11.2976 7.98481 11.3642C8.33147 11.4709 8.59147 11.5176 8.76481 11.5042C8.95147 11.4909 9.12481 11.4376 9.28481 11.3442C9.3248 11.3176 9.35814 11.2442 9.3848 11.1242C9.41147 10.9909 9.41147 10.7576 9.3848 10.4242C9.3848 10.3042 9.28481 10.2242 9.08481 10.1842C8.47147 10.0509 7.95814 9.99089 7.5448 10.0042C7.1448 10.0042 6.85147 10.0309 6.6648 10.0842C6.35814 10.1776 6.15147 10.2176 6.04481 10.2042C5.93814 10.1909 5.85147 10.1309 5.7848 10.0242C5.69147 9.87755 5.69814 9.73755 5.80481 9.60422C5.92481 9.47089 6.13814 9.37089 6.44481 9.30422C6.53814 9.27755 6.69147 9.22422 6.9048 9.14422C7.13147 9.06422 7.39147 8.97089 7.6848 8.86422C7.88481 8.75755 7.95814 8.67755 7.9048 8.62422C7.86481 8.55755 7.77147 8.53755 7.6248 8.56422C7.42481 8.56422 7.18481 8.57755 6.9048 8.60422C6.63814 8.63089 6.43147 8.66422 6.2848 8.70422C5.93814 8.81089 5.70481 8.85089 5.58481 8.82422C5.47814 8.78422 5.41147 8.67089 5.3848 8.48422C5.3448 8.20422 5.3848 8.01755 5.5048 7.92422C5.63814 7.81755 5.8848 7.73755 6.2448 7.68422C6.4048 7.63089 6.61147 7.57755 6.86481 7.52422C7.13147 7.45755 7.39814 7.39089 7.66481 7.32422C7.81147 7.29755 7.81147 7.24422 7.66481 7.16422C7.57147 7.09755 7.53814 7.03089 7.56481 6.96422C7.59147 6.89755 7.67814 6.87755 7.8248 6.90422C7.97147 6.94422 8.1048 6.94422 8.2248 6.90422C8.42481 6.83755 8.41814 6.80422 8.20481 6.80422C8.12481 6.80422 8.06481 6.79755 8.02481 6.78422C7.71814 6.75755 7.45147 6.73755 7.2248 6.72422C7.01147 6.71089 6.79814 6.71089 6.58481 6.72422C6.38481 6.72422 6.15814 6.73755 5.90481 6.76422C5.6648 6.79089 5.37147 6.83088 5.0248 6.88422C4.95814 6.89755 4.89814 6.91089 4.84481 6.92422C4.79147 6.93755 4.71814 6.96422 4.6248 7.00422C4.55814 7.03089 4.49814 7.05755 4.4448 7.08422C4.39147 7.11089 4.33814 7.13089 4.2848 7.14422C4.0848 7.19755 3.9448 7.21089 3.8648 7.18422C3.7848 7.14422 3.69147 7.05089 3.5848 6.90422C3.51814 6.83755 3.47814 6.76422 3.4648 6.68422C3.4648 6.59089 3.51147 6.46422 3.6048 6.30422C3.63147 6.25089 3.6648 6.17089 3.7048 6.06422C3.75814 5.95755 3.81147 5.81755 3.8648 5.64422C3.89147 5.56422 3.87147 5.51755 3.8048 5.50422C3.73814 5.47755 3.5848 5.47755 3.3448 5.50422C3.2248 5.53088 3.0848 5.56422 2.9248 5.60422C2.77814 5.64422 2.6248 5.68422 2.4648 5.72422C2.31814 5.76422 2.17814 5.80422 2.0448 5.84422C1.9248 5.87089 1.83147 5.89755 1.7648 5.92422C1.41814 6.08422 1.1448 6.14422 0.944805 6.10422C0.744805 6.05089 0.651471 5.85755 0.664805 5.52422C0.678138 5.37755 0.744805 5.23755 0.864805 5.10422C0.998138 4.97088 1.15147 4.86422 1.3248 4.78422C1.51147 4.69089 1.7048 4.62422 1.9048 4.58422C2.11814 4.54422 2.3048 4.54422 2.4648 4.58422C2.61147 4.62422 2.7448 4.65755 2.8648 4.68422C2.9848 4.69755 3.11147 4.69089 3.2448 4.66422C3.39147 4.63755 3.6248 4.63755 3.9448 4.66422C3.99814 4.66422 4.0448 4.65088 4.0848 4.62422C4.13814 4.59755 4.17147 4.54422 4.1848 4.46422C4.25147 4.22422 4.27147 4.07089 4.2448 4.00422C4.23147 3.76422 4.23814 3.59755 4.2648 3.50422C4.29147 3.39755 4.31814 3.33088 4.3448 3.30422C4.49147 3.18422 4.65147 3.13089 4.8248 3.14422C4.99814 3.14422 5.1848 3.19088 5.3848 3.28422C5.43814 3.31088 5.49814 3.33755 5.5648 3.36422C5.63147 3.37755 5.68481 3.37755 5.7248 3.36422C5.97814 3.32422 6.23147 3.29089 6.4848 3.26422C6.73814 3.23755 6.97147 3.22422 7.18481 3.22422C7.41147 3.21088 7.61147 3.21088 7.78481 3.22422C7.95814 3.23755 8.08481 3.26422 8.16481 3.30422C8.39147 3.38422 8.55814 3.43088 8.66481 3.44422C8.77147 3.44422 8.87147 3.40422 8.96481 3.32422C9.04481 3.25755 9.15814 3.22422 9.30481 3.22422C9.46481 3.22422 9.61147 3.25755 9.74481 3.32422C9.90481 3.40422 10.0115 3.45755 10.0648 3.48422C10.1315 3.51088 10.1848 3.51088 10.2248 3.48422C10.5448 3.27089 10.8048 3.01755 11.0048 2.72422C11.2048 2.41755 11.3448 2.02422 11.4248 1.54422C11.4781 1.19755 11.5715 0.984218 11.7048 0.904218C11.8381 0.824218 12.0515 0.810884 12.3448 0.864218C12.5315 0.904218 12.6848 1.03088 12.8048 1.24422C12.9381 1.44422 12.9715 1.65755 12.9048 1.88422C12.8915 1.92422 12.8981 1.97088 12.9248 2.02422C12.9515 2.06422 12.9981 2.08422 13.0648 2.08422C13.7448 2.09755 14.3915 2.11089 15.0048 2.12422C15.6181 2.12422 16.2448 2.11089 16.8848 2.08422C17.0715 2.08422 17.2248 2.12422 17.3448 2.20422C17.4648 2.28422 17.5315 2.38422 17.5448 2.50422C17.5581 2.69088 17.4915 2.81755 17.3448 2.88422C17.2115 2.95089 16.9115 2.99755 16.4448 3.02422C16.3381 3.02422 16.2115 3.02422 16.0648 3.02422C15.9181 3.02422 15.7515 3.03089 15.5648 3.04422C15.4448 3.04422 15.3648 3.06422 15.3248 3.10422C15.2848 3.13088 15.2648 3.17755 15.2648 3.24422C15.2781 3.43088 15.2648 3.61088 15.2248 3.78422C15.1848 3.94422 15.1381 4.09755 15.0848 4.24422C15.0581 4.29755 15.0581 4.35755 15.0848 4.42422C15.1115 4.47755 15.1581 4.51755 15.2248 4.54422C15.9581 4.73089 16.6581 4.89089 17.3248 5.02422C18.0048 5.14422 18.6648 5.25755 19.3048 5.36422C19.4381 5.39088 19.5181 5.42422 19.5448 5.46422C19.5715 5.50422 19.5515 5.59755 19.4848 5.74422ZM10.5248 2.30422C10.5381 2.45088 10.4848 2.56422 10.3648 2.64422C10.2448 2.71089 10.0115 2.75089 9.6648 2.76422C8.7048 2.77755 7.83147 2.79755 7.04481 2.82422C6.27147 2.85089 5.59814 2.87755 5.0248 2.90422C4.8648 2.90422 4.73814 2.93089 4.6448 2.98422C4.5248 3.05089 4.3848 3.12422 4.2248 3.20422C4.07814 3.28422 3.9048 3.37088 3.7048 3.46422C3.4648 3.57089 3.29147 3.62422 3.1848 3.62422C3.09147 3.62422 2.99147 3.57089 2.8848 3.46422C2.81814 3.39755 2.77814 3.33089 2.7648 3.26422C2.75147 3.18422 2.77814 3.12422 2.8448 3.08422C3.21814 2.85755 3.55147 2.59755 3.8448 2.30422C4.15147 2.01088 4.41814 1.71755 4.6448 1.42422C4.7648 1.27755 4.8648 1.16422 4.9448 1.08422C5.0248 1.00422 5.09814 0.950885 5.16481 0.924218C5.24481 0.897552 5.3248 0.897552 5.4048 0.924218C5.49814 0.937551 5.61814 0.970885 5.76481 1.02422C6.23147 1.25089 6.39814 1.48422 6.26481 1.72422C6.19814 1.83088 6.27147 1.88422 6.4848 1.88422C6.83147 1.88422 7.13814 1.88422 7.4048 1.88422C7.6848 1.88422 7.95147 1.89088 8.20481 1.90422C8.45814 1.90422 8.71147 1.91089 8.96481 1.92422C9.21814 1.93755 9.50481 1.95088 9.82481 1.96422C10.1315 1.96422 10.3181 1.99088 10.3848 2.04422C10.4515 2.09755 10.4981 2.18422 10.5248 2.30422ZM17.6648 12.4042C17.4781 12.6309 17.1115 12.6842 16.5648 12.5642C15.9915 12.4442 15.4381 12.2909 14.9048 12.1042C14.3848 11.9176 13.7848 11.6709 13.1048 11.3642C12.7181 11.1776 12.5048 10.9842 12.4648 10.7842C12.4248 10.5709 12.4981 10.3776 12.6848 10.2042C12.8715 10.0309 13.0581 9.95089 13.2448 9.96422C13.4448 9.96422 13.6781 10.0642 13.9448 10.2642C13.9848 10.2909 14.1381 10.3709 14.4048 10.5042C14.6715 10.6242 14.9848 10.7709 15.3448 10.9442C15.7181 11.1176 16.1048 11.2976 16.5048 11.4842C16.9048 11.6576 17.2515 11.8109 17.5448 11.9442C17.8115 12.0909 17.8515 12.2442 17.6648 12.4042ZM7.8648 10.4042C8.07814 10.6042 8.14481 10.7842 8.06481 10.9442C7.99814 11.1042 7.8048 11.2776 7.4848 11.4642C7.33814 11.5309 7.1848 11.5976 7.0248 11.6642C6.87814 11.7176 6.6848 11.7842 6.44481 11.8642C6.20481 11.9309 5.88481 12.0109 5.48481 12.1042C5.09814 12.1842 4.59147 12.2842 3.9648 12.4042C3.6848 12.4576 3.4648 12.4976 3.3048 12.5242C3.1448 12.5509 3.01814 12.5642 2.9248 12.5642C2.8448 12.5642 2.77814 12.5509 2.7248 12.5242C2.6848 12.4976 2.63814 12.4576 2.5848 12.4042C2.49147 12.2842 2.45147 12.1976 2.4648 12.1442C2.47814 12.0909 2.53814 12.0509 2.6448 12.0242C3.6448 11.7576 4.4448 11.4909 5.0448 11.2242C5.65814 10.9576 6.15814 10.6976 6.54481 10.4442C6.70481 10.3109 6.92481 10.2442 7.20481 10.2442C7.49814 10.2309 7.71814 10.2842 7.8648 10.4042ZM11.9448 3.20422C11.7981 3.35088 11.6515 3.49088 11.5048 3.62422C11.3581 3.75755 11.2115 3.88422 11.0648 4.00422C10.8115 4.21755 10.5448 4.31089 10.2648 4.28422C10.1581 4.25755 10.0848 4.29089 10.0448 4.38422C9.99147 4.57088 10.1181 4.67755 10.4248 4.70422C10.7315 4.70422 10.9448 4.73755 11.0648 4.80422C11.1848 4.87088 11.2248 4.94422 11.1848 5.02422C11.1048 5.18422 11.0181 5.29089 10.9248 5.34422C10.8448 5.39755 10.6915 5.41755 10.4648 5.40422C10.3981 5.40422 10.3381 5.40422 10.2848 5.40422C10.2315 5.40422 10.1715 5.39755 10.1048 5.38422C9.93147 5.38422 9.83814 5.45089 9.82481 5.58422C9.81147 5.65088 9.8048 5.70422 9.8048 5.74422C9.8048 5.77089 9.79814 5.81755 9.78481 5.88422C9.77147 5.97755 9.8048 6.03755 9.88481 6.06422C10.2715 6.13089 10.4115 6.22422 10.3048 6.34422C10.2115 6.46422 10.1315 6.55088 10.0648 6.60422C9.99814 6.64422 9.91147 6.67755 9.8048 6.70422C9.75147 6.71755 9.72481 6.73089 9.72481 6.74422C9.72481 6.75755 9.74481 6.76422 9.78481 6.76422C9.89147 6.73755 10.0115 6.69755 10.1448 6.64422C10.2781 6.59089 10.3781 6.53755 10.4448 6.48422C10.5248 6.43089 10.5315 6.37089 10.4648 6.30422C10.3715 6.25089 10.2981 6.17755 10.2448 6.08422C10.0981 5.88422 10.1581 5.76422 10.4248 5.72422C11.0515 5.63089 11.5381 5.53089 11.8848 5.42422C12.2315 5.30422 12.5448 5.14422 12.8248 4.94422C12.8781 4.91755 12.9048 4.88422 12.9048 4.84422C12.9181 4.79088 12.8848 4.73755 12.8048 4.68422C12.4581 4.45755 12.2115 4.31755 12.0648 4.26422C11.9315 4.19755 11.8181 4.15088 11.7248 4.12422C11.6181 4.09755 11.5381 4.04422 11.4848 3.96422C11.4448 3.88422 11.4981 3.78422 11.6448 3.66422C11.7515 3.57088 11.8581 3.52422 11.9648 3.52422C12.0848 3.51088 12.1981 3.52422 12.3048 3.56422C12.4648 3.63088 12.6248 3.69755 12.7848 3.76422C12.9581 3.81755 13.1448 3.88422 13.3448 3.96422C13.4781 3.97755 13.5648 3.93755 13.6048 3.84422C13.6715 3.65755 13.6915 3.45088 13.6648 3.22422C13.6648 3.18422 13.6515 3.14422 13.6248 3.10422C13.5981 3.06422 13.5515 3.04422 13.4848 3.04422C13.2981 3.05755 13.1048 3.06422 12.9048 3.06422C12.7181 3.05088 12.5248 3.04422 12.3248 3.04422C12.2581 3.05755 12.1915 3.07088 12.1248 3.08422C12.0715 3.09755 12.0115 3.13755 11.9448 3.20422ZM5.6848 6.06422C5.87147 6.05089 6.03814 6.04422 6.18481 6.04422C6.3448 6.03089 6.49814 6.02422 6.64481 6.02422C6.63147 6.02422 6.6248 6.01755 6.6248 6.00422C6.50481 5.93755 6.42481 5.83755 6.3848 5.70422C6.35814 5.57089 6.39814 5.45088 6.50481 5.34422H5.7848C5.55814 5.35755 5.4048 5.37755 5.3248 5.40422C5.25814 5.43089 5.21147 5.48422 5.1848 5.56422C5.13147 5.77755 5.13814 5.91755 5.2048 5.98422C5.2848 6.05089 5.4448 6.07755 5.6848 6.06422ZM7.64481 5.82422C7.71147 5.91755 7.73814 5.98422 7.7248 6.02422H8.38481C8.54481 5.99755 8.64481 5.90422 8.68481 5.74422C8.7248 5.50422 8.67814 5.38422 8.54481 5.38422C8.31814 5.37089 8.09814 5.36422 7.88481 5.36422C7.67147 5.36422 7.45147 5.35755 7.2248 5.34422C7.23814 5.35755 7.24481 5.37089 7.24481 5.38422C7.25814 5.39755 7.27147 5.41089 7.28481 5.42422C7.39147 5.58422 7.51147 5.71755 7.64481 5.82422ZM7.7248 4.46422C7.79147 4.53089 7.81147 4.59755 7.78481 4.66422H8.58481C8.73147 4.66422 8.79814 4.57755 8.7848 4.40422C8.7848 4.27088 8.7648 4.17755 8.72481 4.12422C8.68481 4.07089 8.59147 4.03755 8.44481 4.02422C8.2448 4.01089 8.05814 4.00422 7.88481 4.00422C7.71147 4.00422 7.54481 3.99755 7.38481 3.98422C7.39814 3.99755 7.4048 4.01089 7.4048 4.02422C7.4048 4.02422 7.41147 4.03088 7.42481 4.04422C7.47814 4.19088 7.57814 4.33088 7.7248 4.46422ZM6.9048 4.64422C6.83814 4.63089 6.77147 4.59088 6.7048 4.52422C6.50481 4.36422 6.45814 4.18422 6.5648 3.98422C6.51147 3.98422 6.45814 3.99088 6.40481 4.00422C6.3648 4.00422 6.31814 4.00422 6.26481 4.00422C6.19814 4.00422 6.1248 4.01089 6.04481 4.02422C5.97814 4.02422 5.91147 4.03088 5.84481 4.04422C5.75147 4.04422 5.6648 4.15755 5.58481 4.38422C5.55814 4.47755 5.5648 4.54422 5.6048 4.58422C5.64481 4.61088 5.77814 4.63089 6.0048 4.64422H6.9048ZM40.2048 10.2242C40.3115 10.9176 40.3048 11.4709 40.1848 11.8842C40.0648 12.2842 39.7648 12.5776 39.2848 12.7642C38.9648 12.8842 38.7115 12.9642 38.5248 13.0042C38.3381 13.0442 38.1981 13.0109 38.1048 12.9042C38.0248 12.8109 37.9781 12.6376 37.9648 12.3842C37.9515 12.1176 37.9648 11.7442 38.0048 11.2642C38.0181 11.0509 38.0315 10.7709 38.0448 10.4242C38.0581 10.0776 38.0648 9.69755 38.0648 9.28422C38.0648 8.87089 38.0648 8.44422 38.0648 8.00422C38.0648 7.55089 38.0581 7.13089 38.0448 6.74422C38.0448 6.34422 38.0381 5.99088 38.0248 5.68422C38.0248 5.37755 38.0181 5.14422 38.0048 4.98422C37.9781 4.75755 37.9381 4.61755 37.8848 4.56422C37.8315 4.49755 37.7515 4.45089 37.6448 4.42422C37.4048 4.38422 36.9715 4.35089 36.3448 4.32422C35.7181 4.29755 34.9715 4.29089 34.1048 4.30422C33.9581 4.30422 33.8448 4.42422 33.7648 4.66422C33.7381 4.77089 33.7248 4.86422 33.7248 4.94422C33.7248 5.01088 33.7581 5.08422 33.8248 5.16422C34.0115 5.37755 34.2315 5.60422 34.4848 5.84422C34.7381 6.07089 35.0048 6.30422 35.2848 6.54422C35.5648 6.78422 35.8448 7.01755 36.1248 7.24422C36.4181 7.45755 36.6981 7.65755 36.9648 7.84422C37.1781 7.99089 37.3381 8.12422 37.4448 8.24422C37.5648 8.35089 37.6381 8.45089 37.6648 8.54422C37.7048 8.62422 37.7048 8.71089 37.6648 8.80422C37.6248 8.89755 37.5581 8.99755 37.4648 9.10422C37.1448 9.47755 36.7248 9.49755 36.2048 9.16422C36.0048 9.03089 35.8181 8.90422 35.6448 8.78422C35.4715 8.66422 35.2781 8.51089 35.0648 8.32422C34.8515 8.12422 34.5981 7.88422 34.3048 7.60422C34.0248 7.31089 33.6648 6.93088 33.2248 6.46422C33.1448 6.35755 33.0581 6.38422 32.9648 6.54422C32.6581 7.14422 32.2981 7.68422 31.8848 8.16422C31.4848 8.63089 31.0581 9.01089 30.6048 9.30422C30.3781 9.45089 30.1515 9.55089 29.9248 9.60422C29.6981 9.65755 29.4848 9.66422 29.2848 9.62422C29.0848 9.58422 28.9048 9.50422 28.7448 9.38422C28.5981 9.25089 28.4915 9.07755 28.4248 8.86422C28.3981 8.79755 28.3915 8.74422 28.4048 8.70422C28.4181 8.66422 28.4648 8.63089 28.5448 8.60422C29.4515 8.29755 30.1981 7.81089 30.7848 7.14422C31.3715 6.46422 31.7648 5.62422 31.9648 4.62422C32.0048 4.42422 31.9181 4.32422 31.7048 4.32422C31.1581 4.33755 30.6181 4.35755 30.0848 4.38422C29.5648 4.39755 29.0248 4.42422 28.4648 4.46422C28.3448 4.46422 28.2848 4.53089 28.2848 4.66422C28.2715 5.13088 28.2648 5.59755 28.2648 6.06422C28.2781 6.51755 28.2981 6.85755 28.3248 7.08422C28.4048 8.03089 28.2781 8.92422 27.9448 9.76422C27.6248 10.5909 27.1115 11.2576 26.4048 11.7642C25.6315 12.3242 24.9248 12.5709 24.2848 12.5042C23.6581 12.4242 23.1648 12.0576 22.8048 11.4042C22.6981 11.2176 22.7381 11.1042 22.9248 11.0642C23.7381 10.9042 24.4448 10.6509 25.0448 10.3042C25.6581 9.94422 26.0648 9.53755 26.2648 9.08422C26.3981 8.79089 26.4981 8.45089 26.5648 8.06422C26.6315 7.66422 26.6648 7.26422 26.6648 6.86422C26.6781 6.46422 26.6648 6.08422 26.6248 5.72422C26.5848 5.36422 26.5248 5.06422 26.4448 4.82422C26.2981 4.39755 26.2315 4.05755 26.2448 3.80422C26.2581 3.55088 26.3581 3.33755 26.5448 3.16422C26.7448 2.97755 26.9648 2.89089 27.2048 2.90422C27.4581 2.90422 27.6848 2.99755 27.8848 3.18422C27.9381 3.23755 27.9981 3.26422 28.0648 3.26422C28.7315 3.19755 29.3781 3.15089 30.0048 3.12422C30.6315 3.08422 31.2581 3.05088 31.8848 3.02422C32.0581 3.02422 32.1315 2.93755 32.1048 2.76422C32.0781 2.51089 32.0381 2.27755 31.9848 2.06422C31.9315 1.83755 31.8648 1.63755 31.7848 1.46422C31.7448 1.37088 31.7381 1.27088 31.7648 1.16422C31.7915 1.05755 31.8515 0.970885 31.9448 0.904218C32.0515 0.824218 32.1915 0.770884 32.3648 0.744218C32.5381 0.717552 32.7381 0.730885 32.9648 0.784218C33.3515 0.877551 33.6581 1.07088 33.8848 1.36422C34.1115 1.64422 34.1915 2.06422 34.1248 2.62422C34.0848 2.87755 34.1581 3.00422 34.3448 3.00422C34.8515 3.01755 35.3581 3.03755 35.8648 3.06422C36.3848 3.09088 36.9248 3.12422 37.4848 3.16422C37.6581 3.17755 37.7981 3.17088 37.9048 3.14422C38.0115 3.11755 38.1315 3.05755 38.2648 2.96422C38.4515 2.83088 38.6248 2.75755 38.7848 2.74422C38.9448 2.73089 39.1181 2.79089 39.3048 2.92422C39.5315 3.08422 39.7115 3.23755 39.8448 3.38422C39.9781 3.53088 40.0715 3.70422 40.1248 3.90422C40.1781 4.10422 40.1981 4.34422 40.1848 4.62422C40.1715 4.89089 40.1315 5.22422 40.0648 5.62422C40.0248 5.85088 40.0048 6.16422 40.0048 6.56422C40.0048 6.95089 40.0115 7.37089 40.0248 7.82422C40.0381 8.27755 40.0581 8.72422 40.0848 9.16422C40.1248 9.59089 40.1648 9.94422 40.2048 10.2242ZM61.4848 1.12422C61.5781 1.37755 61.5781 1.57755 61.4848 1.72422C61.4048 1.85755 61.2048 1.97755 60.8848 2.08422C60.6848 2.15089 60.4981 2.20422 60.3248 2.24422C60.1515 2.28422 59.9515 2.33089 59.7248 2.38422C59.5381 2.42422 59.4181 2.39088 59.3648 2.28422C59.3248 2.17755 59.3848 2.05089 59.5448 1.90422C59.6381 1.82422 59.7715 1.69755 59.9448 1.52422C60.1315 1.33755 60.3115 1.15755 60.4848 0.984219C60.6715 0.797552 60.8581 0.730885 61.0448 0.784218C61.2715 0.837551 61.4181 0.950885 61.4848 1.12422ZM52.9048 9.84422C52.9981 9.31089 53.0715 8.73755 53.1248 8.12422C53.1915 7.51089 53.2315 6.93088 53.2448 6.38422C53.2581 5.83755 53.2515 5.36422 53.2248 4.96422C53.1981 4.55089 53.1448 4.28422 53.0648 4.16422C52.8781 3.85755 52.8048 3.57088 52.8448 3.30422C52.8848 3.03755 53.0048 2.83088 53.2048 2.68422C53.2848 2.61755 53.4248 2.57755 53.6248 2.56422C53.8381 2.53755 54.0315 2.59755 54.2048 2.74422C54.2981 2.82422 54.4315 2.86422 54.6048 2.86422C55.1381 2.85089 55.6048 2.84422 56.0048 2.84422C56.4048 2.83089 56.7981 2.82422 57.1848 2.82422C57.2915 2.82422 57.3648 2.79755 57.4048 2.74422C57.4448 2.67755 57.4515 2.51089 57.4248 2.24422C57.3981 1.92422 57.3915 1.66422 57.4048 1.46422C57.4181 1.25088 57.4515 1.09088 57.5048 0.984219C57.5581 0.864219 57.6315 0.784218 57.7248 0.744218C57.8181 0.704218 57.9381 0.684218 58.0848 0.684218C58.4048 0.684218 58.6381 0.797551 58.7848 1.02422C58.9315 1.23755 58.9715 1.62422 58.9048 2.18422C58.8781 2.41088 58.8781 2.55755 58.9048 2.62422C58.9448 2.69089 58.9981 2.72422 59.0648 2.72422C59.4515 2.69755 59.8048 2.69088 60.1248 2.70422C60.4448 2.70422 60.7181 2.70422 60.9448 2.70422C61.4248 2.71755 61.6915 2.88422 61.7448 3.20422C61.7848 3.39089 61.7448 3.53089 61.6248 3.62422C61.5181 3.70422 61.3115 3.76422 61.0048 3.80422C60.8315 3.83088 60.5581 3.85755 60.1848 3.88422C59.8248 3.89755 59.4515 3.91089 59.0648 3.92422C58.9981 3.93755 58.9448 3.98422 58.9048 4.06422C58.8781 4.13088 58.8715 4.19755 58.8848 4.26422C58.9248 4.69088 58.9848 5.12422 59.0648 5.56422C59.1448 5.99088 59.2515 6.41088 59.3848 6.82422C59.4381 6.97089 59.4981 7.04422 59.5648 7.04422C59.6448 7.04422 59.7048 6.97089 59.7448 6.82422C59.7981 6.65089 59.8381 6.47088 59.8648 6.28422C59.9048 6.09755 59.9315 5.92422 59.9448 5.76422C59.9715 5.29755 60.0248 4.97755 60.1048 4.80422C60.1848 4.63088 60.3115 4.51088 60.4848 4.44422C60.8315 4.31088 61.0781 4.40422 61.2248 4.72422C61.3848 5.09755 61.3515 5.67089 61.1248 6.44422C60.9781 6.96422 60.8381 7.38422 60.7048 7.70422C60.5848 8.01089 60.4648 8.27755 60.3448 8.50422C60.3048 8.59755 60.3115 8.67089 60.3648 8.72422C60.6448 9.08422 60.9115 9.39089 61.1648 9.64422C61.4315 9.89755 61.6915 10.1109 61.9448 10.2842C62.2115 10.4442 62.4848 10.5709 62.7648 10.6642C63.0581 10.7576 63.3715 10.8242 63.7048 10.8642C63.8381 10.8909 63.9248 10.9642 63.9648 11.0842C64.0048 11.1909 63.9915 11.3042 63.9248 11.4242C63.6448 11.9976 63.1048 12.4176 62.3048 12.6842C62.0781 12.7642 61.8781 12.8109 61.7048 12.8242C61.5448 12.8509 61.3781 12.8309 61.2048 12.7642C61.0448 12.6842 60.8781 12.5642 60.7048 12.4042C60.5315 12.2309 60.3315 11.9909 60.1048 11.6842C59.9981 11.5376 59.8915 11.3842 59.7848 11.2242C59.6781 11.0509 59.5848 10.8642 59.5048 10.6642C59.4248 10.5176 59.3581 10.4376 59.3048 10.4242C59.2648 10.4109 59.1915 10.4776 59.0848 10.6242C58.9248 10.8642 58.7181 11.0909 58.4648 11.3042C58.1848 11.5309 57.9381 11.7042 57.7248 11.8242C57.5248 11.9442 57.3448 12.0176 57.1848 12.0442C57.0248 12.0709 56.8781 12.0576 56.7448 12.0042C56.6115 11.9376 56.4781 11.8442 56.3448 11.7242C56.2515 11.6442 56.2181 11.5442 56.2448 11.4242C56.2715 11.2909 56.3648 11.1976 56.5248 11.1442C56.6181 11.1176 56.6981 11.0842 56.7648 11.0442C56.8448 11.0042 56.9115 10.9709 56.9648 10.9442C57.1915 10.7576 57.3181 10.6242 57.3448 10.5442C57.3715 10.4509 57.3581 10.3909 57.3048 10.3642C57.0781 10.2442 56.8781 10.1709 56.7048 10.1442C56.5448 10.1042 56.2981 10.1042 55.9648 10.1442C55.8981 10.1442 55.8515 10.1709 55.8248 10.2242C55.7581 10.3576 55.6715 10.4509 55.5648 10.5042C55.4581 10.5442 55.3581 10.5509 55.2648 10.5242C55.1181 10.4709 55.0048 10.3642 54.9248 10.2042C54.8581 10.0309 54.8315 9.77089 54.8448 9.42422C54.8581 9.11755 54.8581 8.84422 54.8448 8.60422C54.8448 8.35089 54.8381 8.13755 54.8248 7.96422C54.7981 7.49755 54.8715 7.21088 55.0448 7.10422C55.2315 6.99755 55.3915 6.97089 55.5248 7.02422C55.5781 7.05089 55.6381 7.06422 55.7048 7.06422C55.7715 7.06422 55.8248 7.06422 55.8648 7.06422C56.2915 7.07755 56.6181 7.07755 56.8448 7.06422C57.0848 7.05089 57.2648 7.03089 57.3848 7.00422C57.6515 6.93755 57.8315 7.04422 57.9248 7.32422C57.9781 7.47089 57.9848 7.71089 57.9448 8.04422C57.9181 8.21755 57.9048 8.41755 57.9048 8.64422C57.9048 8.87089 57.9115 9.11755 57.9248 9.38422C57.9381 9.62422 57.9581 9.77089 57.9848 9.82422C58.0248 9.86422 58.0915 9.84422 58.1848 9.76422C58.2515 9.69755 58.3115 9.63755 58.3648 9.58422C58.4181 9.53089 58.4781 9.44422 58.5448 9.32422C58.6248 9.19089 58.6715 9.08422 58.6848 9.00422C58.7115 8.91089 58.7048 8.79755 58.6648 8.66422C58.6248 8.53089 58.5715 8.36422 58.5048 8.16422C58.4515 7.95089 58.3915 7.72422 58.3248 7.48422C58.2715 7.24422 58.2115 7.00422 58.1448 6.76422C58.0915 6.52422 58.0381 6.29755 57.9848 6.08422C57.9448 5.93755 57.8448 5.87089 57.6848 5.88422C56.7648 6.01755 55.7515 6.07755 54.6448 6.06422C54.5248 6.06422 54.4648 6.15088 54.4648 6.32422C54.4648 6.47089 54.4581 6.66422 54.4448 6.90422C54.4448 7.14422 54.4448 7.37088 54.4448 7.58422C54.4448 8.81089 54.3648 9.81089 54.2048 10.5842C54.0448 11.3576 53.7981 11.9509 53.4648 12.3642C53.1581 12.7109 52.8715 12.8709 52.6048 12.8442C52.3381 12.8176 52.0715 12.6309 51.8048 12.2842C51.6848 12.1376 51.6248 12.0176 51.6248 11.9242C51.6381 11.8176 51.6981 11.7242 51.8048 11.6442C52.1248 11.4176 52.3648 11.1776 52.5248 10.9242C52.6848 10.6709 52.8115 10.3109 52.9048 9.84422ZM57.7448 4.88422C57.7048 4.64422 57.6848 4.42422 57.6848 4.22422C57.6715 4.10422 57.6381 4.03089 57.5848 4.00422C57.5315 3.96422 57.4515 3.94422 57.3448 3.94422C57.0381 3.94422 56.6381 3.95088 56.1448 3.96422C55.6648 3.97755 55.2048 3.99755 54.7648 4.02422C54.6181 4.02422 54.5448 4.09755 54.5448 4.24422C54.5448 4.32422 54.5381 4.42422 54.5248 4.54422C54.5248 4.65088 54.5248 4.77755 54.5248 4.92422C54.5248 5.07089 54.6181 5.13755 54.8048 5.12422C55.2181 5.09755 55.6448 5.08422 56.0848 5.08422C56.5381 5.08422 56.9915 5.09755 57.4448 5.12422C57.6581 5.12422 57.7581 5.04422 57.7448 4.88422ZM56.9448 8.78422C56.9448 8.67755 56.9448 8.57755 56.9448 8.48422C56.9448 8.39089 56.9381 8.28422 56.9248 8.16422C56.9115 8.03089 56.8381 7.95089 56.7048 7.92422C56.4915 7.89755 56.2715 7.90422 56.0448 7.94422C55.9248 7.97089 55.8648 8.03089 55.8648 8.12422C55.8648 8.31089 55.8581 8.47755 55.8448 8.62422C55.8448 8.77089 55.8515 8.92422 55.8648 9.08422C55.8648 9.20422 55.9248 9.27089 56.0448 9.28422C56.2181 9.31089 56.4381 9.28422 56.7048 9.20422C56.8648 9.15089 56.9448 9.01089 56.9448 8.78422ZM52.6448 3.72422C52.7381 3.84422 52.7848 3.95755 52.7848 4.06422C52.7981 4.17089 52.7715 4.25755 52.7048 4.32422C52.6515 4.37755 52.5648 4.40422 52.4448 4.40422C52.3248 4.40422 52.1848 4.35088 52.0248 4.24422C51.8381 4.12422 51.6315 3.97755 51.4048 3.80422C51.1915 3.63088 50.9915 3.45089 50.8048 3.26422C50.6581 3.13088 50.5381 3.05755 50.4448 3.04422C50.3515 3.01755 50.2848 3.03088 50.2448 3.08422C49.8581 3.55089 49.4648 3.95755 49.0648 4.30422C48.6781 4.65089 48.2715 4.95755 47.8448 5.22422C47.3381 5.54422 46.9248 5.69089 46.6048 5.66422C46.2981 5.63755 46.0248 5.43755 45.7848 5.06422C45.5981 4.78422 45.5448 4.55755 45.6248 4.38422C45.7048 4.19755 45.8581 4.09089 46.0848 4.06422C46.5515 3.99755 46.9715 3.88422 47.3448 3.72422C47.7315 3.55089 48.0581 3.33755 48.3248 3.08422C48.6715 2.77755 48.9381 2.49755 49.1248 2.24422C49.3115 1.97755 49.4581 1.67088 49.5648 1.32422C49.6848 0.964218 49.8448 0.737551 50.0448 0.644218C50.2581 0.550884 50.4715 0.564218 50.6848 0.684218C51.0981 0.924218 51.2181 1.29088 51.0448 1.78422C51.0315 1.86422 51.0581 1.93755 51.1248 2.00422C51.3648 2.24422 51.5981 2.49755 51.8248 2.76422C52.0648 3.03089 52.3381 3.35089 52.6448 3.72422ZM52.6848 10.3842C52.6981 10.5309 52.6048 10.6709 52.4048 10.8042C52.2048 10.9242 51.8981 11.0042 51.4848 11.0442C51.4048 11.0576 51.2515 11.0842 51.0248 11.1242C50.7981 11.1642 50.5381 11.2176 50.2448 11.2842C49.9648 11.3376 49.6648 11.4042 49.3448 11.4842C49.0381 11.5509 48.7648 11.6109 48.5248 11.6642C48.3648 11.7042 48.1715 11.7642 47.9448 11.8442C47.7315 11.9242 47.5181 12.0242 47.3048 12.1442C46.9715 12.3309 46.7248 12.4176 46.5648 12.4042C46.4181 12.3776 46.3181 12.3042 46.2648 12.1842C46.1981 12.0242 46.1715 11.8642 46.1848 11.7042C46.2115 11.5442 46.2981 11.3442 46.4448 11.1042C46.5915 10.8642 46.7248 10.7109 46.8448 10.6442C46.9781 10.5776 47.1048 10.5776 47.2248 10.6442C47.3048 10.6842 47.4315 10.7042 47.6048 10.7042C47.7915 10.6909 48.0515 10.6376 48.3848 10.5442C48.4915 10.5176 48.5381 10.4709 48.5248 10.4042C48.5248 10.3242 48.4781 10.2842 48.3848 10.2842C48.1581 10.2709 47.9848 10.2309 47.8648 10.1642C47.7581 10.0976 47.6315 9.97089 47.4848 9.78422C47.2181 9.45089 47.2048 9.13089 47.4448 8.82422C47.6448 8.58422 47.8515 8.49089 48.0648 8.54422C48.2781 8.59755 48.4181 8.77755 48.4848 9.08422C48.5381 9.35089 48.5981 9.56422 48.6648 9.72422C48.7315 9.87089 48.8181 10.0176 48.9248 10.1642C49.0448 10.3242 49.1315 10.3976 49.1848 10.3842C49.2648 10.3709 49.3048 10.3042 49.3048 10.1842C49.3048 10.0776 49.3048 9.94422 49.3048 9.78422C49.3181 9.62422 49.3248 9.45755 49.3248 9.28422C49.3381 9.09755 49.3448 8.91755 49.3448 8.74422C49.3581 8.57089 49.3648 8.41755 49.3648 8.28422C49.3648 8.13755 49.2981 8.06422 49.1648 8.06422C48.9248 8.07755 48.7315 8.10422 48.5848 8.14422C48.4515 8.17089 48.2781 8.22422 48.0648 8.30422C47.6915 8.46422 47.4581 8.47089 47.3648 8.32422C47.2715 8.19089 47.2315 8.05089 47.2448 7.90422C47.2715 7.75755 47.3648 7.57089 47.5248 7.34422C47.7248 7.06422 47.9181 6.95755 48.1048 7.02422C48.2781 7.07755 48.4315 7.09755 48.5648 7.08422C48.6448 7.05755 48.7315 7.04422 48.8248 7.04422C48.9315 7.04422 49.0515 7.04422 49.1848 7.04422C49.3048 7.04422 49.3648 6.97755 49.3648 6.84422C49.3648 6.69755 49.3648 6.56422 49.3648 6.44422C49.3648 6.31089 49.3581 6.17755 49.3448 6.04422C49.3315 5.92422 49.2581 5.86422 49.1248 5.86422C48.9381 5.87755 48.7781 5.90422 48.6448 5.94422C48.5248 5.97089 48.3781 6.02422 48.2048 6.10422C48.0715 6.17088 47.9581 6.19088 47.8648 6.16422C47.7715 6.13755 47.7115 6.08422 47.6848 6.00422C47.6581 5.91089 47.6648 5.79755 47.7048 5.66422C47.7581 5.53088 47.8581 5.38422 48.0048 5.22422C48.3515 4.87755 48.6248 4.75755 48.8248 4.86422C48.9181 4.90422 48.9915 4.93089 49.0448 4.94422C49.0981 4.94422 49.1915 4.93088 49.3248 4.90422C49.4448 4.87755 49.6981 4.86422 50.0848 4.86422C50.4715 4.86422 50.9648 4.87755 51.5648 4.90422C51.9115 4.91755 52.1381 4.95089 52.2448 5.00422C52.3515 5.04422 52.4315 5.13755 52.4848 5.28422C52.5648 5.52422 52.5515 5.71089 52.4448 5.84422C52.3381 5.97755 52.0981 6.01755 51.7248 5.96422C51.6581 5.95089 51.5315 5.94422 51.3448 5.94422C51.1581 5.93088 51.0048 5.91089 50.8848 5.88422C50.7515 5.87089 50.6848 5.93755 50.6848 6.08422V6.84422C50.6848 6.97755 50.7448 7.05089 50.8648 7.06422C50.9981 7.09089 51.1715 7.10422 51.3848 7.10422C51.6115 7.10422 51.7648 7.11089 51.8448 7.12422C52.1781 7.15088 52.3981 7.20422 52.5048 7.28422C52.6115 7.36422 52.6581 7.49755 52.6448 7.68422C52.6315 7.84422 52.5648 7.96422 52.4448 8.04422C52.3381 8.12422 52.1181 8.15089 51.7848 8.12422C51.6781 8.11089 51.5248 8.10422 51.3248 8.10422C51.1381 8.09089 50.9848 8.08422 50.8648 8.08422C50.7448 8.08422 50.6848 8.15089 50.6848 8.28422C50.6848 8.47089 50.6781 8.68422 50.6648 8.92422C50.6515 9.15089 50.6381 9.43089 50.6248 9.76422C50.6248 9.88422 50.6648 9.96422 50.7448 10.0042C50.8248 10.0309 50.8915 10.0176 50.9448 9.96422C51.2515 9.68422 51.4648 9.31755 51.5848 8.86422C51.6515 8.59755 51.7848 8.43755 51.9848 8.38422C52.1848 8.31755 52.3581 8.37755 52.5048 8.56422C52.6915 8.76422 52.7715 8.96422 52.7448 9.16422C52.7181 9.36422 52.5915 9.53089 52.3648 9.66422C52.2581 9.73089 52.1515 9.78422 52.0448 9.82422C51.9515 9.85089 51.8315 9.89089 51.6848 9.94422C51.6181 9.97089 51.5848 9.99755 51.5848 10.0242C51.5981 10.0509 51.6448 10.0576 51.7248 10.0442C52.1515 9.99089 52.4115 9.98422 52.5048 10.0242C52.6115 10.0642 52.6715 10.1842 52.6848 10.3842ZM83.4848 5.92422C83.4181 6.13755 83.3315 6.27755 83.2248 6.34422C83.1181 6.41089 82.9715 6.43089 82.7848 6.40422C82.3715 6.33755 81.9181 6.24422 81.4248 6.12422C80.9448 5.99088 80.4448 5.83755 79.9248 5.66422C79.4048 5.47755 78.8848 5.28422 78.3648 5.08422C77.8448 4.87088 77.3515 4.65088 76.8848 4.42422C76.7648 4.37088 76.6248 4.39088 76.4648 4.48422C76.0915 4.73755 75.6448 5.00422 75.1248 5.28422C74.6181 5.55089 73.9648 5.86422 73.1648 6.22422C72.4715 6.53089 71.8781 6.73755 71.3848 6.84422C70.9048 6.93755 70.5115 6.95755 70.2048 6.90422C69.9115 6.83755 69.6981 6.71088 69.5648 6.52422C69.4315 6.32422 69.3781 6.09089 69.4048 5.82422C69.4181 5.62422 69.5515 5.52422 69.8048 5.52422C70.0448 5.53755 70.4381 5.47088 70.9848 5.32422C71.5448 5.17755 72.1581 4.97755 72.8248 4.72422C73.5048 4.47088 74.1981 4.17088 74.9048 3.82422C75.6115 3.47755 76.2448 3.11089 76.8048 2.72422C76.9515 2.61755 77.0181 2.51755 77.0048 2.42422C77.0048 2.33089 76.8981 2.25755 76.6848 2.20422C76.5781 2.17755 76.4648 2.16422 76.3448 2.16422C76.2248 2.15088 76.0315 2.15755 75.7648 2.18422C75.5915 2.19755 75.4715 2.23089 75.4048 2.28422C74.3115 2.95088 73.3915 3.41755 72.6448 3.68422C71.8981 3.93755 71.2181 4.07755 70.6048 4.10422C70.1648 4.13089 69.9048 3.93089 69.8248 3.50422C69.7981 3.33088 69.8115 3.18422 69.8648 3.06422C69.9181 2.93088 70.0181 2.85089 70.1648 2.82422C71.3381 2.67755 72.3448 2.42422 73.1848 2.06422C74.0248 1.69088 74.6581 1.28422 75.0848 0.844218C75.2715 0.657551 75.4515 0.557551 75.6248 0.544218C75.8115 0.517551 76.0648 0.597551 76.3848 0.784218C76.5448 0.890884 76.6315 0.997551 76.6448 1.10422C76.6581 1.22422 76.6915 1.29755 76.7448 1.32422C76.8381 1.35088 76.9248 1.37089 77.0048 1.38422C77.0848 1.39755 77.1715 1.41088 77.2648 1.42422C77.5315 1.45088 77.7648 1.41088 77.9648 1.30422C78.1115 1.23755 78.3115 1.23088 78.5648 1.28422C78.8181 1.33755 79.0381 1.43755 79.2248 1.58422C79.4515 1.77088 79.5381 1.97088 79.4848 2.18422C79.4448 2.38422 79.3448 2.51089 79.1848 2.56422C78.9581 2.63089 78.7515 2.72422 78.5648 2.84422C78.3781 2.95088 78.1715 3.10422 77.9448 3.30422C77.7581 3.45088 77.7381 3.55088 77.8848 3.60422C78.3515 3.72422 78.8515 3.86422 79.3848 4.02422C79.9315 4.18422 80.4448 4.34422 80.9248 4.50422C81.4181 4.66422 81.8448 4.81089 82.2048 4.94422C82.5781 5.07755 82.8315 5.18422 82.9648 5.26422C83.1915 5.38422 83.3381 5.49755 83.4048 5.60422C83.4848 5.71089 83.5115 5.81755 83.4848 5.92422ZM79.9248 7.02422C79.7781 7.25089 79.6048 7.41755 79.4048 7.52422C79.2048 7.63089 78.8981 7.73089 78.4848 7.82422C78.0315 7.93089 77.7581 7.94422 77.6648 7.86422C77.5848 7.77089 77.6315 7.59755 77.8048 7.34422C77.9115 7.19755 78.0248 6.99089 78.1448 6.72422C78.2781 6.44422 78.3781 6.21089 78.4448 6.02422C78.5115 5.81089 78.6781 5.71089 78.9448 5.72422C79.2248 5.72422 79.4915 5.89089 79.7448 6.22422C79.9048 6.43755 79.9915 6.59755 80.0048 6.70422C80.0181 6.81089 79.9915 6.91755 79.9248 7.02422ZM85.3248 10.9842C85.0581 11.4642 84.7648 11.8576 84.4448 12.1642C84.1381 12.4576 83.8248 12.6709 83.5048 12.8042C83.1848 12.9242 82.8715 12.9709 82.5648 12.9442C82.2715 12.9176 82.0048 12.8109 81.7648 12.6242C81.1515 12.1309 80.6115 11.7109 80.1448 11.3642C79.6915 11.0176 79.2648 10.7176 78.8648 10.4642C78.4648 10.1976 78.0781 9.96422 77.7048 9.76422C77.3315 9.55089 76.9181 9.33089 76.4648 9.10422C76.3448 9.03755 76.2515 9.01089 76.1848 9.02422C76.1315 9.02422 76.0915 9.04422 76.0648 9.08422C75.9181 9.33755 75.7381 9.59089 75.5248 9.84422C75.3115 10.0842 75.0381 10.3576 74.7048 10.6642C74.4515 10.8909 74.1048 11.1176 73.6648 11.3442C73.2381 11.5709 72.7648 11.7776 72.2448 11.9642C71.7248 12.1376 71.1915 12.2842 70.6448 12.4042C70.1115 12.5109 69.6048 12.5709 69.1248 12.5842C68.4048 12.6109 67.8848 12.5576 67.5648 12.4242C67.2581 12.2909 67.0248 12.0576 66.8648 11.7242C66.6381 11.2976 66.7381 11.0842 67.1648 11.0842C68.0848 11.0976 68.9315 11.0376 69.7048 10.9042C70.4915 10.7709 71.1848 10.5976 71.7848 10.3842C72.3981 10.1576 72.9181 9.90422 73.3448 9.62422C73.7715 9.33089 74.0848 9.03755 74.2848 8.74422C74.5915 8.27755 74.7981 7.81089 74.9048 7.34422C75.0248 6.87755 75.0515 6.44422 74.9848 6.04422C74.9448 5.73755 75.0448 5.49755 75.2848 5.32422C75.5381 5.15089 75.8448 5.13755 76.2048 5.28422C76.4448 5.39089 76.5915 5.55755 76.6448 5.78422C76.6981 6.01089 76.6981 6.33755 76.6448 6.76422C76.6315 6.89755 76.6181 7.02422 76.6048 7.14422C76.5915 7.25089 76.5715 7.35755 76.5448 7.46422C76.5048 7.62422 76.5848 7.74422 76.7848 7.82422C77.3181 8.07755 77.9315 8.33755 78.6248 8.60422C79.3315 8.85755 80.0581 9.09755 80.8048 9.32422C81.5648 9.55089 82.3115 9.75755 83.0448 9.94422C83.7915 10.1309 84.4781 10.2776 85.1048 10.3842C85.2915 10.4109 85.3981 10.4709 85.4248 10.5642C85.4648 10.6576 85.4315 10.7976 85.3248 10.9842ZM73.6648 8.10422C73.9581 8.33089 74.0648 8.51089 73.9848 8.64422C73.9181 8.76422 73.7115 8.77089 73.3648 8.66422C72.5115 8.42422 71.9781 8.14422 71.7648 7.82422C71.6448 7.66422 71.6048 7.49088 71.6448 7.30422C71.6981 7.11755 71.8315 6.97089 72.0448 6.86422C72.2448 6.78422 72.4381 6.76422 72.6248 6.80422C72.8115 6.84422 72.9381 6.95089 73.0048 7.12422C73.0981 7.33755 73.1915 7.53089 73.2848 7.70422C73.3915 7.86422 73.5181 7.99755 73.6648 8.10422ZM95.8848 4.20422C95.8581 4.29755 95.7981 4.37755 95.7048 4.44422C95.6115 4.49755 95.4515 4.53088 95.2248 4.54422C94.3981 4.58422 93.6715 4.52422 93.0448 4.36422C92.4315 4.19089 91.9915 3.98422 91.7248 3.74422C91.6181 3.65088 91.5248 3.53755 91.4448 3.40422C91.3781 3.27088 91.3448 3.09755 91.3448 2.88422C91.3448 2.71088 91.4048 2.55088 91.5248 2.40422C91.6448 2.25755 91.8581 2.16422 92.1648 2.12422C92.4315 2.08422 92.7648 2.15755 93.1648 2.34422C93.5648 2.53088 93.9981 2.77755 94.4648 3.08422C94.6115 3.19088 94.7648 3.30422 94.9248 3.42422C95.0981 3.53089 95.2381 3.61755 95.3448 3.68422C95.5981 3.83089 95.7581 3.93089 95.8248 3.98422C95.8915 4.02422 95.9115 4.09755 95.8848 4.20422ZM107.465 5.64422C107.318 5.81755 107.178 5.91755 107.045 5.94422C106.925 5.95755 106.751 5.93088 106.525 5.86422C106.031 5.70422 105.471 5.44422 104.845 5.08422C104.751 5.04422 104.678 5.05089 104.625 5.10422C104.291 5.37089 103.965 5.60422 103.645 5.80422C103.325 5.99089 102.911 6.21755 102.405 6.48422C102.285 6.56422 102.071 6.62422 101.765 6.66422C101.471 6.69088 101.138 6.66422 100.765 6.58422C100.525 6.53089 100.271 6.46422 100.005 6.38422C99.7515 6.29088 99.5248 6.17089 99.3248 6.02422C99.2448 5.97089 99.1181 5.93089 98.9448 5.90422C98.7848 5.86422 98.5981 5.85755 98.3848 5.88422C98.1848 5.89755 97.9648 5.93755 97.7248 6.00422C97.4848 6.07088 97.2515 6.16422 97.0248 6.28422C96.8515 6.37755 96.6448 6.37755 96.4048 6.28422C96.1781 6.19088 96.0115 6.01755 95.9048 5.76422C95.7848 5.45755 95.7715 5.21755 95.8648 5.04422C95.9581 4.85755 96.0981 4.67088 96.2848 4.48422C96.3381 4.43088 96.4248 4.36422 96.5448 4.28422C96.6781 4.19089 96.8181 4.09755 96.9648 4.00422C97.1248 3.89755 97.2781 3.79755 97.4248 3.70422C97.5848 3.59755 97.7181 3.51089 97.8248 3.44422C97.9848 3.33755 98.1315 3.22422 98.2648 3.10422C98.3981 2.98422 98.5381 2.84422 98.6848 2.68422C98.8448 2.52422 99.0181 2.33755 99.2048 2.12422C99.3915 1.91089 99.6115 1.65755 99.8648 1.36422C100.078 1.08422 100.358 0.897551 100.705 0.804219C101.065 0.710885 101.371 0.744218 101.625 0.904218C101.745 0.984218 101.831 1.08422 101.885 1.20422C101.951 1.31089 101.985 1.43089 101.985 1.56422C101.998 1.68422 101.978 1.80422 101.925 1.92422C101.885 2.03089 101.818 2.11089 101.725 2.16422C101.418 2.36422 101.171 2.53089 100.985 2.66422C100.798 2.78422 100.625 2.90422 100.465 3.02422C100.318 3.13089 100.178 3.24422 100.045 3.36422C99.9115 3.47088 99.7581 3.60422 99.5848 3.76422C99.3981 3.91088 99.2981 4.09088 99.2848 4.30422C99.2848 4.50422 99.3581 4.65755 99.5048 4.76422C99.6781 4.89755 99.9048 5.00422 100.185 5.08422C100.478 5.15088 100.865 5.19755 101.345 5.22422C101.545 5.25088 101.818 5.19755 102.165 5.06422C102.511 4.93088 102.885 4.71088 103.285 4.40422C103.418 4.31088 103.411 4.19755 103.265 4.06422C103.078 3.95755 102.905 3.85089 102.745 3.74422C102.598 3.62422 102.465 3.52422 102.345 3.44422C102.291 3.40422 102.245 3.35088 102.205 3.28422C102.178 3.20422 102.158 3.11755 102.145 3.02422C102.145 2.93089 102.151 2.84422 102.165 2.76422C102.178 2.68422 102.205 2.61755 102.245 2.56422C102.325 2.47088 102.431 2.40422 102.565 2.36422C102.711 2.31089 102.851 2.28422 102.985 2.28422C103.131 2.27089 103.265 2.27755 103.385 2.30422C103.518 2.31755 103.611 2.34422 103.665 2.38422C104.225 2.79755 104.771 3.19088 105.305 3.56422C105.851 3.93755 106.351 4.26422 106.805 4.54422C107.231 4.82422 107.478 5.04422 107.545 5.20422C107.611 5.35089 107.585 5.49755 107.465 5.64422ZM95.1248 7.64422C94.8981 7.73755 94.5781 7.80422 94.1648 7.84422C93.7648 7.87089 93.3381 7.87755 92.8848 7.86422C92.4315 7.83755 91.9848 7.79089 91.5448 7.72422C91.1048 7.65755 90.7448 7.57089 90.4648 7.46422C90.1315 7.33089 89.8848 7.15755 89.7248 6.94422C89.5648 6.73089 89.4915 6.51089 89.5048 6.28422C89.5181 6.01755 89.6181 5.79755 89.8048 5.62422C89.9915 5.43755 90.2048 5.35755 90.4448 5.38422C90.5648 5.39755 90.7048 5.41755 90.8648 5.44422C91.0381 5.47089 91.2115 5.51089 91.3848 5.56422C91.5581 5.60422 91.7315 5.65089 91.9048 5.70422C92.0781 5.75755 92.2315 5.81088 92.3648 5.86422C92.5648 5.93088 92.7981 6.01088 93.0648 6.10422C93.3448 6.19755 93.6115 6.29755 93.8648 6.40422C94.1315 6.49755 94.3781 6.59089 94.6048 6.68422C94.8315 6.76422 95.0048 6.83088 95.1248 6.88422C95.3381 6.99089 95.4381 7.12422 95.4248 7.28422C95.4115 7.44422 95.3115 7.56422 95.1248 7.64422ZM106.265 9.08422C106.251 9.21755 106.238 9.38422 106.225 9.58422C106.211 9.78422 106.191 9.99755 106.165 10.2242C106.138 10.4509 106.111 10.6842 106.085 10.9242C106.058 11.1509 106.031 11.3709 106.005 11.5842C105.978 11.7309 105.918 11.8642 105.825 11.9842C105.731 12.1042 105.618 12.2042 105.485 12.2842C105.365 12.3642 105.238 12.4176 105.105 12.4442C104.971 12.4576 104.858 12.4442 104.765 12.4042C104.378 12.2042 104.031 12.0709 103.725 12.0042C103.431 11.9376 103.051 11.9042 102.585 11.9042C102.505 11.9042 102.405 11.9042 102.285 11.9042C102.165 11.9042 101.991 11.9042 101.765 11.9042C101.538 11.9042 101.238 11.9042 100.865 11.9042C100.491 11.8909 99.9981 11.8842 99.3848 11.8842C99.3581 11.8842 99.3315 11.8842 99.3048 11.8842C99.2781 11.8842 99.2581 11.8976 99.2448 11.9242C99.1648 12.0176 99.0715 12.0976 98.9648 12.1642C98.8581 12.2309 98.7515 12.2842 98.6448 12.3242C98.5381 12.3642 98.4381 12.3976 98.3448 12.4242C98.2648 12.4376 98.2115 12.4442 98.1848 12.4442C97.9848 12.4176 97.8181 12.3042 97.6848 12.1042C97.5515 11.9042 97.4581 11.6709 97.4048 11.4042C97.3381 11.0709 97.2781 10.7176 97.2248 10.3442C97.1715 9.95755 97.1381 9.65755 97.1248 9.44422C97.1115 9.27089 97.0781 9.05755 97.0248 8.80422C96.9848 8.55089 96.9515 8.34422 96.9248 8.18422C96.8981 8.05089 96.9048 7.91089 96.9448 7.76422C96.9848 7.61755 97.0515 7.48422 97.1448 7.36422C97.2381 7.24422 97.3515 7.14422 97.4848 7.06422C97.6315 6.98422 97.7848 6.93755 97.9448 6.92422C98.0781 6.91089 98.2115 6.92422 98.3448 6.96422C98.4781 7.00422 98.5915 7.07755 98.6848 7.18422C98.7248 7.22422 98.7848 7.24422 98.8648 7.24422C99.2381 7.21755 99.5981 7.19755 99.9448 7.18422C100.305 7.17089 100.625 7.16422 100.905 7.16422C101.198 7.15089 101.445 7.14422 101.645 7.14422C101.845 7.14422 101.978 7.15089 102.045 7.16422C102.231 7.19089 102.485 7.21089 102.805 7.22422C103.125 7.23755 103.498 7.25755 103.925 7.28422C104.165 7.31089 104.391 7.25089 104.605 7.10422C104.818 6.97089 105.038 6.92422 105.265 6.96422C105.491 6.99089 105.718 7.08422 105.945 7.24422C106.118 7.39089 106.218 7.61089 106.245 7.90422C106.285 8.18422 106.291 8.57755 106.265 9.08422ZM95.9448 9.50422C95.7581 9.89089 95.5315 10.2909 95.2648 10.7042C94.9981 11.1042 94.6248 11.4576 94.1448 11.7642C93.7981 11.9509 93.4715 12.0842 93.1648 12.1642C92.8581 12.2309 92.5915 12.2109 92.3648 12.1042C92.0315 11.9842 91.8181 11.8509 91.7248 11.7042C91.6315 11.5442 91.5915 11.3642 91.6048 11.1642C91.6315 10.8309 91.7315 10.5709 91.9048 10.3842C92.0915 10.1842 92.3381 10.0376 92.6448 9.94422C93.1381 9.78422 93.6381 9.59755 94.1448 9.38422C94.6515 9.15755 95.1381 8.91755 95.6048 8.66422C95.7915 8.55755 95.9381 8.57755 96.0448 8.72422C96.1515 8.87089 96.1181 9.13089 95.9448 9.50422ZM104.425 8.70422C104.398 8.59755 104.365 8.53089 104.325 8.50422C104.285 8.47755 104.185 8.45089 104.025 8.42422C103.425 8.38422 102.738 8.37089 101.965 8.38422C101.205 8.38422 100.298 8.42422 99.2448 8.50422C99.1248 8.50422 99.0648 8.56422 99.0648 8.68422C99.0381 8.95089 99.0381 9.22422 99.0648 9.50422C99.0915 9.77089 99.1315 10.0976 99.1848 10.4842C99.1981 10.6176 99.2648 10.6842 99.3848 10.6842C99.9848 10.6576 100.625 10.6376 101.305 10.6242C101.998 10.6109 102.771 10.6242 103.625 10.6642C103.878 10.6776 104.045 10.6509 104.125 10.5842C104.205 10.5042 104.271 10.3642 104.325 10.1642C104.338 10.0709 104.351 9.95089 104.365 9.80422C104.391 9.65755 104.405 9.51089 104.405 9.36422C104.418 9.21755 104.425 9.08422 104.425 8.96422C104.438 8.83089 104.438 8.74422 104.425 8.70422ZM129.745 7.82422C129.411 8.22422 128.938 8.55755 128.325 8.82422C128.125 8.91755 127.891 8.93089 127.625 8.86422C127.358 8.78422 127.025 8.60422 126.625 8.32422C126.478 8.21755 126.325 8.09755 126.165 7.96422C126.005 7.83089 125.798 7.65089 125.545 7.42422C125.385 7.29089 125.305 7.31755 125.305 7.50422C125.291 7.73089 125.278 7.94422 125.265 8.14422C125.265 8.34422 125.271 8.53755 125.285 8.72422C125.311 9.00422 125.298 9.19755 125.245 9.30422C125.191 9.41089 125.071 9.51755 124.885 9.62422C124.791 9.67755 124.691 9.71089 124.585 9.72422C124.478 9.72422 124.345 9.69755 124.185 9.64422C124.118 9.61755 123.991 9.60422 123.805 9.60422C123.631 9.59089 123.438 9.58422 123.225 9.58422C123.105 9.58422 123.045 9.63755 123.045 9.74422C123.045 9.99755 123.045 10.2709 123.045 10.5642C123.045 10.8576 123.051 11.1576 123.065 11.4642C123.091 11.9709 123.038 12.3242 122.905 12.5242C122.785 12.7242 122.531 12.8776 122.145 12.9842C121.865 13.0642 121.571 13.0909 121.265 13.0642C120.971 13.0376 120.685 12.9709 120.405 12.8642C120.125 12.7576 119.871 12.6176 119.645 12.4442C119.418 12.2576 119.245 12.0509 119.125 11.8242C119.085 11.7442 119.085 11.6842 119.125 11.6442C119.178 11.5909 119.245 11.5776 119.325 11.6042C119.525 11.6842 119.731 11.7376 119.945 11.7642C120.158 11.7909 120.358 11.7909 120.545 11.7642C120.731 11.7376 120.885 11.6909 121.005 11.6242C121.138 11.5442 121.218 11.4442 121.245 11.3242C121.298 11.0309 121.285 10.5109 121.205 9.76422C121.178 9.64422 121.118 9.58422 121.025 9.58422C120.905 9.58422 120.725 9.58422 120.485 9.58422C120.245 9.58422 120.045 9.59089 119.885 9.60422C119.805 9.60422 119.718 9.64422 119.625 9.72422C119.518 9.79089 119.378 9.82422 119.205 9.82422C119.018 9.83755 118.865 9.79089 118.745 9.68422C118.625 9.56422 118.551 9.35089 118.525 9.04422C118.511 8.92422 118.498 8.80422 118.485 8.68422C118.485 8.56422 118.478 8.36422 118.465 8.08422C118.465 7.95089 118.411 7.92422 118.305 8.00422C117.825 8.40422 117.411 8.64422 117.065 8.72422C116.718 8.79089 116.398 8.75755 116.105 8.62422C115.998 8.55755 115.931 8.56422 115.905 8.64422C115.585 9.45755 115.205 10.1576 114.765 10.7442C114.338 11.3176 113.858 11.7509 113.325 12.0442C112.938 12.2576 112.591 12.3109 112.285 12.2042C111.978 12.0842 111.651 11.7909 111.305 11.3242C111.118 11.0576 111.045 10.8576 111.085 10.7242C111.138 10.5909 111.291 10.4909 111.545 10.4242C111.865 10.3442 112.165 10.2309 112.445 10.0842C112.725 9.93755 112.998 9.74422 113.265 9.50422C113.545 9.25089 113.811 8.93755 114.065 8.56422C114.331 8.19089 114.598 7.74422 114.865 7.22422C114.918 7.11755 114.931 7.05089 114.905 7.02422C114.891 6.99755 114.818 6.99755 114.685 7.02422C114.285 7.11755 113.951 7.18422 113.685 7.22422C113.418 7.25089 113.151 7.27088 112.885 7.28422C112.605 7.29755 112.391 7.21755 112.245 7.04422C112.111 6.85755 112.051 6.64422 112.065 6.40422C112.078 6.17755 112.151 6.03088 112.285 5.96422C112.431 5.89755 112.638 5.88422 112.905 5.92422C113.091 5.95088 113.371 5.97755 113.745 6.00422C114.118 6.03089 114.518 6.05089 114.945 6.06422C115.078 6.06422 115.165 6.05089 115.205 6.02422C115.258 5.98422 115.285 5.91089 115.285 5.80422C115.285 5.67088 115.285 5.55088 115.285 5.44422C115.298 5.33755 115.311 5.23089 115.325 5.12422C115.338 4.99089 115.325 4.91089 115.285 4.88422C115.258 4.84422 115.185 4.83755 115.065 4.86422C114.705 4.91755 114.391 4.95755 114.125 4.98422C113.871 4.99755 113.645 5.00422 113.445 5.00422C113.245 4.99088 113.058 4.95755 112.885 4.90422C112.725 4.85089 112.565 4.78422 112.405 4.70422C112.218 4.61089 112.105 4.47755 112.065 4.30422C112.038 4.13089 112.078 3.97755 112.185 3.84422C112.305 3.68422 112.451 3.57755 112.625 3.52422C112.798 3.47089 112.978 3.49089 113.165 3.58422C113.311 3.65089 113.531 3.73089 113.825 3.82422C114.118 3.90422 114.478 3.99755 114.905 4.10422C115.065 4.14422 115.158 4.15088 115.185 4.12422C115.225 4.08422 115.231 3.98422 115.205 3.82422C115.178 3.66422 115.138 3.51089 115.085 3.36422C115.045 3.20422 114.985 3.03755 114.905 2.86422C114.785 2.59755 114.725 2.38422 114.725 2.22422C114.725 2.05088 114.791 1.86422 114.925 1.66422C115.031 1.49088 115.198 1.37755 115.425 1.32422C115.665 1.25755 115.858 1.24422 116.005 1.28422C116.151 1.32422 116.258 1.36422 116.325 1.40422C116.391 1.43089 116.451 1.47089 116.505 1.52422C116.611 1.64422 116.758 1.69088 116.945 1.66422C117.505 1.63755 118.038 1.61089 118.545 1.58422C119.051 1.55755 119.531 1.53088 119.985 1.50422C120.065 1.50422 120.125 1.49088 120.165 1.46422C120.205 1.43755 120.238 1.35088 120.265 1.20422C120.305 1.03088 120.385 0.897551 120.505 0.804219C120.625 0.710885 120.898 0.637551 121.325 0.584218C122.191 0.477552 122.645 0.657552 122.685 1.12422C122.711 1.28422 122.738 1.38422 122.765 1.42422C122.805 1.46422 122.878 1.48422 122.985 1.48422C123.211 1.48422 123.451 1.48422 123.705 1.48422C123.971 1.48422 124.245 1.49088 124.525 1.50422C125.205 1.53088 125.825 1.55755 126.385 1.58422C126.945 1.59755 127.485 1.61088 128.005 1.62422C128.231 1.62422 128.371 1.67089 128.425 1.76422C128.478 1.85755 128.451 2.02422 128.345 2.26422C128.305 2.37088 128.245 2.45755 128.165 2.52422C128.085 2.57755 127.965 2.61755 127.805 2.64422C127.645 2.67089 127.425 2.68422 127.145 2.68422C126.878 2.68422 126.538 2.67089 126.125 2.64422C125.725 2.61755 125.225 2.59755 124.625 2.58422C124.025 2.55755 123.358 2.55089 122.625 2.56422C122.491 2.56422 122.445 2.61755 122.485 2.72422C122.511 2.79089 122.518 2.87755 122.505 2.98422C122.491 3.09088 122.445 3.24422 122.365 3.44422C122.298 3.56422 122.331 3.62422 122.465 3.62422C122.878 3.62422 123.291 3.63089 123.705 3.64422C124.131 3.64422 124.531 3.64422 124.905 3.64422C125.278 3.64422 125.618 3.65088 125.925 3.66422C126.231 3.66422 126.478 3.66422 126.665 3.66422C126.811 3.66422 126.905 3.69088 126.945 3.74422C126.985 3.79755 127.011 3.91089 127.025 4.08422C127.038 4.23088 126.978 4.33755 126.845 4.40422C126.725 4.45755 126.438 4.47755 125.985 4.46422C125.771 4.46422 125.531 4.46422 125.265 4.46422C125.011 4.46422 124.758 4.47089 124.505 4.48422C124.251 4.48422 124.005 4.48422 123.765 4.48422C123.538 4.48422 123.345 4.48422 123.185 4.48422C123.158 4.48422 123.138 4.50422 123.125 4.54422C123.125 4.57088 123.158 4.60422 123.225 4.64422C123.598 4.89755 124.045 5.15089 124.565 5.40422C124.658 5.44422 124.738 5.43088 124.805 5.36422C124.925 5.25755 125.031 5.13755 125.125 5.00422C125.258 4.80422 125.378 4.68422 125.485 4.64422C125.605 4.59089 125.778 4.59755 126.005 4.66422C126.378 4.78422 126.585 4.95755 126.625 5.18422C126.665 5.39755 126.491 5.55755 126.105 5.66422C125.958 5.70422 125.825 5.74422 125.705 5.78422C125.625 5.81088 125.631 5.85755 125.725 5.92422C126.058 6.09755 126.371 6.25089 126.665 6.38422C126.958 6.50422 127.245 6.61088 127.525 6.70422C127.805 6.79755 128.091 6.88422 128.385 6.96422C128.678 7.04422 128.998 7.12422 129.345 7.20422C129.865 7.32422 129.998 7.53089 129.745 7.82422ZM128.245 12.1042C128.365 12.2109 128.358 12.3176 128.225 12.4242C128.105 12.5176 127.898 12.5309 127.605 12.4642C127.405 12.4242 127.178 12.3576 126.925 12.2642C126.671 12.1576 126.411 12.0376 126.145 11.9042C125.878 11.7709 125.611 11.6242 125.345 11.4642C125.091 11.3042 124.858 11.1442 124.645 10.9842C124.418 10.8109 124.285 10.6709 124.245 10.5642C124.218 10.4442 124.251 10.2976 124.345 10.1242C124.451 9.93755 124.625 9.84422 124.865 9.84422C125.118 9.83089 125.345 9.88422 125.545 10.0042C125.678 10.0842 125.858 10.2109 126.085 10.3842C126.325 10.5442 126.571 10.7309 126.825 10.9442C127.091 11.1442 127.351 11.3509 127.605 11.5642C127.858 11.7642 128.071 11.9442 128.245 12.1042ZM119.425 10.9442C119.291 11.0642 119.105 11.1976 118.865 11.3442C118.638 11.4909 118.378 11.6376 118.085 11.7842C117.791 11.9309 117.471 12.0709 117.125 12.2042C116.778 12.3376 116.418 12.4509 116.045 12.5442C115.898 12.5842 115.791 12.5909 115.725 12.5642C115.671 12.5376 115.625 12.4842 115.585 12.4042C115.505 12.2309 115.538 12.1109 115.685 12.0442C115.885 11.9509 116.098 11.8376 116.325 11.7042C116.551 11.5576 116.771 11.4109 116.985 11.2642C117.198 11.1042 117.391 10.9442 117.565 10.7842C117.751 10.6242 117.898 10.4776 118.005 10.3442C118.191 10.0909 118.371 9.93755 118.545 9.88422C118.731 9.81755 118.965 9.85089 119.245 9.98422C119.765 10.2242 119.825 10.5442 119.425 10.9442ZM120.745 2.76422C120.771 2.65755 120.711 2.60422 120.565 2.60422C120.165 2.61755 119.758 2.63088 119.345 2.64422C118.945 2.65755 118.531 2.67755 118.105 2.70422C117.918 2.71755 117.725 2.73755 117.525 2.76422C117.338 2.77755 117.131 2.81088 116.905 2.86422C116.785 2.89088 116.705 2.93089 116.665 2.98422C116.638 3.02422 116.625 3.10422 116.625 3.22422C116.625 3.83755 116.618 4.36422 116.605 4.80422C116.591 5.24422 116.565 5.62422 116.525 5.94422C116.498 6.26422 116.465 6.54422 116.425 6.78422C116.385 7.01088 116.338 7.22422 116.285 7.42422C116.245 7.58422 116.298 7.63089 116.445 7.56422C116.885 7.43089 117.351 7.23755 117.845 6.98422C118.351 6.71755 118.805 6.41089 119.205 6.06422C119.231 6.03755 119.231 6.01755 119.205 6.00422C119.191 5.97755 119.158 5.97755 119.105 6.00422C118.825 6.11089 118.585 6.16422 118.385 6.16422C118.185 6.16422 118.025 6.13089 117.905 6.06422C117.571 5.90422 117.565 5.65088 117.885 5.30422C118.045 5.13088 118.225 5.05088 118.425 5.06422C118.638 5.06422 118.865 5.12422 119.105 5.24422C119.198 5.29755 119.278 5.33755 119.345 5.36422C119.411 5.39088 119.471 5.41755 119.525 5.44422C119.645 5.51089 119.738 5.49089 119.805 5.38422C119.885 5.27755 119.951 5.17089 120.005 5.06422C120.058 4.95755 120.118 4.83089 120.185 4.68422C120.225 4.60422 120.171 4.56422 120.025 4.56422C119.851 4.56422 119.671 4.57088 119.485 4.58422C119.298 4.58422 119.118 4.59755 118.945 4.62422C118.785 4.63755 118.638 4.65755 118.505 4.68422C118.371 4.71088 118.271 4.74422 118.205 4.78422C117.671 5.02422 117.298 5.01755 117.085 4.76422C116.885 4.52422 116.971 4.24422 117.345 3.92422C117.798 3.55089 118.211 3.41089 118.585 3.50422C118.625 3.51755 118.831 3.53755 119.205 3.56422C119.578 3.57755 119.985 3.58422 120.425 3.58422C120.531 3.58422 120.605 3.52422 120.645 3.40422C120.671 3.29755 120.691 3.19755 120.705 3.10422C120.718 2.99755 120.731 2.88422 120.745 2.76422ZM123.925 6.12422C123.591 5.89755 123.251 5.65755 122.905 5.40422C122.571 5.15089 122.258 4.90422 121.965 4.66422C121.871 4.59755 121.798 4.59755 121.745 4.66422C121.545 4.95755 121.351 5.22422 121.165 5.46422C120.978 5.69089 120.771 5.91755 120.545 6.14422C120.505 6.18422 120.491 6.22422 120.505 6.26422C120.518 6.29089 120.551 6.30422 120.605 6.30422C121.178 6.27755 121.745 6.26422 122.305 6.26422C122.878 6.26422 123.358 6.27755 123.745 6.30422C123.865 6.31755 123.938 6.30422 123.965 6.26422C124.005 6.21089 123.991 6.16422 123.925 6.12422ZM123.885 7.38422C123.885 7.19755 123.791 7.09089 123.605 7.06422C123.431 7.05089 123.205 7.04422 122.925 7.04422C122.658 7.03089 122.365 7.03089 122.045 7.04422C121.725 7.04422 121.385 7.05089 121.025 7.06422C120.678 7.07755 120.345 7.09089 120.025 7.10422C119.865 7.10422 119.785 7.19755 119.785 7.38422C119.785 7.50422 119.798 7.58422 119.825 7.62422C119.851 7.66422 119.891 7.68422 119.945 7.68422C120.505 7.65755 121.131 7.64422 121.825 7.64422C122.518 7.63089 123.145 7.63089 123.705 7.64422C123.825 7.64422 123.885 7.55755 123.885 7.38422ZM123.785 8.52422C123.798 8.35089 123.758 8.26422 123.665 8.26422C123.065 8.23755 122.445 8.23089 121.805 8.24422C121.178 8.25755 120.565 8.28422 119.965 8.32422C119.858 8.32422 119.805 8.39089 119.805 8.52422C119.805 8.75089 119.878 8.86422 120.025 8.86422C120.225 8.87755 120.478 8.89089 120.785 8.90422C121.105 8.90422 121.425 8.90422 121.745 8.90422C122.078 8.89089 122.391 8.87755 122.685 8.86422C122.991 8.85089 123.231 8.83755 123.405 8.82422C123.551 8.79755 123.645 8.77089 123.685 8.74422C123.738 8.70422 123.771 8.63089 123.785 8.52422ZM149.725 5.40422C149.605 5.79089 149.465 6.03089 149.305 6.12422C149.158 6.20422 148.951 6.19088 148.685 6.08422C148.605 6.04422 148.545 5.94422 148.505 5.78422C148.465 5.62422 148.458 5.45755 148.485 5.28422C148.511 5.00422 148.518 4.79088 148.505 4.64422C148.505 4.49755 148.491 4.35089 148.465 4.20422C148.438 4.01755 148.378 3.89755 148.285 3.84422C148.205 3.77755 148.051 3.73088 147.825 3.70422C146.571 3.63755 145.405 3.61755 144.325 3.64422C143.245 3.67089 142.325 3.71755 141.565 3.78422C141.325 3.78422 141.145 3.81755 141.025 3.88422C140.918 3.93755 140.818 4.03755 140.725 4.18422C140.645 4.42422 140.578 4.66422 140.525 4.90422C140.485 5.13089 140.458 5.37755 140.445 5.64422C140.445 5.79088 140.405 5.91089 140.325 6.00422C140.258 6.09755 140.171 6.15089 140.065 6.16422C139.945 6.13755 139.818 6.07089 139.685 5.96422C139.565 5.84422 139.485 5.69088 139.445 5.50422C139.431 5.38422 139.418 5.21088 139.405 4.98422C139.391 4.74422 139.385 4.49755 139.385 4.24422C139.385 3.99089 139.385 3.75755 139.385 3.54422C139.398 3.31755 139.418 3.15755 139.445 3.06422C139.618 2.49088 139.845 2.18422 140.125 2.14422C140.418 2.10422 140.718 2.20422 141.025 2.44422C141.171 2.55088 141.358 2.61755 141.585 2.64422C141.811 2.65755 142.131 2.65088 142.545 2.62422C142.811 2.59755 142.971 2.55088 143.025 2.48422C143.078 2.41755 143.091 2.25755 143.065 2.00422C143.025 1.65755 143.038 1.39088 143.105 1.20422C143.171 1.00422 143.311 0.830885 143.525 0.684218C143.671 0.577552 143.845 0.530885 144.045 0.544218C144.245 0.557551 144.431 0.610885 144.605 0.704219C144.898 0.850885 145.105 1.03755 145.225 1.26422C145.358 1.47755 145.438 1.77088 145.465 2.14422C145.478 2.39755 145.591 2.52422 145.805 2.52422C146.111 2.51088 146.391 2.50422 146.645 2.50422C146.911 2.50422 147.138 2.49755 147.325 2.48422C147.605 2.45755 147.818 2.43755 147.965 2.42422C148.125 2.41088 148.251 2.39089 148.345 2.36422C148.558 2.25755 148.791 2.21755 149.045 2.24422C149.311 2.25755 149.525 2.37089 149.685 2.58422C149.898 2.85089 150.011 3.23089 150.025 3.72422C150.038 4.21755 149.938 4.77755 149.725 5.40422ZM146.845 4.54422C146.925 4.58422 146.985 4.64422 147.025 4.72422C147.065 4.80422 147.085 4.88422 147.085 4.96422C147.085 5.04422 147.058 5.11755 147.005 5.18422C146.965 5.23755 146.905 5.27089 146.825 5.28422C146.745 5.32422 146.598 5.35755 146.385 5.38422C146.171 5.41089 145.938 5.43089 145.685 5.44422C145.445 5.45755 145.198 5.47088 144.945 5.48422C144.691 5.48422 144.485 5.47089 144.325 5.44422C144.231 5.44422 144.105 5.44422 143.945 5.44422C143.798 5.43089 143.645 5.43089 143.485 5.44422C143.325 5.45755 143.165 5.47088 143.005 5.48422C142.858 5.49755 142.738 5.52422 142.645 5.56422C142.071 5.71089 141.705 5.70422 141.545 5.54422C141.451 5.43755 141.418 5.29755 141.445 5.12422C141.471 4.93755 141.558 4.75089 141.705 4.56422C141.798 4.47089 141.925 4.41089 142.085 4.38422C142.258 4.34422 142.431 4.35755 142.605 4.42422C142.845 4.47755 143.018 4.49089 143.125 4.46422C143.925 4.35755 144.658 4.32422 145.325 4.36422C145.991 4.39088 146.498 4.45088 146.845 4.54422ZM139.145 2.92422C138.998 3.35088 138.818 3.71755 138.605 4.02422C138.391 4.31755 138.065 4.64422 137.625 5.00422C137.465 5.15088 137.385 5.25088 137.385 5.30422C137.398 5.35755 137.491 5.39755 137.665 5.42422C138.078 5.51755 138.418 5.73089 138.685 6.06422C138.951 6.38422 139.078 6.75755 139.065 7.18422C139.038 7.50422 138.978 7.80422 138.885 8.08422C138.791 8.36422 138.645 8.61089 138.445 8.82422C138.245 9.03755 137.978 9.21755 137.645 9.36422C137.325 9.51089 136.925 9.61089 136.445 9.66422C136.311 9.69089 136.218 9.73089 136.165 9.78422C136.125 9.83755 136.111 9.95089 136.125 10.1242C136.151 10.6709 136.158 11.1042 136.145 11.4242C136.145 11.7309 136.111 11.9709 136.045 12.1442C135.991 12.3176 135.898 12.4376 135.765 12.5042C135.645 12.5576 135.471 12.6042 135.245 12.6442C135.031 12.6709 134.858 12.6776 134.725 12.6642C134.605 12.6376 134.511 12.5776 134.445 12.4842C134.378 12.3776 134.331 12.2242 134.305 12.0242C134.291 11.8109 134.291 11.5309 134.305 11.1842C134.385 9.82422 134.438 8.56422 134.465 7.40422C134.491 6.23088 134.471 5.07088 134.405 3.92422C134.391 3.69755 134.345 3.56422 134.265 3.52422C134.198 3.47089 134.071 3.47755 133.885 3.54422C133.525 3.65088 133.278 3.69088 133.145 3.66422C133.011 3.62422 132.931 3.50422 132.905 3.30422C132.878 3.09089 132.925 2.90422 133.045 2.74422C133.165 2.58422 133.378 2.39088 133.685 2.16422C134.111 1.89755 134.431 1.73755 134.645 1.68422C134.871 1.63088 135.085 1.65755 135.285 1.76422C135.445 1.84422 135.625 1.89755 135.825 1.92422C136.038 1.95088 136.265 1.95088 136.505 1.92422C136.785 1.85755 137.078 1.87755 137.385 1.98422C137.491 2.03755 137.618 2.07088 137.765 2.08422C137.911 2.09755 138.065 2.07089 138.225 2.00422C138.318 1.97755 138.431 1.98422 138.565 2.02422C138.698 2.05088 138.811 2.10422 138.905 2.18422C139.011 2.26422 139.091 2.37088 139.145 2.50422C139.198 2.62422 139.198 2.76422 139.145 2.92422ZM151.965 10.2642C151.858 11.0109 151.525 11.6309 150.965 12.1242C150.418 12.6176 149.725 12.8642 148.885 12.8642C148.698 12.8776 148.425 12.8376 148.065 12.7442C147.705 12.6509 147.311 12.5242 146.885 12.3642C146.471 12.1909 146.058 11.9976 145.645 11.7842C145.245 11.5709 144.905 11.3442 144.625 11.1042C144.265 10.7709 144.038 10.3242 143.945 9.76422C143.851 9.19089 143.938 8.43089 144.205 7.48422C144.258 7.29755 144.191 7.20422 144.005 7.20422C143.831 7.20422 143.738 7.26422 143.725 7.38422C143.578 8.09089 143.398 8.72422 143.185 9.28422C142.971 9.83089 142.698 10.3042 142.365 10.7042C142.031 11.1042 141.631 11.4309 141.165 11.6842C140.698 11.9242 140.145 12.0842 139.505 12.1642C138.865 12.2576 138.365 12.1976 138.005 11.9842C137.645 11.7576 137.431 11.4709 137.365 11.1242C137.325 10.8842 137.391 10.7909 137.565 10.8442C138.218 10.8976 138.811 10.8509 139.345 10.7042C139.891 10.5576 140.358 10.3376 140.745 10.0442C141.145 9.73755 141.465 9.37089 141.705 8.94422C141.945 8.51755 142.091 8.05089 142.145 7.54422C142.171 7.35755 142.078 7.27755 141.865 7.30422C141.731 7.31755 141.591 7.34422 141.445 7.38422C141.298 7.41089 141.151 7.44422 141.005 7.48422C140.805 7.57755 140.638 7.61755 140.505 7.60422C140.371 7.59089 140.251 7.54422 140.145 7.46422C140.038 7.31755 139.991 7.15089 140.005 6.96422C140.031 6.77755 140.145 6.61089 140.345 6.46422C140.491 6.34422 140.618 6.25089 140.725 6.18422C140.845 6.11755 140.951 6.07089 141.045 6.04422C141.151 6.01755 141.265 6.00422 141.385 6.00422C141.505 6.00422 141.645 6.01755 141.805 6.04422C141.898 6.05755 142.045 6.07088 142.245 6.08422C142.458 6.08422 142.691 6.08422 142.945 6.08422C143.211 6.08422 143.491 6.07755 143.785 6.06422C144.091 6.05089 144.378 6.02422 144.645 5.98422C145.405 5.95755 146.038 5.95089 146.545 5.96422C147.051 5.97755 147.385 5.99755 147.545 6.02422C147.785 6.06422 147.938 6.15755 148.005 6.30422C148.085 6.45089 148.091 6.61088 148.025 6.78422C147.998 6.86422 147.958 6.93755 147.905 7.00422C147.851 7.05755 147.758 7.10422 147.625 7.14422C147.505 7.17089 147.331 7.19089 147.105 7.20422C146.891 7.21755 146.598 7.21755 146.225 7.20422C146.078 7.20422 145.971 7.21755 145.905 7.24422C145.838 7.27089 145.778 7.33755 145.725 7.44422C145.578 7.76422 145.511 8.13755 145.525 8.56422C145.551 8.99089 145.691 9.34422 145.945 9.62422C146.091 9.79755 146.311 9.92422 146.605 10.0042C146.898 10.0842 147.298 10.1576 147.805 10.2242C148.591 10.3442 149.271 10.3909 149.845 10.3642C150.431 10.3376 150.978 10.2176 151.485 10.0042C151.738 9.92422 151.891 9.90422 151.945 9.94422C151.998 9.97089 152.005 10.0776 151.965 10.2642ZM136.365 3.12422C136.271 3.12422 136.198 3.17089 136.145 3.26422C136.105 3.34422 136.078 3.56422 136.065 3.92422C136.038 4.35089 136.038 4.63089 136.065 4.76422C136.091 4.89755 136.125 4.95089 136.165 4.92422C136.471 4.69755 136.691 4.47755 136.825 4.26422C136.971 4.05088 137.045 3.86422 137.045 3.70422C137.045 3.53089 136.985 3.39089 136.865 3.28422C136.745 3.17755 136.578 3.12422 136.365 3.12422ZM137.645 6.86422C137.578 6.61089 137.438 6.42422 137.225 6.30422C137.011 6.18422 136.671 6.12422 136.205 6.12422C136.151 6.12422 136.105 6.14422 136.065 6.18422C136.038 6.22422 136.025 6.31089 136.025 6.44422C136.025 6.71089 136.025 6.99089 136.025 7.28422C136.025 7.56422 136.038 7.86422 136.065 8.18422C136.065 8.34422 136.158 8.38422 136.345 8.30422C136.838 8.10422 137.185 7.85755 137.385 7.56422C137.585 7.27088 137.671 7.03755 137.645 6.86422Z" fill="#006979" fill-opacity="0.85"/>
</svg>
