<svg width="267" height="42" viewBox="0 0 267 42" fill="none" xmlns="http://www.w3.org/2000/svg">
<path d="M41.2407 4.40822C39.8967 6.04022 38.7927 7.50422 37.9527 8.77622C38.0007 8.89622 38.1687 9.04022 38.5047 9.23222C38.8407 9.44822 39.0567 9.54422 39.1527 9.54422C39.7767 8.87222 40.3527 8.17622 40.9287 7.45622C42.5607 7.69622 44.3127 7.81622 46.2087 7.81622C46.2807 7.36022 46.3287 6.92822 46.3287 6.54422C44.7927 6.40022 43.3047 6.28022 41.8647 6.18422C42.0807 5.87222 42.2967 5.53622 42.5127 5.20022C42.1047 4.88822 41.6727 4.62422 41.2407 4.40822ZM39.2967 10.4322C39.1767 10.9122 39.0807 11.3442 38.9847 11.7762C38.6727 11.7762 38.3607 11.7522 38.0247 11.7282C37.9287 12.1602 37.8807 12.5682 37.8807 12.9762C38.1207 13.0242 38.3847 13.0482 38.6727 13.0722C38.3607 14.3682 38.1687 15.2802 38.1207 15.8082C38.9847 16.2642 40.8087 16.6002 43.5927 16.8402C43.6887 16.5042 43.7607 16.0962 43.8087 15.6162C43.5447 15.5922 43.2807 15.5442 43.0167 15.4962C43.2807 15.3522 43.5207 15.1842 43.7127 14.9682C43.4487 14.4402 43.1607 13.9362 42.8247 13.4562C43.4247 13.5042 44.0487 13.5522 44.7207 13.5762C44.6247 14.5362 44.5287 15.5202 44.4567 16.5042C44.8647 16.6482 45.2967 16.7202 45.7767 16.7202C46.0167 15.6642 46.2087 14.6082 46.3527 13.6002C46.6167 13.6242 46.9047 13.6242 47.2167 13.6242C47.2887 13.2882 47.3367 12.9042 47.3367 12.5202C47.0487 12.4962 46.7847 12.4722 46.4967 12.4242C46.5927 11.3922 46.6647 10.3842 46.6647 9.37622C44.6487 9.18422 42.6327 9.04022 40.5687 8.99222C40.4727 9.42422 40.4487 9.85622 40.4487 10.2402C41.1207 10.3362 41.8407 10.4082 42.5847 10.4802C42.3687 10.5762 42.1527 10.7442 41.9127 10.9362C42.0807 11.2962 42.2727 11.6562 42.5127 11.9922C41.8887 11.9442 41.2167 11.8962 40.5447 11.8482C40.5927 11.5362 40.6647 11.1762 40.7607 10.7922C40.6887 10.7442 40.4727 10.6482 40.1367 10.5282C39.7047 10.4802 39.4407 10.4322 39.2967 10.4322ZM42.3447 15.4002C41.4807 15.2802 40.6647 15.1362 39.8967 14.9442C39.9927 14.4402 40.1127 13.8882 40.2567 13.2642C40.8807 13.3362 41.5527 13.3842 42.2247 13.4322C41.9847 13.5762 41.7447 13.7202 41.5047 13.9122C41.7447 14.4402 42.0087 14.9442 42.3447 15.4002ZM43.2327 10.5282C43.8087 10.5762 44.4087 10.6242 45.0327 10.6482C44.9607 11.1762 44.9127 11.7042 44.8647 12.2322C44.3607 12.1842 43.8567 12.1362 43.3287 12.0642C43.5687 11.9682 43.7607 11.8242 43.9047 11.6322C43.6887 11.2482 43.4727 10.8882 43.2327 10.5282ZM51.1047 5.44022C49.4247 7.36022 48.1767 9.20822 47.3127 10.9842C47.6007 11.3682 48.0087 11.5842 48.5367 11.6802C49.2087 10.9602 49.8567 10.2162 50.4327 9.44822C52.9287 10.1682 54.8727 10.5282 56.2647 10.5282C56.4567 10.1202 56.5527 9.68822 56.6007 9.20822C54.8727 8.77622 53.1207 8.39222 51.3927 8.08022C51.8007 7.48022 52.1607 6.88022 52.4967 6.25622C52.1607 5.84822 51.6807 5.58422 51.1047 5.44022ZM49.2807 12.1362C49.0407 12.4482 48.7767 12.8802 48.4887 13.4562C48.9447 13.7442 49.4487 14.0322 50.0247 14.3202C49.5447 14.8962 49.1367 15.4722 48.8007 16.0482C49.0647 16.3842 49.4487 16.6242 49.9767 16.7202C50.5527 16.2162 51.1047 15.6882 51.6327 15.1602C52.4487 15.5682 53.3367 15.9762 54.2967 16.3602C54.6807 16.0482 54.9687 15.6642 55.2087 15.1842C54.4407 14.7522 53.6487 14.3202 52.8087 13.8882C53.3367 13.2882 53.7927 12.6882 54.2007 12.0642C53.8647 11.7042 53.4327 11.4642 52.8807 11.3202C52.2567 11.8962 51.6807 12.4722 51.1527 13.0482C50.5287 12.7602 49.9047 12.4482 49.2807 12.1362ZM49.3527 22.0242C48.8727 22.0242 48.3687 22.0722 47.8647 22.1682C47.8647 23.4162 47.9847 24.5202 48.2727 25.5042C48.9447 25.5042 49.4007 25.4082 49.6887 25.2642C49.6647 24.3042 49.5447 23.2242 49.3527 22.0242ZM51.9207 22.4322C51.6087 22.7442 51.3687 23.1282 51.2247 23.5842C51.9207 24.1602 52.6647 24.5682 53.4807 24.8322C53.6247 24.6402 53.7687 24.4722 53.8647 24.2802C53.9847 24.0882 54.0807 23.8962 54.1767 23.7042C53.4087 23.2242 52.6407 22.7922 51.9207 22.4322ZM46.7607 15.9042C46.0887 16.6722 45.3927 17.6802 44.6487 18.8802C45.3447 19.4082 46.1367 19.8642 47.0247 20.2962C46.8807 20.6562 46.7607 21.0162 46.6647 21.3522C47.4327 21.6642 49.0647 21.8082 51.6087 21.8082C51.8967 21.8082 52.0887 21.7842 52.2087 21.6882C52.2087 21.0882 52.0407 20.3202 51.7527 19.3602C51.2247 19.4082 50.8407 19.4562 50.5767 19.5042C50.5767 19.9362 50.6487 20.3202 50.7927 20.6322C49.8327 20.5842 49.0887 20.5122 48.5367 20.4162C49.0167 19.5282 49.4967 18.6882 49.9527 17.8962C49.5207 17.7042 49.0407 17.5842 48.5367 17.4882C48.1527 18.0642 47.8407 18.6162 47.5767 19.1442C47.2167 18.9522 46.8807 18.7842 46.5447 18.6162C47.0247 18.0162 47.4807 17.3442 47.9367 16.6242C47.5527 16.3602 47.1447 16.1202 46.7607 15.9042ZM44.9607 22.1682C44.5287 22.9842 44.2647 23.8242 44.1687 24.6882C44.6727 24.9282 45.0807 25.0722 45.4167 25.0722C45.8487 24.4482 46.1367 23.6322 46.2807 22.6242C45.8247 22.4322 45.3927 22.2882 44.9607 22.1682ZM69.2967 10.6242C68.7447 10.6722 68.2167 10.7202 67.7127 10.8162C67.9527 14.8482 68.3607 18.8322 68.9367 22.8162C69.5607 22.8162 70.0887 22.7202 70.5207 22.5762C70.2807 18.5922 69.8727 14.6082 69.2967 10.6242ZM75.8967 6.85622C75.5607 7.76822 75.2487 8.65622 74.9607 9.54422C73.5207 9.47222 72.0807 9.42422 70.6407 9.37622C70.5447 9.66422 70.4967 9.88022 70.4967 10.0242C70.4967 10.2642 70.4967 10.5282 70.5447 10.8642C71.8407 10.9842 73.1367 11.0802 74.4327 11.1762C73.6167 13.7682 73.0407 16.2162 72.6807 18.5202C72.8727 18.6162 73.0647 18.6882 73.3047 18.7362C73.9287 18.8322 74.2647 18.8802 74.2647 18.8802C74.4807 18.2082 74.6967 17.5362 74.9367 16.8162C76.1367 17.1762 77.4807 17.4162 78.9207 17.5362C79.1127 17.0082 79.2567 16.5522 79.3287 16.1682C77.9367 15.8322 76.6167 15.5442 75.3687 15.3042C75.7287 14.0322 76.0887 12.7122 76.4247 11.3202C78.3927 11.4642 80.3607 11.5842 82.3287 11.6802C82.5447 14.1042 82.6887 16.7682 82.7607 19.6482C82.1607 19.6962 81.5367 19.7202 80.9127 19.7202C80.8647 19.9122 80.8647 20.1042 80.8647 20.3202C80.8647 20.5602 80.8647 20.7762 80.9127 20.9442C81.3447 21.0162 81.9447 21.0402 82.7607 21.0402C83.6247 21.0402 84.1527 21.0162 84.3447 20.9202C84.3447 16.1202 84.1767 12.4962 83.8887 10.0962C81.5127 9.90422 79.1607 9.76022 76.8087 9.64022C76.9527 8.87222 77.1207 8.08022 77.2887 7.24022C76.8327 7.04822 76.3767 6.92822 75.8967 6.85622ZM98.8407 10.0242C99.6087 11.1282 100.497 12.1842 101.481 13.1682C101.985 12.9762 102.393 12.6642 102.681 12.2802C101.961 11.2722 101.169 10.2642 100.305 9.25622C100.497 9.16022 100.713 9.06422 100.953 8.92022C100.785 8.39222 100.545 7.96022 100.209 7.57622C98.0487 8.48822 95.8887 9.54422 93.7527 10.6962C93.9447 11.2722 94.2087 11.7522 94.5207 12.1362C95.9607 11.4882 97.4007 10.7922 98.8407 10.0242ZM100.761 21.8322C100.185 21.8322 99.6087 21.8562 99.0327 21.9042C99.1287 20.8002 99.1767 19.5282 99.1767 18.1122V17.8482C100.425 17.8482 101.145 17.7762 101.337 17.6322V16.9602C101.337 16.7202 101.313 16.5282 101.289 16.3602C100.857 16.3122 100.161 16.2642 99.1527 16.2642C99.1287 15.7842 99.1047 15.2322 99.0807 14.6562C99.6567 14.7042 100.257 14.7042 100.881 14.7042C100.953 14.1762 101.001 13.6962 101.001 13.2162C98.9127 12.9762 97.0887 12.8322 95.5287 12.8322C95.4807 13.0722 95.4807 13.2882 95.4807 13.5042V14.2962C96.1527 14.3922 96.8247 14.4882 97.5207 14.5362C97.4727 15.1122 97.4487 15.6882 97.4487 16.2642C96.3687 16.2882 95.4327 16.3122 94.6407 16.3122C94.5927 16.4802 94.5927 16.6962 94.5927 16.9602C94.5927 17.2482 94.6167 17.4642 94.6887 17.6562C95.2647 17.7522 96.1767 17.8242 97.4007 17.8242V18.2562C97.4007 19.6002 97.4247 20.8722 97.5207 22.0242C96.8967 22.0962 96.2487 22.1922 95.6007 22.2882C95.6007 22.9122 95.6967 23.3922 95.9127 23.7282C98.3607 23.5362 99.9687 23.3442 100.761 23.1042C100.809 22.9122 100.857 22.6962 100.857 22.4562C100.857 22.2402 100.809 22.0242 100.761 21.8322ZM94.8087 18.6882C94.5447 19.0242 94.3047 19.3842 94.0887 19.7682C94.6647 20.3682 95.3127 20.8722 96.0567 21.3042C96.3927 21.0162 96.6807 20.6562 96.8727 20.2242C96.2007 19.6002 95.5287 19.0722 94.8087 18.6882ZM100.713 18.3762C100.377 19.1682 100.161 19.9842 100.065 20.8002C100.617 21.0642 101.073 21.1842 101.433 21.1842C101.745 20.6082 101.961 19.8162 102.105 18.8322C101.625 18.6402 101.169 18.4962 100.713 18.3762ZM112.593 10.5522C111.993 10.6002 111.393 10.6242 110.817 10.6242C110.577 9.85622 110.337 9.06422 110.097 8.24822C109.473 8.34422 108.969 8.51222 108.609 8.75222C108.753 9.40022 108.945 10.0482 109.137 10.7202C107.217 10.8162 105.441 10.9362 103.785 11.0802C103.785 11.5602 103.809 12.0162 103.857 12.4722C105.777 12.4242 107.673 12.3522 109.569 12.2082C110.001 13.7202 110.481 15.2802 111.057 16.8642C110.529 17.3922 110.025 17.9442 109.497 18.4962C109.737 18.9282 110.097 19.2642 110.529 19.5522C110.913 19.2162 111.273 18.8802 111.633 18.5442C111.873 19.3122 112.161 20.1042 112.497 20.9202C113.529 20.7762 114.417 20.4882 115.137 20.0322C115.041 19.5762 114.921 19.1682 114.777 18.8322C114.297 19.0242 113.889 19.2162 113.529 19.3602C113.289 18.6882 113.073 18.0162 112.881 17.3202C113.385 16.7922 113.865 16.2402 114.345 15.6642C114.009 15.3282 113.649 14.9922 113.265 14.6802C112.977 14.9682 112.665 15.2562 112.329 15.5922C111.969 14.4402 111.609 13.2642 111.249 12.0642C111.705 12.0642 112.161 12.0162 112.641 11.9682C112.665 11.8242 112.689 11.5842 112.689 11.2242C112.689 10.9602 112.641 10.7442 112.593 10.5522ZM113.241 7.55222C112.737 7.81622 112.305 8.10422 111.945 8.39222C112.233 9.16022 112.617 9.85622 113.073 10.5282C113.577 10.2882 114.009 10.0002 114.369 9.66422C114.033 8.89622 113.673 8.20022 113.241 7.55222ZM106.185 15.2802C106.137 15.7122 106.137 16.1202 106.137 16.5522C107.097 16.8642 108.153 17.0082 109.305 17.0082C109.377 16.5522 109.425 16.1202 109.425 15.7122C108.321 15.4962 107.241 15.3522 106.185 15.2802ZM104.433 13.1682C103.689 16.0722 103.185 18.7362 102.897 21.1842C103.065 21.2802 103.281 21.3522 103.521 21.4002C104.145 21.4962 104.457 21.5442 104.457 21.5442C104.985 19.0962 105.441 16.4082 105.825 13.5282C105.345 13.3602 104.889 13.2402 104.433 13.1682ZM109.593 18.8802C108.153 18.8802 106.809 19.0722 105.585 19.4082C105.657 21.3282 105.849 22.7202 106.185 23.5842C107.529 23.5362 108.777 23.3682 109.905 23.0562C109.905 21.6162 109.785 20.2242 109.593 18.8802ZM107.433 22.2402L107.145 20.4642L108.225 20.2482L108.489 21.9762L107.433 22.2402ZM134.505 14.1282C136.185 14.7282 138.081 15.2562 140.217 15.7362C140.577 15.3042 140.865 14.8962 141.057 14.4882C139.329 13.8882 137.601 13.3362 135.849 12.8082C138.057 10.6002 139.185 9.25622 139.185 8.72822C136.641 8.10422 134.121 7.67222 131.577 7.48022C132.057 7.00022 132.561 6.52022 133.041 5.99222C132.657 5.65622 132.249 5.36822 131.817 5.10422C131.073 5.68022 129.945 6.71222 128.409 8.15222C127.257 9.25622 126.081 10.4082 124.905 11.5842C125.217 12.1122 125.625 12.4482 126.129 12.6162C126.753 12.2802 127.953 11.1762 129.681 9.35222C129.825 9.20822 130.017 9.04022 130.209 8.82422C132.465 9.20822 134.601 9.56822 136.569 9.95222C135.057 11.3442 133.089 13.2402 130.641 15.5922C131.073 15.9762 131.529 16.2882 132.009 16.4802C132.921 15.6402 133.737 14.8482 134.505 14.1282ZM128.649 16.6722C128.145 16.8402 127.617 17.0562 127.065 17.3202C127.401 18.5682 127.857 19.7442 128.433 20.8962C128.985 20.8002 129.489 20.5602 129.945 20.2242C129.777 19.6962 129.585 19.1442 129.369 18.5442C129.129 17.9202 128.889 17.2962 128.649 16.6722ZM134.265 16.0722C132.993 19.3362 132.105 22.1442 131.625 24.5442C132.057 24.7842 132.537 24.9762 133.113 25.0722C133.281 24.5442 133.449 24.0162 133.617 23.5122C134.721 23.8962 135.873 24.2562 137.121 24.5682C137.337 24.1362 137.505 23.6562 137.649 23.1762C136.497 22.7682 135.321 22.4082 134.097 22.0242C134.961 19.3362 135.537 17.5362 135.849 16.5762C135.417 16.3122 134.889 16.1442 134.265 16.0722ZM139.833 17.6322C139.089 18.5922 138.537 19.5042 138.153 20.3682C138.441 20.7522 138.873 20.9922 139.425 21.1122C140.217 20.2002 140.841 19.3362 141.273 18.4722C140.913 18.0642 140.433 17.7762 139.833 17.6322ZM154.041 7.28822C153.825 7.72022 153.657 8.20022 153.537 8.72822C154.713 9.54422 156.057 10.0002 157.569 10.0962C157.833 9.66422 158.025 9.20822 158.169 8.68022C156.681 7.91222 155.289 7.45622 154.041 7.28822ZM152.601 14.7042C152.505 15.2802 152.457 15.8322 152.457 16.3602C153.081 16.4802 153.705 16.5522 154.329 16.5762C154.953 16.6722 155.577 16.6962 156.201 16.6962C156.273 16.5282 156.321 16.2402 156.369 15.8562C156.417 15.6162 156.441 15.3762 156.489 15.0882C155.241 14.9202 153.945 14.8002 152.601 14.7042ZM156.705 20.7282C155.625 21.1602 154.569 21.7362 153.537 22.5042C153.705 22.9362 153.969 23.3682 154.329 23.8242C155.409 23.5362 156.441 22.9842 157.425 22.1202C157.281 21.6642 157.041 21.2082 156.705 20.7282ZM163.929 16.6242C163.857 16.8642 163.833 17.0802 163.833 17.3202C163.833 17.4882 163.857 17.7282 163.929 18.0162C164.553 18.2082 165.153 18.2802 165.729 18.2802C166.425 18.3282 167.193 18.4002 168.033 18.4482C168.081 19.6482 168.129 20.8242 168.177 21.9762C167.409 22.0722 166.545 22.1202 165.633 22.1202C164.577 22.1202 163.569 22.0722 162.609 21.9762C162.609 20.3682 162.513 18.8322 162.345 17.3442C162.177 17.3202 161.913 17.2962 161.553 17.2962C161.193 17.3442 160.905 17.3922 160.689 17.4402C160.689 18.2082 160.737 19.1442 160.833 20.2722C160.905 21.6642 161.025 22.6482 161.217 23.2722C162.009 23.5122 163.473 23.6322 165.633 23.6322C167.649 23.6322 169.065 23.5122 169.857 23.2722C169.905 22.7442 169.953 21.5922 169.953 19.7922C169.953 18.9042 169.857 17.9922 169.713 17.0322C168.249 16.7682 166.329 16.6242 163.929 16.6242ZM162.753 6.66422C161.361 8.80022 160.065 11.2962 158.913 14.1282C161.961 14.6802 165.033 14.9442 168.129 14.9442C168.273 14.4882 168.345 14.0322 168.345 13.5522C165.921 13.4082 163.545 13.1922 161.241 12.8562C162.225 10.9842 163.257 9.11222 164.313 7.24022C163.809 7.00022 163.281 6.80822 162.753 6.66422ZM169.713 9.52022C169.281 9.64022 168.825 9.80822 168.345 10.0482C168.849 11.4402 169.545 12.7842 170.409 14.0802C170.889 13.9842 171.345 13.7922 171.729 13.5042C171.489 12.9042 171.201 12.2562 170.841 11.5842C170.505 10.9122 170.145 10.2162 169.713 9.52022ZM191.313 18.9282C192.177 19.0242 193.281 19.0722 194.625 19.0722C194.721 18.7842 194.793 18.4722 194.793 18.1362C193.545 18.0402 192.369 17.9682 191.313 17.9202V16.7922C191.121 16.7442 190.881 16.6962 190.641 16.6962C190.497 16.6962 190.353 16.7202 190.209 16.7202C190.641 16.1922 191.145 15.5922 191.673 14.9202C192.177 14.3202 192.681 13.7202 193.209 13.0962C195.225 13.1922 197.265 13.2162 199.377 13.2162C199.449 12.7602 199.497 12.3042 199.497 11.8722C197.697 11.7762 195.993 11.7042 194.361 11.6562C194.553 11.4162 194.769 11.1282 194.985 10.8402C194.553 10.5042 194.097 10.2162 193.569 9.97622C193.089 10.5042 192.633 11.0322 192.153 11.5842C190.785 11.5602 189.489 11.5362 188.265 11.5362C188.241 11.7282 188.241 11.9442 188.241 12.1362V12.8322C189.105 12.9042 189.993 12.9522 190.905 13.0002C190.569 13.3842 190.209 13.7922 189.849 14.2242C189.801 14.2722 189.777 14.3202 189.729 14.3682C189.009 13.8882 188.313 13.5042 187.641 13.1682C187.401 13.4802 187.137 13.8642 186.897 14.2962C187.497 14.7762 188.121 15.1842 188.793 15.4962C187.761 16.6962 187.017 17.5842 186.585 18.1602C186.849 18.6402 187.329 19.0002 188.001 19.1922C188.241 18.9762 188.505 18.7362 188.745 18.4482C188.985 18.1842 189.273 17.8722 189.561 17.4882C189.585 17.4402 189.633 17.3922 189.705 17.3202C189.657 17.5602 189.633 17.8242 189.633 18.0882C189.633 19.0722 189.681 19.8882 189.801 20.5362C190.377 20.7762 191.265 20.8962 192.465 20.9202C192.537 21.6882 192.681 22.5522 192.897 23.5362C192.537 23.5362 192.201 23.5602 191.865 23.5602C191.865 23.9442 191.913 24.3042 192.009 24.6162C192.417 24.6642 192.969 24.7122 193.641 24.7122C194.073 24.7122 194.409 24.6402 194.673 24.5442C194.481 22.9602 194.289 21.7842 194.097 20.9442C195.465 20.9442 196.449 20.8722 197.025 20.7282C197.145 20.5122 197.217 19.6242 197.217 18.0882C197.217 17.8242 197.193 17.5602 197.193 17.2962C197.817 17.7522 198.465 18.1602 199.137 18.5202C199.521 18.2322 199.833 17.9682 200.097 17.6802C199.473 17.0562 198.801 16.4562 198.081 15.8802C198.657 15.3282 199.137 14.7762 199.521 14.2242C199.233 13.8882 198.825 13.6482 198.321 13.5282C197.817 14.0082 197.385 14.5122 197.025 15.0162C196.353 14.4882 195.633 14.0082 194.913 13.5282C194.553 13.7442 194.217 14.0082 193.929 14.3202C194.553 15.0162 195.201 15.6642 195.897 16.2642C194.745 16.2162 193.521 16.1922 192.177 16.1922C192.129 16.3362 192.105 16.4802 192.105 16.6722C192.105 16.9602 192.129 17.1522 192.177 17.2722C193.233 17.3922 194.385 17.4402 195.681 17.4402C195.705 17.6802 195.729 17.8962 195.729 18.0882C195.729 18.7122 195.681 19.2402 195.633 19.6242C195.321 19.6482 194.577 19.6482 193.401 19.6482C192.273 19.6482 191.577 19.6242 191.313 19.5282V18.9282ZM189.297 21.4962C188.289 22.3602 187.545 23.1762 187.041 23.9922C187.281 24.3522 187.689 24.5922 188.217 24.6882C189.273 23.8482 190.089 23.0322 190.665 22.2642C190.329 21.8802 189.873 21.6402 189.297 21.4962ZM196.713 21.3762C196.449 21.7122 196.185 22.0962 195.921 22.5282C196.929 23.2002 198.009 23.7522 199.185 24.1362C199.473 23.7042 199.713 23.3202 199.881 22.9602C198.753 22.3122 197.697 21.7842 196.713 21.3762ZM183.921 7.45622C183.777 7.93622 183.729 8.48822 183.729 9.08822C188.625 9.35222 193.665 9.47222 198.801 9.47222C198.897 8.94422 198.945 8.41622 198.945 7.86422C196.881 7.76822 194.769 7.67222 192.657 7.60022C192.705 6.88022 192.753 6.20822 192.753 5.58422C192.465 5.51222 192.201 5.46422 191.913 5.46422C191.577 5.46422 191.265 5.48822 191.025 5.51222C190.929 5.99222 190.857 6.68822 190.833 7.55222C188.553 7.50422 186.249 7.45622 183.921 7.45622ZM184.377 10.4802C184.209 11.4402 184.065 12.3762 183.921 13.3362C183.009 13.3842 182.145 13.4562 181.281 13.5282C181.281 14.0082 181.329 14.4882 181.425 14.9202C182.145 14.9202 182.913 14.8962 183.705 14.8242C183.561 15.7842 183.441 16.7442 183.345 17.7042C182.529 17.6082 181.761 17.5362 181.065 17.5362C180.945 17.9682 180.897 18.3762 180.897 18.7842C181.449 18.9762 182.193 19.0722 183.153 19.0962C183.033 20.1282 182.913 21.1602 182.817 22.1922C183.297 22.2642 183.825 22.3362 184.353 22.3842C185.049 18.4962 185.577 14.5842 185.937 10.6002C185.457 10.5522 184.953 10.5282 184.377 10.4802ZM210.225 8.82422C210.129 9.25622 210.105 9.71222 210.105 10.2162C211.689 10.5522 213.249 10.9122 214.809 11.2962C214.089 12.6882 213.417 14.0802 212.745 15.4722C213.273 16.6962 213.705 17.9202 214.089 19.1202C213.345 19.1202 212.601 19.0722 211.857 19.0242C211.665 18.2562 211.425 17.4642 211.137 16.6482C210.657 16.6962 210.201 16.7922 209.769 16.9362C209.961 18.8082 210.393 20.6562 211.041 22.4802C211.521 22.4802 212.025 22.3842 212.505 22.1922C212.409 21.6402 212.313 21.0642 212.193 20.4882C212.793 20.5362 213.489 20.5602 214.305 20.5602C214.785 20.5602 215.169 20.5122 215.457 20.4162C215.457 18.3762 215.073 16.7682 214.305 15.5922C215.457 13.8642 216.417 12.0882 217.137 10.2162C214.785 9.47222 212.481 9.01622 210.225 8.82422ZM218.745 8.15222C218.457 8.15222 218.193 8.17622 217.977 8.20022C217.809 9.13622 217.737 10.5282 217.737 12.3522C217.881 12.4722 218.097 12.5202 218.433 12.5202C218.769 12.5202 219.033 12.4962 219.201 12.4482C219.345 10.9122 219.441 9.54422 219.441 8.29622C219.201 8.20022 218.985 8.15222 218.745 8.15222ZM220.065 8.46422C220.017 8.68022 220.017 8.87222 220.017 9.06422C220.017 9.35222 220.041 9.59222 220.089 9.76022C222.585 9.90422 225.057 9.95222 227.529 9.95222C227.601 11.0562 227.673 11.8482 227.769 12.3522C228.105 12.4002 228.369 12.4002 228.585 12.4002C228.873 12.4002 229.113 12.3762 229.281 12.3042C229.281 11.1282 229.233 9.90422 229.137 8.63222C227.697 8.58422 226.257 8.53622 224.793 8.51222C224.745 7.72022 224.673 6.95222 224.553 6.20822C224.409 6.16022 224.145 6.11222 223.785 6.11222C223.425 6.16022 223.161 6.23222 223.017 6.32822C223.041 7.04822 223.113 7.76822 223.209 8.48822C222.153 8.48822 221.121 8.46422 220.065 8.46422ZM220.161 12.2082C220.113 12.6402 220.113 13.0722 220.113 13.5282C222.129 13.8402 224.337 13.9842 226.689 13.9842C226.785 13.5042 226.833 13.0722 226.833 12.6402C224.529 12.4242 222.321 12.2802 220.161 12.2082ZM228.201 16.2162C226.593 16.2642 225.009 16.3122 223.449 16.4082C221.865 16.4802 220.281 16.5522 218.745 16.6482C218.745 17.1762 218.769 17.6562 218.865 18.1362C222.033 18.0402 225.177 17.8722 228.273 17.6322V16.9122C228.273 16.6722 228.249 16.4322 228.201 16.2162ZM226.473 19.4802C225.897 19.5282 225.417 19.5522 224.985 19.6002C224.985 21.0162 225.105 22.4322 225.393 23.8482C225.993 23.8722 226.473 23.8962 226.833 23.8962C227.889 23.8962 228.441 23.8482 228.489 23.8002V23.1282C228.489 22.8642 228.441 22.6482 228.393 22.4562C227.649 22.4562 227.097 22.4562 226.761 22.4322C226.665 21.4482 226.569 20.4642 226.473 19.4802ZM220.809 19.4082C220.329 20.6562 219.921 22.1202 219.609 23.8002C219.969 24.0402 220.449 24.1842 221.073 24.1842C221.385 23.3682 221.793 21.9282 222.273 19.8402C221.865 19.6002 221.385 19.4562 220.809 19.4082Z" fill="white"/>
<path d="M42.9316 38.7558C42.9316 38.2278 42.9076 37.4118 42.8596 36.3078C42.8116 35.1798 42.7396 34.5078 42.6556 34.2918C42.6436 34.2678 42.5236 34.2438 42.2956 34.2438C42.1276 34.2678 41.9956 34.2918 41.9116 34.3278C41.9116 34.9638 41.9476 35.9718 42.0436 37.3518C41.4196 38.0478 40.7956 38.3958 40.1836 38.3958C39.7276 38.3958 39.3556 38.2518 39.0556 37.9398C38.7436 37.6038 38.5996 37.1958 38.5996 36.7158C38.5996 36.1758 38.7676 35.7318 39.1156 35.3958C39.4516 35.0958 39.7996 34.9398 40.1716 34.9278C40.5796 34.9278 40.9756 35.0958 41.3476 35.4198C41.5156 35.2998 41.6356 35.1318 41.7076 34.8918C41.3236 34.3878 40.8076 34.1358 40.1716 34.1358C39.5356 34.1478 38.9836 34.3518 38.5276 34.7598C37.9996 35.2638 37.7356 35.9238 37.7356 36.7158C37.7356 37.4838 37.9876 38.1198 38.5156 38.6118C38.9716 38.9958 39.5236 39.1758 40.1716 39.1758C40.8436 39.1758 41.4916 38.8638 42.1156 38.2158C42.1156 38.3718 42.1396 38.6718 42.2116 39.1278C42.3796 39.1278 42.6196 39.1278 42.9196 39.1158C42.9196 38.9838 42.9316 38.8638 42.9316 38.7558ZM49.0747 38.2158C48.8947 37.8918 48.7507 37.7118 48.6427 37.6878C47.9947 38.1678 47.4187 38.4078 46.9027 38.4078C46.5427 38.4078 46.1827 38.2758 45.8107 38.0118C45.4147 37.6758 45.2227 37.2318 45.2227 36.6798C45.2587 35.5998 45.8227 34.9998 46.9027 34.8918C47.5987 34.9038 48.1507 35.1198 48.5467 35.5518C48.6187 35.5278 48.7027 35.4798 48.7987 35.3838C48.8227 35.3718 48.8827 35.2998 49.0027 35.1558C48.8107 34.8198 48.5107 34.5558 48.1027 34.3638C47.7307 34.1958 47.3347 34.1118 46.9027 34.1118C45.2587 34.2318 44.4187 35.0838 44.3707 36.6678C44.3707 37.4838 44.6467 38.1198 45.2107 38.5878C45.7267 38.9958 46.3027 39.1998 46.9387 39.1998C47.7067 39.1998 48.4267 38.8758 49.0747 38.2158ZM55.5233 38.9598C55.4993 38.7558 55.4273 38.0238 55.2833 36.7758C55.1033 35.3478 54.9593 34.4718 54.8393 34.1358C54.5273 34.1478 54.2873 34.1958 54.1433 34.2918C54.1793 34.7838 54.2993 35.8518 54.5033 37.4838C53.9513 38.0958 53.3513 38.3958 52.6793 38.3958C52.1273 38.3958 51.7193 38.2398 51.4793 37.9038C51.2753 37.6638 51.1793 37.2678 51.1793 36.7398C51.1793 36.2118 51.2993 35.4078 51.5513 34.3518C51.3713 34.2318 51.1433 34.1598 50.8673 34.1358C50.5073 35.2518 50.3393 36.1398 50.3393 36.7998C50.3393 37.5318 50.5073 38.0838 50.8193 38.4678C51.1793 38.9598 51.8033 39.1998 52.6673 39.1998C53.4353 39.1878 54.0953 38.8758 54.6593 38.2518C54.7073 38.5878 54.7673 38.8638 54.8153 39.0918C55.0073 39.0918 55.2473 39.0558 55.5233 38.9598ZM61.8616 36.8478C61.8616 35.8758 61.4176 35.1318 60.5296 34.6278C59.8816 34.3038 59.1376 34.1358 58.2976 34.1358C58.2736 34.3038 58.2616 34.4358 58.2616 34.5078C58.2616 34.5798 58.2616 34.6998 58.2736 34.8678C58.8976 34.9158 59.4376 35.0358 59.9056 35.2278C60.6496 35.6118 61.0216 36.1398 61.0216 36.8358C61.0216 37.8438 60.4816 38.3718 59.4016 38.4078C59.0416 38.4078 58.6936 38.3598 58.3336 38.2518C58.2856 38.4438 58.2616 38.5638 58.2616 38.6118C58.2376 38.7798 58.2376 38.8878 58.2376 38.9478C58.5976 39.1158 58.9936 39.1878 59.4256 39.1878C61.0456 39.1878 61.8616 38.4078 61.8616 36.8478ZM57.7936 37.8078C57.7936 36.5358 57.7816 35.3238 57.7696 34.1838C57.5896 34.1478 57.4696 34.1238 57.3976 34.1238L57.0376 34.1358C56.9416 34.9758 56.9056 36.0918 56.9056 37.4838C56.9056 38.8758 56.9176 40.1718 56.9656 41.4078C57.1096 41.4318 57.2416 41.4558 57.3496 41.4558C57.4096 41.4558 57.5296 41.4438 57.7096 41.4318C57.7576 40.2558 57.7936 39.0558 57.7936 37.8078ZM68.4304 38.9598C68.4064 38.7558 68.3344 38.0238 68.1904 36.7758C68.0104 35.3478 67.8664 34.4718 67.7464 34.1358C67.4344 34.1478 67.1944 34.1958 67.0504 34.2918C67.0864 34.7838 67.2064 35.8518 67.4104 37.4838C66.8584 38.0958 66.2584 38.3958 65.5864 38.3958C65.0344 38.3958 64.6264 38.2398 64.3864 37.9038C64.1824 37.6638 64.0864 37.2678 64.0864 36.7398C64.0864 36.2118 64.2064 35.4078 64.4584 34.3518C64.2784 34.2318 64.0504 34.1598 63.7744 34.1358C63.4144 35.2518 63.2464 36.1398 63.2464 36.7998C63.2464 37.5318 63.4144 38.0838 63.7264 38.4678C64.0864 38.9598 64.7104 39.1998 65.5744 39.1998C66.3424 39.1878 67.0024 38.8758 67.5664 38.2518C67.6144 38.5878 67.6744 38.8638 67.7224 39.0918C67.9144 39.0918 68.1544 39.0558 68.4304 38.9598ZM75.1766 36.3798C75.1766 35.7798 75.0086 35.2518 74.6726 34.8198C74.2766 34.3638 73.7726 34.1238 73.1726 34.1238C72.3806 34.1478 71.7446 34.3758 71.2526 34.8198C71.2526 35.0958 71.3606 35.3118 71.5766 35.4558C72.1766 35.1438 72.6686 34.9758 73.0766 34.9518C73.4246 34.9518 73.7246 35.0838 73.9766 35.3358C74.1926 35.5758 74.3006 35.9478 74.3006 36.4518C74.3006 36.9558 74.1926 37.8078 73.9886 38.9958C74.1326 39.1038 74.3726 39.1638 74.7326 39.1638C75.0086 38.5158 75.1526 37.5918 75.1766 36.3798ZM70.9046 38.7198C70.9046 38.0718 70.8686 37.1838 70.8206 36.0318C70.7726 35.0718 70.7366 34.4598 70.7006 34.1718C70.5326 34.1478 70.4006 34.1358 70.3286 34.1358C70.2086 34.1358 70.0766 34.1598 69.9326 34.1958C69.9326 34.7478 69.9326 35.3838 69.9566 36.1038C69.9926 37.9038 70.0526 38.9118 70.1246 39.1398C70.2206 39.1758 70.3526 39.1878 70.5206 39.1878C70.6766 39.1878 70.7966 39.1638 70.8926 39.1158C70.8926 39.0918 70.9046 38.9598 70.9046 38.7198ZM81.3247 38.2158C81.1447 37.8918 81.0007 37.7118 80.8927 37.6878C80.2447 38.1678 79.6687 38.4078 79.1527 38.4078C78.7927 38.4078 78.4327 38.2758 78.0607 38.0118C77.6647 37.6758 77.4727 37.2318 77.4727 36.6798C77.5087 35.5998 78.0727 34.9998 79.1527 34.8918C79.8487 34.9038 80.4007 35.1198 80.7967 35.5518C80.8687 35.5278 80.9527 35.4798 81.0487 35.3838C81.0727 35.3718 81.1327 35.2998 81.2527 35.1558C81.0607 34.8198 80.7607 34.5558 80.3527 34.3638C79.9807 34.1958 79.5847 34.1118 79.1527 34.1118C77.5087 34.2318 76.6687 35.0838 76.6207 36.6678C76.6207 37.4838 76.8967 38.1198 77.4607 38.5878C77.9767 38.9958 78.5527 39.1998 79.1887 39.1998C79.9567 39.1998 80.6767 38.8758 81.3247 38.2158ZM84.6773 31.4838C84.3293 31.4598 84.0653 31.4358 83.8973 31.4358C83.8133 32.2998 83.7413 33.2118 83.6693 34.1838C83.2853 34.1838 82.8773 34.2078 82.4453 34.2438C82.4213 34.3398 82.4093 34.4478 82.4093 34.5798C82.4093 34.7478 82.4213 34.8558 82.4453 34.9158C82.8053 34.9758 83.1893 35.0118 83.6093 35.0118C83.5133 36.5118 83.4773 37.6158 83.4773 38.3118C83.4773 38.5878 83.5253 38.7918 83.6213 38.9238C83.7413 39.1038 83.9693 39.1878 84.2813 39.1878C84.8333 39.1878 85.3373 39.0798 85.7813 38.8398C85.7813 38.7198 85.7933 38.6358 85.7933 38.5878C85.7813 38.4318 85.7573 38.3118 85.7093 38.2278C85.5053 38.2518 85.2533 38.2998 84.9653 38.3598C84.7493 38.3838 84.6173 38.3958 84.5813 38.3958C84.4373 38.3958 84.3773 38.3358 84.3773 38.2158C84.3773 37.7598 84.4253 36.7038 84.4973 35.0358C84.9053 35.0358 85.2773 35.0358 85.6373 35.0118C85.9853 34.9878 86.2013 34.9638 86.2733 34.9398C86.2853 34.8678 86.2973 34.7598 86.2973 34.6158C86.2853 34.5078 86.2733 34.3998 86.2733 34.2918C85.9373 34.2318 85.3613 34.1958 84.5693 34.1958C84.6053 33.3078 84.6413 32.4078 84.6773 31.4838ZM92.7444 38.9598C92.7204 38.7558 92.6484 38.0238 92.5044 36.7758C92.3244 35.3478 92.1804 34.4718 92.0604 34.1358C91.7484 34.1478 91.5084 34.1958 91.3644 34.2918C91.4004 34.7838 91.5204 35.8518 91.7244 37.4838C91.1724 38.0958 90.5724 38.3958 89.9004 38.3958C89.3484 38.3958 88.9404 38.2398 88.7004 37.9038C88.4964 37.6638 88.4004 37.2678 88.4004 36.7398C88.4004 36.2118 88.5204 35.4078 88.7724 34.3518C88.5924 34.2318 88.3644 34.1598 88.0884 34.1358C87.7284 35.2518 87.5604 36.1398 87.5604 36.7998C87.5604 37.5318 87.7284 38.0838 88.0404 38.4678C88.4004 38.9598 89.0244 39.1998 89.8884 39.1998C90.6564 39.1878 91.3164 38.8758 91.8804 38.2518C91.9284 38.5878 91.9884 38.8638 92.0364 39.0918C92.2284 39.0918 92.4684 39.0558 92.7444 38.9598ZM98.2547 34.2918C97.8947 34.1958 97.5467 34.1358 97.1987 34.1358C96.4067 34.1358 95.6747 34.3998 94.9907 34.9278L94.8947 34.1598C94.7387 34.1478 94.6307 34.1358 94.5587 34.1358C94.4627 34.1358 94.3187 34.1598 94.1267 34.1838C94.1267 34.8558 94.1627 35.7078 94.2347 36.7278C94.3307 37.9278 94.4267 38.7438 94.5347 39.1998C94.9307 39.1998 95.1707 39.1758 95.2547 39.1278C95.2547 39.0798 95.2667 38.9718 95.2667 38.8038C95.2667 38.5158 95.1947 37.4958 95.0507 35.7198C95.7947 35.1918 96.5867 34.9158 97.4267 34.9158C97.5947 34.9158 97.8467 34.9398 98.1827 34.9758C98.2307 34.8438 98.2547 34.6158 98.2547 34.2918ZM104.594 36.5118C104.582 35.8038 104.33 35.2158 103.85 34.7358C103.394 34.3158 102.794 34.0998 102.026 34.0998C101.222 34.0998 100.55 34.4118 100.022 35.0238C99.6382 35.4918 99.4582 36.0918 99.4582 36.8358C99.4582 37.5078 99.6742 38.0718 100.118 38.5038C100.622 38.9598 101.33 39.1878 102.218 39.1998C102.77 39.1998 103.298 39.0558 103.814 38.7558C103.766 38.4798 103.694 38.2638 103.574 38.1078C103.13 38.3118 102.686 38.4078 102.254 38.4078C101.294 38.4078 100.682 38.0478 100.418 37.3038C102.65 37.2078 104.03 37.0758 104.534 36.8958C104.57 36.8838 104.594 36.7518 104.594 36.5118ZM103.706 36.3318C101.858 36.4878 100.742 36.5838 100.346 36.6078C100.382 36.1038 100.538 35.7078 100.826 35.4078C101.174 35.0478 101.582 34.8678 102.038 34.8678C102.65 34.8678 103.118 35.0838 103.43 35.4918C103.598 35.7558 103.694 36.0438 103.706 36.3318ZM115.71 38.7558C115.71 38.2278 115.686 37.4118 115.638 36.3078C115.59 35.1798 115.518 34.5078 115.434 34.2918C115.422 34.2678 115.302 34.2438 115.074 34.2438C114.906 34.2678 114.774 34.2918 114.69 34.3278C114.69 34.9638 114.726 35.9718 114.822 37.3518C114.198 38.0478 113.574 38.3958 112.962 38.3958C112.506 38.3958 112.134 38.2518 111.834 37.9398C111.522 37.6038 111.378 37.1958 111.378 36.7158C111.378 36.1758 111.546 35.7318 111.894 35.3958C112.23 35.0958 112.578 34.9398 112.95 34.9278C113.358 34.9278 113.754 35.0958 114.126 35.4198C114.294 35.2998 114.414 35.1318 114.486 34.8918C114.102 34.3878 113.586 34.1358 112.95 34.1358C112.314 34.1478 111.762 34.3518 111.306 34.7598C110.778 35.2638 110.514 35.9238 110.514 36.7158C110.514 37.4838 110.766 38.1198 111.294 38.6118C111.75 38.9958 112.302 39.1758 112.95 39.1758C113.622 39.1758 114.27 38.8638 114.894 38.2158C114.894 38.3718 114.918 38.6718 114.99 39.1278C115.158 39.1278 115.398 39.1278 115.698 39.1158C115.698 38.9838 115.71 38.8638 115.71 38.7558ZM122.633 36.3798C122.633 35.7798 122.465 35.2518 122.129 34.8198C121.733 34.3638 121.229 34.1238 120.629 34.1238C119.837 34.1478 119.201 34.3758 118.709 34.8198C118.709 35.0958 118.817 35.3118 119.033 35.4558C119.633 35.1438 120.125 34.9758 120.533 34.9518C120.881 34.9518 121.181 35.0838 121.433 35.3358C121.649 35.5758 121.757 35.9478 121.757 36.4518C121.757 36.9558 121.649 37.8078 121.445 38.9958C121.589 39.1038 121.829 39.1638 122.189 39.1638C122.465 38.5158 122.609 37.5918 122.633 36.3798ZM118.361 38.7198C118.361 38.0718 118.325 37.1838 118.277 36.0318C118.229 35.0718 118.193 34.4598 118.157 34.1718C117.989 34.1478 117.857 34.1358 117.785 34.1358C117.665 34.1358 117.533 34.1598 117.389 34.1958C117.389 34.7478 117.389 35.3838 117.413 36.1038C117.449 37.9038 117.509 38.9118 117.581 39.1398C117.677 39.1758 117.809 39.1878 117.977 39.1878C118.133 39.1878 118.253 39.1638 118.349 39.1158C118.349 39.0918 118.361 38.9598 118.361 38.7198ZM124.077 36.7038C124.137 38.3238 124.965 39.1518 126.573 39.1878C127.089 39.1878 127.581 39.0198 128.037 38.6598C127.989 38.4678 127.953 38.3358 127.929 38.2638C127.905 38.1798 127.845 38.0958 127.773 37.9998C127.245 38.2398 126.837 38.3598 126.573 38.3598C125.505 38.3478 124.965 37.7838 124.953 36.6558C125.001 35.5398 125.529 34.9638 126.513 34.9278C126.897 34.9518 127.341 35.0598 127.845 35.2758C127.989 35.0598 128.073 34.8438 128.073 34.6518C127.641 34.3038 127.101 34.1238 126.477 34.1118C124.941 34.1838 124.137 35.0478 124.077 36.7038ZM129.441 35.6358C129.441 33.0198 129.405 31.5318 129.357 31.1718C129.189 31.1478 129.069 31.1358 128.985 31.1358C128.889 31.1358 128.769 31.1598 128.613 31.1838C128.553 31.3278 128.529 32.7438 128.529 35.4318C128.529 37.7478 128.565 38.9838 128.649 39.1398C128.721 39.1758 128.853 39.1878 129.033 39.1878C129.177 39.1878 129.297 39.1638 129.381 39.1158C129.417 38.7198 129.441 37.5558 129.441 35.6358ZM143.257 36.7158C143.257 36.1758 143.149 35.7318 142.933 35.3718C142.609 34.8918 142.177 34.6518 141.637 34.6518C141.109 34.6638 140.605 34.9758 140.101 35.5998C139.645 34.6278 139.081 34.1358 138.421 34.1238C137.869 34.1358 137.401 34.4238 136.993 34.9878C136.993 35.0718 137.029 35.1918 137.113 35.3358C137.197 35.4918 137.257 35.5878 137.293 35.6118C137.653 35.2038 138.013 34.9998 138.373 34.9998C138.889 35.0118 139.393 35.6118 139.873 36.7878C140.665 35.9598 141.253 35.5398 141.637 35.5278C141.865 35.5398 142.069 35.6718 142.237 35.9118C142.333 36.1278 142.393 36.3918 142.393 36.6918C142.393 37.0518 142.309 37.8198 142.141 39.0198C142.237 39.1278 142.453 39.1758 142.813 39.1758C142.885 39.1158 142.993 38.7558 143.125 38.1078C143.197 37.7478 143.245 37.2918 143.257 36.7158ZM136.849 39.0918V38.7318C136.849 38.1918 136.825 37.4118 136.789 36.4038C136.729 35.3478 136.669 34.6038 136.597 34.1718C136.513 34.1478 136.381 34.1358 136.189 34.1358C136.093 34.1358 135.973 34.1598 135.853 34.2078C135.841 34.3158 135.841 34.4238 135.841 34.5438C135.841 35.1318 135.853 35.8518 135.889 36.7158C135.937 37.9878 136.021 38.8038 136.129 39.1758C136.177 39.1758 136.309 39.1878 136.501 39.1878C136.645 39.1878 136.753 39.1638 136.849 39.0918ZM149.859 36.7638C149.859 35.9718 149.571 35.3358 149.007 34.8318C148.791 34.9158 148.623 35.0718 148.491 35.2998C148.851 35.7318 149.031 36.2118 149.031 36.7278C149.031 37.0158 148.947 37.2798 148.779 37.5318C148.587 37.7958 148.383 37.9998 148.167 38.1438C148.251 38.2878 148.311 38.3838 148.335 38.4318C148.359 38.4918 148.419 38.5878 148.515 38.7318C148.875 38.6118 149.199 38.3598 149.475 37.9758C149.727 37.6038 149.859 37.1958 149.859 36.7638ZM148.443 34.4478C148.107 34.2078 147.699 34.0878 147.219 34.0878C146.427 34.1118 145.779 34.3878 145.287 34.9278C144.855 35.4438 144.639 36.0438 144.639 36.7278C144.639 37.4118 144.867 38.0118 145.335 38.5158C145.791 38.9958 146.379 39.2238 147.111 39.2238C147.447 39.2238 147.735 39.1518 147.963 38.9958C147.939 38.7558 147.879 38.5518 147.759 38.3718C147.543 38.4438 147.327 38.4798 147.111 38.4798C146.655 38.4798 146.283 38.3118 145.971 37.9758C145.659 37.6158 145.515 37.1958 145.515 36.7398C145.515 36.2718 145.647 35.8638 145.923 35.5038C146.271 35.0718 146.703 34.8558 147.231 34.8438C147.531 34.8438 147.831 34.9278 148.143 35.0838C148.191 35.0358 148.239 34.9518 148.299 34.8318C148.383 34.7118 148.431 34.5918 148.443 34.4478ZM155.968 38.6358C155.176 37.9398 154.528 37.3398 154.012 36.8358C154.24 36.5958 154.624 36.1398 155.164 35.4798C155.548 34.9998 155.764 34.6998 155.8 34.5558C155.68 34.3758 155.512 34.2318 155.272 34.1358C154.816 34.5678 154.192 35.2518 153.388 36.1758C152.548 35.2158 151.96 34.5318 151.612 34.1358C151.396 34.1718 151.204 34.3038 151.06 34.5198C151.396 35.1438 151.96 35.9118 152.776 36.8358C152.164 37.6158 151.696 38.2518 151.384 38.7558C151.528 38.9838 151.708 39.1398 151.924 39.2118C152.524 38.5398 153.028 37.9758 153.436 37.5198C154.408 38.4318 155.116 38.9838 155.572 39.1878C155.644 39.1638 155.728 39.0798 155.848 38.9478C155.92 38.8278 155.968 38.7198 155.968 38.6358ZM158.935 31.5918C158.851 31.5198 158.671 31.4358 158.407 31.3158C158.143 31.2198 157.951 31.1598 157.843 31.1598C157.675 31.3998 157.567 31.6518 157.531 31.9158C157.579 31.9878 157.759 32.0838 158.047 32.1918C158.335 32.3118 158.539 32.3598 158.659 32.3598C158.827 32.0238 158.911 31.7598 158.935 31.5918ZM158.659 36.6918C158.659 35.2038 158.635 34.3878 158.587 34.2198C158.479 34.1718 158.347 34.1358 158.179 34.1358C157.987 34.1358 157.855 34.1598 157.771 34.1838C157.723 34.3278 157.699 35.0598 157.699 36.3918C157.699 38.0598 157.735 38.9838 157.831 39.1518C157.891 39.1758 158.023 39.1878 158.227 39.1878C158.395 39.1878 158.527 39.1638 158.623 39.1158C158.647 38.9718 158.659 38.1558 158.659 36.6918ZM166.126 36.7158C166.054 35.0718 165.322 34.2078 163.906 34.1358C163.234 34.1478 162.67 34.3398 162.214 34.6998C162.214 34.8918 162.286 35.1078 162.442 35.3238C162.934 35.0958 163.378 34.9758 163.774 34.9518C164.71 34.9878 165.214 35.5518 165.274 36.6558C165.25 37.7718 164.734 38.3358 163.714 38.3478C163.438 38.3478 163.042 38.2278 162.514 37.9878C162.43 38.0838 162.382 38.1678 162.358 38.2518C162.322 38.3238 162.286 38.4558 162.25 38.6478C162.73 39.0078 163.234 39.1758 163.75 39.1758C165.286 39.1518 166.078 38.3358 166.126 36.7158ZM161.83 38.1078C161.83 37.3278 161.806 36.1158 161.77 34.4718C161.734 32.3838 161.722 31.3038 161.722 31.2078C161.554 31.1718 161.422 31.1478 161.314 31.1478C161.242 31.1478 161.11 31.1598 160.942 31.1718C160.882 31.4478 160.858 32.5878 160.858 34.6038C160.858 37.3878 160.906 38.8998 161.014 39.1398C161.026 39.1638 161.158 39.1758 161.41 39.1758C161.506 39.1758 161.626 39.1518 161.794 39.1038C161.818 39.0558 161.83 38.7198 161.83 38.1078ZM172.685 38.9598C172.661 38.7558 172.589 38.0238 172.445 36.7758C172.265 35.3478 172.121 34.4718 172.001 34.1358C171.689 34.1478 171.449 34.1958 171.305 34.2918C171.341 34.7838 171.461 35.8518 171.665 37.4838C171.113 38.0958 170.513 38.3958 169.841 38.3958C169.289 38.3958 168.881 38.2398 168.641 37.9038C168.437 37.6638 168.341 37.2678 168.341 36.7398C168.341 36.2118 168.461 35.4078 168.713 34.3518C168.533 34.2318 168.305 34.1598 168.029 34.1358C167.669 35.2518 167.501 36.1398 167.501 36.7998C167.501 37.5318 167.669 38.0838 167.981 38.4678C168.341 38.9598 168.965 39.1998 169.829 39.1998C170.597 39.1878 171.257 38.8758 171.821 38.2518C171.869 38.5878 171.929 38.8638 171.977 39.0918C172.169 39.0918 172.409 39.0558 172.685 38.9598ZM178.255 34.8798C177.595 34.3638 176.827 34.0998 175.963 34.0758C175.375 34.0758 174.931 34.1718 174.631 34.3398C174.187 34.5798 173.959 34.9158 173.947 35.3598C173.947 35.9118 174.271 36.3198 174.943 36.6078C175.651 36.8958 176.059 37.0758 176.179 37.1238C176.587 37.3398 176.791 37.5918 176.791 37.8678C176.755 38.2518 176.467 38.4558 175.939 38.4558C175.483 38.4558 174.991 38.2398 174.475 37.7958C174.367 37.9038 174.295 37.9758 174.259 38.0118C174.163 38.1438 174.103 38.2518 174.079 38.3238C174.619 38.9238 175.231 39.2238 175.927 39.2238C177.019 39.1998 177.595 38.7678 177.667 37.8798C177.667 37.3518 177.379 36.9318 176.815 36.6318C176.623 36.5358 176.167 36.3318 175.471 36.0198C175.051 35.8518 174.847 35.6358 174.847 35.3718C174.847 34.9998 175.207 34.8078 175.939 34.8078C176.611 34.8078 177.259 35.0358 177.907 35.4678C178.003 35.4078 178.075 35.3238 178.135 35.2038C178.207 35.0718 178.255 34.9638 178.255 34.8798ZM181.605 31.4838C181.257 31.4598 180.993 31.4358 180.825 31.4358C180.741 32.2998 180.669 33.2118 180.597 34.1838C180.213 34.1838 179.805 34.2078 179.373 34.2438C179.349 34.3398 179.337 34.4478 179.337 34.5798C179.337 34.7478 179.349 34.8558 179.373 34.9158C179.733 34.9758 180.117 35.0118 180.537 35.0118C180.441 36.5118 180.405 37.6158 180.405 38.3118C180.405 38.5878 180.453 38.7918 180.549 38.9238C180.669 39.1038 180.897 39.1878 181.209 39.1878C181.761 39.1878 182.265 39.0798 182.709 38.8398C182.709 38.7198 182.721 38.6358 182.721 38.5878C182.709 38.4318 182.685 38.3118 182.637 38.2278C182.433 38.2518 182.181 38.2998 181.893 38.3598C181.677 38.3838 181.545 38.3958 181.509 38.3958C181.365 38.3958 181.305 38.3358 181.305 38.2158C181.305 37.7598 181.353 36.7038 181.425 35.0358C181.833 35.0358 182.205 35.0358 182.565 35.0118C182.913 34.9878 183.129 34.9638 183.201 34.9398C183.213 34.8678 183.225 34.7598 183.225 34.6158C183.213 34.5078 183.201 34.3998 183.201 34.2918C182.865 34.2318 182.289 34.1958 181.497 34.1958C181.533 33.3078 181.569 32.4078 181.605 31.4838ZM186.193 31.5918C186.109 31.5198 185.929 31.4358 185.665 31.3158C185.401 31.2198 185.209 31.1598 185.101 31.1598C184.933 31.3998 184.825 31.6518 184.789 31.9158C184.837 31.9878 185.017 32.0838 185.305 32.1918C185.593 32.3118 185.797 32.3598 185.917 32.3598C186.085 32.0238 186.169 31.7598 186.193 31.5918ZM185.917 36.6918C185.917 35.2038 185.893 34.3878 185.845 34.2198C185.737 34.1718 185.605 34.1358 185.437 34.1358C185.245 34.1358 185.113 34.1598 185.029 34.1838C184.981 34.3278 184.957 35.0598 184.957 36.3918C184.957 38.0598 184.993 38.9838 185.089 39.1518C185.149 39.1758 185.281 39.1878 185.485 39.1878C185.653 39.1878 185.785 39.1638 185.881 39.1158C185.905 38.9718 185.917 38.1558 185.917 36.6918ZM193.096 36.7638C193.096 35.9718 192.808 35.3358 192.244 34.8318C192.028 34.9158 191.86 35.0718 191.728 35.2998C192.088 35.7318 192.268 36.2118 192.268 36.7278C192.268 37.0158 192.184 37.2798 192.016 37.5318C191.824 37.7958 191.62 37.9998 191.404 38.1438C191.488 38.2878 191.548 38.3838 191.572 38.4318C191.596 38.4918 191.656 38.5878 191.752 38.7318C192.112 38.6118 192.436 38.3598 192.712 37.9758C192.964 37.6038 193.096 37.1958 193.096 36.7638ZM191.68 34.4478C191.344 34.2078 190.936 34.0878 190.456 34.0878C189.664 34.1118 189.016 34.3878 188.524 34.9278C188.092 35.4438 187.876 36.0438 187.876 36.7278C187.876 37.4118 188.104 38.0118 188.572 38.5158C189.028 38.9958 189.616 39.2238 190.348 39.2238C190.684 39.2238 190.972 39.1518 191.2 38.9958C191.176 38.7558 191.116 38.5518 190.996 38.3718C190.78 38.4438 190.564 38.4798 190.348 38.4798C189.892 38.4798 189.52 38.3118 189.208 37.9758C188.896 37.6158 188.752 37.1958 188.752 36.7398C188.752 36.2718 188.884 35.8638 189.16 35.5038C189.508 35.0718 189.94 34.8558 190.468 34.8438C190.768 34.8438 191.068 34.9278 191.38 35.0838C191.428 35.0358 191.476 34.9518 191.536 34.8318C191.62 34.7118 191.668 34.5918 191.68 34.4478ZM199.902 36.3798C199.902 35.7798 199.734 35.2518 199.398 34.8198C199.002 34.3638 198.498 34.1238 197.898 34.1238C197.106 34.1478 196.47 34.3758 195.978 34.8198C195.978 35.0958 196.086 35.3118 196.302 35.4558C196.902 35.1438 197.394 34.9758 197.802 34.9518C198.15 34.9518 198.45 35.0838 198.702 35.3358C198.918 35.5758 199.026 35.9478 199.026 36.4518C199.026 36.9558 198.918 37.8078 198.714 38.9958C198.858 39.1038 199.098 39.1638 199.458 39.1638C199.734 38.5158 199.878 37.5918 199.902 36.3798ZM195.63 38.7198C195.63 38.0718 195.594 37.1838 195.546 36.0318C195.498 35.0718 195.462 34.4598 195.426 34.1718C195.258 34.1478 195.126 34.1358 195.054 34.1358C194.934 34.1358 194.802 34.1598 194.658 34.1958C194.658 34.7478 194.658 35.3838 194.682 36.1038C194.718 37.9038 194.778 38.9118 194.85 39.1398C194.946 39.1758 195.078 39.1878 195.246 39.1878C195.402 39.1878 195.522 39.1638 195.618 39.1158C195.618 39.0918 195.63 38.9598 195.63 38.7198ZM210.646 38.2158C210.466 37.8918 210.322 37.7118 210.214 37.6878C209.566 38.1678 208.99 38.4078 208.474 38.4078C208.114 38.4078 207.754 38.2758 207.382 38.0118C206.986 37.6758 206.794 37.2318 206.794 36.6798C206.83 35.5998 207.394 34.9998 208.474 34.8918C209.17 34.9038 209.722 35.1198 210.118 35.5518C210.19 35.5278 210.274 35.4798 210.37 35.3838C210.394 35.3718 210.454 35.2998 210.574 35.1558C210.382 34.8198 210.082 34.5558 209.674 34.3638C209.302 34.1958 208.906 34.1118 208.474 34.1118C206.83 34.2318 205.99 35.0838 205.942 36.6678C205.942 37.4838 206.218 38.1198 206.782 38.5878C207.298 38.9958 207.874 39.1998 208.51 39.1998C209.278 39.1998 209.998 38.8758 210.646 38.2158ZM213.134 36.0438C213.134 33.2478 213.098 31.6398 213.038 31.2078C212.918 31.1598 212.798 31.1358 212.666 31.1358C212.474 31.1358 212.342 31.1598 212.27 31.1958C212.222 32.9598 212.21 34.3398 212.21 35.3478C212.21 37.6278 212.258 38.8998 212.366 39.1398C212.474 39.1758 212.594 39.1998 212.726 39.1998C212.846 39.1998 212.954 39.1758 213.074 39.1158C213.11 38.9958 213.134 37.9638 213.134 36.0438ZM216.582 31.5918C216.498 31.5198 216.318 31.4358 216.054 31.3158C215.79 31.2198 215.598 31.1598 215.49 31.1598C215.322 31.3998 215.214 31.6518 215.178 31.9158C215.226 31.9878 215.406 32.0838 215.694 32.1918C215.982 32.3118 216.186 32.3598 216.306 32.3598C216.474 32.0238 216.558 31.7598 216.582 31.5918ZM216.306 36.6918C216.306 35.2038 216.282 34.3878 216.234 34.2198C216.126 34.1718 215.994 34.1358 215.826 34.1358C215.634 34.1358 215.502 34.1598 215.418 34.1838C215.37 34.3278 215.346 35.0598 215.346 36.3918C215.346 38.0598 215.382 38.9838 215.478 39.1518C215.538 39.1758 215.67 39.1878 215.874 39.1878C216.042 39.1878 216.174 39.1638 216.27 39.1158C216.294 38.9718 216.306 38.1558 216.306 36.6918ZM223.749 36.3798C223.749 35.7798 223.581 35.2518 223.245 34.8198C222.849 34.3638 222.345 34.1238 221.745 34.1238C220.953 34.1478 220.317 34.3758 219.825 34.8198C219.825 35.0958 219.933 35.3118 220.149 35.4558C220.749 35.1438 221.241 34.9758 221.649 34.9518C221.997 34.9518 222.297 35.0838 222.549 35.3358C222.765 35.5758 222.873 35.9478 222.873 36.4518C222.873 36.9558 222.765 37.8078 222.561 38.9958C222.705 39.1038 222.945 39.1638 223.305 39.1638C223.581 38.5158 223.725 37.5918 223.749 36.3798ZM219.477 38.7198C219.477 38.0718 219.441 37.1838 219.393 36.0318C219.345 35.0718 219.309 34.4598 219.273 34.1718C219.105 34.1478 218.973 34.1358 218.901 34.1358C218.781 34.1358 218.649 34.1598 218.505 34.1958C218.505 34.7478 218.505 35.3838 218.529 36.1038C218.565 37.9038 218.625 38.9118 218.697 39.1398C218.793 39.1758 218.925 39.1878 219.093 39.1878C219.249 39.1878 219.369 39.1638 219.465 39.1158C219.465 39.0918 219.477 38.9598 219.477 38.7198ZM226.957 31.5918C226.873 31.5198 226.693 31.4358 226.429 31.3158C226.165 31.2198 225.973 31.1598 225.865 31.1598C225.697 31.3998 225.589 31.6518 225.553 31.9158C225.601 31.9878 225.781 32.0838 226.069 32.1918C226.357 32.3118 226.561 32.3598 226.681 32.3598C226.849 32.0238 226.933 31.7598 226.957 31.5918ZM226.681 36.6918C226.681 35.2038 226.657 34.3878 226.609 34.2198C226.501 34.1718 226.369 34.1358 226.201 34.1358C226.009 34.1358 225.877 34.1598 225.793 34.1838C225.745 34.3278 225.721 35.0598 225.721 36.3918C225.721 38.0598 225.757 38.9838 225.853 39.1518C225.913 39.1758 226.045 39.1878 226.249 39.1878C226.417 39.1878 226.549 39.1638 226.645 39.1158C226.669 38.9718 226.681 38.1558 226.681 36.6918ZM233.345 38.2158C233.165 37.8918 233.021 37.7118 232.913 37.6878C232.265 38.1678 231.689 38.4078 231.173 38.4078C230.813 38.4078 230.453 38.2758 230.081 38.0118C229.685 37.6758 229.493 37.2318 229.493 36.6798C229.529 35.5998 230.093 34.9998 231.173 34.8918C231.869 34.9038 232.421 35.1198 232.817 35.5518C232.889 35.5278 232.973 35.4798 233.069 35.3838C233.093 35.3718 233.153 35.2998 233.273 35.1558C233.081 34.8198 232.781 34.5558 232.373 34.3638C232.001 34.1958 231.605 34.1118 231.173 34.1118C229.529 34.2318 228.689 35.0838 228.641 36.6678C228.641 37.4838 228.917 38.1198 229.481 38.5878C229.997 38.9958 230.573 39.1998 231.209 39.1998C231.977 39.1998 232.697 38.8758 233.345 38.2158Z" fill="white" fill-opacity="0.85"/>
</svg>
